<svg width="68" height="54" viewBox="0 0 68 54" fill="none" xmlns="http://www.w3.org/2000/svg">
<g filter="url(#filter0_d_51_6765)">
<path d="M20.6369 10.356C20.6457 10.3564 20.6581 10.3595 20.6719 10.3655C20.7894 10.4165 21.2994 10.5078 21.6311 10.5379L22 10.5721L21.9763 11.0567C21.9632 11.3231 21.9582 11.6432 21.968 11.7708C21.9877 12.1302 21.9385 13.3003 21.9023 13.3317C21.8938 13.3391 21.887 13.3427 21.8814 13.3424C21.8703 13.3419 21.8634 13.3263 21.8562 13.294C21.85 13.2583 21.825 13.2267 21.8037 13.2256L21.8033 13.2257C21.7821 13.2245 21.7516 13.1978 21.7371 13.1667C21.7227 13.1355 21.6979 13.0963 21.6879 13.0831C21.6301 13.0119 21.5244 12.8292 21.4446 12.6629C21.3962 12.5616 21.3379 12.4446 21.316 12.4029C21.2748 12.3197 21.1794 12.0892 21.1376 11.9627C21.1211 11.9188 21.0903 11.7852 21.0695 11.6647C21.0461 11.5442 20.9889 11.3509 20.9464 11.2397C20.9012 11.1284 20.8188 10.906 20.765 10.7511C20.7114 10.5936 20.6573 10.4462 20.6451 10.4228C20.6331 10.3968 20.6238 10.3684 20.6242 10.3608C20.6243 10.3572 20.6292 10.3556 20.6369 10.356ZM44.093 42.2139C44.1083 42.2147 44.1272 42.2259 44.1378 42.2457C44.165 42.2901 44.0077 42.4001 43.8562 42.4442C43.7833 42.4638 43.6643 42.4992 43.5938 42.524L43.4611 42.5664L43.5426 42.4811C43.5847 42.4372 43.6456 42.3916 43.6752 42.3853C43.7049 42.3764 43.757 42.3482 43.7902 42.3217C43.8209 42.2951 43.8967 42.2705 43.9583 42.2657C44.0198 42.2608 44.0686 42.2451 44.069 42.235C44.0698 42.2199 44.0801 42.2132 44.093 42.2139ZM27.6928 42.3249C27.7085 42.3258 27.7273 42.3274 27.7481 42.33C27.8143 42.338 27.8694 42.3558 27.8739 42.3738C27.8778 42.3853 27.8712 42.3908 27.85 42.3897C27.8332 42.3888 27.8072 42.3837 27.7699 42.3742C27.7095 42.3563 27.6517 42.3385 27.6441 42.3305C27.6407 42.3252 27.6603 42.3232 27.6928 42.3249ZM29.1415 0.00133211C29.063 -0.00278852 28.9941 0.00250745 28.9615 0.0192209C28.9343 0.030719 28.9109 0.0729258 28.9092 0.108446L28.906 0.174407L28.7286 0.148713C28.6279 0.136605 28.4903 0.115225 28.4165 0.0992336C28.3876 0.0938337 28.3517 0.0901961 28.3148 0.0882567C28.2603 0.0854035 28.2036 0.0862312 28.1637 0.0905237C28.0966 0.10025 27.8084 0.105211 27.5233 0.10271C26.8679 0.0964285 26.6257 0.144146 26.4203 0.310442C26.3676 0.35133 26.2514 0.437689 26.1632 0.497335C25.8462 0.712076 25.5709 1.05326 25.4198 1.41778C25.3927 1.48269 25.3406 1.56683 25.3068 1.60346C25.273 1.6401 25.2038 1.74636 25.1564 1.84342L25.0706 2.0176L25.0384 2.73067C25.0037 3.44109 25.0154 3.69081 25.086 3.93806C25.1042 4.00243 25.116 4.08688 25.1139 4.13001C25.1096 4.27213 25.2667 4.70846 25.3253 4.71153L25.3255 4.71164C25.3414 4.71237 25.3509 4.73565 25.3494 4.766C25.3457 4.84211 25.4133 5.09433 25.4418 5.11084C25.4546 5.12158 25.4624 5.18042 25.4592 5.24638C25.4536 5.36056 25.4479 5.36793 25.3133 5.44839C25.124 5.55948 25.0619 5.63047 24.9522 5.85697C24.9016 5.96405 24.8457 6.07091 24.8313 6.09315C24.8141 6.11781 24.8017 6.15285 24.8006 6.17569C24.7996 6.19599 24.7521 6.29558 24.6965 6.39737C24.6409 6.49914 24.5933 6.59874 24.5924 6.61903C24.5914 6.63934 24.5169 6.74535 24.4288 6.85585C24.2842 7.0325 24.2539 7.05403 24.182 7.05084C24.0836 7.04646 23.8057 7.11546 23.664 7.17781C23.6069 7.2007 23.3592 7.30663 23.1089 7.40993C22.6545 7.59822 22.6519 7.5981 22.3255 7.62171C21.4376 7.68137 21.1937 7.70865 20.8725 7.79099C20.3703 7.9212 20.2679 7.94462 20.2279 7.94285C20.2067 7.9419 20.0207 7.98447 19.8155 8.03637C19.6077 8.08816 19.3242 8.16198 19.1839 8.19642C18.7305 8.31101 18.4979 8.37949 18.3593 8.43435C18.2832 8.46401 18.2047 8.48849 18.1834 8.48755C18.1622 8.4866 18.1128 8.51492 18.0765 8.54889C18.0401 8.58287 17.9522 8.63745 17.8839 8.67002C17.7091 8.75632 17.5961 8.83265 17.4207 8.98505C17.1869 9.18823 17.1098 9.34754 17.1451 9.55252C17.1705 9.68588 17.3435 10.019 17.418 10.0758C17.4438 10.0947 17.4637 10.1236 17.463 10.1362C17.4618 10.1616 17.5112 10.2426 17.7142 10.5594C17.8629 10.7897 17.9099 10.8656 17.9704 10.9903C18.0094 11.0658 18.0786 11.1756 18.1235 11.2387C18.2534 11.4174 18.4378 11.6798 18.4671 11.7346C18.4819 11.7606 18.5269 11.8211 18.5672 11.8687C18.6982 12.0245 18.8409 12.214 18.9276 12.3475C18.9748 12.4183 19.0699 12.5445 19.1406 12.6265C19.3574 12.8803 19.4955 13.0542 19.5672 13.1693C19.6041 13.2319 19.6442 13.282 19.6549 13.2825L19.655 13.2827C19.6844 13.2841 20.0004 13.687 20.0161 13.7461C20.0226 13.7769 20.0707 13.8299 20.1195 13.8677C20.1709 13.9056 20.2519 13.9931 20.3043 14.0666C20.3542 14.1375 20.5359 14.3465 20.7057 14.5269C20.8754 14.7074 21.0398 14.8902 21.0722 14.9348C21.1022 14.9768 21.1874 15.0874 21.2602 15.1797C21.3331 15.2694 21.3927 15.3585 21.3917 15.3788C21.3908 15.3965 21.3616 15.4486 21.3247 15.4953C21.0944 15.7902 20.9852 16.06 20.9701 16.3695C20.9621 16.5319 20.9451 16.554 20.6573 16.8234C20.4143 17.0516 20.1193 17.3589 20.0647 17.4404C20.0416 17.4775 19.9876 17.5463 19.9453 17.5927C19.903 17.6391 19.8517 17.7081 19.8315 17.7402C19.8111 17.7749 19.7654 17.8364 19.7289 17.8755C19.6556 17.9562 19.4549 18.2447 19.2874 18.5093C19.2295 18.6034 19.1407 18.7291 19.0924 18.7905C19.0439 18.8545 18.9635 18.973 18.9142 19.0547C18.8647 19.1389 18.7982 19.2453 18.7638 19.2947C18.7296 19.3414 18.6761 19.4535 18.645 19.5436C18.614 19.6338 18.5711 19.7463 18.5502 19.7937C18.5292 19.8411 18.5008 19.9314 18.487 19.9943C18.4733 20.0573 18.4362 20.1624 18.4034 20.2321C18.2638 20.526 18.1902 20.777 18.1991 20.9223C18.2073 21.0269 18.1888 21.1329 18.1314 21.3261C18.0869 21.4716 18.0423 21.6756 18.0319 21.7794C18.0131 21.9464 17.9949 21.9913 17.8883 22.1544C17.8193 22.2556 17.7058 22.4514 17.6351 22.5881C17.5173 22.8168 17.2391 23.2189 17.1992 23.2171C17.1912 23.2168 17.1242 23.2799 17.0537 23.3581C16.9355 23.4851 16.7987 23.7206 16.795 23.7967C16.7926 23.8449 16.501 24.1396 16.2732 24.3278C16.1622 24.4169 16.0196 24.553 15.9518 24.6313C15.8841 24.7072 15.7799 24.822 15.7156 24.8827C15.539 25.0605 15.3192 25.3025 15.2787 25.3693C15.2583 25.404 15.1933 25.4799 15.137 25.541C15.078 25.6019 14.9957 25.7051 14.9523 25.7743C14.7852 26.0288 14.5186 26.3577 14.4249 26.4196C14.3862 26.4484 14.292 26.5764 14.2164 26.7053C14.144 26.8308 14.073 26.9286 14.0557 26.9277C14.0549 26.9276 14.0542 26.9274 14.0536 26.9269C14.0514 26.9255 14.049 26.9247 14.0464 26.9246C14.0342 26.924 14.0193 26.9374 14.0094 26.958C13.9975 26.9829 13.9346 27.0716 13.8664 27.1576C13.7982 27.2435 13.7436 27.325 13.7428 27.3402C13.742 27.358 13.7135 27.3949 13.68 27.4264C13.5432 27.5526 13.3136 27.9416 13.3081 28.0532C13.3035 28.1471 13.3781 28.2038 13.5551 28.2346C13.7164 28.2621 13.9299 28.3657 14.0083 28.4531C14.041 28.49 14.0795 28.5197 14.0955 28.5205L14.0957 28.5206C14.1306 28.5224 14.3082 28.6471 14.4279 28.7565C14.4788 28.8045 14.5327 28.845 14.5488 28.8458L14.549 28.8459C14.5623 28.8465 14.5931 28.8682 14.6184 28.8947C14.6438 28.9212 14.7128 28.9828 14.7744 29.0313C14.8333 29.0797 14.8815 29.1302 14.8807 29.1454C14.88 29.1606 14.912 29.2154 14.9494 29.2679C14.9868 29.3205 15.0391 29.3965 15.0638 29.4358L15.1055 29.5088L14.9581 29.6345C14.8775 29.7021 14.7168 29.8272 14.6035 29.9086C14.4902 29.99 14.3217 30.1122 14.2305 30.1768C14.1394 30.2414 14.0154 30.3249 13.9551 30.3578C13.8947 30.3932 13.8204 30.4408 13.7899 30.4649C13.7594 30.4889 13.6884 30.5239 13.634 30.5469C13.577 30.5673 13.4918 30.6194 13.4392 30.6603C13.3891 30.7038 13.2324 30.8011 13.0926 30.8788C12.9529 30.9565 12.7137 31.106 12.5594 31.2085C12.2699 31.4041 11.5829 31.9889 11.4662 32.1414C11.4292 32.188 11.3441 32.2936 11.2735 32.3744C11.2056 32.4553 11.0948 32.5953 11.0289 32.6889C10.9604 32.78 10.8952 32.861 10.8842 32.8681C10.8705 32.8751 10.8307 32.9268 10.7959 32.9837C10.7638 33.0408 10.6982 33.1268 10.656 33.1733C10.6111 33.2196 10.5741 33.2663 10.5735 33.2789C10.5729 33.2916 10.5164 33.3578 10.4517 33.4261C10.3843 33.4968 10.3077 33.5901 10.2814 33.6372C10.2525 33.6842 10.1925 33.7655 10.1471 33.8219C10.0991 33.8783 10.0197 33.9739 9.96876 34.0352C9.82392 34.2169 9.69969 34.3589 9.64376 34.4123C9.6158 34.4391 9.53661 34.5321 9.46831 34.6207C9.40266 34.7093 9.29817 34.8292 9.23655 34.89C9.10206 35.0239 9.10484 35.0215 8.85144 35.2976C8.73884 35.4197 8.62698 35.5266 8.60799 35.5333C8.58634 35.54 8.56951 35.5571 8.56877 35.5723C8.56703 35.6078 8.3469 35.8574 8.16787 36.0299C8.09511 36.1004 8.01023 36.2009 7.97836 36.2529C7.94638 36.3074 7.85871 36.4103 7.78596 36.4808C7.71042 36.5537 7.62071 36.6438 7.58403 36.6854C7.47397 36.8102 7.208 37.0704 7.06614 37.1913C6.97407 37.2694 6.93676 37.2942 6.89815 37.2922C6.88661 37.2916 6.87496 37.2886 6.86169 37.2839C6.82647 37.2726 6.71793 37.258 6.61762 37.2527C6.61329 37.2525 6.60897 37.2523 6.60468 37.2521C6.42913 37.2443 6.40748 37.251 6.22938 37.3498C6.04571 37.4535 5.87491 37.5121 5.76852 37.5073C5.71266 37.5048 5.46238 37.6081 5.30858 37.7005C5.25643 37.7312 5.15603 37.7674 5.08348 37.7794C4.8734 37.8235 4.79731 37.8531 4.6948 37.9325C4.64215 37.9734 4.56013 38.0155 4.51188 38.021C4.38828 38.0409 4.18401 38.1844 4.11713 38.2984C4.0271 38.4495 3.97572 38.7371 4.01145 38.8785C4.02697 38.9428 4.03431 39.0651 4.02477 39.1512C4.00322 39.374 4.07234 39.5957 4.21892 39.7599C4.31237 39.8658 4.33166 39.9073 4.32794 39.9834C4.31913 40.1636 4.38653 40.3115 4.5398 40.448C4.80043 40.6783 5.03131 40.9174 5.08282 41.0087C5.12469 41.0792 5.13668 41.1611 5.14363 41.4004C5.14621 41.5658 5.16925 41.8033 5.19255 41.9264C5.21851 42.0496 5.24157 42.1778 5.24781 42.2137C5.25405 42.2496 5.30761 42.3536 5.36431 42.4477C5.42368 42.5419 5.4794 42.6562 5.4878 42.7024C5.49368 42.7459 5.54178 42.8523 5.59101 42.9358C5.64302 43.0169 5.69478 43.1032 5.70697 43.1266C5.81036 43.3016 5.87568 43.3833 5.96313 43.4482C6.01979 43.4889 6.09536 43.5787 6.12938 43.6463C6.18522 43.7581 6.23847 43.8139 6.44864 43.986C6.6768 44.1716 7.10742 44.4145 7.42405 44.5354C7.74681 44.6581 8.03368 44.7252 8.26948 44.7376C8.61491 44.7557 8.85076 44.6563 8.92936 44.4422C8.96636 44.3396 8.95744 44.0316 8.90459 43.7495C8.8646 43.5316 8.76308 43.2092 8.71768 43.1563C8.69752 43.1325 8.67223 43.0501 8.65999 42.9732C8.64034 42.83 8.60504 42.7343 8.54721 42.6631C8.52222 42.6289 8.51779 42.5016 8.52823 42.1791C8.53748 41.9354 8.53257 41.7089 8.51847 41.6701C8.49942 41.6235 8.50202 41.5702 8.5274 41.4875C8.55024 41.402 8.55309 41.3437 8.53491 41.2793C8.51927 41.2176 8.522 41.1617 8.54069 41.1066C8.55889 41.0617 8.58693 40.8697 8.60434 40.6772C8.63668 40.343 8.63489 40.3251 8.58139 40.2744C8.5535 40.2452 8.52876 40.206 8.52988 40.1831C8.53087 40.1628 8.50298 40.1336 8.46661 40.1142C8.39109 40.0778 8.40284 40.0554 8.52514 40.0075C8.76175 39.9112 8.94227 39.4361 8.81239 39.2574C8.77739 39.2119 8.76219 39.1954 8.70484 39.1924C8.67595 39.1908 8.63636 39.1928 8.57814 39.1961L8.39906 39.206L8.38573 39.0426C8.3703 38.8131 8.37748 38.7753 8.46701 38.6343C8.51304 38.5652 8.57373 38.4687 8.60535 38.4218C8.6343 38.3748 8.66846 38.3305 8.67681 38.3233C8.68782 38.3161 8.76738 38.2154 8.85579 38.0973C8.94408 37.9817 9.05136 37.8593 9.09565 37.8257C9.13982 37.7946 9.19613 37.7336 9.22229 37.689C9.28021 37.5949 9.71141 37.1717 9.96982 36.9569C10.2949 36.6865 10.5583 36.4796 10.6822 36.3986C10.7483 36.3558 10.8892 36.2528 10.9972 36.1711C11.1052 36.0895 11.2318 36.0061 11.2781 35.9878C11.3243 35.9695 11.4015 35.917 11.4463 35.8733C11.4937 35.8296 11.5937 35.7476 11.6684 35.6924C11.7456 35.6399 11.9225 35.5105 12.0636 35.4049C12.2046 35.3018 12.3732 35.1796 12.4367 35.1341C12.5002 35.0887 12.6083 35.0045 12.6778 34.9465C12.7471 34.8911 12.816 34.8459 12.8346 34.8467C12.8506 34.8474 12.9333 34.7901 13.0141 34.7199C13.2726 34.5026 13.4611 34.3559 13.5984 34.273C13.6699 34.2279 13.7281 34.1821 13.7287 34.1694C13.7298 34.1466 14.3143 33.6412 14.5275 33.4803C14.5995 33.425 14.7539 33.32 14.8667 33.2488C14.9796 33.175 15.2303 33.0081 15.4233 32.8769C15.7515 32.6524 16.0363 32.4973 16.1161 32.5008C16.1347 32.5017 16.1649 32.4852 16.1872 32.4633C16.207 32.4413 16.3272 32.3806 16.4552 32.3252C16.5859 32.27 16.7444 32.1906 16.8129 32.153C16.8815 32.1128 16.947 32.0801 16.9603 32.0807C16.971 32.0812 17.0365 32.0485 17.105 32.0109C17.171 31.9706 17.2665 31.924 17.3128 31.9057C17.3616 31.8875 17.4328 31.85 17.4715 31.8212C17.5102 31.795 17.5333 31.7842 17.5658 31.7859C17.5864 31.787 17.6109 31.7931 17.6456 31.8035C17.7047 31.8219 17.7566 31.8332 17.8064 31.8358C17.9579 31.8438 18.0895 31.7707 18.3422 31.5676C18.4477 31.4832 18.5768 31.4051 18.6308 31.3897C18.836 31.3378 19.0588 31.2511 19.1224 31.2031C19.1585 31.1742 19.3405 30.9966 19.5309 30.8093C19.7213 30.622 20.0977 30.2828 20.3699 30.0584C20.9007 29.6167 21.0388 29.4626 21.2693 29.0559C21.3366 28.9343 21.4514 28.7665 21.5193 28.6856C21.5873 28.6047 21.7385 28.4004 21.8561 28.2302C21.9711 28.0598 22.0795 27.9146 22.096 27.9052C22.119 27.892 22.1394 27.8858 22.1574 27.8867C22.1971 27.8888 22.2249 27.9256 22.2433 27.9982C22.2564 28.0573 22.2996 28.1558 22.3367 28.216C22.3765 28.2737 22.4152 28.3542 22.4214 28.3901C22.4303 28.4261 22.4572 28.4756 22.4853 28.5023C22.5107 28.5263 22.5327 28.568 22.5316 28.5908C22.5303 28.6162 22.5634 28.7041 22.6019 28.7872C22.6697 28.9275 22.7622 29.3257 22.7561 29.4501C22.7493 29.5896 22.8001 29.6961 22.8988 29.7488C22.9766 29.793 23.0141 29.843 23.0841 29.9935C23.1323 30.0974 23.2175 30.2639 23.2711 30.3655C23.3249 30.4645 23.3855 30.5893 23.4044 30.6384C23.521 30.9258 23.6263 31.1161 23.6986 31.1626C23.7451 31.1932 23.8399 31.2106 23.9514 31.2165C24.1682 31.2278 24.448 31.1953 24.5586 31.1297C24.6329 31.0821 24.8618 31.0338 24.9709 31.0387L24.9715 31.0388C25.0031 31.0404 25.0232 31.059 25.022 31.0842C25.0207 31.1096 25.0418 31.169 25.0688 31.2159C25.1253 31.3151 25.1746 31.452 25.223 31.6602C25.263 31.8247 25.2412 31.9966 25.1568 32.1963C25.0451 32.4634 24.8516 33.0421 24.8165 33.2135C24.8076 33.262 24.802 33.2813 24.7868 33.2805C24.7775 33.28 24.7646 33.272 24.745 33.2586C24.6237 33.1769 24.1032 32.9732 23.6047 32.8112C23.5548 32.7963 23.4657 32.7643 23.4082 32.7414C23.3584 32.7215 23.305 32.7106 23.2263 32.7064C23.1809 32.704 23.1271 32.7039 23.0607 32.7056C22.8364 32.7134 22.8041 32.7196 22.5991 32.8249C22.4788 32.8857 22.3415 32.9686 22.2996 33.0074C22.2271 33.0728 22.2179 33.0978 22.2169 33.2275C22.2156 33.3622 22.2095 33.3772 22.1379 33.4248C22.0498 33.4819 21.9076 33.7197 21.9026 33.8212C21.9009 33.8567 21.9109 33.9233 21.9272 33.9723C21.9529 34.0472 21.9495 34.0623 21.8909 34.1157C21.8573 34.1472 21.8169 34.2115 21.8039 34.2593C21.7813 34.3396 21.8168 34.7582 21.8725 35.0353C21.8961 35.1533 21.8924 35.1735 21.8313 35.2801C21.7936 35.342 21.7115 35.4401 21.6448 35.4956C21.578 35.5536 21.5219 35.6096 21.5213 35.6223C21.5208 35.6325 21.4892 35.6794 21.4525 35.721C21.3337 35.8606 21.1456 36.2184 21.1409 36.3148C21.1382 36.3706 21.1106 36.4431 21.0708 36.4948C20.9629 36.6298 20.9192 37.0881 20.9916 37.2973C21.0076 37.3514 21.0032 37.3868 20.9656 37.4462C20.9308 37.5031 20.9198 37.5662 20.9227 37.6706C20.9302 37.8438 21.0054 38.1599 21.0707 38.295C21.0974 38.3496 21.1182 38.4141 21.1172 38.4344C21.1149 38.4826 21.236 38.7294 21.2626 38.7308L21.2627 38.7309C21.2733 38.7313 21.3076 38.7938 21.3439 38.8691C21.4161 39.0275 21.668 39.326 21.8252 39.4372C21.9874 39.5538 22.1551 39.6147 22.3437 39.6281C22.3451 39.6282 22.3464 39.6283 22.3478 39.6284C22.5502 39.639 22.6826 39.5786 22.7854 39.4266C22.8917 39.2686 23.0386 38.881 23.1124 38.5715C23.1826 38.2797 23.3186 38.006 23.4495 37.8923C23.4857 37.8609 23.5253 37.8143 23.5345 37.7893C23.5436 37.7668 23.6014 37.7287 23.6612 37.706C23.721 37.6832 23.7815 37.6452 23.7987 37.6205C23.8132 37.5958 23.8491 37.5694 23.8814 37.5632C23.9301 37.5501 23.9362 37.5326 23.9345 37.4054L23.9336 37.2604L24.0442 37.2323C24.136 37.2084 24.161 37.1891 24.1914 37.1117C24.2343 36.9966 24.2795 36.9452 24.3524 36.9256C24.3614 36.9235 24.369 36.9221 24.3756 36.9225C24.4087 36.9242 24.4165 36.9689 24.4443 37.1738C24.4939 37.5752 24.501 37.8679 24.477 38.8484C24.4541 39.7526 24.338 41.746 24.2732 42.3076L24.2373 42.6061L24.0715 42.6699C23.7919 42.7744 23.6739 42.9522 23.6919 43.2378C23.7004 43.3374 23.6886 43.4131 23.6555 43.4905C23.6313 43.5504 23.6068 43.6688 23.6027 43.7526C23.5966 43.9862 23.5246 44.4789 23.486 44.5585C23.4355 44.6656 23.4399 44.7929 23.4943 44.9352C23.5418 45.0543 23.5411 45.067 23.4973 45.1464C23.471 45.1935 23.4484 45.2739 23.4459 45.3246C23.4351 45.5443 23.5626 45.6185 24.0174 45.6423C24.0302 45.643 24.0433 45.6437 24.0567 45.6442C24.2482 45.6528 24.5042 45.6514 24.6299 45.6418C24.7557 45.6321 24.9721 45.6214 25.111 45.6149C26.0727 45.5738 26.2571 45.5642 26.3407 45.545C26.5534 45.5011 26.6533 45.475 26.6782 45.4558C26.6948 45.4438 26.9641 45.4431 27.2783 45.4494C27.6218 45.4571 27.958 45.4491 28.1189 45.4309C28.2663 45.4145 28.4645 45.3954 28.5582 45.3869C28.6519 45.3783 28.754 45.3625 28.7863 45.3563C28.8187 45.3476 28.9153 45.3341 29.0036 45.3279C29.3729 45.2985 30.3503 45.0979 30.428 45.0353C30.4446 45.0233 30.4743 45.0144 30.4956 45.0154C30.5674 45.0186 30.7804 44.9162 31.006 44.7711C31.2812 44.5952 31.3427 44.5369 31.4442 44.3685C31.5083 44.2569 31.5244 44.2017 31.5321 44.0444C31.5424 43.7779 31.4919 43.6663 31.2981 43.5407C31.0638 43.3875 30.9846 43.34 30.8469 43.3328C30.7933 43.33 30.7308 43.3333 30.6469 43.3388C30.4999 43.3475 30.2537 43.3671 30.0984 43.3805C29.7095 43.4181 29.5805 43.4306 29.5095 43.4269C29.4852 43.4256 29.4677 43.4225 29.4489 43.4177C29.4067 43.4082 29.3629 43.3757 29.3462 43.3369C29.3103 43.2596 29.2184 43.2049 29.1079 43.1991C29.107 43.1991 29.106 43.199 29.105 43.199C29.1045 43.199 29.1039 43.1989 29.1033 43.1989C29.0611 43.1967 29.0123 43.1819 28.9973 43.1662C28.9821 43.1503 28.859 43.1067 28.7221 43.0701C28.4828 43.0035 28.3262 42.9355 28.2993 42.886C28.2893 42.8728 28.2476 42.8532 28.2029 42.841C28.1582 42.8288 28.051 42.7859 27.9651 42.744C27.8141 42.6686 27.8089 42.6658 27.8842 42.6539C27.9675 42.6398 28.1049 42.501 28.1392 42.3983C28.1488 42.3656 28.1443 42.2942 28.1311 42.2377C28.1026 42.128 28.0569 42.1012 27.8378 42.0898C27.8155 42.0886 27.7914 42.0876 27.7653 42.0867C27.6057 42.0796 27.5627 42.0878 27.5315 42.1246C27.5167 42.1415 27.5074 42.151 27.5019 42.1507C27.4939 42.1503 27.494 42.1286 27.4965 42.0773C27.4997 42.0116 27.4906 41.9832 27.4616 41.9816L27.4608 41.9817C27.4397 41.9805 27.4219 41.967 27.4228 41.9494C27.4234 41.9377 27.4216 41.9319 27.4166 41.9316C27.412 41.9314 27.4045 41.9361 27.3937 41.9456C27.3803 41.9571 27.3588 41.9635 27.3426 41.9626C27.3385 41.9624 27.3348 41.9618 27.3316 41.9606C27.3276 41.9589 27.3233 41.9579 27.3189 41.9577C27.2723 41.9553 27.2082 42.0336 27.1764 42.1368L27.1476 42.2346L27.1503 42.1254C27.1542 41.991 27.0726 41.8123 27.0088 41.8089L27.0082 41.809C26.9815 41.8075 26.9326 41.7774 26.9024 41.7432C26.8721 41.7088 26.8019 41.6726 26.7439 41.6598C26.6462 41.6402 26.6412 41.6349 26.6283 41.5174C26.6235 41.451 26.6031 41.323 26.5836 41.2306C26.5413 41.0049 26.5932 40.0003 26.6715 39.5436C26.7043 39.362 26.7455 39.1197 26.7673 39.0011C26.8126 38.7285 27.0047 37.9616 27.1161 37.5927C27.1418 37.5023 27.1882 37.3162 27.2163 37.1776C27.3041 36.7467 27.3619 36.4899 27.379 36.4678C27.4019 36.4358 27.5325 35.7271 27.5897 35.3202L27.6414 34.9716L27.7292 34.9755C27.7771 34.9777 27.8387 34.9702 27.866 34.9587C27.8905 34.9471 28.1432 34.905 28.4223 34.8665C28.704 34.8282 29.0181 34.7837 29.12 34.7705C29.2248 34.7547 29.4097 34.735 29.5354 34.7253C29.6612 34.7157 29.8353 34.698 29.9237 34.6892C30.0121 34.6804 30.1273 34.6678 30.1782 34.6624C30.2291 34.6571 30.3871 34.6437 30.5264 34.6296C30.6657 34.6154 30.9147 34.5935 31.0754 34.5777C31.2387 34.5621 31.5102 34.5157 31.6828 34.4751C31.885 34.4282 32.0514 34.405 32.1552 34.4097C32.243 34.4136 32.4037 34.3978 32.5142 34.3722C32.7944 34.311 33.0566 34.2921 33.488 34.3011C33.6929 34.3077 34.1006 34.3106 34.3937 34.3135C34.8601 34.3139 34.9539 34.3053 35.1349 34.2549C35.3916 34.185 35.4706 34.1503 35.5924 34.0566C35.6452 34.0132 35.7223 33.9632 35.766 33.9423C35.8071 33.9187 35.8403 33.8947 35.8408 33.8846C35.8413 33.8744 35.9019 33.8339 35.9785 33.7941C36.129 33.7143 36.1539 33.6951 36.3446 33.5027C36.4148 33.4295 36.5074 33.3345 36.5466 33.2956C36.6251 33.2177 37.2414 32.1695 37.6543 31.4123C37.7569 31.2237 38.0396 30.6209 38.1427 30.3661C38.1941 30.2413 38.2633 30.0791 38.2963 30.0043C38.3319 29.9296 38.3805 29.8097 38.4051 29.7421C38.4948 29.5056 38.5688 29.3458 38.5915 29.347C38.5928 29.3471 38.594 29.3477 38.5949 29.3488C38.6077 29.3596 38.707 29.5648 38.8207 29.8013C38.9344 30.0377 39.0532 30.2795 39.0852 30.3343C39.1198 30.3893 39.1998 30.553 39.2674 30.6959C39.3351 30.8387 39.4343 31.044 39.4904 31.1508C39.6949 31.5489 39.8316 31.8601 39.8284 31.9261C39.8266 31.9616 39.8522 32.0391 39.8867 32.0965C39.9185 32.1539 39.9468 32.2289 39.9451 32.2644C39.9434 32.2999 39.9568 32.3514 39.9741 32.3801C40.0309 32.4717 40.0569 32.7042 40.0513 33.0904C40.0459 33.3648 40.0341 33.4965 40.0038 33.5714C39.9797 33.6288 39.951 33.7242 39.9402 33.7822C39.9293 33.8402 39.8932 33.9251 39.8616 33.972C39.8071 34.0509 39.7631 34.2422 39.7055 34.6566C39.6968 34.7249 39.6583 34.9673 39.626 35.1922C39.5447 35.7098 39.4967 37.0172 39.5391 37.5149C39.564 37.821 39.6371 38.1241 39.6823 38.1265L39.6825 38.1266C39.7277 38.1289 39.8575 38.6353 39.9089 39.0011C39.9184 39.0778 39.9408 39.2212 39.9599 39.3212C39.9764 39.4186 39.9897 39.5285 39.988 39.564C39.9862 39.5995 39.9961 39.7246 40.0116 39.8448C40.0639 40.2463 40.0874 40.7457 40.0869 41.4119C40.087 42.1188 40.0659 42.2755 39.9732 42.3197C39.8095 42.3963 39.7398 42.4593 39.7055 42.5595C39.6841 42.6171 39.6458 42.6916 39.6201 42.7261C39.5917 42.7604 39.5623 42.8176 39.5498 42.8552C39.5401 42.8903 39.4997 42.9521 39.4632 42.9912C39.3565 43.1009 39.1583 43.448 39.1541 43.5343C39.1519 43.5774 39.1227 43.6855 39.0892 43.7704C39.0557 43.8554 39.0262 43.9685 39.0236 44.0218C39.0205 44.0852 38.9996 44.13 38.9608 44.1614C38.8333 44.2599 38.7736 44.5014 38.8439 44.6444C38.8802 44.7197 39.0081 44.8297 39.1227 44.8831C39.1618 44.9026 39.1926 44.9269 39.1918 44.9421C39.1897 44.9852 39.364 45.0744 39.5067 45.0985C39.586 45.1122 39.6857 45.1446 39.727 45.1719C39.8151 45.2241 39.8834 45.245 40.2268 45.3086C40.359 45.3322 40.5511 45.3815 40.6561 45.4166C40.7753 45.4553 40.8529 45.4724 40.9846 45.4793C41.0238 45.4813 41.0679 45.4825 41.1193 45.483C41.2685 45.4846 41.461 45.4728 41.5443 45.4587C41.6096 45.4475 41.6653 45.4426 41.7149 45.4452C41.8165 45.4505 41.8923 45.4872 41.971 45.5642C42.0243 45.6147 42.0913 45.6583 42.1207 45.6598L42.1212 45.66C42.151 45.6614 42.2765 45.7025 42.3989 45.7536C42.6447 45.851 42.7161 45.8618 44.0863 45.9711C44.2383 45.983 44.3471 45.9915 44.4347 45.996C44.6499 46.0073 44.7373 45.995 45.0255 45.9518C45.67 45.8559 46.0658 45.665 46.1557 45.4071C46.2427 45.1542 46.2062 44.9745 46.0179 44.7373C45.9174 44.6108 45.8415 44.582 45.4838 44.5381C45.1076 44.4908 44.8932 44.461 44.8194 44.4424C44.7878 44.4359 44.6874 44.3628 44.5953 44.2824C44.5034 44.1995 44.3752 44.0972 44.308 44.0535C44.197 43.9799 44.1947 43.9722 44.2585 43.975C44.3144 43.9775 44.3337 43.9631 44.3558 43.8929C44.3741 43.8454 44.3805 43.7694 44.3721 43.7232C44.358 43.6311 44.3245 43.6067 44.0025 43.4322C43.4391 43.1249 43.258 42.9032 43.5399 42.8624C43.6635 42.8425 43.8283 42.7964 43.9237 42.7549C43.97 42.734 44.0161 42.7183 44.0294 42.7189C44.04 42.7194 44.1054 42.6917 44.1711 42.6565C44.2971 42.5859 44.3492 42.5017 44.3564 42.3546C44.3596 42.2887 44.3327 42.1947 44.3165 42.1939C44.3128 42.1937 44.3096 42.1986 44.3075 42.21C44.3074 42.213 44.3067 42.2144 44.3056 42.2143C44.3022 42.2142 44.2948 42.199 44.288 42.1735C44.2792 42.135 44.2436 42.1003 44.1964 42.083C44.152 42.0658 44.108 42.0384 44.0982 42.0201C44.0863 41.9975 44.0149 41.982 43.9481 41.9784C43.892 41.9755 43.8392 41.981 43.8274 41.9979C43.813 42.0178 43.8015 42.026 43.7942 42.0256C43.7796 42.0249 43.7808 41.9906 43.8059 41.9461C43.8319 41.9066 43.8682 41.8726 43.8895 41.8735C43.9427 41.8759 43.967 41.8134 43.9328 41.7509C43.916 41.7173 43.8995 41.6999 43.8823 41.699C43.8623 41.698 43.8412 41.7194 43.8175 41.7635C43.7827 41.8335 43.7247 41.8836 43.6849 41.8815C43.6808 41.8813 43.6769 41.8805 43.6733 41.8792C43.6692 41.8777 43.6647 41.8769 43.6599 41.8766C43.569 41.8719 43.3549 42.0765 43.2542 42.2724L43.1983 42.3793L43.1692 42.2661C43.1311 42.1195 43.0445 42.0368 42.8989 42.0151C42.8759 42.0112 42.8568 42.0087 42.84 42.0078C42.7817 42.0047 42.7516 42.0219 42.6828 42.0741C42.6283 42.1155 42.5832 42.1351 42.5521 42.1335C42.5199 42.1318 42.5026 42.1075 42.5048 42.0611C42.5063 42.0307 42.4876 41.923 42.463 41.8253C42.4413 41.7252 42.4028 41.4768 42.3835 41.2725C42.33 40.7311 42.3859 39.5868 42.5063 38.7607C42.5542 38.4348 42.6104 38.0483 42.6283 37.9016C42.6621 37.6463 42.7115 37.2899 42.7788 36.8403C42.7953 36.7215 42.8247 36.283 42.8425 35.8642C42.8696 35.2551 42.8702 35.0797 42.8427 34.9895C42.8148 34.9043 42.8143 34.8611 42.838 34.8113C42.8557 34.7765 42.8847 34.6201 42.9055 34.4685C42.9621 34.0184 43.0325 33.724 43.1176 33.5651C43.1965 33.4237 43.2005 33.3958 43.2526 32.821C43.2952 32.3321 43.3009 32.1595 43.2802 31.8738C43.2554 31.5091 43.2793 31.0753 43.3358 30.9024C43.3544 30.8472 43.388 30.7063 43.4124 30.5879C43.4763 30.2627 43.4829 29.3095 43.4253 28.745C43.4121 28.6325 43.3962 28.4665 43.3874 28.3746C43.3786 28.2827 43.3624 28.1218 43.3489 28.0169C43.3354 27.9121 43.3223 27.7437 43.3164 27.6468C43.2835 27.0655 43.0743 25.8917 42.9464 25.563C42.9273 25.519 42.8996 25.4313 42.8813 25.3694C42.8629 25.3101 42.812 25.1502 42.7679 25.016C42.666 24.7013 42.6079 24.5283 42.4917 24.1773C42.4408 24.02 42.3842 23.87 42.3669 23.8412C42.347 23.8124 42.3329 23.7736 42.334 23.7508C42.335 23.7305 42.2851 23.6062 42.2247 23.4789C41.993 22.9829 41.9737 22.888 41.9597 22.1932C41.9538 21.8776 41.9497 21.852 41.864 21.7516C41.8059 21.6854 41.8005 21.4691 41.854 21.4104C41.8961 21.3665 41.9631 20.9779 41.9765 20.7039C41.9829 20.5745 42.0053 20.4433 42.0293 20.3884C42.0832 20.2662 42.1387 19.8415 42.163 19.3442C42.1846 18.9027 42.169 18.6757 42.1158 18.62C42.0685 18.5705 42.0723 18.5324 42.1161 18.5346L42.1165 18.5347C42.1243 18.535 42.1334 18.5367 42.1437 18.5398C42.1506 18.5418 42.1589 18.543 42.1681 18.5435C42.201 18.5452 42.2452 18.5379 42.275 18.5253C42.3159 18.5068 42.3835 18.4869 42.4266 18.4787C42.5152 18.4648 42.5985 18.3973 42.6572 18.2855C42.6805 18.2459 42.7693 18.1735 42.8544 18.1239C42.9395 18.0743 43.0198 18.0118 43.0293 17.9817C43.0504 17.9318 43.2333 17.8433 43.3106 17.8442C43.3771 17.8471 43.4259 17.7756 43.4487 17.6367C43.4637 17.5484 43.4936 17.4811 43.5241 17.457C43.6018 17.3944 43.598 17.2543 43.5113 17.0649C43.4533 16.9428 43.3579 16.8216 43.1168 16.5743C42.9445 16.3939 42.7866 16.2445 42.7652 16.2434L42.765 16.2435C42.7462 16.2424 42.6793 16.1963 42.6156 16.1401C42.5542 16.0865 42.4544 16.0007 42.3982 15.9525C42.2881 15.8586 42.2761 15.8326 42.3238 15.7839C42.4417 15.662 42.4701 15.6251 42.5012 15.5349C42.52 15.4773 42.5668 15.3929 42.6037 15.3463C42.6407 15.2996 42.6706 15.2323 42.6724 15.1968C42.6741 15.1612 42.7019 15.0836 42.7341 15.0241C42.7663 14.9645 42.7936 14.897 42.7949 14.8716C42.7981 14.8057 42.8632 14.6883 42.8937 14.6898C42.8948 14.6899 42.896 14.6901 42.897 14.6906C42.8986 14.6911 42.9003 14.6915 42.902 14.6915C42.9453 14.6938 43.0237 14.5527 43.0283 14.4599C43.0306 14.4117 43.0431 14.3741 43.0591 14.3748C43.0724 14.3754 43.1199 14.3293 43.1602 14.27C43.2915 14.0928 43.402 13.9579 43.4719 13.8923C43.5082 13.8583 43.5397 13.8139 43.5407 13.7937C43.5415 13.7759 43.5613 13.7539 43.5829 13.7472C43.6047 13.738 43.6245 13.7135 43.6258 13.6881C43.6272 13.6602 43.639 13.6353 43.6528 13.6258C43.6938 13.6047 43.9369 13.3231 43.9382 13.2952C43.9388 13.2825 43.969 13.266 44.0067 13.2575C44.0417 13.2515 44.0971 13.2082 44.1287 13.1613C44.1603 13.1143 44.2074 13.0783 44.2313 13.0794C44.2526 13.0803 44.3517 13.0161 44.4462 12.9364C44.5434 12.8568 44.6346 12.7922 44.6505 12.7929C44.6665 12.7936 44.6919 12.7642 44.7019 12.724C44.7238 12.6563 44.7694 12.5973 44.924 12.4338L45.0082 12.346L44.9881 12.0502C44.9727 11.8181 44.9577 11.7437 44.922 11.7116C44.8888 11.6821 44.882 11.6564 44.8997 11.6216C44.9351 11.552 44.9433 11.3845 44.9141 11.2739C44.8923 11.1737 44.8871 11.171 44.6786 11.1286C44.5914 11.112 44.5711 11.0908 44.5006 10.9529C44.4277 10.8072 44.4047 10.7884 44.2151 10.6859C44.0533 10.5995 43.9868 10.5776 43.8656 10.5712C43.8623 10.571 43.8589 10.5709 43.8555 10.5707C43.6667 10.5623 43.5923 10.6124 43.4204 10.8565C43.3372 10.9774 43.2786 11.0307 43.183 11.0773C43.1121 11.1098 43.0071 11.1865 42.9453 11.2498C42.8047 11.4012 42.7804 11.5146 42.8173 11.8519C42.8343 11.995 42.8416 12.1174 42.836 12.1222C42.834 12.1243 42.8311 12.1251 42.8276 12.1249C42.8024 12.1236 42.7453 12.0687 42.7467 12.042C42.7473 12.0293 42.6996 11.9687 42.6439 11.9077C42.4816 11.7377 42.4517 11.6957 42.4359 11.6365C42.4268 11.6056 42.3796 11.5349 42.329 11.4792C42.2784 11.4236 42.2238 11.3423 42.2074 11.2958C42.1909 11.2519 42.1586 11.2021 42.1384 11.1809C42.1128 11.1594 42.0994 11.1054 42.1031 11.0293C42.1087 10.9154 42.055 10.8217 41.9835 10.818C41.9833 10.818 41.9831 10.818 41.9828 10.818L41.9827 10.8181C41.9455 10.816 41.9076 10.667 41.9134 10.5479C41.917 10.4743 41.8988 10.4099 41.8567 10.3445C41.8221 10.2896 41.8006 10.2377 41.8092 10.2254C41.8292 10.1983 41.7301 9.9933 41.6981 9.99161L41.698 9.99171C41.6847 9.99091 41.6752 9.96765 41.6766 9.9398C41.6803 9.86369 41.5529 9.63426 41.4978 9.61656C41.4715 9.61028 41.4437 9.57854 41.4371 9.55028C41.4306 9.51946 41.3975 9.48749 41.3633 9.47833C41.3291 9.4692 41.3007 9.45013 41.3014 9.4349C41.3019 9.42634 41.2973 9.42102 41.29 9.42064C41.2865 9.42046 41.2824 9.42141 41.278 9.42369C41.2745 9.4255 41.2708 9.4263 41.2672 9.42611C41.2568 9.42556 41.2469 9.41703 41.2418 9.40173C41.2231 9.34751 40.8951 9.13203 40.7201 9.05813C40.5241 8.97821 40.4838 8.93065 40.4704 8.76732C40.4604 8.64482 40.4668 8.62222 40.591 8.42687C40.6632 8.31312 40.7873 8.06437 40.8633 7.8745L41.0026 7.53234L41.0533 6.9879C41.0882 6.60042 41.1156 6.42111 41.1451 6.36393C41.2063 6.25732 41.2028 6.21903 41.131 6.10649C41.0962 6.05408 41.0697 5.99696 41.0705 5.98173C41.0713 5.96397 41.0562 5.94551 41.0406 5.93718C41.0144 5.92838 41.0152 5.91316 41.047 5.86118C41.0731 5.81912 41.0842 5.75604 41.0775 5.67438C41.0679 5.54427 40.9843 5.23543 40.9464 5.19305C40.9339 5.17724 40.9247 5.14632 40.9258 5.12349C40.9271 5.09811 40.9003 5.04607 40.8704 5.00405C40.8376 4.96445 40.7996 4.87121 40.7843 4.80188C40.7692 4.73001 40.7251 4.59583 40.6872 4.49752C40.6466 4.40163 40.6242 4.31418 40.6328 4.30185C40.6537 4.26832 40.6282 4.20572 40.595 4.20398C40.5915 4.20379 40.5879 4.2043 40.5842 4.20561C40.5833 4.20588 40.5824 4.20599 40.5815 4.20594C40.543 4.20392 40.4234 3.94988 40.4272 3.87315C40.4313 3.78942 40.1823 3.37659 40.0102 3.18838C39.9115 3.07974 39.831 2.98208 39.8315 2.97193C39.832 2.96178 39.8015 2.93246 39.7627 2.90784C39.7212 2.88311 39.6292 2.80274 39.5555 2.72826C39.4572 2.62797 39.4031 2.59228 39.3424 2.5891C39.342 2.58907 39.3416 2.58905 39.3411 2.58903C39.3409 2.58903 39.3407 2.58901 39.3404 2.58901C39.2969 2.58673 39.1451 2.54705 39.0043 2.50031C38.8626 2.45333 38.689 2.40492 38.6177 2.39157C38.5463 2.38077 38.4276 2.35515 38.3537 2.33914C38.3256 2.33287 38.2934 2.32889 38.2586 2.32707C38.1176 2.31968 37.9351 2.3478 37.8149 2.40163C37.774 2.42014 37.6625 2.46603 37.5701 2.50006C37.3771 2.57794 37.0764 2.78576 36.7172 3.0978C36.4445 3.33231 36.3791 3.41585 36.3535 3.55965C36.3424 3.62272 36.2936 3.69429 36.1844 3.80131C35.8231 4.15648 35.4972 4.49797 35.4147 4.60363C35.3664 4.66505 35.2454 4.79697 35.1472 4.89685C34.9508 5.09662 34.9302 5.13639 34.7508 5.58864C34.6594 5.82359 34.6235 5.95677 34.6048 6.12122C34.5908 6.24513 34.5886 6.34417 34.5992 6.34472L34.5992 6.34482C34.6072 6.34508 34.6493 6.24778 34.6899 6.125C34.7994 5.79423 34.8722 5.61439 34.929 5.54317C34.9546 5.50872 35.0372 5.40051 35.1112 5.30463C35.2108 5.17685 35.2777 5.11625 35.3622 5.07932C35.4275 5.05172 35.5346 4.98784 35.601 4.9374C35.6676 4.88442 35.7388 4.84437 35.7601 4.8453C35.7814 4.84625 35.8723 4.78673 35.9612 4.71186L36.1223 4.57917L36.1544 4.7408L36.1865 4.90242L36.0476 5.01829C35.975 5.07682 35.91 5.12238 35.8955 5.12162C35.8945 5.12157 35.8938 5.12128 35.8933 5.12076C35.8919 5.11864 35.8886 5.11755 35.8839 5.1173C35.8711 5.11663 35.848 5.12217 35.8261 5.13048C35.7879 5.14913 35.782 5.16158 35.8026 5.17521C35.8233 5.18884 35.7588 5.25462 35.6176 5.36023C35.4987 5.44902 35.3596 5.56742 35.3062 5.62352C35.174 5.76514 34.938 6.06739 34.9079 6.13725C34.872 6.21701 34.7742 6.6373 34.7697 6.72864L34.769 6.79727L34.8074 6.72015C34.9544 6.43937 35.4315 5.89609 35.8458 5.54583C36.0671 5.35559 36.1916 5.27209 36.2477 5.27502C36.258 5.27556 36.2659 5.27895 36.2717 5.28508C36.2793 5.29305 36.2704 5.36639 36.253 5.44953C36.2217 5.60069 36.2217 5.60069 36.2922 5.62926C36.334 5.64638 36.3646 5.67571 36.3632 5.70362C36.3592 5.95009 36.3998 6.15532 36.4807 6.29876C36.53 6.38233 36.5871 6.46878 36.6101 6.4876C36.6331 6.50897 36.6806 6.57211 36.7151 6.6296C36.747 6.68695 36.8122 6.77121 36.8553 6.81636C36.8984 6.8615 36.956 6.9378 36.9829 6.98732C37.0195 7.05507 37.0582 7.0822 37.1398 7.10363C37.2451 7.1312 37.2501 7.13652 37.268 7.26191C37.2909 7.39261 37.3204 7.49818 37.382 7.65601C37.3985 7.69997 37.4119 7.75397 37.4109 7.77427C37.4076 7.84006 37.4368 7.89463 37.4739 7.89658L37.4744 7.89672C37.5008 7.898 37.5098 7.9315 37.506 8.00989C37.5004 8.12408 37.3779 8.33984 37.226 8.5009C37.1361 8.59607 37.0216 8.81218 36.9942 8.93556C36.9834 8.99356 36.9538 9.05327 36.9317 9.07009C36.9095 9.0869 36.8724 9.13611 36.8517 9.17841C36.831 9.22071 36.7624 9.3143 36.6977 9.38514C36.6297 9.46604 36.5774 9.55525 36.5636 9.61821C36.5502 9.67608 36.5231 9.73845 36.5034 9.76046C36.4195 9.84063 36.2541 10.2249 36.14 10.5961C36.1113 10.6915 36.0603 10.8621 36.0256 10.9724C35.94 11.2509 35.8815 11.6297 35.8554 12.1091C35.8352 12.4667 35.84 12.533 35.8839 12.6698C35.9256 12.7988 35.9313 12.9007 35.926 13.2819C35.9217 13.5334 35.9344 13.8188 35.9508 13.9187C35.9694 14.0289 35.9752 14.2376 35.9647 14.4533C35.9578 14.6488 35.9581 14.8598 35.9683 14.9239C35.9812 14.988 36.0032 15.1365 36.0213 15.2568C36.0368 15.377 36.0812 15.6129 36.1183 15.7824C36.2165 16.2266 36.2285 16.8527 36.1468 17.2152C36.0921 17.4619 36.1184 17.9056 36.1905 17.9571C36.255 18.0006 36.2548 18.0591 36.1928 18.1835C36.1484 18.2731 36.1033 18.4872 36.0526 18.8689C36.0369 18.9724 36.0075 19.083 35.9874 19.1126C35.9646 19.1421 35.9467 19.182 35.9457 19.2023C35.9442 19.2328 35.8858 19.3369 35.7795 19.4924C35.7592 19.5271 35.6968 19.6032 35.6432 19.6643C35.5895 19.7255 35.5268 19.8092 35.5034 19.8514C35.48 19.8936 35.4485 19.9379 35.4294 19.9472C35.413 19.9567 35.3848 19.9885 35.3701 20.0158C35.3553 20.0457 35.3179 20.1025 35.2892 20.1444C35.1431 20.3515 34.9413 20.6629 34.94 20.6883C34.9394 20.701 34.9186 20.7458 34.8925 20.7879C34.7854 20.9611 34.6818 21.226 34.5876 21.5727C34.5646 21.6607 34.5252 21.7581 34.5024 21.7876C34.2888 22.068 34.1049 23.321 34.1804 23.9575C34.2112 24.2005 34.2505 24.3776 34.2978 24.4993C34.3573 24.6469 34.3935 24.7781 34.4034 24.9032C34.4078 24.9771 34.435 25.075 34.4594 25.1193C34.5184 25.221 34.5075 25.5537 34.4311 25.9724C34.4021 26.1287 34.3607 26.4854 34.3364 26.764C34.3147 27.0428 34.272 27.3714 34.2445 27.4974C34.2145 27.6206 34.1786 27.8097 34.1602 27.9131C34.1445 28.0167 34.1203 28.13 34.1079 28.1651C34.0982 28.2003 34.0744 28.306 34.0562 28.4044C34.0409 28.5003 33.9945 28.7398 33.9557 28.9339C33.9028 29.1985 33.8787 29.4186 33.8597 29.8068C33.8396 30.2179 33.8254 30.3444 33.79 30.414C33.7664 30.4613 33.7283 30.5867 33.7073 30.6875C33.6836 30.7907 33.6575 30.8887 33.6436 30.9008C33.6295 30.9154 33.6104 30.9807 33.5992 31.0463C33.5745 31.1698 33.4446 31.3725 33.3485 31.4293C33.324 31.4442 33.3079 31.4518 33.293 31.451C33.2795 31.4503 33.267 31.4427 33.25 31.4274C33.2273 31.408 32.9145 31.3835 32.5246 31.363C31.947 31.3327 31.2004 31.3114 30.9783 31.3289C30.486 31.368 30.3517 31.3874 30.184 31.4385C30.0893 31.4673 29.9948 31.4911 29.9709 31.49C29.9496 31.4891 29.8793 31.5088 29.8169 31.5315C29.7517 31.5565 29.6651 31.5832 29.622 31.5914C29.5764 31.5971 29.4816 31.6284 29.4056 31.6556C29.3322 31.6854 29.1911 31.7376 29.0934 31.7714C28.9984 31.8078 28.7906 31.913 28.6341 32.0077C28.4395 32.1253 28.3498 32.1762 28.3334 32.1754C28.325 32.1749 28.3356 32.1609 28.3612 32.1354C28.56 31.9409 28.667 31.6074 28.6569 31.2129C28.6503 31.0219 28.6618 30.9486 28.715 30.7883C28.7496 30.6805 28.8038 30.5532 28.833 30.5011C28.9813 30.2483 28.9978 29.6922 28.8635 29.4421C28.8489 29.4135 28.8283 29.3439 28.8152 29.2849C28.7978 29.2053 28.7703 29.1659 28.7032 29.1222C28.5996 29.0591 28.4635 28.7912 28.394 28.5211C28.189 27.6983 28.0939 27.1906 28.0189 26.4905C27.9319 25.706 27.8921 25.4856 27.8224 25.4393C27.8042 25.4283 27.7911 25.3158 27.7881 25.158C27.7855 24.9393 27.7729 24.87 27.7106 24.7274C27.6725 24.6342 27.626 24.4948 27.6138 24.418C27.5988 24.341 27.5661 24.2481 27.5411 24.2139C27.5134 24.1796 27.494 24.1406 27.4946 24.1279C27.4951 24.1177 27.466 24.0605 27.4314 24.003C27.3696 23.9062 27.3676 23.8908 27.3962 23.6887C27.4626 23.2034 27.2882 22.7354 26.9437 22.476C26.9001 22.441 26.7895 22.3573 26.7023 22.2873C26.6125 22.2172 26.5012 22.1486 26.4537 22.1389C26.3403 22.1135 26.3162 22.0616 26.3258 21.8662C26.3364 21.648 26.2817 21.1319 26.2408 21.0411C26.1899 20.9372 26.2211 20.3003 26.2799 20.2419C26.2996 20.2199 26.3546 20.1308 26.399 20.0412C26.4434 19.9517 26.4957 19.8625 26.5153 19.843C26.5855 19.7698 26.7537 19.3298 26.8362 19.0055C26.8562 18.9224 26.8864 18.7966 26.903 18.7287C26.9224 18.6584 26.9578 18.5354 26.9858 18.4527C27.0139 18.37 27.0484 18.2622 27.0614 18.2145C27.0744 18.1668 27.1074 18.092 27.1307 18.0523C27.1888 17.9532 27.3322 17.4739 27.3764 17.2241C27.3979 17.1132 27.4429 16.955 27.4763 16.8726C27.5694 16.6581 27.6601 16.3849 27.664 16.3038C27.667 16.2429 27.7602 16.1351 27.8081 16.1373C27.8161 16.1376 27.9041 16.083 28.0005 16.0187C28.2819 15.8252 28.3093 15.8087 28.4081 15.752C28.4602 15.7213 28.5241 15.6682 28.5473 15.6311C28.5729 15.5966 28.6344 15.5383 28.6815 15.5023C28.7311 15.4689 28.8096 15.391 28.8552 15.3295C28.9517 15.2092 29.4428 14.7072 29.4975 14.6791C29.5139 14.6697 29.531 14.6476 29.5317 14.6323C29.5325 14.6171 29.5722 14.568 29.6171 14.5217C29.6646 14.4781 29.7016 14.4289 29.7022 14.4162C29.7029 14.4035 29.7358 14.3846 29.7734 14.3787C29.8111 14.3702 29.8794 14.3376 29.9211 14.3013C29.9627 14.2676 30.082 14.1737 30.1845 14.0944C30.4697 13.8757 30.5202 13.8245 30.5754 13.6769C30.6058 13.5995 30.6662 13.5106 30.7191 13.4647C30.889 13.3146 31.0544 13.2024 31.1136 13.1924C31.1486 13.1837 31.1761 13.1672 31.1769 13.1519C31.1786 13.1164 31.4905 12.843 31.5278 12.8446C31.5863 12.8472 31.6015 12.7538 31.625 12.2183C31.6424 11.7538 31.6514 11.6779 31.6893 11.6669C31.7327 11.651 31.7525 11.5197 31.7138 11.4925C31.7009 11.4843 31.6843 11.4429 31.6756 11.4018C31.6635 11.3354 31.6535 11.3253 31.5702 11.3209C31.5668 11.3207 31.5633 11.3205 31.5596 11.3204C31.5589 11.3203 31.5581 11.3203 31.5574 11.3203C31.4599 11.3152 31.376 11.261 31.3785 11.2081C31.3793 11.1929 31.3942 11.1605 31.4087 11.1357C31.4608 11.0515 31.3679 10.8796 31.1448 10.6459C31.0307 10.5264 30.8776 10.4408 30.7115 10.4029C30.6403 10.387 30.6198 10.3708 30.6219 10.3277C30.6251 10.2617 30.5498 10.1668 30.4685 10.1403C30.4494 10.1331 30.4273 10.129 30.4039 10.1278C30.3249 10.1237 30.2306 10.1519 30.1831 10.1988C30.1047 10.2741 29.9564 10.5269 29.9125 10.6623C29.8653 10.8102 29.7895 10.9416 29.7345 10.9773C29.7097 10.994 29.6777 11.0485 29.6644 11.1013C29.6538 11.1542 29.6098 11.2921 29.5667 11.4097C29.4738 11.6751 29.4409 12.1288 29.5004 12.3832L29.5352 12.5449L29.4155 12.7023C29.2988 12.8548 28.9438 13.1365 28.8747 13.1334C28.856 13.1326 28.8064 13.166 28.7619 13.2047C28.7172 13.2459 28.64 13.2984 28.5908 13.3242L28.5006 13.3685L28.5199 13.3007C28.5298 13.263 28.5733 13.1352 28.6139 13.015C28.6544 12.8947 28.6896 12.7743 28.691 12.7464C28.6924 12.7185 28.7054 12.6707 28.7203 12.6383C28.8247 12.4116 28.9677 11.9933 29.0221 11.7542C29.0355 11.6988 29.0543 11.6412 29.0655 11.629C29.0769 11.6142 29.0953 11.5642 29.1057 11.5163C29.116 11.4685 29.1391 11.378 29.1582 11.3152C29.1772 11.2525 29.2161 10.8932 29.2425 10.518C29.289 9.83864 29.2845 9.60451 29.2122 9.28345C29.1924 9.19865 29.0428 8.8233 28.9962 8.73986C28.9839 8.71897 28.8753 8.48783 28.7547 8.22818C28.5785 7.85167 28.5099 7.72909 28.4083 7.62541C28.2941 7.50844 28.2868 7.49287 28.3353 7.48231C28.3703 7.47623 28.4184 7.41989 28.4654 7.33045C28.5154 7.2335 28.5974 7.13798 28.7142 7.03893C28.8115 6.9568 28.9125 6.8545 28.9387 6.8099C28.9648 6.76531 29.063 6.6654 29.1548 6.58812C29.2966 6.46731 29.3541 6.43681 29.5704 6.37522C29.8056 6.30686 29.9697 6.27603 30.3213 6.2281C30.5331 6.20193 30.6432 6.13055 30.6926 5.99289C30.7387 5.86781 30.7324 5.77853 30.663 5.61778C30.6081 5.48566 30.6098 5.39675 30.6651 5.35598C30.6873 5.33917 30.7073 5.31208 30.708 5.29686C30.7089 5.2791 30.7401 5.23981 30.779 5.20848C30.8178 5.17715 30.849 5.13786 30.8498 5.12263C30.8522 5.07443 30.6868 4.91197 30.5983 4.86989C30.4783 4.81623 30.5009 4.78927 30.6605 4.79637C30.8387 4.8043 30.9106 4.75156 30.89 4.62859C30.8841 4.5851 30.8601 4.53063 30.8398 4.5094C30.8196 4.48561 30.8029 4.44672 30.8042 4.41881C30.8062 4.37822 30.8252 4.37143 30.9502 4.377C31.1311 4.38504 31.1772 4.3693 31.2128 4.2946C31.2486 4.21736 31.2105 3.90546 31.1562 3.81659C31.134 3.77999 31.009 3.6117 30.8761 3.44051L30.6354 3.12975L30.6307 2.89815C30.6263 2.77081 30.6189 2.64844 30.6095 2.62259C30.6001 2.59675 30.6121 2.51591 30.6343 2.44316C30.6977 2.23747 30.6359 2.02876 30.4411 1.76073C30.1862 1.41375 30.1933 1.43187 30.2443 1.31463C30.2686 1.25468 30.3211 1.16294 30.3636 1.11143C30.4034 1.05979 30.4392 0.982569 30.4412 0.941972C30.4481 0.799889 30.2876 0.485079 30.1734 0.421501C30.137 0.402095 30.0801 0.366508 30.0468 0.339591C30.0138 0.312969 29.9415 0.289576 29.8859 0.286662C29.8853 0.28663 29.8847 0.286605 29.8841 0.286574C29.8832 0.286534 29.8823 0.286494 29.8813 0.286443C29.8055 0.282468 29.7459 0.254222 29.6518 0.184713C29.5798 0.130657 29.4682 0.0697405 29.4 0.0463524C29.3259 0.0217541 29.2279 0.00585371 29.1415 0.00133211Z" fill="url(#paint0_linear_51_6765)"/>
<path d="M60.023 30.5449C59.8244 30.5449 59.6818 30.5628 59.6089 30.5976C59.5784 30.614 59.5577 30.6224 59.5362 30.6224C59.5139 30.6224 59.4908 30.6133 59.4551 30.595C59.4048 30.571 59.3457 30.5588 59.2765 30.5588C59.1971 30.5588 59.1044 30.5749 58.9963 30.6079C58.886 30.6419 58.8196 30.6572 58.7691 30.6572C58.7319 30.6572 58.7034 30.6489 58.6725 30.6336C58.6428 30.6182 58.524 30.6001 58.4053 30.5924C58.3629 30.5895 58.3255 30.588 58.2924 30.588C58.1488 30.588 58.085 30.617 58.0302 30.6902C58.0086 30.7186 57.9627 30.7366 57.9061 30.7366C57.7549 30.7366 57.531 30.7855 57.4797 30.8318C57.4527 30.855 57.4311 30.9091 57.4311 30.9554C57.4311 31.0661 57.3744 31.3364 57.3474 31.3647C57.334 31.3801 57.3232 31.4342 57.3232 31.4857C57.3232 31.5938 57.3528 31.6118 57.5175 31.6118C57.593 31.6118 57.6605 31.635 57.7468 31.6916L57.8683 31.7714L57.6794 31.9567C57.2422 32.3841 57.1612 32.469 57.0857 32.5977C56.9777 32.7779 56.6728 33.0636 56.4677 33.1718C56.3544 33.2336 56.241 33.2722 56.1169 33.2876C55.9955 33.3031 55.8956 33.3365 55.8254 33.3803C55.7094 33.4549 55.5988 33.4807 55.256 33.5167C55.0536 33.5373 54.9106 33.5888 54.7865 33.6866C54.719 33.7407 54.3196 33.8771 54.2306 33.8771C54.1226 33.8771 53.9067 33.9389 53.6963 34.0316C53.549 34.0969 53.4136 34.126 53.1688 34.126C53.0279 34.126 52.8507 34.1164 52.6141 34.0985C52.2925 34.0746 51.7926 34.0622 51.3358 34.0622C50.9571 34.0622 50.608 34.0707 50.4148 34.0882C49.6645 34.1577 48.9332 34.3353 48.2424 34.6236C47.9131 34.7575 47.5488 34.8527 47.3518 34.8553C47.2304 34.8553 46.7446 34.7266 46.5746 34.6494C46.4343 34.5876 46.3884 34.5567 46.267 34.4486C46.2157 34.4048 46.159 34.3662 46.1375 34.3662C46.1186 34.3662 46.0808 34.3353 46.0538 34.2941C45.9971 34.2118 45.9027 34.1088 45.8784 34.1088C45.8379 34.1088 45.5384 33.9003 45.452 33.8153C45.4007 33.7638 45.3414 33.7227 45.3225 33.7227C45.3036 33.7227 45.2874 33.7072 45.2874 33.6866C45.2874 33.666 45.2199 33.5836 45.1363 33.4987C45.0526 33.4163 44.9717 33.3314 44.9528 33.3108C44.9015 33.2464 44.7261 33.1306 44.6316 33.0997C44.5857 33.0843 44.5264 33.0585 44.5048 33.0405C44.4265 32.9761 44.1108 32.8551 43.9381 32.8242C43.8409 32.8062 43.7384 32.7805 43.7087 32.7676C43.628 32.7328 43.538 32.7151 43.4471 32.7151C43.3769 32.7151 43.3062 32.7257 43.2391 32.747C43.1555 32.7728 43.0475 32.7959 42.999 32.7959C42.9396 32.7959 42.9126 32.8088 42.9126 32.8345C42.9126 32.9195 42.9963 33.025 43.115 33.0894C43.3498 33.2207 43.5873 33.3365 43.625 33.3365C43.6466 33.3365 43.6817 33.352 43.7006 33.37C43.7195 33.388 43.7924 33.4292 43.8625 33.4627C44.0001 33.5244 44.3267 33.7921 44.4562 33.9466C44.4994 34.0007 44.5561 34.0547 44.5804 34.0676C44.6019 34.0805 44.6721 34.1371 44.7369 34.1963C44.7989 34.2555 44.9258 34.3662 45.0202 34.4434C45.2685 34.652 45.3441 34.724 45.4736 34.8811C45.5384 34.9583 45.6166 35.0407 45.649 35.0613C45.7974 35.1591 46.07 35.3779 46.07 35.3985C46.07 35.4113 46.0862 35.4216 46.1024 35.4216C46.1213 35.4216 46.1968 35.4731 46.267 35.5349C46.3399 35.5967 46.4397 35.6791 46.491 35.7177C46.5423 35.7563 46.5827 35.8001 46.5827 35.8181C46.5827 35.8335 46.6097 35.8696 46.6394 35.8953C46.6907 35.9339 46.6961 35.9596 46.6826 36.0729C46.6718 36.145 46.6529 36.2093 46.6394 36.2171C46.6259 36.2248 46.6016 36.4282 46.5854 36.6701C46.5504 37.1592 46.58 37.6612 46.6502 37.7281C46.6691 37.7487 46.6961 37.7899 46.7069 37.8234C46.7177 37.8543 46.7554 37.9238 46.7878 37.9753C46.8229 38.0293 46.8526 38.0885 46.8526 38.1091C46.8526 38.1297 46.8715 38.1503 46.8931 38.1606C46.9147 38.1683 46.9336 38.1915 46.9336 38.2121C46.9336 38.2327 46.9686 38.3254 47.0145 38.4206C47.0577 38.5159 47.0955 38.6188 47.0955 38.6523C47.0955 38.6857 47.1144 38.7295 47.1359 38.7527C47.1575 38.7733 47.1764 38.8042 47.1764 38.8196C47.1764 38.8351 47.1899 38.8608 47.2034 38.8788C47.2709 38.9535 47.3653 39.1079 47.3653 39.1414C47.3653 39.1594 47.3815 39.1929 47.4004 39.2109C47.4733 39.2804 47.5299 39.4838 47.5515 39.7592C47.5704 40.0063 47.5677 40.063 47.5219 40.1968C47.4922 40.2818 47.4463 40.3719 47.4166 40.3976C47.3896 40.4233 47.3653 40.4722 47.3653 40.5083C47.3653 40.6138 47.2547 40.8352 47.1575 40.9227C47.109 40.9691 47.0685 41.0154 47.0685 41.0283C47.0685 41.0411 47.0199 41.1004 46.9605 41.1596C46.9012 41.2162 46.8526 41.2754 46.8526 41.2883C46.8526 41.3037 46.7959 41.3629 46.7285 41.4247L46.6043 41.5354L46.5908 41.8108C46.58 42.0554 46.5827 42.0889 46.6313 42.13C46.6907 42.1867 46.8526 42.4853 46.8526 42.5393C46.8526 42.5599 46.8661 42.578 46.8796 42.578C46.8958 42.578 46.9336 42.632 46.9686 42.7015C47.001 42.7685 47.0793 42.8688 47.1414 42.9255C47.2061 42.9821 47.2574 43.0439 47.2574 43.0593C47.2574 43.0748 47.3977 43.2215 47.5677 43.3863C47.7377 43.5484 47.8835 43.7106 47.8943 43.7466C47.9024 43.7827 47.9213 43.8136 47.9375 43.8136C47.951 43.8136 48.0022 43.8548 48.0508 43.9062C48.1291 43.9886 48.1399 44.0144 48.1264 44.1019C48.1129 44.21 48.1587 44.2718 48.3099 44.3516C48.4185 44.4083 49.2293 44.462 49.7654 44.462C49.9352 44.462 50.0774 44.4566 50.1611 44.4443C50.2259 44.4365 50.2933 44.4082 50.3122 44.3825C50.3311 44.3593 50.3689 44.331 50.3932 44.3207C50.4202 44.313 50.4418 44.2872 50.4418 44.2666C50.4418 44.2151 50.3095 44.071 50.2636 44.071C50.2394 44.071 50.2259 44.0401 50.2259 43.9758C50.2259 43.8934 50.2043 43.8625 50.0585 43.7338C49.9371 43.6256 49.8615 43.5793 49.7887 43.569C49.732 43.5587 49.6861 43.5433 49.6861 43.5304C49.6861 43.5201 49.5539 43.5072 49.392 43.4995C49.1761 43.4918 49.079 43.4764 49.0277 43.4455C48.9413 43.3914 48.4178 42.8894 48.4178 42.8611C48.4178 42.8482 48.407 42.8354 48.3962 42.8302C48.3638 42.8199 48.2019 42.5857 48.2019 42.5548C48.2019 42.5393 48.1884 42.5265 48.1749 42.5265C48.1587 42.5265 48.1479 42.493 48.1479 42.4518C48.1479 42.4081 48.1371 42.3694 48.1237 42.3591C48.0697 42.3282 48.0643 42.1918 48.1129 42.0451C48.1371 41.9627 48.1668 41.8906 48.1749 41.8829C48.183 41.8752 48.2073 41.8211 48.2262 41.7619C48.2478 41.7002 48.2829 41.6281 48.3072 41.5972C48.3908 41.4891 48.7767 41.1364 48.828 41.121C48.8577 41.1132 48.9035 41.0875 48.9278 41.0643C48.9521 41.0386 49.025 40.9794 49.087 40.9279C49.1491 40.8764 49.2004 40.8198 49.2004 40.8043C49.2004 40.7889 49.2166 40.776 49.2355 40.776C49.2705 40.776 49.4433 40.5932 49.4433 40.5572C49.4433 40.5289 49.6457 40.3641 49.678 40.3641C49.6969 40.3641 49.7131 40.3538 49.7131 40.341C49.7131 40.3307 49.7914 40.2406 49.8885 40.1427C49.9857 40.0449 50.1044 39.8905 50.153 39.7978C50.1989 39.7077 50.2609 39.6099 50.2906 39.579C50.4202 39.4426 50.6846 38.8144 50.6846 38.6394V38.5107L50.7845 38.5133C50.8411 38.5133 50.9545 38.5236 51.0354 38.5364C51.1164 38.5493 51.2783 38.5699 51.3916 38.5854C51.505 38.6008 51.6318 38.6317 51.675 38.6523C51.7155 38.6729 51.7802 38.6909 51.818 38.6909C51.8558 38.6909 51.9827 38.7192 52.1014 38.7552C52.2417 38.7964 52.382 38.8196 52.498 38.8196C52.6033 38.8196 52.6816 38.8299 52.6816 38.8453C52.6816 38.8608 52.7572 38.8711 52.8489 38.8711C53.1457 38.8736 54.2495 39.0538 54.2684 39.1053C54.2738 39.1182 54.4896 39.1285 54.7458 39.1285H54.7473C55.2021 39.1285 55.2156 39.1311 55.2911 39.1903C55.3343 39.2237 55.4045 39.3138 55.4477 39.3911C55.4881 39.4657 55.65 39.7283 55.8039 39.9728C55.9577 40.2174 56.0818 40.4259 56.0818 40.4413C56.0818 40.4542 56.0144 40.4851 55.9334 40.5083C55.8524 40.534 55.785 40.5623 55.785 40.5752C55.785 40.5855 55.7364 40.5958 55.6771 40.5958C55.6177 40.5958 55.5691 40.5855 55.5691 40.5726C55.5691 40.5495 55.4665 40.5057 55.3505 40.4799C55.3358 40.4766 55.3184 40.475 55.2993 40.475C55.2027 40.475 55.0627 40.5154 55.0132 40.5649C54.9935 40.5822 54.9798 40.5906 54.9701 40.5906C54.9625 40.5906 54.9574 40.5854 54.9538 40.5752C54.9471 40.5546 54.9275 40.5443 54.9073 40.5443C54.887 40.5443 54.8661 40.5546 54.8567 40.5752C54.8499 40.5881 54.8452 40.5945 54.8405 40.5945C54.8357 40.5945 54.831 40.5881 54.8243 40.5752C54.8145 40.5552 54.7781 40.5449 54.7433 40.5449C54.7108 40.5449 54.6797 40.554 54.6732 40.5726C54.6678 40.5881 54.6273 40.6009 54.5868 40.6009C54.5436 40.6035 54.4789 40.619 54.4384 40.637C54.4006 40.6576 54.3439 40.673 54.3142 40.673C54.2333 40.673 54.0984 40.8275 54.0336 40.9948C53.9634 41.1698 53.9607 41.3706 54.0228 41.4993L54.0714 41.5972L54.3871 41.5997C54.5814 41.5997 54.7055 41.5894 54.7055 41.574C54.7055 41.5586 54.7352 41.5482 54.7703 41.5482C54.8081 41.5482 54.8702 41.5354 54.9133 41.5199C54.9538 41.5045 55.0806 41.489 55.194 41.4839C55.3073 41.4787 55.5205 41.4479 55.6662 41.417C55.8147 41.3861 56.009 41.3552 56.1007 41.35C56.1952 41.3423 56.2707 41.3269 56.2707 41.3166C56.2707 41.3063 56.3949 41.2883 56.546 41.278C56.7484 41.2651 56.8671 41.2419 56.9859 41.1956C57.0749 41.1596 57.1721 41.1261 57.2044 41.1184C57.2368 41.1106 57.2962 41.054 57.3367 40.9922C57.3798 40.9279 57.4284 40.8687 57.4446 40.8584C57.4608 40.8481 57.5013 40.7966 57.5337 40.7425C57.5796 40.6653 57.593 40.6035 57.593 40.4491C57.593 40.2817 57.5796 40.2226 57.4959 40.0321C57.4419 39.9111 57.3853 39.8004 57.3745 39.7849C57.361 39.7721 57.3502 39.7412 57.3502 39.718C57.3502 39.6923 57.334 39.6562 57.3124 39.6382C57.2935 39.6176 57.2665 39.5738 57.2557 39.5404C57.2449 39.5043 57.1964 39.3936 57.1478 39.2958C57.0533 39.1028 56.9993 38.9612 56.9993 38.9071C56.9993 38.8839 57.0169 38.8724 57.0368 38.8724C57.0567 38.8724 57.079 38.8839 57.0884 38.9071C57.0965 38.9251 57.1774 38.974 57.2665 39.0152C57.3583 39.0564 57.4311 39.0976 57.4311 39.1079C57.4311 39.1208 57.4608 39.1285 57.4986 39.1285C57.5337 39.1285 57.6848 39.1722 57.8278 39.2289C58.2245 39.3782 58.4458 39.4528 58.686 39.5172C58.8047 39.5507 58.9046 39.5867 58.9099 39.597C58.9153 39.6073 58.9531 39.6176 58.9936 39.6176C59.0827 39.6176 59.2527 39.6974 59.3471 39.7849C59.3876 39.821 59.4551 39.8596 59.4982 39.8724C59.5819 39.893 59.6062 39.9445 59.5792 40.0449C59.5684 40.0835 59.5414 40.1067 59.5091 40.1067C59.4524 40.1067 59.3201 40.2714 59.3201 40.3435C59.3201 40.3693 59.2851 40.4053 59.2446 40.4259C59.1528 40.4696 58.9963 40.6396 58.9963 40.6936C58.9963 40.7107 58.9861 40.7208 58.9666 40.7208C58.9597 40.7208 58.9516 40.7195 58.9423 40.7168C58.9387 40.7159 58.9343 40.7155 58.9293 40.7155C58.8602 40.7155 58.6725 40.7939 58.6725 40.8275C58.6725 40.8403 58.6266 40.8532 58.5726 40.8584C58.4863 40.8661 58.4674 40.8764 58.4485 40.9433C58.4134 41.054 58.3217 41.296 58.2947 41.3423C58.2623 41.4067 58.3136 41.6589 58.3675 41.6976C58.394 41.717 58.4589 41.7262 58.596 41.7262C58.6405 41.7262 58.6926 41.7252 58.7534 41.7233C59.0449 41.7156 59.1043 41.7079 59.1933 41.6589C59.25 41.6255 59.3255 41.5997 59.3633 41.5997C59.3984 41.5997 59.4281 41.5894 59.4281 41.5791C59.4281 41.5663 59.474 41.5379 59.5279 41.5122C59.6494 41.4581 59.7438 41.3912 59.9192 41.2316C59.9948 41.1647 60.0676 41.1106 60.0757 41.1106C60.0865 41.1106 60.1027 41.09 60.1135 41.0643C60.1702 40.9047 60.3321 40.619 60.378 40.6009C60.3888 40.5958 60.3996 40.5752 60.3996 40.5546C60.3996 40.534 60.4077 40.5186 60.4212 40.5186C60.4428 40.5186 60.6532 40.2714 60.7342 40.1453C60.7801 40.081 60.7882 40.0192 60.7882 39.7592C60.7909 39.476 60.7828 39.4374 60.7207 39.3087C60.637 39.1439 60.467 38.9509 60.3564 38.8968C60.3132 38.8762 60.2727 38.8505 60.2646 38.8428C60.2565 38.8325 60.1405 38.7681 60.0083 38.696C59.8733 38.6239 59.7168 38.5313 59.6575 38.4875C59.5981 38.4463 59.5279 38.4026 59.5036 38.3948C59.4524 38.3742 59.2473 38.2095 59.0988 38.0679C58.9963 37.9675 58.8884 37.7719 58.8884 37.6818C58.8884 37.6251 59.0449 37.36 59.2041 37.1464C59.2662 37.064 59.3417 36.9481 59.3741 36.8915C59.4038 36.8323 59.4901 36.7062 59.5603 36.6109C59.7087 36.4178 59.7708 36.2119 59.7438 35.9957C59.7249 35.8386 59.6278 35.4036 59.5927 35.3161C59.5684 35.2517 59.5738 35.1848 59.6332 34.8811C59.6413 34.8321 59.6655 34.7781 59.6844 34.7652C59.7006 34.7498 59.7438 34.6906 59.7762 34.6288C59.8086 34.5696 59.8437 34.5207 59.8545 34.5207C59.8652 34.5207 59.9435 34.4615 60.0272 34.3919L60.181 34.2606L60.3537 34.2787C60.4032 34.2835 60.4389 34.2865 60.4668 34.2865C60.5285 34.2865 60.5518 34.2715 60.602 34.2272C60.6504 34.1839 60.6767 34.1641 60.6986 34.1641C60.7158 34.1641 60.7302 34.1762 60.7504 34.1989C60.7716 34.2235 60.8329 34.2367 60.8873 34.2367C60.9297 34.2367 60.9679 34.2287 60.9798 34.2118C60.99 34.1961 61.013 34.1885 61.0475 34.1885C61.1776 34.1885 61.4708 34.2965 61.8568 34.4898C62.1698 34.6468 62.2076 34.6596 62.3695 34.6597C62.3717 34.6597 62.3738 34.6597 62.3759 34.6597C62.665 34.6597 62.9362 34.4858 62.9362 34.2993C62.9362 34.2628 62.9417 34.2496 62.9747 34.2496C62.9882 34.2496 63.0064 34.2518 63.0307 34.2555C63.0554 34.2593 63.0737 34.2615 63.0873 34.2615C63.1198 34.2615 63.1251 34.2488 63.1251 34.2143C63.1251 34.1809 63.0874 34.1345 63.0199 34.0882C62.9605 34.0496 62.8985 33.9878 62.8769 33.9492C62.8418 33.8823 62.5476 33.6454 62.4991 33.6454C62.4856 33.6454 62.4586 33.63 62.437 33.612C62.4181 33.5965 62.3776 33.5605 62.3452 33.5373C62.2833 33.4859 62.2697 33.4397 62.3206 33.4395H62.3212C62.3409 33.4396 62.4781 33.4576 62.6286 33.4781C62.7337 33.492 62.8574 33.4985 62.9847 33.4985C63.2825 33.4985 63.6003 33.463 63.7458 33.4034C63.7674 33.3931 63.8106 33.3211 63.8429 33.2387C63.8726 33.1589 63.9212 33.0328 63.9482 32.9632C64.0211 32.783 64.0157 32.6466 63.9374 32.5874C63.9023 32.5591 63.8564 32.5385 63.8376 32.5385C63.816 32.5385 63.7512 32.5102 63.6945 32.4767C63.6379 32.4407 63.5434 32.4021 63.4841 32.3866C63.422 32.3712 63.3599 32.3403 63.341 32.3197C63.3221 32.2991 63.2871 32.2811 63.2655 32.2811C63.2412 32.2811 63.0847 32.2167 62.9173 32.1369C62.634 32.0005 62.5989 31.9773 62.4532 31.8023C62.3641 31.6993 62.2859 31.5757 62.2751 31.5294C62.2427 31.3698 62.2022 31.308 62.0916 31.2334C62.0295 31.1948 61.9 31.1047 61.8028 31.0378C61.4952 30.8189 61.1579 30.6825 60.8124 30.6336C60.7207 30.6233 60.6289 30.6027 60.61 30.5924C60.5911 30.5795 60.4481 30.5641 60.2916 30.5538C60.1935 30.5479 60.1036 30.5449 60.023 30.5449Z" fill="url(#paint1_linear_51_6765)"/>
<path d="M43.321 17.1946L43.3113 17.1352C45.0153 22.1992 46.7024 27.201 49.3885 30.1213C52.0599 33.0257 55.7359 33.8826 59.488 34.7517C59.5974 34.777 59.6646 34.8822 59.638 34.9867C59.6115 35.0911 59.5012 35.1552 59.3917 35.1298C55.6595 34.2654 51.8513 33.3889 49.0818 30.3779C46.327 27.3829 44.6165 22.2873 42.9228 17.2541C42.9164 17.2349 42.9131 17.2148 42.9131 17.1946C42.9131 17.0872 43.0044 17 43.1171 17C43.2297 17 43.321 17.0871 43.321 17.1946Z" fill="black"/>
</g>
<defs>
<filter id="filter0_d_51_6765" x="0" y="0" width="67.9995" height="54" filterUnits="userSpaceOnUse" color-interpolation-filters="sRGB">
<feFlood flood-opacity="0" result="BackgroundImageFix"/>
<feColorMatrix in="SourceAlpha" type="matrix" values="0 0 0 0 0 0 0 0 0 0 0 0 0 0 0 0 0 0 127 0" result="hardAlpha"/>
<feOffset dy="4"/>
<feGaussianBlur stdDeviation="2"/>
<feComposite in2="hardAlpha" operator="out"/>
<feColorMatrix type="matrix" values="0 0 0 0 0 0 0 0 0 0 0 0 0 0 0 0 0 0 0.25 0"/>
<feBlend mode="normal" in2="BackgroundImageFix" result="effect1_dropShadow_51_6765"/>
<feBlend mode="normal" in="SourceGraphic" in2="effect1_dropShadow_51_6765" result="shape"/>
</filter>
<linearGradient id="paint0_linear_51_6765" x1="9.43592" y1="30.6667" x2="67.1355" y2="30.6667" gradientUnits="userSpaceOnUse">
<stop stop-color="#8AB2D7"/>
<stop offset="1" stop-color="#AB7CC8"/>
</linearGradient>
<linearGradient id="paint1_linear_51_6765" x1="53.4561" y1="30.5449" x2="53.4561" y2="44.462" gradientUnits="userSpaceOnUse">
<stop stop-color="#6F9ACD"/>
<stop offset="1" stop-color="#A87DCA"/>
</linearGradient>
</defs>
</svg>
