<svg width="289" height="289" viewBox="0 0 289 289" fill="none" xmlns="http://www.w3.org/2000/svg">
<g clip-path="url(#clip0_51_9854)">
<path d="M123 3.40032C111.8 7.13366 101.8 13.667 94.4665 21.8003L88.5998 28.3336H54.0665C23.5331 28.3336 18.9998 28.7336 14.3331 30.867C8.46647 33.5336 2.06647 40.2003 0.999805 44.7336C0.599805 46.3336 0.466471 98.7336 0.599805 161.134L0.999805 274.6L4.5998 279.267C11.9331 288.867 2.99979 288.334 144.333 288.334H271.266L276.6 285.4C279.533 283.667 283.4 279.934 285.133 276.867L288.333 271.4V159.134C288.333 67.4003 288.066 46.067 286.466 42.6003C284.2 37.0003 277.666 31.5336 271.266 29.667C268.466 29.0003 251.8 28.3336 233.133 28.3336H200.066L194.466 22.067C187.4 13.9336 175.4 6.33366 164.6 3.00032C152.466 -0.73301 134.6 -0.599676 123 3.40032ZM167.533 14.7336C172.733 17.1336 179.666 21.9336 184.2 26.3336C213.266 54.067 204.866 102.867 167.933 119.667C139.666 132.6 105.266 119.8 92.0665 91.4003C87.1331 81.0003 85.5331 64.867 88.3331 54.067C93.2665 34.2003 108.466 18.3336 129 11.4003C132.466 10.3336 138.733 9.80032 146.466 10.2003C156.733 10.6003 160.066 11.267 167.533 14.7336ZM82.3331 39.9336C78.5998 49.0003 77.3998 55.667 77.2665 67.0003C77.2665 87.5336 84.1998 103.267 99.3998 117.267C108.6 125.534 117.933 130.334 130.333 133C141.933 135.4 146.6 135.4 157.933 133.134C197.933 124.6 221.266 83.0003 207.666 44.467C206.6 41.267 205.666 38.467 205.666 38.067C205.666 37.8003 219.933 37.667 237.4 37.9336C271.8 38.3336 274.066 38.867 277.4 46.467C278.6 48.867 279 79.5336 279 159.8V269.934L274.466 274.467L269.933 279L143.666 278.734L17.3998 278.334L13.5331 273.934L9.66647 269.667V159.534C9.66647 41.0003 9.53314 44.2003 16.5998 40.7336C22.1998 37.9336 23.3998 37.9336 53.5331 37.8003C81.3998 37.667 83.2665 37.8003 82.3331 39.9336Z" fill="url(#paint0_linear_51_9854)"/>
<path d="M132.866 20.1997C114.066 24.7331 98.7331 42.0664 96.7331 60.9997C95.5331 72.9997 92.8665 72.3331 144.2 72.3331C177.4 72.3331 189.533 71.9331 190.733 70.7331C193.133 68.3331 192.733 61.7997 189.666 52.1997C186.866 42.9997 180.6 34.1997 172.733 28.1997C163.133 20.8664 145.266 17.2664 132.866 20.1997ZM139 31.6664C139 33.1331 140.466 33.6664 144.333 33.6664C148.2 33.6664 149.666 33.1331 149.666 31.6664C149.666 29.5331 151.266 29.2664 156.066 30.4664C158.2 31.1331 158.866 32.0664 158.333 33.7997C157.266 36.8664 164.466 40.9997 166.733 38.7331C167.933 37.5331 169.133 37.9331 171.666 40.3331C174.6 42.9997 174.733 43.6664 173 44.5997C169.933 46.4664 174.2 54.1997 177.8 53.2664C179.8 52.7331 180.6 53.5331 181.4 56.7331C182.066 59.1331 182.333 61.3997 182.066 61.9331C181.8 62.5997 173.8 62.9997 164.333 62.9997H147.266L141 52.3331C137.533 46.4664 133.933 41.6664 133 41.6664C132.066 41.6664 130.066 42.7331 128.466 43.9331L125.666 46.3331L130.333 53.6664C132.866 57.6664 135 61.3997 135 61.9331C135 62.5997 128.733 62.9997 121 62.9997C105.933 62.9997 105.8 62.9997 107.8 55.5331C108.333 53.5331 109.266 52.8664 111 53.2664C112.733 53.7997 114.066 52.7331 115.533 49.7997C117.4 46.1997 117.4 45.6664 115.666 44.5997C113.933 43.6664 114.066 42.9997 117 40.3331C119.533 37.9331 120.733 37.5331 121.933 38.7331C124.333 41.1331 131.4 36.8664 130.333 33.6664C129.8 32.0664 130.333 30.9997 131.933 30.5997C136.733 29.3997 139 29.6664 139 31.6664Z" fill="url(#paint1_linear_51_9854)"/>
<path d="M120.333 86.3326V90.9993H144.333H168.333V86.3326V81.666H144.333H120.333V86.3326Z" fill="url(#paint2_linear_51_9854)"/>
<path d="M95.3998 190.601C94.4665 190.868 93.6665 192.868 93.6665 194.735C93.6665 197.668 98.4665 203.135 117.4 222.068C132.2 236.868 142.067 245.668 143.667 245.668C147.4 245.668 193.667 199.268 193.667 195.535C193.667 192.335 191.267 189.668 188.467 189.668C187.4 189.668 176.867 199.268 165 211.001L143.667 232.335L122.333 211.001C102.333 191.001 99.5332 188.868 95.3998 190.601Z" fill="url(#paint3_linear_51_9854)"/>
</g>
<defs>
<linearGradient id="paint0_linear_51_9854" x1="3" y1="169" x2="266" y2="167.5" gradientUnits="userSpaceOnUse">
<stop stop-color="#DDB487"/>
<stop offset="1" stop-color="#ABC87C"/>
</linearGradient>
<linearGradient id="paint1_linear_51_9854" x1="97.0832" y1="50.3142" x2="184.829" y2="49.4095" gradientUnits="userSpaceOnUse">
<stop stop-color="#D7B686"/>
<stop offset="1" stop-color="#ABC87C"/>
</linearGradient>
<linearGradient id="paint2_linear_51_9854" x1="120.742" y1="87.1324" x2="164.572" y2="85.8456" gradientUnits="userSpaceOnUse">
<stop stop-color="#DDB487"/>
<stop offset="1" stop-color="#ABC87C"/>
</linearGradient>
<linearGradient id="paint3_linear_51_9854" x1="94.5179" y1="222.467" x2="185.9" y2="221.535" gradientUnits="userSpaceOnUse">
<stop stop-color="#DCB487"/>
<stop offset="1" stop-color="#ABC87C"/>
</linearGradient>
<clipPath id="clip0_51_9854">
<rect width="289" height="289" fill="white"/>
</clipPath>
</defs>
</svg>
