<svg width="69" height="49" viewBox="0 0 69 49" fill="none" xmlns="http://www.w3.org/2000/svg">
<g filter="url(#filter0_d_51_7283)">
<path d="M65 38.8737L64.7216 39.027C63.4019 39.3358 59.5406 39.5828 53.1376 39.7679C46.6904 39.9529 39.0983 40.0279 30.3613 39.993C22.0231 39.9441 15.3543 39.8011 10.3551 39.5639C8.75324 39.4873 7.43384 39.4038 6.39684 39.3134L5.08949 39.1739C4.37124 39.078 4.00808 38.9779 4 38.8737C4.21804 38.5537 7.19579 38.2874 12.9332 38.075C18.6707 37.8624 25.8596 37.7522 34.5 37.7441C43.1404 37.7522 50.3293 37.8625 56.0668 38.075C61.8042 38.2874 64.782 38.5537 65 38.8737Z" fill="#6F4562"/>
<path d="M28.9473 0.0124394L29.4422 0.012114L29.9371 0.0117188C29.9377 1.12921 29.9383 2.24672 29.9389 3.36425C29.609 3.36452 29.279 3.36478 28.9491 3.36504C28.9485 2.24748 28.9479 1.12995 28.9473 0.0124394Z" fill="#24275B"/>
<path d="M31.9502 0.00855644L32.94 0.0078125L32.9419 3.36033L31.9521 3.36114L31.9502 0.00855644Z" fill="#24275B"/>
<path d="M34.9526 0.00661881L35.4475 0.00626234L35.9424 0.00585938C35.943 1.12335 35.9437 2.24087 35.9443 3.35843C35.6144 3.35869 35.2844 3.35894 34.9545 3.35917C34.9539 2.24165 34.9532 1.12413 34.9526 0.00661881Z" fill="#24275B"/>
<path d="M40.958 0.000666444L41.9478 0L41.9496 3.35254L40.9598 3.3533L40.958 0.000666444Z" fill="#24275B"/>
<path d="M37.9556 0.00650257L38.4505 0.00621584L38.9454 0.00585938C38.946 1.12339 38.9466 2.24089 38.9472 3.35837C38.6173 3.35864 38.2873 3.35891 37.9574 3.35919C37.9568 2.24163 37.9562 1.12407 37.9556 0.00650257Z" fill="#24275B"/>
<path d="M43.9609 0.000635446L44.4559 0.000294475L44.9508 0C44.9514 1.11748 44.952 2.23498 44.9526 3.35248C44.6227 3.35276 44.2927 3.35303 43.9628 3.3533C43.9622 2.23574 43.9616 1.11819 43.9609 0.000635446Z" fill="#24275B"/>
<path d="M46.6475 38.2213C47.5557 38.2202 48.2918 37.3518 48.2909 36.2819L48.2652 5.28277C48.2643 4.21284 47.5268 3.34659 46.6186 3.34766L27.6966 3.36926C26.788 3.37051 26.0523 4.23845 26.0532 5.30835L26.0731 29.2729L34.0113 38.2359L46.6476 38.2212L46.6475 38.2213Z" fill="#F5F5F5"/>
<path d="M27.7255 38.2417C26.8173 38.2424 26.08 37.3753 26.0794 36.3054L26.0625 5.30619C26.0619 4.23633 26.7982 3.36861 27.7064 3.36786L46.6285 3.35352C47.537 3.35291 48.2739 4.2195 48.2745 5.28938L48.2876 29.2539L40.3617 38.232L27.7255 38.2415V38.2417Z" fill="#F5F5F5"/>
<path d="M48.2871 29.2559L42.0013 29.2605C41.0928 29.2613 40.3568 30.1291 40.3574 31.1989L40.3613 38.2341L48.2871 29.2559Z" fill="#E1E1E1"/>
<path d="M27.894 11.9806L29.0553 11.9796L30.2166 11.9785C30.2172 12.8901 30.2179 13.8017 30.2185 14.7134C29.4443 14.7141 28.6701 14.7149 27.8959 14.7156L27.894 11.9806Z" fill="#F3A8DB"/>
<path d="M31.1343 11.9788L33.4568 11.9766L33.4587 14.7114L31.1362 14.7137L31.1343 11.9788Z" fill="#F3A8DB"/>
<path d="M34.3745 11.9768L35.5358 11.9757L36.6971 11.9746C36.6977 12.8862 36.6983 13.7979 36.6989 14.7095C35.9248 14.7102 35.1506 14.711 34.3764 14.7118C34.3758 13.8001 34.3751 12.8884 34.3745 11.9768Z" fill="#F3A8DB"/>
<path d="M37.6152 11.9767L39.9378 11.9746L39.9397 14.7094L37.6171 14.7116L37.6152 11.9767Z" fill="#F3A8DB"/>
<path d="M40.8564 11.9709L42.0177 11.9697L43.179 11.9688C43.1796 12.8803 43.1803 13.7919 43.1809 14.7035C42.4067 14.7043 41.6325 14.705 40.8583 14.7058C40.8577 13.7941 40.8571 12.8825 40.8564 11.9709Z" fill="#F3A8DB"/>
<path d="M44.0967 11.9708L46.4192 11.9688L46.4211 14.7036L44.0986 14.7058L44.0967 11.9708Z" fill="#F3A8DB"/>
<path d="M27.896 15.5529L29.0573 15.5518L30.2185 15.5508C30.2192 16.4623 30.2198 17.3739 30.2204 18.2856C29.4462 18.2863 28.6721 18.2871 27.8979 18.2878L27.896 15.5529Z" fill="#F8D58A"/>
<path d="M31.1362 15.551L33.4588 15.5488L33.4607 18.2836L31.1381 18.2859L31.1362 15.551Z" fill="#F3A8DB"/>
<path d="M34.377 15.551L35.5382 15.5499L36.6995 15.5488C36.7001 16.4604 36.7007 17.372 36.7014 18.2836C35.9272 18.2844 35.153 18.2852 34.3788 18.2859C34.3782 17.3743 34.3776 16.4626 34.377 15.551Z" fill="#F3A8DB"/>
<path d="M37.6177 15.5452L39.9402 15.543L39.9421 18.2778L37.6195 18.2801L37.6177 15.5452Z" fill="#F3A8DB"/>
<path d="M40.8584 15.5451L42.0197 15.544L43.181 15.543C43.1816 16.4545 43.1822 17.3661 43.1828 18.2778C42.4086 18.2785 41.6345 18.2792 40.8603 18.2799C40.8596 17.3683 40.859 16.4567 40.8584 15.5451Z" fill="#F3A8DB"/>
<path d="M44.0986 15.5392L46.4212 15.5371L46.4231 18.272L44.1005 18.2742L44.0986 15.5392Z" fill="#F3A8DB"/>
<path d="M27.8984 19.1213L29.0597 19.1202L30.221 19.1191C30.2216 20.0307 30.2222 20.9424 30.2229 21.854C29.4487 21.8548 28.6745 21.8555 27.9003 21.8562L27.8984 19.1213Z" fill="#F8D58A"/>
<path d="M31.1382 19.1213L33.4608 19.1191L33.4627 21.854L31.1401 21.8563L31.1382 19.1213Z" fill="#F3A8DB"/>
<path d="M34.3789 19.1194L35.5402 19.1182L36.7014 19.1172C36.7021 20.0288 36.7027 20.9405 36.7034 21.8521C35.9292 21.8528 35.155 21.8536 34.3808 21.8543C34.3802 20.9427 34.3795 20.031 34.3789 19.1194Z" fill="#F3A8DB"/>
<path d="M37.6196 19.1193L39.9422 19.1172L39.9441 21.8521L37.6215 21.8543L37.6196 19.1193Z" fill="#F3A8DB"/>
<path d="M40.8599 19.1134L42.0212 19.1124L43.1824 19.1113C43.1831 20.023 43.1837 20.9346 43.1843 21.8462C42.4101 21.847 41.636 21.8477 40.8618 21.8484C40.8611 20.9368 40.8605 20.0251 40.8599 19.1134Z" fill="#F3A8DB"/>
<path d="M44.1001 19.1115L46.4227 19.1094L46.4246 21.8442L44.102 21.8464L44.1001 19.1115Z" fill="#F3A8DB"/>
<path d="M27.8994 22.6936L29.0607 22.6925L30.222 22.6914C30.2226 23.603 30.2233 24.5146 30.2239 25.4263C29.4497 25.427 28.6755 25.4277 27.9013 25.4285L27.8994 22.6936Z" fill="#F8D58A"/>
<path d="M31.1396 22.6916L33.4622 22.6895L33.4641 25.4243L31.1415 25.4265L31.1396 22.6916Z" fill="#F3A8DB"/>
<path d="M34.3809 22.6915L35.5421 22.6905L36.7034 22.6895C36.7041 23.6011 36.7047 24.5126 36.7053 25.4241C35.9311 25.4249 35.1569 25.4257 34.3828 25.4265C34.3821 24.5149 34.3815 23.6032 34.3809 22.6915Z" fill="#F3A8DB"/>
<path d="M37.6216 22.6877L39.9441 22.6855L39.946 25.4204L37.6235 25.4226L37.6216 22.6877Z" fill="#F3A8DB"/>
<path d="M40.8613 22.6856L42.0226 22.6846L43.1839 22.6836C43.1845 23.5952 43.1851 24.5068 43.1858 25.4183C42.4116 25.4191 41.6374 25.4198 40.8632 25.4206C40.8626 24.509 40.862 23.5973 40.8613 22.6856Z" fill="#F3A8DB"/>
<path d="M44.1021 22.6817L46.4246 22.6797L46.4265 25.4144L44.1039 25.4167L44.1021 22.6817Z" fill="#F3A8DB"/>
<path d="M27.9009 26.2658L29.0622 26.2648L30.2235 26.2637C30.2241 27.1753 30.2247 28.0869 30.2254 28.9985C29.4512 28.9993 28.677 29 27.9028 29.0008L27.9009 26.2658Z" fill="#F8D58A"/>
<path d="M31.1416 26.2658L33.4641 26.2637L33.466 28.9985L31.1435 29.0007L31.1416 26.2658Z" fill="#F3A8DB"/>
<path d="M34.3833 26.26L35.5445 26.2589L36.7059 26.2578C36.7065 27.1694 36.7071 28.081 36.7078 28.9926C35.9335 28.9934 35.1593 28.9942 34.3852 28.995C34.3845 28.0833 34.3839 27.1717 34.3833 26.26Z" fill="#F3A8DB"/>
<path d="M37.6235 26.258L39.9461 26.2559L39.948 28.9907L37.6254 28.993L37.6235 26.258Z" fill="#F3A8DB"/>
<path d="M40.8633 26.2541L42.0246 26.2531L43.1859 26.252C43.1865 27.1636 43.1871 28.0752 43.1878 28.9868C42.4136 28.9875 41.6394 28.9883 40.8652 28.989C40.8646 28.0774 40.8639 27.1657 40.8633 26.2541Z" fill="#F3A8DB"/>
<path d="M44.104 26.2541L46.4265 26.252L46.4285 28.9868L44.1059 28.989L44.104 26.2541Z" fill="#F3A8DB"/>
<path d="M25.7842 1.16353L37.1246 1.15501L48.4649 1.14648C48.4658 2.7866 48.4667 4.42667 48.4676 6.0667C40.9074 6.07249 33.3471 6.07828 25.7869 6.08406C25.786 4.4439 25.7851 2.80373 25.7842 1.16353Z" fill="#D357AC"/>
<path d="M29.1479 0.0124782L29.6429 0.012083L30.1377 0.0117188C30.1384 1.12927 30.139 2.2468 30.1396 3.36429C29.8096 3.36456 29.4797 3.36481 29.1498 3.36504C29.1492 2.2475 29.1486 1.12999 29.1479 0.0124782Z" fill="#24275B"/>
<path d="M32.1499 0.00654907L33.1397 0.00585938L33.1416 3.35837L32.1518 3.3592L32.1499 0.00654907Z" fill="#24275B"/>
<path d="M35.1523 0.00654132L35.6472 0.0061151L36.1422 0.00585938C36.1428 1.1233 36.1434 2.2408 36.144 3.35836C35.814 3.35861 35.4841 3.35887 35.1542 3.35914C35.1536 2.2416 35.1529 1.12407 35.1523 0.00654132Z" fill="#24275B"/>
<path d="M41.1577 0.00256532L42.1476 0.00195312L42.1494 3.35444L41.1596 3.35513L41.1577 0.00256532Z" fill="#24275B"/>
<path d="M38.1553 0.00654132L38.6502 0.0061926L39.1451 0.00585938C39.1457 1.12336 39.1463 2.24087 39.147 3.35839C38.817 3.35862 38.4871 3.35888 38.1571 3.35916C38.1565 2.24157 38.1559 1.12403 38.1553 0.00654132Z" fill="#24275B"/>
<path d="M44.1606 0.000689692L44.6555 0.000340971L45.1505 0C45.1511 1.11755 45.1517 2.23506 45.1523 3.35254C44.8224 3.35278 44.4924 3.35302 44.1625 3.35326C44.1619 2.23578 44.1613 1.11826 44.1606 0.000689692Z" fill="#24275B"/>
<path d="M29.0952 7.53363L45.2977 7.52148L45.2988 9.67125L29.0964 9.68354L29.0952 7.53363Z" fill="#F3A8DB"/>
<path d="M50.0186 20.0479C50.0183 20.0771 49.9979 20.1005 49.9731 20.1C49.9483 20.0997 49.9284 20.0757 49.9287 20.0465C49.9291 20.0172 49.9494 19.9938 49.9742 19.9941C49.9991 19.9946 50.0189 20.0186 50.0186 20.0479Z" fill="black"/>
<path d="M43.8433 12.1277L44.4939 13.1689L45.1445 14.2102C46.2815 12.5425 47.4184 10.8748 48.5553 9.20703C47.4492 10.5654 46.3432 11.9237 45.2371 13.282L43.8433 12.1277Z" fill="#24275B"/>
<path d="M20.736 10.1056C13.9466 10.1381 8.46466 16.646 8.49229 24.6408C8.51994 32.6355 14.0467 39.0907 20.836 39.0581C27.6254 39.0256 33.1074 32.5177 33.0797 24.523C33.0521 16.5282 27.5254 10.073 20.736 10.1056Z" fill="#D357AC"/>
<path d="M20.024 25.4885C20.2204 25.7179 20.4911 25.8591 20.7894 25.8577C21.3622 25.8549 21.8305 25.3252 21.8633 24.6607L27.1639 18.3674L26.0131 17.0233L20.7803 23.2348L17.2313 19.0902L16.0898 20.4453L19.7072 24.6711C19.7245 24.9904 19.8427 25.2768 20.024 25.4885ZM20.7415 12.0177C26.6263 11.9895 31.4336 17.6044 31.4575 24.5339C31.4815 31.4634 26.7132 37.1242 20.8284 37.1523C14.9436 37.1805 10.1364 31.5657 10.1124 24.6362C10.0885 17.7066 14.8567 12.0459 20.7415 12.0177Z" fill="white"/>
<path d="M20.8498 23.3149L20.7809 23.2345L17.2318 19.0898L16.0903 20.445L19.7077 24.6707C19.7055 24.644 19.7048 24.6173 19.7048 24.5899L20.7811 23.3121C20.8044 23.312 20.8271 23.3126 20.8498 23.3149Z" fill="#D357AC"/>
<path d="M27.1639 18.3637L26.013 17.0195L20.7803 23.2311L20.8492 23.3115L21.8657 24.5761C21.8658 24.6035 21.8654 24.6302 21.8633 24.657L27.1639 18.3637Z" fill="#A54486"/>
<path d="M20.4302 24.3281L15.2684 30.456C15.1108 30.6431 15.1118 30.9454 15.2708 31.1309C15.3502 31.2237 15.4541 31.2698 15.5578 31.2693C15.6615 31.2688 15.7651 31.2217 15.8439 31.1281L21.0057 25.0002L20.4302 24.3281Z" fill="#A54486"/>
<path d="M20.7898 25.8558C21.3857 25.853 21.8685 25.2798 21.8661 24.578C21.8637 23.8763 21.3769 23.3077 20.781 23.3106C20.185 23.3134 19.7022 23.8866 19.7046 24.5884C19.707 25.2901 20.1938 25.8587 20.7898 25.8558Z" fill="#24275B"/>
<path d="M20.7568 16.3088C20.533 16.3098 20.3508 16.097 20.3499 15.8335L20.3433 13.9245C20.3424 13.6609 20.5231 13.4464 20.7469 13.4453C20.9707 13.4443 21.1529 13.6571 21.1538 13.9206L21.1604 15.8296C21.1613 16.0931 20.9806 16.3077 20.7568 16.3088Z" fill="#24275B"/>
<path d="M29.8391 25.0189L28.218 25.0267C27.9942 25.0277 27.812 24.8149 27.811 24.5513C27.8101 24.2878 27.9909 24.0733 28.2147 24.0721L29.8358 24.0645C30.0597 24.0634 30.2419 24.2762 30.2428 24.5397C30.2437 24.8033 30.063 25.0178 29.8391 25.0189Z" fill="#24275B"/>
<path d="M20.8247 35.7189C20.6008 35.7199 20.4187 35.5072 20.4177 35.2437L20.4111 33.3347C20.4102 33.0711 20.5909 32.8566 20.8148 32.8555C21.0386 32.8544 21.2208 33.0672 21.2217 33.3308L21.2283 35.2397C21.2292 35.5033 21.0485 35.7179 20.8247 35.7189Z" fill="#24275B"/>
<path d="M13.3572 25.0951L11.736 25.1029C11.5122 25.1039 11.33 24.8911 11.3291 24.6275C11.3282 24.364 11.5089 24.1495 11.7327 24.1484L13.3539 24.1406C13.5777 24.1395 13.7599 24.3523 13.7608 24.6159C13.7617 24.8795 13.581 25.094 13.3572 25.0951Z" fill="#24275B"/>
<path d="M56.429 36.0195L55.9883 37.6319C55.9199 37.8012 55.8465 37.9426 55.7682 38.056C55.7467 38.0999 55.6127 38.264 55.3659 38.5482C55.3185 38.6085 55.2837 38.66 55.2615 38.7027C55.1994 38.8146 55.2137 38.8931 55.3044 38.9384C55.4335 38.9922 55.5985 38.9846 55.7993 38.9155C55.9847 38.8482 56.1518 38.7363 56.3004 38.5801C56.5529 38.3342 56.8771 37.7665 57.2731 36.8769C57.0542 36.5789 56.8919 36.3769 56.7862 36.271C56.6841 36.1651 56.5651 36.0813 56.4292 36.0196" fill="#220601"/>
<path d="M53.4029 38.1758L52.5325 38.4615L52.131 38.5203C51.9148 38.4734 51.7623 38.4464 51.6735 38.4393C51.561 38.4287 51.4718 38.4325 51.4058 38.4506C51.2437 38.506 51.1848 38.6068 51.2291 38.753C51.2829 38.9127 51.5354 39.0371 51.9866 39.1261C52.2635 39.1806 52.5528 39.2162 52.8544 39.2328C53.0703 39.2448 53.2653 39.2325 53.4391 39.1959C53.5314 39.0132 53.5739 38.8595 53.5666 38.7346C53.5661 38.6182 53.5115 38.4319 53.4029 38.176" fill="#220601"/>
<path d="M52.5066 37.334C52.4296 37.7203 52.3423 37.9836 52.2446 38.1238C52.2025 38.1895 52.1505 38.2478 52.0886 38.2985C52.0552 38.3262 52.018 38.3534 51.977 38.3798L51.7495 38.5184C51.7164 38.542 51.6988 38.5622 51.6967 38.579C51.6913 38.6153 51.7375 38.6506 51.8355 38.685C51.9348 38.7182 52.0569 38.7399 52.2018 38.7501C52.4803 38.767 52.7554 38.7327 53.0272 38.6473C53.269 38.5669 53.4004 38.4666 53.4214 38.3465C53.4307 38.3012 53.4288 38.2506 53.4158 38.1947C53.4146 38.1714 53.3776 38.0652 53.3046 37.876C53.2924 37.8394 53.281 37.8006 53.2703 37.7596C53.2414 37.6486 53.2196 37.5222 53.205 37.3805L52.507 37.334" fill="#FF9B77"/>
<path d="M55.7309 35.4062L55.0298 36.1077C55.4784 36.5637 55.7372 36.9142 55.8064 37.1593C55.8461 37.2784 55.8607 37.4063 55.8502 37.5428C55.8453 37.6125 55.8341 37.6877 55.8167 37.7684L55.7206 38.1433C55.7126 38.1874 55.7156 38.2155 55.7297 38.2276C55.774 38.2538 55.8521 38.2032 55.9639 38.0757C56.0672 37.9537 56.1637 37.7993 56.2535 37.6125C56.3591 37.3929 56.4545 37.1487 56.5398 36.88C56.6234 36.6115 56.6656 36.4172 56.6667 36.2972C56.6674 36.216 56.6462 36.1566 56.6032 36.1188L56.5533 36.0808C56.4584 36.0258 56.401 35.9907 56.381 35.9755C56.3385 35.9461 56.2927 35.9112 56.2434 35.8709C56.1379 35.786 55.9676 35.6316 55.7326 35.4078" fill="#FF9B77"/>
<path d="M51.7602 13.2031C51.5035 13.2012 51.1193 13.3949 50.6074 13.7843L51.2143 17.3673C51.4742 17.6663 51.6399 17.9392 51.7112 18.186C51.7463 18.293 51.7743 18.4218 51.7953 18.5725C51.8657 19.3763 51.9184 19.8248 51.9536 19.9181C52.0079 20.1737 52.1172 20.4516 52.2816 20.7518L53.131 22.2459C53.2399 22.4294 53.3303 22.5603 53.4024 22.6386C53.5227 22.8239 53.7892 22.901 54.2019 22.8699C54.6171 22.8715 54.8124 22.634 54.7876 22.1574C54.7789 22.062 54.7561 21.9701 54.7194 21.8819L54.436 21.4312C54.3939 21.3469 54.3566 21.2222 54.3239 21.0571C54.2926 20.8879 54.2769 20.7424 54.2767 20.6207C54.2775 20.575 54.2805 20.5444 54.2859 20.5289C54.3111 20.4802 54.3243 20.4419 54.3254 20.4139C54.3294 20.3893 54.3297 20.3406 54.3264 20.2678C54.3182 20.1274 54.2937 19.9194 54.2529 19.6441C53.912 17.5174 53.6467 16.019 53.457 15.149C53.3732 14.7645 53.2026 14.4341 52.9454 14.1578C52.4291 13.5973 52.1793 13.3375 52.1959 13.3783C52.0553 13.2615 51.9101 13.2031 51.7604 13.2031" fill="black"/>
<path d="M54.1758 24.2402L52.6275 24.7244L51.9421 24.4293L51.2637 24.6668L51.1528 24.4299L50.9422 25.0685C50.9106 24.6541 50.8689 24.5906 50.8172 24.8781C50.7794 25.0802 50.7631 25.249 50.7683 25.3846C50.7761 25.4897 50.8342 25.3867 50.9425 25.0756C50.9522 25.3439 50.9404 25.5297 50.9071 25.633C50.8866 25.6844 50.8611 25.7083 50.8307 25.7047L50.6562 25.6414L50.8056 26.9644C50.9499 28.6006 51.0401 29.5752 51.0762 29.8884C51.1375 30.4764 51.2015 31.0268 51.2681 31.5395C51.4276 32.8024 51.7391 34.816 52.2024 37.5804L53.3909 37.4541L53.1669 33.6097L55.0183 36.5148L56.021 35.4481C54.3153 32.9153 53.3477 31.5338 53.1181 31.3036C53.2665 31.103 53.3952 30.8093 53.5041 30.4224C53.5647 30.2595 53.7889 29.3828 54.1767 27.7923L54.2884 27.4187L54.5122 26.7991C54.5615 26.6316 54.5959 26.4802 54.6154 26.3448C54.7257 25.7997 54.5814 25.1031 54.1825 24.2552" fill="white"/>
<path d="M54.0339 22.8184L52.6905 22.8447C52.8893 23.1801 53.007 23.4185 53.0436 23.5599C53.0952 23.7336 53.0878 23.8738 53.0214 23.9804C52.9586 24.0854 52.8212 24.1786 52.6091 24.2601C52.4349 24.3302 52.1192 24.4106 51.6621 24.5012C51.8961 24.6827 52.0891 24.8035 52.2412 24.8634C52.407 24.9321 52.5764 24.9607 52.7495 24.9494C53.0512 24.9445 53.5869 24.7355 54.3567 24.3222L54.0342 22.8197" fill="#D357AC"/>
<path d="M47.371 11.9688C47.2854 11.9741 47.2635 12.0244 47.3051 12.1197C47.3224 12.1539 47.3475 12.1919 47.3802 12.2338L47.6815 12.607C47.733 12.6793 47.7627 12.7409 47.7706 12.7918C47.7769 12.8301 47.7657 12.8687 47.7371 12.9074L47.5192 13.0942C47.4944 13.118 47.4774 13.1489 47.4681 13.187C47.4514 13.2687 47.505 13.394 47.6287 13.563C47.6799 13.6343 47.7642 13.7398 47.8816 13.8794C48.0476 13.8683 48.158 13.8571 48.2126 13.846C48.2304 13.8454 48.2463 13.853 48.2603 13.8688L49.2777 15.2069C49.5158 15.5059 49.7257 15.7497 49.9073 15.9382C50.0572 16.094 50.1963 16.2172 50.3244 16.3078C50.3954 16.367 50.5915 16.4798 50.9126 16.6462C50.9726 16.683 51.0279 16.7285 51.0785 16.7825C51.1442 16.8525 51.2127 16.9604 51.284 17.1062L51.5999 17.8546C51.6306 17.9164 51.6622 17.949 51.6945 17.9523C51.7427 17.9586 51.7934 17.8509 51.8465 17.6292L51.5715 17.0675C51.4584 16.9403 51.3671 16.8082 51.2977 16.6711C51.2274 16.5353 51.1667 16.3877 51.1156 16.2282C51.0742 16.1027 51.032 15.9364 50.989 15.7294C50.8363 14.9083 50.7097 14.2601 50.6092 13.7849C50.4938 14.0236 50.4221 14.2029 50.394 14.3228C50.3771 14.3901 50.3649 14.4584 50.3574 14.5277L50.3348 14.8531C49.512 14.1864 48.9105 13.7279 48.5303 13.4775C48.5005 13.4502 48.4764 13.4162 48.458 13.3756L48.3725 13.082C48.3551 13.0351 48.3285 12.9884 48.2927 12.9419L47.9879 12.5957C47.7636 12.2785 47.6423 12.1165 47.624 12.1095C47.5452 12.0226 47.4615 11.9757 47.3729 11.9688" fill="#FF9B77"/>
<path d="M51.7466 17.8893C51.6023 17.8754 51.4365 18.0957 51.2491 18.5502C50.9898 19.2157 50.8381 19.7601 50.7938 20.1835C50.7773 20.3694 50.7965 20.5216 50.8516 20.64C50.8692 20.6785 50.8967 20.7176 50.9343 20.7572C51.1511 20.9278 51.2732 21.0421 51.3008 21.1C51.3696 21.1991 51.4133 21.3264 51.4319 21.4818C51.4504 21.6233 51.443 21.8192 51.4097 22.0697C51.4061 22.1425 51.3326 22.5674 51.1894 23.3445C51.1626 23.5105 51.1459 23.6401 51.1395 23.7333C51.1194 23.9779 51.1544 24.1001 51.2445 24.1001C51.3076 24.1018 51.4011 24.056 51.5252 23.9626L52.1944 23.3998L52.445 23.2086C52.5856 23.1114 52.7049 23.0507 52.803 23.0265C52.9214 22.9944 53.0402 23.002 53.1591 23.0495C53.2281 23.0624 53.3937 23.1845 53.6561 23.416C53.7108 23.4501 53.7583 23.4572 53.7984 23.4372C53.9333 23.3557 54.0213 23.1352 54.0626 22.7756C54.0808 22.5615 54.0545 22.3889 53.9837 22.2577C53.9536 22.172 53.8215 22.0345 53.5874 21.8454C53.5591 21.8129 53.5382 21.7776 53.5247 21.7395C53.5156 21.7161 53.508 21.6827 53.5021 21.6394C53.4921 21.4272 53.4749 21.2734 53.4504 21.1781C53.4159 21.0221 53.3695 20.89 53.3113 20.7817C53.2678 20.703 53.2209 20.652 53.1704 20.6287C53.1536 20.6122 53.0745 20.5975 52.9331 20.5849C52.911 20.5802 52.8895 20.571 52.8685 20.5572C52.8323 20.5324 52.7999 20.4854 52.7714 20.4163C52.7416 20.3457 52.7117 20.2378 52.6817 20.0926L52.4616 18.9351C52.3966 18.7861 52.3447 18.6705 52.3057 18.5881C52.0798 18.1119 51.8955 17.879 51.7529 17.8894" fill="#D357AC"/>
<path d="M52.8787 22.8809C51.8661 23.4093 51.1872 23.8851 50.8421 24.3081C50.5068 24.7246 50.4282 25.1758 50.6064 25.6618C50.7485 25.9773 50.8981 26.0971 51.0551 26.0212C51.1242 25.9754 51.1705 25.8991 51.1937 25.7921C51.2036 25.7431 51.2057 25.6939 51.1999 25.6444C51.2031 25.6353 51.1818 25.5389 51.1361 25.3552C51.1286 25.3123 51.1265 25.2733 51.1298 25.2383C51.1368 25.153 51.1803 25.075 51.2602 25.0044C51.3401 24.9319 51.4736 24.8499 51.6608 24.7583C51.6537 24.7533 52.009 24.5988 52.7267 24.2948C52.8988 24.2164 53.0991 24.1156 53.3279 23.9925L52.8801 22.8843" fill="#FF9B77"/>
<path d="M51.998 19.2656L52.4244 21.9524L52.4134 23.1249L52.989 22.8222C52.8884 22.5849 52.8108 22.3665 52.7564 22.1669C52.7349 22.0906 52.7118 21.9997 52.6869 21.8943L52.4967 21.0499C52.4595 20.8895 52.4228 20.7406 52.3867 20.6033C52.3093 20.3034 52.1802 19.859 51.9994 19.2701" fill="#637079" fill-opacity="0.219608"/>
<path d="M54.0622 23.0645C53.8271 23.4625 53.6075 23.7502 53.4031 23.9275C53.3022 24.0154 53.1867 24.0939 53.0565 24.163C52.9564 24.2184 52.7863 24.292 52.5464 24.3836C52.6321 24.5383 52.7105 24.6392 52.7817 24.6865C52.8631 24.7438 52.9574 24.7653 53.0648 24.7509C53.2533 24.7377 53.644 24.5462 54.237 24.1764L54.0622 23.0649" fill="#D357AC"/>
<path d="M53.2924 26.9316L52.7334 31.3612C52.7787 34.1714 52.8458 35.9348 52.9347 36.6515C52.9952 37.2269 53.0883 37.5235 53.2142 37.5414C53.2183 37.5428 53.2226 37.5439 53.2269 37.5446C53.223 37.5197 53.2193 37.4943 53.2159 37.4684L53.3777 37.4511C53.3817 37.4465 53.3858 37.4417 53.39 37.4367L53.39 37.4368L53.1669 33.6054L53.1573 35.0417C53.1572 34.1754 53.1544 33.6321 53.1491 33.412C53.1835 32.5537 53.1858 31.8632 53.156 31.3403C53.156 31.3403 53.156 31.3403 53.156 31.3403C53.1544 31.3106 53.1528 31.2813 53.1512 31.2524C53.1494 31.2178 53.1477 31.1838 53.1462 31.1504C53.1177 30.544 53.1236 30.0065 53.1641 29.5379C53.1946 29.1263 53.2769 28.6134 53.4108 27.9992L53.2928 26.9358L53.2924 26.9316Z" fill="#E1E1E1"/>
<path d="M50.6128 13.7793C50.6109 13.7808 50.6089 13.7823 50.6069 13.7838L50.6075 13.7868C50.493 14.0238 50.4218 14.2021 50.3938 14.3215C50.3935 14.3228 50.3931 14.3242 50.3928 14.3256C50.39 14.3454 50.3878 14.3654 50.3861 14.3855C50.3797 14.4223 50.3723 14.4513 50.364 14.4727C50.3614 14.4905 50.3591 14.5084 50.3572 14.5264L50.3357 14.8363C50.3387 14.8414 50.3418 14.8465 50.345 14.8517C50.344 14.9156 50.3402 14.9784 50.3336 15.04C50.329 15.094 50.3132 15.1873 50.2863 15.3199C50.2821 15.3462 50.2816 15.3666 50.2847 15.3811C50.2862 15.3932 50.2938 15.4062 50.3075 15.4202C50.374 15.4646 50.4097 15.4921 50.4145 15.5027C50.4312 15.522 50.4434 15.5453 50.4512 15.5727C50.4578 15.5943 50.4616 15.6252 50.4627 15.6652C50.4556 15.8865 50.4555 16.0116 50.4625 16.0405C50.4702 16.1234 50.4897 16.1926 50.5208 16.2481C50.5487 16.2981 50.5908 16.3469 50.6471 16.3945L50.982 16.6372C51.0185 16.6736 51.041 16.7119 51.0495 16.752C51.0593 16.7614 51.0689 16.7712 51.0783 16.7812C51.0933 16.7972 51.1085 16.8152 51.1238 16.8351L51.2138 17.3667C51.3895 17.5688 51.5221 17.7589 51.6116 17.9372C51.5593 17.9788 51.5047 18.0463 51.4476 18.1399C51.6179 18.1209 51.765 18.0588 51.8887 17.9534C52.0122 17.842 52.0548 17.7038 52.0167 17.539C51.9948 17.4357 51.9452 17.3161 51.8681 17.1801C51.8103 17.0734 51.6875 16.8878 51.5 16.6233L50.6128 13.7793Z" fill="#FFAD8F"/>
</g>
<defs>
<filter id="filter0_d_51_7283" x="0" y="0" width="69" height="48.002" filterUnits="userSpaceOnUse" color-interpolation-filters="sRGB">
<feFlood flood-opacity="0" result="BackgroundImageFix"/>
<feColorMatrix in="SourceAlpha" type="matrix" values="0 0 0 0 0 0 0 0 0 0 0 0 0 0 0 0 0 0 127 0" result="hardAlpha"/>
<feOffset dy="4"/>
<feGaussianBlur stdDeviation="2"/>
<feComposite in2="hardAlpha" operator="out"/>
<feColorMatrix type="matrix" values="0 0 0 0 0 0 0 0 0 0 0 0 0 0 0 0 0 0 0.25 0"/>
<feBlend mode="normal" in2="BackgroundImageFix" result="effect1_dropShadow_51_7283"/>
<feBlend mode="normal" in="SourceGraphic" in2="effect1_dropShadow_51_7283" result="shape"/>
</filter>
</defs>
</svg>
