<svg width="342" height="201" viewBox="0 0 342 201" fill="none" xmlns="http://www.w3.org/2000/svg">
<line x1="1.63281" y1="0.5" x2="341.633" y2="0.49997" stroke="#EBEBEB"/>
<line x1="1.63281" y1="40.5" x2="341.633" y2="40.5" stroke="#EBEBEB"/>
<line x1="1.63281" y1="80.5" x2="341.633" y2="80.5" stroke="#EBEBEB"/>
<line x1="1.63281" y1="120.5" x2="341.633" y2="120.5" stroke="#EBEBEB"/>
<line x1="1.63281" y1="160.5" x2="341.633" y2="160.5" stroke="#EBEBEB"/>
<line x1="1.63281" y1="200.5" x2="341.633" y2="200.5" stroke="#EBEBEB"/>
<path d="M7.63281 39V39C44.0986 46.2932 79.284 58.9441 112.045 76.5415L146.411 95.0011C166.701 105.9 188.905 112.781 211.803 115.266L250.987 119.519C285.477 123.262 315.87 143.855 332.133 174.5V174.5" stroke="url(#paint0_linear)"/>
<circle cx="100.133" cy="70.5" r="3.5" fill="#499EB9"/>
<circle cx="157.133" cy="100.5" r="3.5" fill="#499EB9"/>
<circle cx="223.133" cy="115.5" r="3.5" fill="#499EB9"/>
<defs>
<linearGradient id="paint0_linear" x1="278.133" y1="155.5" x2="25.1328" y2="39" gradientUnits="userSpaceOnUse">
<stop stop-color="#499EB9"/>
<stop offset="1" stop-color="#D89889"/>
</linearGradient>
</defs>
</svg>
