<svg width="64" height="52" viewBox="0 0 64 52" fill="none" xmlns="http://www.w3.org/2000/svg">
<g filter="url(#filter0_d_51_5028)">
<path d="M19.7651 12.8382C19.7651 12.8382 24.8551 10.4244 25.9678 10.3731C26.1255 10.3628 27.479 12.982 29.6296 13.5161C29.6296 13.5161 21.3262 12.6533 19.7651 12.8382Z" fill="#575756"/>
<path d="M19.7651 12.8393C20.6204 12.4079 21.4756 11.997 22.3475 11.5965C22.7793 11.4013 23.2194 11.2062 23.6511 11.0315C24.0912 10.8467 24.5313 10.6721 24.9714 10.518C25.1956 10.4461 25.4198 10.3639 25.6523 10.3126C25.7104 10.292 25.7685 10.292 25.8266 10.2817L25.918 10.2715H25.9429H25.9512H25.9595C26.0093 10.2818 25.9761 10.2715 25.9844 10.2715C25.9927 10.2715 26.0259 10.292 26.0591 10.3126C26.1671 10.4255 26.2335 10.5283 26.3165 10.6412C26.6238 11.0624 26.9393 11.4732 27.2797 11.843C27.9606 12.5825 28.766 13.1679 29.6462 13.3939L29.613 13.661L27.1552 13.4042L24.6891 13.168L23.4602 13.055L22.2312 12.9523C21.8244 12.9112 21.4092 12.9009 21.0023 12.8701C20.7948 12.8598 20.5955 12.8393 20.3879 12.8495L19.7651 12.8393ZM19.7651 12.8393L20.3796 12.7982C20.5872 12.7776 20.7948 12.7879 21.0023 12.7879C21.4175 12.7982 21.8244 12.7879 22.2396 12.8187C23.0616 12.8495 23.8836 12.9009 24.714 12.9625C25.536 13.0139 26.358 13.0858 27.1801 13.1577L29.6462 13.3836L29.613 13.6507C28.6747 13.4247 27.8443 12.7879 27.1552 12.0279C26.8064 11.6478 26.4826 11.2267 26.1837 10.7953C26.1089 10.6926 26.0259 10.5693 25.9595 10.4974C25.9678 10.4974 25.9761 10.4974 25.9595 10.4872C25.9678 10.4872 25.9346 10.4872 25.9844 10.4872H25.9761H25.9678H25.9512L25.8681 10.4974C25.81 10.5077 25.7602 10.5077 25.7021 10.5283C25.4779 10.5796 25.2537 10.6412 25.0378 10.7131C24.5977 10.8569 24.1493 11.0213 23.7176 11.1959C23.2775 11.3705 22.8374 11.5451 22.4056 11.73C21.5089 12.0895 20.637 12.4695 19.7651 12.8393Z" fill="#1D1D1B"/>
<path d="M21.085 23.4794C21.1763 23.4794 24.2486 25.4207 25.6269 25.2255C25.6269 25.2255 24.8298 24.0649 25.6269 22.9453L21.085 23.4794Z" fill="#575756"/>
<path d="M21.085 23.4792C21.1763 23.51 21.2759 23.5614 21.3673 23.6127L21.6413 23.7462L22.1976 24.0236C22.5713 24.1982 22.9449 24.3831 23.3186 24.5371C23.5096 24.6193 23.6922 24.6912 23.8915 24.7631C23.9828 24.8042 24.0825 24.8247 24.1738 24.8658C24.2735 24.8966 24.3648 24.9377 24.4644 24.9582C24.6554 25.0199 24.8464 25.0609 25.0457 25.0918L25.3363 25.1226C25.4276 25.1226 25.5273 25.1123 25.6186 25.1123L25.5522 25.328C25.4941 25.2356 25.4442 25.1431 25.4027 25.0507C25.3612 24.9582 25.3197 24.8555 25.2865 24.7528C25.2533 24.6501 25.2283 24.5474 25.2034 24.4344C25.1868 24.383 25.1868 24.3214 25.1785 24.2701C25.1702 24.2187 25.1702 24.1571 25.1702 24.1057C25.1619 23.9927 25.1785 23.8798 25.1868 23.7668L25.22 23.6024C25.2283 23.5511 25.2533 23.4997 25.2699 23.4484C25.2865 23.397 25.3031 23.3457 25.328 23.2943L25.3944 23.1505C25.4193 23.0991 25.4442 23.0581 25.4692 23.017L25.5522 22.8835L25.6352 23.0889L24.4977 23.2121C24.1157 23.2532 23.742 23.284 23.3601 23.3148C22.9781 23.3457 22.6045 23.3867 22.2225 23.4176C21.8406 23.4278 21.4669 23.4586 21.085 23.4792ZM21.085 23.4792C21.4586 23.4073 21.8406 23.3559 22.2142 23.2943C22.5879 23.2327 22.9698 23.1813 23.3518 23.13C23.7337 23.0786 24.1074 23.017 24.4893 22.9656L25.6269 22.8218L25.8594 22.791L25.7099 23.0273L25.6352 23.1402C25.6103 23.1813 25.5854 23.2121 25.5688 23.2635L25.5107 23.3867C25.4858 23.4278 25.4774 23.4689 25.4608 23.5203C25.4442 23.5614 25.4276 23.6024 25.4193 23.6538L25.3944 23.7873C25.3861 23.8798 25.3778 23.9722 25.3778 24.0749C25.3778 24.1263 25.3778 24.1674 25.3861 24.2187C25.3944 24.2598 25.3944 24.3111 25.4027 24.3625C25.4193 24.4549 25.4442 24.5474 25.4692 24.6398C25.5024 24.7323 25.5273 24.8144 25.5688 24.9069C25.602 24.9891 25.6518 25.0815 25.6933 25.1431L25.8262 25.3485H25.6269C25.519 25.3485 25.4193 25.3588 25.3114 25.3588L25.0042 25.3177C24.8049 25.2766 24.6056 25.2356 24.4063 25.1637C24.3067 25.1328 24.207 25.102 24.1157 25.0609C24.0161 25.0301 23.9247 24.989 23.8251 24.948C23.6341 24.8658 23.4431 24.7836 23.2604 24.6912C22.8868 24.5063 22.5131 24.3214 22.1561 24.1057L21.6164 23.7873L21.3507 23.623C21.2676 23.5819 21.1763 23.5203 21.085 23.4792Z" fill="#1D1D1B"/>
<path d="M30.7583 21.0473C30.7583 21.0473 34.9349 21.6122 35.6075 21.8792C35.6075 21.8792 36.0974 19.1471 36.8364 18.5C36.8364 18.5 31.2565 20.5337 30.7583 21.0473Z" fill="#575756"/>
<path d="M30.7583 21.0477C31.572 21.1299 32.3858 21.2121 33.1995 21.3251C33.6064 21.3764 34.0132 21.438 34.4201 21.4997C34.6277 21.5305 34.827 21.5716 35.0262 21.6126C35.2255 21.6435 35.4331 21.7051 35.6407 21.7667L35.5161 21.8592C35.6324 21.2429 35.7735 20.6369 35.9562 20.0412C35.9977 19.8974 36.0476 19.7433 36.1057 19.5995C36.1555 19.4557 36.2136 19.3119 36.2801 19.1681C36.3382 19.0243 36.4129 18.8908 36.4959 18.7573L36.6288 18.5724C36.6786 18.5108 36.7367 18.4594 36.7866 18.3978L36.8779 18.634L35.3418 19.1989L33.8056 19.7741C33.2908 19.959 32.7843 20.1644 32.2695 20.3596C32.0121 20.4623 31.763 20.565 31.5056 20.6677C31.3811 20.7293 31.2565 20.7807 31.132 20.8423L30.9493 20.9348C30.8745 20.9656 30.8164 21.0067 30.7583 21.0477ZM30.7583 21.0477C30.8164 21.0067 30.8662 20.9553 30.9244 20.9142L31.107 20.8012C31.2316 20.7293 31.3561 20.6677 31.4724 20.5958C31.7215 20.4725 31.9706 20.3493 32.2197 20.2363C32.7179 20.0001 33.2244 19.7844 33.7392 19.579C34.7522 19.1476 35.7819 18.7675 36.8032 18.3772L37.2432 18.2129L36.8945 18.6135C36.853 18.6648 36.8115 18.7059 36.77 18.7573L36.6537 18.9216C36.5873 19.0449 36.5209 19.1681 36.4627 19.3016C36.4046 19.4352 36.3465 19.5687 36.2967 19.7125C36.2468 19.8563 36.197 19.9898 36.1472 20.1336C35.9645 20.7088 35.8151 21.3045 35.6988 21.9105L35.6739 22.0235L35.5743 21.9927C35.3833 21.9413 35.1923 21.8797 34.9847 21.8386C34.7854 21.7975 34.5862 21.7462 34.3869 21.7051C33.9883 21.6229 33.5815 21.551 33.1746 21.4791L30.7583 21.0477Z" fill="#1D1D1B"/>
<path d="M40.2994 16.5057C40.2994 14.359 37.9993 15.078 32.9675 14.133C24.7803 12.5924 21.8492 12.161 17.2159 12.9211C9.31941 14.2152 4.75255 17.8615 4.01355 19.6487C3.88069 19.9773 4.76085 20.532 5.08468 21.2407C5.48324 22.1138 15.0903 24.3118 22.7709 23.675C26.8811 23.336 30.0779 21.6926 33.0256 20.2239C37.7253 17.8615 40.2994 18.5907 40.2994 16.5057Z" fill="url(#paint0_linear_51_5028)"/>
<path d="M44.7423 21.0892C44.2358 20.4319 42.2264 16.7753 42.0769 16.5083C42.2347 16.2207 44.2358 12.5847 44.734 11.9273C45.2571 11.2392 45.008 11.5473 44.734 11.5473C44.46 11.5473 42.3675 12.3074 41.1054 13.4475C39.8516 14.5876 38.7389 15.7585 38.6227 16.1488C38.5646 16.3439 38.5646 16.6829 38.6227 16.878C38.7472 17.2581 39.8516 18.4392 41.1054 19.5793C42.3592 20.7194 44.4517 21.4795 44.7257 21.4795C45.0163 21.4692 45.2571 21.7671 44.7423 21.0892Z" fill="#575756"/>
<path d="M44.7419 21.0881L44.3849 20.5335C44.2686 20.3486 44.1441 20.174 44.0361 19.9788L43.3636 18.8387C43.1394 18.4587 42.9235 18.0684 42.7076 17.6884L42.0516 16.538L42.0433 16.5175L42.0516 16.4969C42.5415 15.5828 43.0397 14.6686 43.5462 13.7751C43.8036 13.3231 44.0444 12.8712 44.3267 12.4295C44.4679 12.2138 44.5924 11.9776 44.7419 11.7722C44.8166 11.6695 44.8997 11.5668 44.9495 11.4743L44.9578 11.464C44.9661 11.464 44.9412 11.4538 44.9578 11.5462C44.9744 11.577 44.9827 11.5873 44.991 11.5976C45.0076 11.6078 45.0159 11.6078 45.0159 11.6078H45.0325H45.0242L44.9495 11.6386C44.8914 11.6592 44.8332 11.6695 44.7668 11.6797C44.6672 11.69 44.5509 11.7208 44.4513 11.7516C44.3517 11.7824 44.252 11.8133 44.1441 11.8543C43.9365 11.9365 43.7289 12.0187 43.5213 12.1111C43.1061 12.296 42.7076 12.5117 42.309 12.7479C42.1097 12.8609 41.9271 13.0047 41.7278 13.128C41.5368 13.2615 41.3624 13.4156 41.1798 13.5594C40.8227 13.888 40.4657 14.2064 40.1252 14.5557C39.7765 14.8946 39.4361 15.2438 39.1205 15.6239C39.0375 15.7163 38.9628 15.8087 38.888 15.9115C38.8548 15.9628 38.8133 16.0039 38.7801 16.0553C38.7552 16.0963 38.722 16.158 38.7054 16.199C38.6721 16.3428 38.6638 16.4456 38.6638 16.5688C38.6721 16.6304 38.6638 16.7023 38.6804 16.7537C38.6804 16.7742 38.697 16.8256 38.697 16.8256L38.7386 16.918L38.7801 17.0002L38.8299 17.0721L38.9295 17.2159L39.162 17.5035C39.3198 17.6884 39.4859 17.8732 39.6519 18.0581C39.9841 18.4176 40.3328 18.7566 40.6733 19.1058C40.8476 19.2701 41.022 19.4447 41.2047 19.5988C41.3873 19.7426 41.57 19.9172 41.761 20.0405C42.143 20.3178 42.5415 20.554 42.9567 20.7595C43.3636 20.9751 43.787 21.1498 44.2105 21.3141L44.5343 21.4168C44.6423 21.4476 44.7502 21.4579 44.8665 21.4784C44.9163 21.4887 44.9744 21.5195 45.0242 21.5298C45.0658 21.5401 45.0325 21.4887 45.0242 21.4682L44.9744 21.386L44.7419 21.0881ZM44.7419 21.0881L44.9661 21.386L45.0159 21.4682C45.0242 21.4784 45.0325 21.499 45.0408 21.5092C45.0408 21.5195 45.0491 21.5298 45.0408 21.5401C45.0325 21.5401 45.0242 21.5401 45.0159 21.5401C44.9578 21.5298 44.908 21.499 44.8582 21.4887C44.7502 21.4682 44.634 21.4579 44.526 21.4373L44.2022 21.3346C43.7787 21.1806 43.3553 21.006 42.9484 20.8005C42.5332 20.5951 42.1346 20.3589 41.7444 20.1021C41.3541 19.835 40.9888 19.5166 40.6317 19.1982C40.2747 18.8696 39.9259 18.5306 39.5772 18.1814C39.4028 18.0068 39.2368 17.8219 39.0707 17.637L38.8299 17.3494C38.7552 17.2364 38.6555 17.1337 38.6057 17.0207L38.5642 16.9386C38.5476 16.8769 38.5476 16.8564 38.531 16.8153C38.5144 16.7434 38.5144 16.6715 38.5061 16.5894C38.4978 16.4456 38.5144 16.2709 38.5393 16.1477C38.5974 15.9834 38.6721 15.8704 38.7469 15.7677C38.8216 15.6547 38.9046 15.5622 38.9794 15.4595C39.3032 15.0692 39.6436 14.7097 39.9841 14.3708C40.3328 14.0216 40.6816 13.6826 41.0386 13.3642C41.2296 13.2101 41.4123 13.0458 41.6032 12.902C41.8025 12.7685 41.9935 12.635 42.2011 12.5117C42.6079 12.2755 43.0231 12.0598 43.4383 11.8749C43.6459 11.7824 43.8618 11.7003 44.0776 11.6181C44.1856 11.577 44.2935 11.5462 44.4098 11.5051C44.526 11.464 44.6257 11.4435 44.7502 11.4332C44.8 11.4332 44.8416 11.423 44.8914 11.4024L44.9744 11.3716C44.9827 11.3716 44.991 11.3716 45.0076 11.3613C45.0159 11.3613 45.0242 11.3613 45.0408 11.3613C45.0491 11.3613 45.0574 11.3613 45.0741 11.3716C45.0907 11.3819 45.1073 11.3921 45.1156 11.423C45.1239 11.4538 45.1239 11.4743 45.1239 11.4846C45.1239 11.5051 45.1239 11.5154 45.1156 11.5154C45.1156 11.5257 45.1073 11.5462 45.1073 11.5462C45.099 11.5565 45.0907 11.5668 45.0907 11.577C45.0159 11.7003 44.9329 11.7927 44.8582 11.8954C44.7087 12.0906 44.5758 12.3165 44.4347 12.522C44.1524 12.9328 43.9033 13.3848 43.6376 13.8264C43.1144 14.7097 42.5996 15.6033 42.0931 16.5072V16.4661L42.7242 17.637C42.9401 18.0273 43.156 18.4176 43.3719 18.7977L44.0278 19.948C44.1358 20.1432 44.2603 20.3281 44.3766 20.5129L44.7419 21.0881Z" fill="#1D1D1B"/>
<path d="M4.2876 20.1938C4.2876 20.1938 4.35403 20.1835 4.47027 20.1732C4.58652 20.1629 4.75259 20.1424 4.95187 20.1424C5.35043 20.1219 5.87355 20.1219 6.40497 20.1629C6.67067 20.1835 6.92808 20.2143 7.18549 20.2759C7.25191 20.2965 7.31834 20.317 7.37646 20.3376C7.44289 20.3581 7.48441 20.3992 7.53423 20.43C7.63387 20.5019 7.72521 20.5738 7.80824 20.6354C7.89127 20.6868 7.966 20.7381 8.04073 20.7587C8.11546 20.7895 8.1819 20.7689 8.24002 20.7689C8.34796 20.7381 8.41438 20.7176 8.41438 20.7176C8.41438 20.7176 8.39779 20.7279 8.37288 20.7484C8.34797 20.7587 8.30644 20.7998 8.24832 20.8203C8.1902 20.8408 8.11547 20.8614 8.03244 20.8614C7.9494 20.8614 7.84976 20.8306 7.75842 20.7792C7.65878 20.7381 7.56744 20.6765 7.4678 20.6149C7.41798 20.5943 7.35985 20.5533 7.31003 20.543C7.26021 20.5327 7.20209 20.5224 7.14397 20.5019C7.02772 20.4814 6.90317 20.4814 6.77032 20.4608C6.64577 20.4505 6.51291 20.4403 6.38006 20.43C6.12265 20.4095 5.85694 20.3889 5.61615 20.3684C5.36704 20.3478 5.14285 20.317 4.94357 20.2965C4.74429 20.2759 4.58652 20.2451 4.47027 20.2246C4.35403 20.204 4.2876 20.1938 4.2876 20.1938Z" fill="#1D1D1B"/>
<path d="M8.35613 18.5931C8.65421 18.5931 8.89585 18.2942 8.89585 17.9254C8.89585 17.5567 8.65421 17.2578 8.35613 17.2578C8.05805 17.2578 7.81641 17.5567 7.81641 17.9254C7.81641 18.2942 8.05805 18.5931 8.35613 18.5931Z" fill="#1D1D1B"/>
<path d="M8.67208 17.5942C8.67208 17.5942 8.67208 17.6045 8.67208 17.6148C8.67208 17.625 8.67207 17.6559 8.66377 17.6764C8.65546 17.7072 8.64716 17.738 8.63886 17.7791C8.62225 17.8202 8.59734 17.851 8.57243 17.8921C8.53922 17.9229 8.4977 17.964 8.44788 17.9743C8.43128 17.9743 8.42297 17.9845 8.40636 17.9845H8.37316C8.34825 17.9845 8.30672 17.9845 8.27351 17.9743C8.21538 17.9537 8.14896 17.9024 8.10744 17.8305C8.06593 17.7586 8.04102 17.6867 8.03271 17.5634C8.03271 17.5223 8.05763 17.3888 8.09914 17.3272C8.14896 17.2553 8.20709 17.2142 8.26521 17.1834C8.33164 17.1628 8.38975 17.1628 8.43957 17.1834C8.48939 17.1936 8.53922 17.2347 8.56413 17.2655C8.59734 17.3066 8.61395 17.3374 8.63056 17.3785C8.64717 17.4196 8.65547 17.4504 8.65547 17.4812C8.66377 17.5121 8.66377 17.5326 8.66377 17.5429C8.67207 17.5839 8.67208 17.5942 8.67208 17.5942ZM8.67208 17.5942C8.67208 17.5942 8.67208 17.5839 8.67208 17.5737C8.67208 17.5634 8.67207 17.5326 8.66377 17.5121C8.65546 17.4607 8.61395 17.3785 8.54752 17.3477C8.506 17.3272 8.48109 17.3272 8.43957 17.3272C8.39806 17.3272 8.36485 17.358 8.33994 17.3785C8.31503 17.4093 8.29011 17.4402 8.27351 17.4812C8.2652 17.5326 8.25691 17.5223 8.25691 17.6148C8.25691 17.625 8.2652 17.6867 8.27351 17.7175C8.29011 17.7483 8.30672 17.7894 8.33994 17.8202C8.35654 17.8305 8.35655 17.851 8.38146 17.851L8.41466 17.8613C8.41466 17.8613 8.43127 17.8613 8.43957 17.8613C8.48109 17.8715 8.51431 17.8613 8.54752 17.8407C8.61395 17.7996 8.65546 17.7278 8.66377 17.6764C8.67207 17.6456 8.67208 17.625 8.67208 17.6148C8.67208 17.5942 8.67208 17.5942 8.67208 17.5942Z" fill="#9D9D9C"/>
<path d="M10.2992 17.8203C10.2992 17.8203 10.3988 18.0463 10.457 18.4366C10.4819 18.6317 10.5068 18.8577 10.4985 19.1042C10.4985 19.2275 10.4819 19.3507 10.4652 19.4842C10.4403 19.6075 10.4237 19.741 10.3822 19.8643L10.3241 20.0492C10.2992 20.1108 10.2743 20.1621 10.2494 20.2238C10.1995 20.347 10.1331 20.4395 10.0667 20.5422C10.0086 20.6449 9.92553 20.7168 9.8591 20.7887C9.79268 20.8708 9.71795 20.9222 9.65152 20.9736C9.58509 21.0249 9.52697 21.0763 9.46055 21.0968C9.40242 21.1276 9.3443 21.1482 9.30278 21.1687C9.21975 21.2098 9.16992 21.2201 9.16992 21.2201C9.16992 21.2201 9.21144 21.179 9.28617 21.1174C9.31938 21.0865 9.36921 21.0455 9.41903 21.0044C9.46885 20.9633 9.51867 20.9017 9.57679 20.84C9.63492 20.7784 9.69303 20.7168 9.75116 20.6346C9.80928 20.5524 9.87572 20.4805 9.91723 20.3881C9.96706 20.2957 10.0252 20.2032 10.0667 20.0902C10.0916 20.0389 10.1165 19.9875 10.1331 19.9362L10.1829 19.7718C10.2245 19.6589 10.2411 19.5459 10.266 19.4329C10.2826 19.3199 10.3075 19.1966 10.3158 19.0837C10.3241 18.9707 10.3407 18.8577 10.3407 18.755C10.349 18.6523 10.3407 18.5496 10.349 18.4571C10.3324 18.0771 10.2992 17.8203 10.2992 17.8203Z" fill="#1D1D1B"/>
<path d="M10.623 16.918C10.623 16.918 10.6396 16.9385 10.6645 16.9693C10.6894 17.0104 10.7393 17.0515 10.7808 17.1337C10.8306 17.2056 10.8887 17.298 10.9552 17.4007C11.0216 17.5034 11.088 17.6267 11.1544 17.7705C11.2209 17.9143 11.2873 18.0683 11.3454 18.243C11.4035 18.4176 11.47 18.6024 11.5032 18.8079C11.5281 18.9106 11.5364 19.0133 11.5447 19.116C11.5613 19.2187 11.5613 19.3317 11.5613 19.4447C11.5696 19.5577 11.5447 19.6706 11.5364 19.7836C11.5198 19.8966 11.4949 20.0096 11.4783 20.1226C11.445 20.2253 11.4118 20.3383 11.3703 20.4307C11.3205 20.5232 11.279 20.6259 11.2292 20.7183C11.171 20.8107 11.1295 20.8929 11.0548 20.9751C10.9884 21.0367 10.9302 21.1086 10.8721 21.1805C10.731 21.3038 10.5815 21.4167 10.4403 21.4784C10.2992 21.5605 10.158 21.6016 10.0335 21.653C9.90893 21.6941 9.78437 21.7249 9.67643 21.7352C9.56848 21.7454 9.47714 21.766 9.40241 21.766C9.32768 21.7762 9.26957 21.7762 9.22805 21.7762C9.18653 21.7762 9.16162 21.7762 9.16162 21.7762C9.16162 21.7762 9.24465 21.7557 9.39412 21.7146C9.46885 21.6941 9.56018 21.6633 9.65982 21.6324C9.75946 21.6016 9.87571 21.5503 9.99196 21.4989C10.1082 21.4373 10.2411 21.3859 10.3656 21.2935C10.4985 21.2216 10.6064 21.1086 10.7393 21.0059C10.7974 20.934 10.8555 20.8621 10.9219 20.7902C10.9635 20.7388 11.0133 20.6361 11.0631 20.5642C11.1129 20.4821 11.1461 20.3896 11.1877 20.3075C11.2209 20.215 11.2458 20.1226 11.279 20.0301C11.2956 19.9377 11.3205 19.835 11.3371 19.7425C11.3454 19.6398 11.362 19.5474 11.362 19.4447C11.362 19.2495 11.3537 19.0441 11.3205 18.8592C11.2956 18.6743 11.2541 18.4895 11.2042 18.3148C11.1544 18.1402 11.1046 17.9862 11.0465 17.8424C10.9967 17.6986 10.9385 17.5753 10.8887 17.4521C10.8389 17.3391 10.7891 17.2364 10.7476 17.1645C10.6728 17.0104 10.623 16.918 10.623 16.918Z" fill="#1D1D1B"/>
<path d="M10.4155 21.8878C10.4155 21.8878 10.5733 21.8776 10.7975 21.8467C11.0217 21.8159 11.3206 21.744 11.5531 21.5694C11.6112 21.5181 11.6693 21.477 11.7109 21.4154C11.7358 21.3845 11.7607 21.364 11.7856 21.3332C11.8022 21.3024 11.8271 21.2716 11.8437 21.2305C11.8852 21.1688 11.9101 21.0969 11.935 21.025C11.96 20.9531 11.9766 20.8915 11.9932 20.8196C12.0098 20.758 12.0264 20.6964 12.0347 20.6347C12.043 20.5834 12.0513 20.532 12.0596 20.4909C12.0762 20.4088 12.0845 20.3574 12.0845 20.3574C12.0845 20.3574 12.0928 20.4088 12.1011 20.4909C12.1094 20.532 12.1094 20.5834 12.1177 20.645C12.126 20.7066 12.1177 20.7683 12.1177 20.8504C12.1094 20.9223 12.1177 21.0045 12.0845 21.0969C12.0596 21.1791 12.0513 21.2715 12.0015 21.3537C11.96 21.4359 11.9184 21.5283 11.8603 21.6002C11.8022 21.6824 11.7358 21.7338 11.661 21.7954C11.5863 21.8467 11.5116 21.8878 11.4368 21.9186C11.3621 21.9494 11.2791 21.97 11.2043 21.9803C11.0549 22.0111 10.9137 22.0008 10.7975 21.9905C10.565 21.9597 10.4155 21.8878 10.4155 21.8878Z" fill="#1D1D1B"/>
<path d="M9.66016 15.1895C9.66016 15.1895 9.84283 15.2511 10.1002 15.4154C10.2248 15.4976 10.3743 15.6003 10.5237 15.7236C10.6732 15.8468 10.8226 16.0009 10.9638 16.1652C11.0302 16.2474 11.0967 16.3398 11.1631 16.422C11.2295 16.5144 11.2876 16.6069 11.3374 16.6993C11.4454 16.8842 11.5284 17.0691 11.5865 17.2334C11.6115 17.3156 11.6364 17.3978 11.653 17.4697C11.6696 17.5416 11.6779 17.6032 11.6862 17.6545C11.7028 17.7572 11.7028 17.8189 11.7028 17.8189C11.7028 17.8189 11.6779 17.7675 11.6447 17.6751C11.6281 17.634 11.6115 17.5724 11.5783 17.5107C11.545 17.4491 11.5118 17.3875 11.4786 17.3053C11.4371 17.2334 11.3956 17.1615 11.3457 17.0794C11.2959 16.9972 11.2378 16.9253 11.188 16.8431C11.1299 16.7609 11.0634 16.689 11.0053 16.5966C10.9389 16.5144 10.8808 16.4323 10.806 16.3604C10.7396 16.2782 10.6732 16.2063 10.5984 16.1344C10.532 16.0625 10.4656 15.9906 10.3909 15.9187C10.258 15.7749 10.1252 15.6517 10.0172 15.549C9.80962 15.3333 9.66016 15.1895 9.66016 15.1895Z" fill="#1D1D1B"/>
<path d="M7.60069 16.918C7.59238 16.9077 7.57578 17.0515 7.55087 17.257C7.52596 17.4624 7.50105 17.7294 7.50105 17.9862C7.50105 18.243 7.55087 18.4792 7.64221 18.6436C7.68372 18.7257 7.73354 18.7874 7.76675 18.8284C7.79997 18.8695 7.82488 18.8901 7.82488 18.8901C7.82488 18.8901 7.79997 18.8901 7.74184 18.8695C7.69202 18.849 7.6173 18.8182 7.54257 18.7463C7.46784 18.6744 7.3931 18.5614 7.35158 18.4279C7.30176 18.2943 7.28516 18.1403 7.27686 17.9862C7.27686 17.6781 7.34329 17.4008 7.42632 17.2056C7.46784 17.1132 7.50936 17.031 7.54257 16.9796C7.56748 16.9386 7.60069 16.9077 7.60069 16.918Z" fill="#1D1D1B"/>
<path d="M7.0027 17.2578C7.0027 17.2578 7.0027 17.3811 6.9944 17.5454C6.9944 17.6276 6.98609 17.72 6.98609 17.8227C6.98609 17.9254 6.97778 18.0281 6.98609 18.1309C6.98609 18.2336 7.0027 18.326 7.01931 18.4185C7.03591 18.4595 7.03591 18.5109 7.05252 18.5417C7.06912 18.5828 7.07743 18.6239 7.09404 18.6547C7.11064 18.6855 7.12725 18.7163 7.13556 18.7471C7.15216 18.778 7.16877 18.7985 7.17707 18.819C7.20198 18.8601 7.21859 18.8807 7.21859 18.8807C7.21859 18.8807 7.19368 18.8807 7.15217 18.8601C7.11065 18.8498 7.05252 18.8088 6.9944 18.7574C6.93628 18.6958 6.87815 18.6136 6.83663 18.5006C6.79512 18.3876 6.7702 18.2644 6.7702 18.1411C6.7619 18.0179 6.7702 17.8946 6.79511 17.7919C6.81172 17.6789 6.84494 17.5865 6.87815 17.5043C6.93628 17.3503 7.0027 17.2578 7.0027 17.2578Z" fill="#1D1D1B"/>
<path d="M14.3018 18.6934C12.7491 18.6934 11.4454 19.0528 11.105 19.5253C11.1465 19.5253 11.188 19.5151 11.2295 19.5151C12.3339 19.4226 13.2556 19.6383 13.2722 20.0081C13.2888 20.2443 12.9151 20.4805 12.3588 20.6449C12.9068 20.7784 13.5711 20.8606 14.3018 20.8606C16.1202 20.8606 17.5899 20.3778 17.5899 19.7821C17.5899 19.1864 16.1119 18.6934 14.3018 18.6934Z" fill="#575756"/>
<path d="M14.3013 18.6934C13.745 18.7036 13.197 18.7447 12.649 18.8577C12.3749 18.909 12.1092 18.981 11.8435 19.0939C11.7107 19.1453 11.5861 19.2069 11.4616 19.2788C11.3951 19.3096 11.3453 19.361 11.2872 19.4021L11.2042 19.474L11.1377 19.5561L11.1045 19.474C11.3868 19.4329 11.6775 19.4226 11.9598 19.4226C12.2421 19.4226 12.5327 19.4534 12.8233 19.5356C12.8981 19.5561 12.9645 19.5767 13.0392 19.6178C13.1139 19.6486 13.1804 19.6897 13.2468 19.7513L13.2966 19.8026C13.3132 19.8232 13.3298 19.854 13.3381 19.8745C13.3547 19.8951 13.3547 19.9362 13.363 19.967C13.363 19.9773 13.363 19.967 13.363 20.0081V20.0286C13.363 20.0389 13.363 20.0492 13.363 20.0697C13.3298 20.2238 13.2634 20.2854 13.2053 20.3573C13.0807 20.4805 12.9396 20.5524 12.8067 20.6141C12.6656 20.6757 12.5327 20.727 12.3915 20.7681V20.5216L12.9479 20.6141C13.1305 20.6449 13.3132 20.6757 13.5042 20.6757L14.0605 20.7065C14.2432 20.7271 14.4342 20.7271 14.6252 20.7168C14.9988 20.7065 15.3725 20.6757 15.7378 20.6243C15.9205 20.6038 16.1115 20.573 16.2941 20.5216C16.4768 20.4805 16.6595 20.4292 16.8339 20.3676C17.0082 20.2957 17.1826 20.2238 17.3321 20.1005C17.4068 20.0389 17.4815 19.967 17.5147 19.8848C17.5313 19.8643 17.5313 19.8437 17.5396 19.8232C17.5396 19.8026 17.5563 19.7718 17.5479 19.7616L17.5396 19.6794C17.5313 19.6588 17.523 19.6383 17.5147 19.6178C17.4317 19.4432 17.249 19.3302 17.083 19.2377C16.9169 19.1453 16.7342 19.0734 16.5515 19.0118C16.3689 18.9501 16.1862 18.9091 16.0035 18.868C15.8208 18.8269 15.6299 18.7961 15.4472 18.7755C15.0486 18.7242 14.675 18.7036 14.3013 18.6934ZM14.3013 18.6934C15.0569 18.6934 15.8125 18.755 16.5515 18.9604C16.7342 19.0118 16.9169 19.0734 17.0996 19.1658C17.2739 19.2583 17.4566 19.3507 17.5812 19.5664C17.5978 19.5972 17.6144 19.628 17.6227 19.6589L17.6393 19.741C17.6476 19.7924 17.631 19.8129 17.631 19.854C17.631 19.8848 17.6144 19.9156 17.6061 19.9464C17.5563 20.0697 17.4732 20.1519 17.3985 20.2238C17.2324 20.3676 17.058 20.4497 16.8754 20.5319C16.6927 20.6038 16.51 20.6757 16.319 20.7168C16.1364 20.7681 15.9454 20.8092 15.7544 20.8503C15.5634 20.8914 15.3808 20.9119 15.1898 20.9325C14.9988 20.953 14.8078 20.9633 14.6169 20.9736C14.4259 20.9838 14.2349 20.9838 14.0522 20.9736L13.4793 20.9427C13.2883 20.9427 13.0973 20.9017 12.9147 20.8709L12.35 20.7681L11.8269 20.6757L12.35 20.5319C12.4829 20.4908 12.6157 20.4497 12.7486 20.3881C12.8731 20.3367 13.006 20.2649 13.1056 20.1724C13.1555 20.1313 13.1887 20.0594 13.197 20.0492C13.197 20.0492 13.197 20.0286 13.197 20.0183V19.9978C13.197 20.0183 13.197 19.9978 13.197 20.0081C13.197 19.9978 13.197 19.9875 13.1887 19.9773C13.1804 19.967 13.1804 19.9567 13.1721 19.9464L13.1388 19.9156C13.0558 19.8232 12.9147 19.7616 12.7901 19.7205C12.5244 19.6383 12.2421 19.587 11.9681 19.5767C11.6858 19.5561 11.4034 19.5664 11.1211 19.587L11.0049 19.5972L11.0879 19.5048L11.1709 19.4123L11.2623 19.3404C11.3204 19.2994 11.3868 19.248 11.4533 19.2172C11.5778 19.1453 11.719 19.0939 11.8518 19.0426C11.9847 19.0015 12.1258 18.9604 12.2587 18.9193C12.3915 18.8885 12.5327 18.8577 12.6656 18.8269C13.1887 18.7242 13.745 18.6934 14.3013 18.6934Z" fill="#1D1D1B"/>
<path d="M12.9564 15.2324H12.8983C12.6907 15.2324 12.4499 15.3659 12.3834 15.6433C12.3253 15.8898 12.4997 16.0952 12.6907 16.0952H12.7488C12.9564 16.0952 13.1972 15.9617 13.2636 15.6844C13.33 15.4276 13.1473 15.2324 12.9564 15.2324Z" fill="#515E6B"/>
<path d="M14.6584 13.9375C14.21 13.9375 13.8779 14.79 14.4508 14.79C14.8992 14.79 15.2314 13.9375 14.6584 13.9375Z" fill="#515E6B"/>
<path d="M14.6916 15.5293C14.2432 15.5293 13.9111 16.3818 14.484 16.3818C14.9324 16.3818 15.2646 15.5293 14.6916 15.5293Z" fill="#515E6B"/>
<path d="M16.9006 13.9785C16.4522 13.9785 16.1201 14.831 16.693 14.831C17.1414 14.831 17.4735 13.9785 16.9006 13.9785Z" fill="#515E6B"/>
<path d="M19.2585 13.7207C18.8101 13.7207 18.478 14.5732 19.0509 14.5732C19.4993 14.5732 19.8315 13.7207 19.2585 13.7207Z" fill="#515E6B"/>
<path d="M17.3156 15.1895C16.8673 15.1895 16.5351 16.042 17.1081 16.042C17.5564 16.042 17.8886 15.1895 17.3156 15.1895Z" fill="#515E6B"/>
<path d="M15.7049 16.6387H15.6717C15.4641 16.6387 15.2233 16.7722 15.1569 17.0392C15.0987 17.2858 15.2731 17.4912 15.4641 17.4912H15.4973C15.7049 17.4912 15.9457 17.3577 16.0121 17.0906C16.0702 16.8338 15.8959 16.6387 15.7049 16.6387Z" fill="#515E6B"/>
<path d="M18.5115 13.0547C18.0631 13.0547 17.7309 13.9072 18.3039 13.9072C18.7522 13.9072 19.0844 13.0547 18.5115 13.0547Z" fill="#515E6B"/>
<path d="M21.4011 13.1992C20.9527 13.1992 20.6206 14.0517 21.1935 14.0517C21.6502 14.0517 21.9823 13.1992 21.4011 13.1992Z" fill="#515E6B"/>
<path d="M19.1921 15.2324C18.7437 15.2324 18.4116 16.0849 18.9845 16.0849C19.4412 16.0849 19.7734 15.2324 19.1921 15.2324Z" fill="#515E6B"/>
<path d="M21.2845 14.832H21.2264C21.0188 14.832 20.778 14.9656 20.7116 15.2326C20.6534 15.4791 20.8278 15.6845 21.0188 15.6845H21.0769C21.2845 15.6845 21.5253 15.551 21.5917 15.284C21.6581 15.0272 21.4755 14.832 21.2845 14.832Z" fill="#515E6B"/>
<path d="M23.6428 13.3125C23.1944 13.3125 22.8623 14.165 23.4352 14.165C23.8836 14.165 24.2157 13.3125 23.6428 13.3125Z" fill="#515E6B"/>
<path d="M23.5679 14.9343C23.4849 14.8111 23.3438 14.77 23.2026 14.8008C23.0282 14.8419 22.7542 15.0473 22.7874 15.3041C22.8123 15.4993 22.8871 15.5917 23.0365 15.6636C23.2358 15.756 23.5098 15.602 23.6178 15.3863C23.7008 15.2117 23.6676 15.0371 23.5679 14.9343Z" fill="#515E6B"/>
<path d="M25.4612 14.5645H25.428C25.2204 14.5645 24.9796 14.698 24.9132 14.9753C24.8551 15.2218 25.0295 15.4272 25.2204 15.4272H25.2536C25.4612 15.4272 25.702 15.2937 25.7685 15.0164C25.8349 14.7699 25.6605 14.5645 25.4612 14.5645Z" fill="#515E6B"/>
<path d="M27.1634 13.498H27.1053C26.8977 13.498 26.6569 13.6316 26.5905 13.8986C26.5323 14.1451 26.7067 14.3505 26.8977 14.3505H26.9558C27.1634 14.3505 27.4042 14.217 27.4706 13.95C27.5371 13.6932 27.3627 13.498 27.1634 13.498Z" fill="#515E6B"/>
<path d="M28.2093 14.791H28.1761C27.9685 14.791 27.7277 14.9245 27.6613 15.1916C27.6031 15.4381 27.7775 15.6435 27.9685 15.6435H28.0017C28.2093 15.6435 28.4501 15.51 28.5165 15.2429C28.5829 14.9862 28.4086 14.791 28.2093 14.791Z" fill="#515E6B"/>
<path d="M29.8206 13.9062H29.7625C29.5549 13.9062 29.3141 14.0398 29.2477 14.3068C29.1896 14.5533 29.3639 14.7588 29.5549 14.7588H29.613C29.8206 14.7588 30.0614 14.6252 30.1278 14.3582C30.1943 14.1014 30.0199 13.9062 29.8206 13.9062Z" fill="#515E6B"/>
<path d="M31.2903 15.0156C30.8419 15.0156 30.5097 15.8681 31.0827 15.8681C31.5311 15.8681 31.8632 15.0156 31.2903 15.0156Z" fill="#515E6B"/>
<path d="M32.9836 14.4902C32.5352 14.4902 32.2031 15.3427 32.776 15.3427C33.2327 15.3427 33.5649 14.4902 32.9836 14.4902Z" fill="#515E6B"/>
<path d="M34.5115 15.2715H34.4202C34.2126 15.2715 33.9718 15.405 33.9054 15.6721C33.8473 15.9186 34.0216 16.124 34.2126 16.124H34.304C34.5115 16.124 34.7523 15.9905 34.8188 15.7234C34.8769 15.4666 34.7025 15.2715 34.5115 15.2715Z" fill="#515E6B"/>
<path d="M36.696 14.9352C36.6129 14.8633 36.5216 14.8325 36.4136 14.8325C36.206 14.8222 35.9653 14.9763 35.8988 15.2331C35.849 15.4488 35.9736 15.6234 36.1313 15.6645C36.4801 15.9213 37.1111 15.2844 36.696 14.9352Z" fill="#515E6B"/>
<path d="M26.4158 16.2305H26.3826C26.175 16.2305 25.9342 16.364 25.8678 16.631C25.8097 16.8776 25.9841 17.083 26.175 17.083H26.2082C26.4158 17.083 26.6566 16.9495 26.7231 16.6824C26.7895 16.4359 26.6151 16.2305 26.4158 16.2305Z" fill="#515E6B"/>
<path d="M25.3449 13.0137C24.8966 13.0137 24.5644 13.8662 25.1374 13.8662C25.5857 13.8662 25.9179 13.0137 25.3449 13.0137Z" fill="#515E6B"/>
<path d="M22.5134 16.6699C22.065 16.6699 21.7329 17.5224 22.3058 17.5224C22.7542 17.5224 23.0863 16.6699 22.5134 16.6699Z" fill="#515E6B"/>
<path d="M19.7317 17.0098C19.2833 17.0098 18.9511 17.8623 19.5241 17.8623C19.9725 17.8623 20.3046 17.0098 19.7317 17.0098Z" fill="#515E6B"/>
<path d="M13.0145 17.1953H12.9812C12.7737 17.1953 12.5329 17.3288 12.4664 17.5959C12.4083 17.8424 12.5827 18.0478 12.7737 18.0478H12.8069C13.0145 18.0478 13.2553 17.9143 13.3217 17.6472C13.3881 17.3905 13.2137 17.1953 13.0145 17.1953Z" fill="#515E6B"/>
<path d="M24.5066 17.9648C24.0582 17.9648 23.726 18.8174 24.299 18.8174C24.7557 18.8174 25.0878 17.9648 24.5066 17.9648Z" fill="#515E6B"/>
<path d="M29.9451 17.6348H29.9119C29.7043 17.6348 29.4635 17.7683 29.3971 18.0456C29.339 18.2921 29.5133 18.4873 29.7043 18.4873H29.7375C29.9451 18.4873 30.1859 18.3537 30.2524 18.0867C30.3105 17.8299 30.1361 17.6348 29.9451 17.6348Z" fill="#515E6B"/>
<path d="M34.9851 17.2969C34.5367 17.2969 34.2046 18.1494 34.7775 18.1494C35.2342 18.1494 35.558 17.2969 34.9851 17.2969Z" fill="#515E6B"/>
<path d="M43.8168 6.14272C43.8168 6.14272 43.5926 5.93729 43.2189 5.54699C42.8453 5.15668 42.3056 4.61231 41.6994 3.9036C41.3922 3.55438 41.0767 3.15381 40.7528 2.72242C40.4373 2.28076 40.1052 1.80829 39.8893 1.2331C39.7896 0.95578 39.7232 0.616828 39.8893 0.411404C40.0554 0.216252 40.346 0.164896 40.6034 0.154625C41.1431 0.144354 41.6911 0.267608 42.2391 0.411404C43.3269 0.709268 44.398 1.12012 45.3861 1.53097C46.3742 1.94181 47.2959 2.36293 48.0764 2.72242C48.857 3.09218 49.5129 3.40031 49.9613 3.62628C50.418 3.85224 50.6754 3.9755 50.6754 3.9755C50.6754 3.9755 50.418 3.84198 49.9696 3.61601C49.5212 3.39005 48.8736 3.06137 48.093 2.68133C47.3125 2.3013 46.3991 1.86991 45.411 1.44879C44.4229 1.02768 43.3601 0.596288 42.2641 0.277882C41.716 0.123814 41.1597 -0.0097152 40.6034 0.000555972C40.3294 0.0108271 40.0221 0.0313704 39.7897 0.298421C39.6734 0.431946 39.6319 0.637372 39.6402 0.822253C39.6485 1.00713 39.69 1.17147 39.7481 1.32554C39.9723 1.94181 40.3045 2.42456 40.62 2.87649C40.9355 3.32842 41.2594 3.72899 41.5666 4.08849C42.1727 4.80747 42.7041 5.37238 43.0778 5.76268C43.4514 6.15299 43.6756 6.36869 43.6756 6.36869L43.8168 6.14272Z" fill="#BE1622"/>
<path d="M46.3493 11.7311C46.2994 11.9878 46.2745 12.2549 46.2828 12.5425C46.3077 13.2923 46.4323 13.9805 46.6648 14.6686C46.6897 14.7302 46.7146 14.8021 46.7478 14.8638C46.781 14.9254 46.8059 14.987 46.8475 15.0487C46.8973 15.1308 46.9222 15.213 47.0052 15.1822C46.8142 15.2438 46.7644 12.9636 46.7727 12.7993C46.7893 12.6041 46.7893 12.3884 46.8309 12.1933C46.8807 11.9365 47.055 11.7413 47.163 11.5154C47.2709 11.3202 47.354 11.1148 47.4287 10.8991C47.4785 10.7553 47.5283 10.6115 47.5699 10.4677C47.4121 10.3958 47.2377 10.3136 47.055 10.2109C46.9886 10.3034 46.9305 10.3958 46.8724 10.4985C46.6233 10.8786 46.4406 11.2894 46.3493 11.7311Z" fill="#E94E1B"/>
<path d="M47.2709 12.0278C47.2211 12.2846 47.2045 12.5619 47.2211 12.8392C47.2543 13.5479 47.3373 14.647 47.7027 15.2221C47.8355 15.4276 47.877 15.3659 47.8687 15.1194C47.8521 14.801 47.7359 14.5032 47.7027 14.1848C47.6612 13.7636 47.6778 13.3528 47.7027 12.9419C47.711 12.8084 47.7193 12.6646 47.7359 12.5311C47.7442 12.4284 47.7608 12.3359 47.7774 12.2332C47.8853 12.0586 47.9933 11.884 48.0929 11.6991C48.2009 11.504 48.2839 11.2986 48.3586 11.0829C48.3918 10.9801 48.4251 10.8774 48.4583 10.7747C48.2922 10.7439 48.0929 10.6823 47.8521 10.5898C47.8355 10.6207 47.8106 10.6515 47.794 10.6823C47.5366 11.1034 47.3539 11.5451 47.2709 12.0278Z" fill="#E94E1B"/>
<path d="M48.2261 11.7803C48.1597 11.9447 48.1099 12.1193 48.0518 12.2939L48.0186 12.3966V12.4274C48.0186 12.5609 48.0186 12.6636 48.0186 12.7869C48.0186 12.9101 48.0269 13.0231 48.0352 13.1361C48.0518 13.3723 48.0767 13.5983 48.1182 13.8345C48.1597 14.0605 48.2178 14.2865 48.2926 14.5124C48.3341 14.6152 48.3756 14.7281 48.4254 14.8206C48.4503 14.8719 48.4753 14.9233 48.5085 14.9644L48.5998 15.0979L48.6579 15.0465C48.5251 14.6254 48.4836 14.2351 48.4836 13.7832C48.4836 13.4956 48.4669 13.1977 48.5168 12.9101C48.5666 12.6123 48.7077 12.4479 48.8406 12.2014C48.9236 12.0474 48.9984 11.883 49.0482 11.7084C49.098 11.5441 49.1561 11.3592 49.1893 11.1846C49.1893 11.1846 48.8074 10.8867 48.7991 10.8867C48.6828 11.0202 48.5832 11.1538 48.4836 11.2976C48.3756 11.4619 48.2926 11.616 48.2261 11.7803Z" fill="#E94E1B"/>
<path d="M49.1314 12.0489C49.065 12.2132 49.0152 12.3878 48.9487 12.5624L48.9155 12.6754V12.7062C48.9155 12.8397 48.9155 12.9527 48.9155 13.0657C48.9155 13.1787 48.9238 13.3019 48.9321 13.4149C48.9487 13.6512 48.9737 13.8771 49.0152 14.1134C49.0567 14.3393 49.1148 14.5653 49.1895 14.781C49.2311 14.894 49.2643 14.9967 49.3224 15.0994C49.3473 15.1507 49.3722 15.2021 49.4054 15.2432C49.5798 15.4692 49.5134 15.2535 49.4719 15.0583C49.4137 14.8118 49.3888 14.5653 49.3805 14.3085C49.3722 14.062 49.3805 13.8258 49.3971 13.5793C49.4137 13.3944 49.3805 13.1787 49.4386 13.0041C49.4968 12.8089 49.6379 12.6651 49.7376 12.4905C49.8206 12.3364 49.887 12.1721 49.9452 11.9975C49.9618 11.9461 49.9784 11.8845 49.995 11.8332H49.9867L49.4885 11.4531C49.4552 11.5045 49.422 11.5456 49.3888 11.5969C49.2892 11.7304 49.1979 11.8742 49.1314 12.0489Z" fill="#E94E1B"/>
<path d="M50.202 12.3973C50.1272 12.6336 50.0525 12.9109 50.0442 12.952C49.9778 13.3012 49.9944 13.671 50.0359 14.0304C50.1023 14.6364 50.2518 15.2527 50.5756 15.7252C50.5922 15.7046 50.6088 15.6944 50.6337 15.6738L50.5839 15.5198C50.5673 15.4684 50.559 15.417 50.5424 15.3657C50.5175 15.263 50.5009 15.15 50.4843 15.0473C50.4511 14.8316 50.4511 14.6159 50.4511 14.4002C50.4511 14.1845 50.4677 13.9688 50.4843 13.7634C50.4926 13.6504 50.5009 13.5477 50.5175 13.445C50.5258 13.3834 50.5341 13.3115 50.5507 13.2498C50.6254 13.1368 50.7002 13.0239 50.7666 12.9109L50.4677 12.0995L50.4594 12.0892C50.4345 12.0789 50.4096 12.0687 50.3846 12.0584C50.3348 12.0378 50.2684 12.2022 50.202 12.3973Z" fill="#E94E1B"/>
<path d="M51.24 23.5508C51.3065 23.6741 51.2068 23.5919 51.4476 23.8384C51.6635 23.7357 51.6967 23.6946 51.8213 23.5406C52.0372 23.2838 52.2115 22.9654 52.3693 22.647L52.9754 21.3631C53.1 21.1063 53.1913 20.8598 53.2578 20.6544C53.1249 20.6955 52.9921 20.6852 52.8841 20.6133H52.8758C52.7845 20.7879 52.6682 20.9522 52.5603 21.1166L51.7715 22.2361C51.6469 22.421 51.5058 22.5956 51.3563 22.7497C51.2733 22.9551 51.1487 23.2222 51.2068 23.4584C51.2151 23.4995 51.2234 23.52 51.24 23.5508Z" fill="#E94E1B"/>
<path d="M50.2769 22.7102C50.2769 22.7308 50.2769 22.7719 50.2935 22.7821L50.4844 23.0081L50.4928 23.0184C50.5841 23.0697 50.8415 22.9362 51.1653 22.5973C51.2484 22.5048 51.3397 22.4021 51.4393 22.2789C51.4892 22.2172 51.539 22.1453 51.5971 22.0734L52.0455 21.4469C52.0455 21.4469 52.3693 20.9847 52.3859 20.9539C52.4856 20.8203 52.5935 20.6663 52.6599 20.5122C52.6765 20.4814 52.3776 20.389 52.3361 20.3992C52.2033 20.4403 52.0621 20.656 51.9541 20.7485L50.9826 21.6112C50.8581 21.7242 50.7252 21.8269 50.5841 21.9296C50.3848 22.2686 50.2769 22.5562 50.2769 22.7102Z" fill="#E94E1B"/>
<path d="M49.455 21.6401C49.4467 21.6606 49.4467 21.6914 49.455 21.7222L49.5961 21.9893C49.5961 21.9893 49.6044 21.9996 49.621 22.0098C49.7373 22.0715 50.0528 21.979 50.4348 21.712C50.5344 21.6401 50.634 21.5682 50.7503 21.4757C50.7835 21.4449 50.8167 21.4141 50.8582 21.3833L51.2983 20.993L51.8297 20.5205C51.9128 20.4384 52.0788 20.3356 52.137 20.2227C52.2117 20.0686 52.1536 20.0172 52.112 19.8529C52.0705 19.6886 52.0871 19.5139 52.0622 19.3496C51.838 19.4523 51.6221 19.5961 51.4229 19.7502L50.3932 20.5205C49.8286 20.9416 49.4965 21.4038 49.455 21.6401Z" fill="#E94E1B"/>
<path d="M52.3612 18.9521C52.2201 19.5992 52.6103 20.7701 53.2995 20.3695C53.3161 20.3593 53.3327 20.349 53.3576 20.3285C53.4074 20.2976 53.449 20.2566 53.4988 20.2155C53.5486 20.1744 53.5901 20.123 53.6316 20.0614C53.7977 19.8457 53.9389 19.5478 54.0468 19.1986L54.4537 17.8017C54.5118 17.5963 54.5533 17.4114 54.5699 17.2266C54.462 17.3498 54.3291 17.4525 54.1963 17.545L53.5071 17.9764C53.1915 18.1715 52.8926 18.2331 52.6518 18.1304L52.5439 18.3769C52.4609 18.5618 52.4027 18.7672 52.3612 18.9521Z" fill="#E94E1B"/>
<path d="M52.4772 16.5683L52.444 17.2153C52.4274 17.5235 52.5104 17.7392 52.6848 17.8419C52.7097 17.8521 52.7346 17.8727 52.7678 17.8727C52.9422 17.924 53.1664 17.8727 53.4072 17.7186L54.0964 17.2872C54.2873 17.164 54.4617 16.9996 54.6029 16.8045C54.9018 16.4039 55.0679 15.8904 54.9931 15.4898L54.935 15.1816C54.744 15.459 54.5032 15.6952 54.2292 15.8595L54.1794 15.8904L53.5898 16.2601L53.4238 16.3628C53.075 16.5991 52.7429 16.6607 52.4772 16.5683Z" fill="#E94E1B"/>
<path d="M52.2117 14.7386L52.1702 15.5089C52.1619 15.7349 52.1951 15.9198 52.2698 16.0533C52.3031 16.1046 52.3363 16.156 52.3778 16.1971C52.4027 16.2176 52.4359 16.2382 52.4608 16.2587C52.4691 16.2587 52.4774 16.269 52.4857 16.269C52.7016 16.3717 53.0005 16.3203 53.3244 16.1149L54.1215 15.6116C54.4204 15.4267 54.6778 15.1494 54.8605 14.8413C54.8937 14.7899 54.9186 14.7386 54.9518 14.6872C54.985 14.6359 55.01 14.5742 55.0349 14.5126C55.1843 14.1634 55.2508 13.8039 55.1843 13.4855L54.9601 12.3146C54.9352 12.1708 54.8854 12.0475 54.819 11.9551C54.7276 12.4686 54.4951 12.9617 54.1381 13.3417L53.806 13.6909L53.5403 13.9682L53.3327 14.1942C53.233 14.3072 53.1251 14.3996 53.0171 14.4715C52.9341 14.5229 52.8511 14.5742 52.7597 14.6153C52.5771 14.7078 52.3944 14.7488 52.2117 14.7386Z" fill="#E94E1B"/>
<path d="M50.7339 12.1504L50.9083 12.6331L51.2653 13.6089C51.3899 13.9581 51.5974 14.2252 51.8382 14.3587C51.8881 14.3895 51.9462 14.4101 52.0043 14.4306C52.0375 14.4409 52.079 14.4511 52.1123 14.4511C52.1455 14.4614 52.187 14.4614 52.2285 14.4614C52.544 14.482 52.8845 14.3176 53.1917 13.9889L53.9971 13.1262C54.3459 12.7461 54.5617 12.2531 54.6365 11.7498C54.6448 11.6985 54.6448 11.6574 54.6531 11.606C54.6614 11.5547 54.6614 11.5033 54.6614 11.452C54.6697 11.0206 54.5617 10.5995 54.3376 10.2605L53.4574 8.94579C53.3827 8.83281 53.2996 8.74037 53.2083 8.6582C53.2083 8.95607 53.1502 9.27447 53.0339 9.57234L52.5772 10.8151C52.2866 11.6163 51.7137 12.099 51.0743 12.1504C50.9664 12.1709 50.8501 12.1709 50.7339 12.1504Z" fill="#E94E1B"/>
<path d="M49.3385 9.61308C49.3219 9.99312 49.3136 10.3321 49.1807 10.5478C49.1475 10.5991 49.106 10.6505 49.0562 10.6916C49.0396 10.7121 49.0147 10.7224 48.9897 10.7326L49.2139 10.9073L49.6374 11.2257L50.0609 11.5441L50.1024 11.5749C50.1854 11.6365 50.2768 11.6981 50.3681 11.7392C50.4096 11.7598 50.4594 11.7803 50.501 11.8008C50.5176 11.8008 50.9742 11.8933 51.1486 11.8727C51.6634 11.7906 52.1284 11.3797 52.3692 10.7224L52.8259 9.47956C52.9422 9.16115 52.992 8.8222 52.9754 8.50379C52.9754 8.45244 52.9671 8.40109 52.9671 8.33946C52.9588 8.2881 52.9505 8.23674 52.9422 8.17512C52.8342 7.63075 52.527 7.15827 52.062 6.89122C51.9956 6.85014 51.9291 6.81933 51.8544 6.79878L50.4096 6.24414C50.4096 6.63445 50.1771 7.06583 49.9363 7.51776C49.7703 7.8259 49.6042 8.14431 49.4963 8.46272C49.3634 8.83248 49.3468 9.24332 49.3385 9.61308Z" fill="#E94E1B"/>
<path d="M42.4634 6.37908C42.4468 6.58451 42.6378 6.83101 43.028 7.10834L46.8476 9.79939C46.9721 9.87128 47.0967 9.93291 47.2129 9.99454C47.3624 10.0767 47.5036 10.1383 47.6364 10.2C47.7693 10.2616 47.8938 10.3129 48.0101 10.3643C48.1014 10.3951 48.1844 10.4259 48.2675 10.4567C48.3505 10.4876 48.4252 10.5081 48.5 10.5184C48.5166 10.5184 48.5249 10.5286 48.5415 10.5184C48.6079 10.5286 48.666 10.5389 48.7159 10.5286C48.8072 10.5286 48.8819 10.4978 48.94 10.4567C49.0978 10.3335 49.1061 10.0048 49.1227 9.60423C49.131 9.21393 49.1476 8.78254 49.2888 8.36142C49.405 8.0122 49.5794 7.68352 49.7538 7.36512C49.9946 6.91318 50.2188 6.4818 50.1855 6.16339C50.1855 6.14285 50.1772 6.12231 50.1772 6.10177C50.1689 6.07095 50.1606 6.04013 50.144 6.00932C50.1191 5.94769 50.0776 5.89634 50.0195 5.84499C49.9697 5.79363 49.9032 5.75255 49.8202 5.70119C49.5379 5.53685 49.0895 5.42387 48.4667 5.36224C48.4335 5.35197 45.3945 4.90004 43.6176 5.54712C42.6461 5.89634 42.4717 6.21475 42.4634 6.37908Z" fill="#E94E1B"/>
<path d="M46.899 5.96573C46.6482 5.82577 46.3516 5.96801 46.2366 6.28342C46.1215 6.59882 46.2316 6.96796 46.4824 7.10792C46.7332 7.24787 47.0298 7.10564 47.1448 6.79024C47.2598 6.47483 47.1498 6.10568 46.899 5.96573Z" fill="#BE1622"/>
<path d="M43.0362 6.399C43.0362 6.399 42.8037 6.27574 42.4051 6.04978C42.0066 5.81354 41.4419 5.48487 40.7777 5.03293C40.4455 4.80697 40.0968 4.55019 39.748 4.24206C39.5737 4.08799 39.3993 3.91338 39.2498 3.71823C39.1087 3.53334 38.9675 3.26629 39.1004 3.09168C39.2415 2.91707 39.4906 2.85545 39.7148 2.81437C39.9473 2.77328 40.1964 2.75273 40.4455 2.75273C40.9354 2.74246 41.4419 2.77328 41.9401 2.81437C42.9448 2.90681 43.9496 3.06087 44.8795 3.22521C45.8178 3.38954 46.6897 3.56416 47.437 3.71823C48.9316 4.02636 49.9197 4.25232 49.9197 4.25232C49.9197 4.25232 48.9316 4.00582 47.437 3.66687C46.6897 3.50253 45.8178 3.31765 44.8878 3.13277C43.9579 2.94789 42.9532 2.78354 41.9401 2.67056C41.4336 2.61921 40.9354 2.57812 40.4289 2.57812C40.1798 2.57812 39.9307 2.5884 39.6816 2.62948C39.4408 2.68084 39.1834 2.71165 38.9675 2.95816C38.9177 3.01979 38.8762 3.11223 38.8762 3.20467C38.8679 3.29711 38.8845 3.38955 38.9094 3.46145C38.9592 3.61551 39.0423 3.7285 39.117 3.84148C39.2748 4.05718 39.4574 4.23178 39.6318 4.39612C39.9888 4.71452 40.3376 4.98158 40.6697 5.21782C41.3257 5.69029 41.8986 6.03951 42.2972 6.27574C42.6957 6.51198 42.7456 6.61469 42.9282 6.64551C43.1275 6.67632 43.0362 6.399 43.0362 6.399Z" fill="#BE1622"/>
<path d="M46.5323 6.43247C46.6424 6.43247 46.7316 6.32211 46.7316 6.18597C46.7316 6.04982 46.6424 5.93945 46.5323 5.93945C46.4222 5.93945 46.333 6.04982 46.333 6.18597C46.333 6.32211 46.4222 6.43247 46.5323 6.43247Z" fill="white"/>
<path d="M47.921 31.2C47.8341 30.6808 47.645 30.3116 47.2838 30.0043C46.785 29.5818 45.9515 29.3132 44.5843 29.0046C44.5006 28.9891 44.4168 28.9735 44.3327 28.9477C44.2655 28.9312 44.1905 28.9254 44.1233 28.9089C44.0897 28.9006 44.0562 28.8924 44.023 28.8944C43.8638 28.8628 43.6967 28.842 43.5296 28.8212C43.4878 28.8134 43.4546 28.8154 43.4127 28.8077C43.2705 28.7854 43.1204 28.7738 42.9703 28.7623C42.9372 28.7643 42.8953 28.7565 42.8621 28.7585C42.8455 28.7595 42.8202 28.7507 42.8037 28.7517C42.637 28.7412 42.462 28.7311 42.287 28.7211C42.2622 28.7226 42.2373 28.7241 42.212 28.7153C42.037 28.7053 41.8707 28.705 41.6958 28.6949C41.629 28.6887 41.5627 28.6927 41.4959 28.6864C41.3628 28.6841 41.2214 28.6823 41.08 28.6805C41.0054 28.685 40.9303 28.6793 40.8557 28.6837C40.8059 28.6867 40.7558 28.6795 40.6977 28.683C40.6397 28.6864 40.5816 28.6899 40.5231 28.6832C40.3735 28.6819 40.2325 28.6904 40.0832 28.6993C39.9837 28.7053 39.8841 28.7113 39.7842 28.707C39.6349 28.716 39.4939 28.7245 39.3442 28.7232C39.2447 28.7292 39.1452 28.7352 39.0457 28.7411C38.8964 28.7501 38.7388 28.7596 38.5895 28.7686C38.4983 28.774 38.3988 28.78 38.3075 28.7855C38.1334 28.796 37.9596 28.8167 37.7772 28.8277C37.7108 28.8317 37.6528 28.8352 37.5864 28.8392C37.5781 28.8397 37.5698 28.8402 37.5615 28.8407C37.3048 28.8664 37.0481 28.8921 36.7914 28.9178C36.7085 28.9228 36.626 28.938 36.5347 28.9435C36.361 28.9642 36.1872 28.985 36.0134 29.0057C35.9222 29.0112 35.8314 29.0269 35.7323 29.0432C35.5668 29.0634 35.4013 29.0836 35.2359 29.1039C35.1533 29.1191 35.0704 29.1241 34.9879 29.1393C34.7482 29.1743 34.5163 29.1985 34.2932 29.2325L34.9046 32.7332C35.1277 32.6992 35.3674 32.6643 35.5993 32.64C35.6818 32.6248 35.7647 32.6198 35.8473 32.6046C36.0127 32.5843 36.1782 32.5641 36.3437 32.5439C36.4345 32.5281 36.5257 32.5226 36.6248 32.5064C36.7986 32.4857 36.9724 32.4649 37.1461 32.4442C37.2291 32.4392 37.3116 32.424 37.3945 32.419C37.6512 32.3933 37.9079 32.3676 38.1646 32.3418C38.231 32.3379 38.3056 32.3334 38.372 32.3294C38.5461 32.3189 38.7199 32.2982 38.9024 32.2872C38.9936 32.2817 39.0931 32.2757 39.1843 32.2703C39.3336 32.2613 39.4912 32.2518 39.6405 32.2428C39.74 32.2369 39.8395 32.2309 39.9473 32.2244C40.0966 32.2154 40.2376 32.2069 40.3873 32.2082C40.4868 32.2022 40.5864 32.1962 40.6946 32.2C40.8439 32.191 40.9853 32.1928 41.1345 32.1839C41.2424 32.1774 41.3589 32.1807 41.4667 32.1742C41.5413 32.1697 41.6164 32.1755 41.6827 32.1715C41.8241 32.1732 41.9572 32.1755 42.0986 32.1773C42.1654 32.1836 42.2317 32.1796 42.2985 32.1859C42.473 32.1857 42.648 32.1957 42.8147 32.2063C42.8396 32.2048 42.8645 32.2033 42.8897 32.212C43.0813 32.2211 43.2729 32.2301 43.4648 32.2494C43.498 32.2474 43.5399 32.2552 43.5734 32.2635C43.7235 32.275 43.8736 32.2866 44.0158 32.3089C44.0577 32.3166 44.0909 32.3146 44.1327 32.3224C44.2998 32.3432 44.4669 32.364 44.6261 32.3956C44.6597 32.4038 44.6928 32.4018 44.7264 32.4101C44.8856 32.4417 45.0444 32.463 45.187 32.4955C46.5542 32.8041 47.3877 33.0728 47.8865 33.4952C48.2477 33.8026 48.4368 34.1717 48.5237 34.6909L47.921 31.2Z" fill="#8F614F"/>
<path d="M59.7142 35.1497C59.7206 35.3138 59.7192 35.4887 59.7174 35.6533C59.7194 35.7046 59.7127 35.7462 59.7064 35.798C59.6466 36.6037 59.3271 37.5689 59.0041 38.2362C57.8067 40.7659 55.1583 41.9123 52.9798 42.5369C50.3082 43.3042 47.3933 43.171 44.748 42.2811C44.7144 42.2728 44.6721 42.2548 44.6386 42.2466C44.3857 42.1589 44.1325 42.061 43.8871 41.9524C43.8279 41.9251 43.769 41.9081 43.718 41.8803C43.4644 41.7721 43.2104 41.6537 42.9725 41.5241C40.5362 40.2412 37.0019 39.3636 35.1455 37.8196C34.5092 37.282 34.0696 36.6709 33.9406 35.9279L33.3486 32.498C33.3502 32.5391 33.3684 32.5791 33.3783 32.6197C33.3879 32.6499 33.3891 32.6807 33.3986 32.711C33.4085 32.7515 33.4271 32.8018 33.437 32.8424C33.4469 32.8829 33.4651 32.9229 33.4837 32.9732C33.5019 33.0133 33.5118 33.0538 33.5383 33.0934C33.5569 33.1437 33.5834 33.1832 33.602 33.2335C33.6202 33.2735 33.6467 33.3131 33.6732 33.3526C33.6997 33.3922 33.7179 33.4322 33.7444 33.4717C33.7709 33.5113 33.7973 33.5508 33.8238 33.5904C33.8503 33.6299 33.8768 33.6694 33.9116 33.7085C33.9381 33.748 33.9646 33.7876 33.999 33.8163C33.999 33.8163 33.9994 33.8266 34.0077 33.8261C34.0342 33.8656 34.0686 33.8944 34.1033 33.9335C34.1294 33.9628 34.1642 34.0018 34.1903 34.0311C34.303 34.1477 34.4152 34.2541 34.5354 34.3497C34.6555 34.4453 34.7756 34.5409 34.9041 34.636C34.9724 34.6833 35.0325 34.7311 35.1005 34.7682C35.3735 34.9471 35.6632 35.1251 35.9686 35.2816C36.0788 35.3366 36.1808 35.3922 36.291 35.4473C36.325 35.4658 36.3503 35.4746 36.3842 35.4931C38.3519 36.4854 40.4244 37.1834 42.4216 38.0814C42.4299 38.0809 42.4386 38.0907 42.4469 38.0902C43.7879 38.7911 45.2511 39.2173 46.7217 39.4065C46.7888 39.4231 46.8556 39.4293 46.9219 39.4253C47.0475 39.4486 47.1641 39.4519 47.2893 39.465C48.5745 39.5933 49.8778 39.5458 51.1573 39.3147C51.9416 39.175 52.7404 38.983 53.5028 38.7109C54.1583 38.4658 54.8275 38.148 55.4449 37.7818C56.1112 37.3921 56.7803 36.8583 57.3619 36.2166C57.4815 36.086 57.601 35.9554 57.7036 35.8155C57.9573 35.5021 58.1849 35.1593 58.3865 34.7873C58.588 34.4153 58.7551 34.0144 58.8883 33.5951C58.9686 33.3126 59.0403 33.0204 59.0788 32.7302C59.0988 32.6055 59.111 32.4917 59.1144 32.3681C59.1207 32.3163 59.1266 32.2542 59.1246 32.2029C59.1238 32.1824 59.1312 32.1614 59.1304 32.1409C59.1288 32.0999 59.1359 32.0686 59.1343 32.0275C59.1327 31.9865 59.1315 31.9557 59.1299 31.9147C59.1279 31.8634 59.1258 31.8121 59.1242 31.7711L59.1238 31.7608C59.123 31.7403 59.1222 31.7198 59.1214 31.6993L59.119 31.6377C59.105 31.4946 59.0911 31.3514 59.0689 31.2088C59.1863 31.8702 59.3468 32.5701 59.4825 33.2715C59.5888 33.8615 59.6892 34.5136 59.7142 35.1497Z" fill="url(#paint1_linear_51_5028)"/>
<path d="M44.5566 38.89C45.2633 39.1046 45.9846 39.2669 46.7118 39.3671C45.233 39.1784 43.778 38.7517 42.437 38.0508C42.5386 38.0961 42.6318 38.1419 42.7333 38.1872C43.3264 38.4703 43.934 38.7012 44.5566 38.89Z" fill="#B2B2B2"/>
<path d="M59.0921 31.5878C59.0938 31.6289 59.0954 31.6699 59.097 31.7109L59.0974 31.7212C59.0994 31.7725 59.1014 31.8238 59.103 31.8648C59.1046 31.9059 59.1059 31.9366 59.1075 31.9777C59.1091 32.0187 59.102 32.05 59.1036 32.091C59.1044 32.1115 59.1052 32.132 59.0977 32.1531C59.0915 32.2049 59.0939 32.2664 59.0876 32.3182C59.0841 32.4418 59.0637 32.5562 59.0519 32.6803C59.0052 32.971 58.9418 33.2628 58.8453 33.5565C58.7196 33.9548 58.5521 34.3454 58.3509 34.7277C58.2815 34.8655 58.1956 35.0044 58.1179 35.1427C57.9849 35.3564 57.8433 35.5603 57.6851 35.7652C57.5825 35.905 57.4629 36.0356 57.3434 36.1662C55.2227 38.4737 51.2336 39.7728 47.279 39.4141C47.1538 39.401 47.0286 39.388 46.9117 39.3745C46.8449 39.3682 46.7699 39.3624 46.7114 39.3557C45.2326 39.1669 43.7776 38.7402 42.4366 38.0393C42.4283 38.0398 42.4196 38.0301 42.4113 38.0305C42.3943 38.0213 42.3773 38.012 42.3603 38.0028C40.5863 37.0708 38.2389 36.3584 36.374 35.4422C36.34 35.4237 36.3143 35.4047 36.2808 35.3964C36.1705 35.3413 36.0686 35.2857 35.9583 35.2307C35.6525 35.064 35.3633 34.8963 35.0902 34.7173C35.0219 34.67 34.9535 34.6227 34.8938 34.5851C34.7654 34.49 34.6457 34.4047 34.5251 34.2988C34.4046 34.1929 34.284 34.0871 34.1801 33.9802C34.154 33.9509 34.1196 33.9221 34.0931 33.8826C34.0583 33.8435 34.0322 33.8143 33.9974 33.7752C33.9974 33.7752 33.9974 33.7752 33.9887 33.7655C33.9623 33.7259 33.9275 33.6869 33.9014 33.6576C33.8749 33.6181 33.8401 33.579 33.8136 33.5395C33.7871 33.4999 33.7606 33.4604 33.7341 33.4209C33.7076 33.3813 33.6811 33.3418 33.6629 33.3017C33.6364 33.2622 33.6182 33.2222 33.5917 33.1826C33.5648 33.1328 33.5467 33.0928 33.528 33.0425C33.5098 33.0024 33.4917 32.9624 33.4735 32.9224C33.4553 32.8823 33.437 32.8423 33.4267 32.7915C33.4164 32.7407 33.3982 32.7007 33.3883 32.6601C33.3788 32.6298 33.3693 32.5996 33.3681 32.5688C33.3582 32.5282 33.3487 32.498 33.3384 32.4472C33.2242 31.8679 33.2983 31.2156 33.618 30.4662C33.6868 30.5238 33.7473 30.5819 33.8243 30.6389C35.7672 32.2703 38.6485 33.8761 41.1979 34.4426C43.9908 35.0665 44.9658 34.9154 46.9481 33.5314C47.2635 33.3067 47.6109 33.0493 47.9902 32.7592C48.0075 32.1411 48.0043 31.6374 47.9384 31.2301C47.8582 30.6693 47.6683 30.2797 47.2901 29.9631C46.7913 29.5406 45.9574 29.2617 44.5906 28.9633C41.8732 28.3555 37.5164 28.7614 34.3173 29.2211C38.0236 23.8977 46.4075 26.1188 49.9199 26.2264C53.5073 26.3398 55.9425 27.1703 57.4036 28.3884C58.3406 29.1753 58.8678 30.1102 59.0491 31.1277C59.0643 31.3016 59.0865 31.4442 59.0921 31.5878Z" fill="url(#paint2_radial_51_5028)"/>
<path d="M58.8459 33.5656C58.5438 33.7072 58.1415 33.8342 57.6696 33.8831C57.4129 33.9088 57.1392 33.9253 56.8548 33.8807C56.5704 33.8361 56.2748 33.7202 55.9714 33.615C55.7435 33.5259 55.5084 33.468 55.2655 33.4209C55.3924 33.0534 55.5027 32.6869 55.6213 32.3198C55.7032 32.0784 55.7686 31.8379 55.8249 31.5775L56.0119 30.8361C56.1422 30.3449 56.2137 29.8368 56.3101 29.3271C56.3667 29.0769 56.3815 28.8189 56.4212 28.5595L56.5075 27.7933L56.3711 28.5522C56.3227 28.8019 56.2913 29.0609 56.2346 29.3111L56.0642 30.0514C56.0075 30.3016 55.9591 30.5513 55.8855 30.7923L55.6728 31.5146C55.6074 31.7551 55.5337 31.996 55.4518 32.2375L55.2134 32.9408C55.161 33.0879 55.1086 33.235 55.0562 33.3821C55.0479 33.3826 55.0392 33.3729 55.0226 33.3739C54.6963 33.3215 54.3625 33.2901 54.0288 33.2588C53.3617 33.2063 52.6875 33.1852 52.0685 33.0887C52.0519 33.0897 52.0266 33.0809 52.01 33.0819C52.0475 32.9769 52.0853 32.882 52.1145 32.7774L52.3974 31.9378L52.5388 31.5179C52.5833 31.3816 52.6192 31.2355 52.655 31.0893L52.8786 30.2224C52.9145 30.0763 52.9586 29.9296 52.9944 29.7835L53.0766 29.3364L53.2414 28.4524C53.3047 28.1607 53.3175 27.8514 53.3639 27.5504L53.4615 26.6499L53.3133 27.5329C53.2583 27.8241 53.2289 28.1344 53.1485 28.4169L52.9506 29.3028L52.8514 29.7407C52.8156 29.8868 52.7711 30.0232 52.7265 30.1595L52.4772 31.0075C52.4327 31.1438 52.3969 31.29 52.3523 31.4263L52.2022 31.8364L51.9106 32.6663C51.8657 32.7924 51.8207 32.9185 51.7758 33.0446C51.2568 32.9524 50.7784 32.8372 50.3647 32.677C50.0439 32.5523 49.7721 32.4041 49.5338 32.2642C49.5563 32.2011 49.5792 32.1483 49.6016 32.0853L49.773 31.5814L49.9444 31.0775C49.996 30.9098 50.0559 30.7417 50.1071 30.5638L50.3907 29.5287C50.4419 29.3508 50.4852 29.1837 50.5198 29.0068L50.6319 28.4756L50.7358 27.9449C50.7787 27.7675 50.7967 27.5916 50.8231 27.4152L50.9719 26.3368L50.7642 27.3982C50.7296 27.5751 50.7033 27.7515 50.6521 27.9294L50.5229 28.4513L50.3938 28.9732C50.3592 29.1501 50.3076 29.3178 50.2477 29.4859L49.9302 30.5025C49.8269 30.8377 49.6902 31.1648 49.5786 31.5005L49.3985 31.9947C49.3757 32.0475 49.3528 32.1002 49.3304 32.1633C49.279 32.1252 49.228 32.0975 49.1849 32.0589C48.9111 31.8594 48.7545 31.6837 48.7545 31.6837C48.5197 31.4202 48.2151 31.2843 47.8999 31.3032C47.9662 31.7209 47.969 32.2143 47.9517 32.8323C47.5724 33.1225 47.225 33.3799 46.9096 33.6045C47.2431 34.2632 47.9171 34.49 48.4772 34.1478L48.3621 34.3913L48.3625 34.4015L45.5026 39.2627L45.5275 39.2612L45.5357 39.2607L45.5598 39.2387L45.5914 39.1956L45.9875 38.6988L46.2014 38.4288C46.2728 38.3423 46.3442 38.2557 46.4152 38.1589L46.8085 37.5902L47.0054 37.311C47.0681 37.2147 47.1395 37.1282 47.2019 37.0216L47.5608 36.4241L47.7403 36.1254C47.803 36.0291 47.8653 35.9225 47.9193 35.8164C48.1358 35.4024 48.3523 34.9883 48.5688 34.5742C48.5767 34.5635 48.5763 34.5532 48.5842 34.5425L48.8066 34.0663L48.8598 33.9397C48.917 33.9157 48.9739 33.8815 49.0394 33.857C49.3419 33.7257 49.7774 33.5966 50.2912 33.5555C50.6806 33.5218 51.1131 33.5266 51.5803 33.5705L51.2606 34.3199C51.1991 34.4469 51.1467 34.5941 51.0931 34.7104L50.9006 35.1025L50.5237 35.8758C50.4007 36.13 50.2523 36.3754 50.1206 36.6199C49.9806 36.8648 49.8576 37.119 49.7089 37.3542L49.2632 38.0699C49.1231 38.3149 48.9574 38.5408 48.8 38.7662L48.5641 39.1094L48.4462 39.2811L48.3598 39.4097L48.344 39.4312L48.3361 39.4419L48.3282 39.4527L48.2726 39.5177C48.3559 39.523 48.4471 39.5175 48.5222 39.5233L48.5853 39.4372L48.7116 39.2651L48.9562 38.9316C49.1219 38.7057 49.2876 38.4798 49.4359 38.2344L49.8899 37.5181C50.0469 37.2824 50.1778 37.0175 50.3178 36.7725C50.4574 36.5173 50.6057 36.2719 50.7371 36.0172L51.1136 35.2336L51.2978 34.8421C51.3672 34.7042 51.4204 34.5776 51.4732 34.4408L51.8154 33.6284C51.8233 33.6176 51.8225 33.5971 51.8303 33.5863C51.8971 33.5926 51.9556 33.5994 52.0223 33.6056C52.6409 33.6919 53.3037 33.8474 53.9662 33.9927C54.2423 34.0378 54.5105 34.0936 54.7862 34.1285C54.7558 34.2023 54.7172 34.2766 54.6868 34.3504L54.3979 35.0362L54.2532 35.3739L54.215 35.4585L54.1763 35.5328L54.0911 35.6922L53.7595 36.3497L53.4366 37.0169C53.3372 37.2389 53.2122 37.4418 53.0875 37.6549L52.3634 38.9016L52.3555 38.9124L52.3318 38.9446L52.3239 38.9554C52.3082 38.9769 52.2924 38.9984 52.2766 39.0199C52.3836 38.9929 52.4906 38.9659 52.5972 38.9287L53.276 37.7978C53.4007 37.5847 53.534 37.3813 53.6334 37.1594L53.965 36.5019L54.2879 35.8346L54.3731 35.6752L54.4192 35.5799L54.4575 35.4953L54.6022 35.1576L54.8911 34.4718C54.9369 34.3662 54.9743 34.2611 55.0196 34.1453C55.3289 34.1884 55.637 34.2007 55.9351 34.1725C56.2503 34.1536 56.5564 34.1146 56.8491 34.1587C57.1331 34.193 57.3942 34.2802 57.6391 34.3786C57.9094 34.4857 58.1555 34.6149 58.3689 34.7563C58.3772 34.7558 58.3772 34.7558 58.3859 34.7656C58.5874 34.3935 58.7546 33.9927 58.8877 33.5734C58.8624 33.5646 58.8541 33.5651 58.8459 33.5656Z" fill="#F9EDDC"/>
<path d="M38.2004 28.8246C38.0594 28.8331 37.9188 28.8518 37.7778 28.8603C37.7612 28.8613 37.7446 28.8623 37.728 28.8633C37.6734 28.7431 37.6184 28.6128 37.5717 28.4819C37.4233 28.0898 37.316 27.6849 37.2616 27.3591C37.2072 27.0333 37.2062 26.7968 37.2062 26.7968C37.2062 26.7968 37.3533 26.9422 37.5134 27.2103C37.6815 27.4675 37.8623 27.8371 38.0107 28.2293C38.0847 28.4202 38.1512 28.6321 38.2004 28.8246Z" fill="#F9EDDC"/>
<path d="M40.9393 28.699C40.9144 28.7005 40.8895 28.702 40.873 28.703C40.8232 28.706 40.773 28.6987 40.715 28.7022C40.6569 28.7057 40.5989 28.7092 40.5408 28.7127C40.5076 28.7147 40.4828 28.7162 40.4579 28.7177C40.4286 28.6063 40.4076 28.4945 40.3782 28.3831C40.3168 28.0886 40.2549 27.7838 40.2192 27.5083C40.1747 27.2231 40.1393 26.9578 40.1218 26.7224C40.0788 26.2622 40.0911 25.9427 40.0911 25.9427C40.0911 25.9427 40.2347 26.2117 40.3844 26.6346C40.4675 26.8456 40.5439 27.0981 40.6211 27.3711C40.6983 27.6441 40.7764 27.9376 40.8378 28.2321C40.8767 28.3737 40.908 28.5364 40.9393 28.699Z" fill="#F9EDDC"/>
<path d="M43.3566 28.03C43.3754 28.2962 43.3858 28.563 43.3955 28.8092C43.262 28.7966 43.1202 28.7846 42.9784 28.7725C42.9701 28.773 42.9618 28.7735 42.9452 28.7745C42.9115 28.5503 42.8939 28.3149 42.8768 28.0897C42.8568 27.7927 42.8451 27.4952 42.8429 27.2279C42.8403 26.9504 42.8468 26.693 42.8628 26.4658C42.887 26.0221 42.9416 25.7206 42.9416 25.7206C42.9416 25.7206 43.0441 26.0024 43.1361 26.439C43.1861 26.652 43.2293 26.9065 43.2651 27.182C43.3 27.437 43.3366 27.733 43.3566 28.03Z" fill="#F9EDDC"/>
<path d="M45.9632 26.6608C45.9808 26.8962 45.9834 27.1737 45.9868 27.4717C45.9897 27.7595 45.9774 28.079 45.9563 28.3888C45.9352 28.6985 45.9058 29.0088 45.8674 29.299C45.8678 29.3093 45.8682 29.3196 45.8686 29.3298C45.7338 29.2865 45.5995 29.2534 45.4482 29.2111C45.4456 28.9336 45.4588 28.6346 45.4724 28.3459C45.4935 28.0361 45.5229 27.7258 45.5614 27.4356C45.5998 27.1454 45.6391 26.8756 45.6883 26.6464C45.7784 26.1886 45.8745 25.8846 45.8745 25.8846C45.8745 25.8846 45.9364 26.1893 45.9632 26.6608Z" fill="#F9EDDC"/>
<path d="M48.7293 26.1766C48.7293 26.1766 48.7264 26.5264 48.6716 27.0336C48.6402 27.2925 48.6017 27.5828 48.5387 27.8848C48.4845 28.1965 48.414 28.5196 48.3353 28.8431C48.2566 29.1666 48.1691 29.4803 48.0813 29.7838C47.9931 30.0771 47.8957 30.3503 47.8134 30.5815C47.798 30.6133 47.7913 30.6548 47.7759 30.6866C47.7209 30.5562 47.6493 30.4268 47.5703 30.3184C47.5954 30.1113 47.6363 29.8826 47.6764 29.6334C47.7306 29.3216 47.8011 28.9986 47.8798 28.6751C47.9585 28.3516 48.0459 28.0378 48.1342 27.7446C48.2224 27.4513 48.3198 27.1781 48.4021 26.9469C48.5743 26.4636 48.7293 26.1766 48.7293 26.1766Z" fill="#F9EDDC"/>
<path d="M35.837 32.1421C35.6104 32.2997 35.3336 32.45 35.0565 32.5901C34.6727 32.7674 34.2712 32.915 33.9576 32.9749C33.8013 33.0152 33.6686 33.0232 33.5777 33.0389C33.5529 33.0404 33.528 33.0419 33.5031 33.0434C33.4533 33.0464 33.4202 33.0484 33.4202 33.0484C33.4202 33.0484 33.4442 33.0264 33.4762 32.9936C33.492 32.9721 33.5082 32.9608 33.5322 32.9388C33.6045 32.8728 33.717 32.7735 33.8456 32.6629C34.1117 32.4515 34.4851 32.2234 34.8689 32.0461C35.024 31.9751 35.1875 31.9035 35.343 31.8428C35.5129 31.9354 35.6666 32.0393 35.837 32.1421Z" fill="#F9EDDC"/>
<path d="M37.2481 32.933C37.2398 32.9335 37.2402 32.9437 37.2319 32.9442C37.0571 33.1501 36.859 33.3986 36.6452 33.6685C36.4396 33.9379 36.2187 34.2391 36.0147 34.5496C35.8968 34.7212 35.7792 34.9031 35.6613 35.0748C35.7549 35.1308 35.8486 35.1869 35.9501 35.2322C36.0011 35.26 36.0603 35.2873 36.1113 35.3151C36.1977 35.1865 36.2928 35.0676 36.3792 34.939C36.5914 34.6281 36.7871 34.3181 36.9661 34.0091C37.1456 33.7104 37.3085 33.4127 37.4398 33.158C37.4556 33.1365 37.471 33.1047 37.478 33.0734C37.4859 33.0626 37.4938 33.0519 37.4934 33.0416C37.418 33.0256 37.333 32.9793 37.2481 32.933Z" fill="#F9EDDC"/>
<path d="M39.5086 33.9788C39.4791 34.0731 39.4495 34.1674 39.4117 34.2623C39.2848 34.6298 39.15 35.0081 39.0066 35.3766C38.871 35.7344 38.7267 36.0824 38.5733 36.4104C38.5481 36.4017 38.5145 36.3934 38.4975 36.3842C38.4046 36.3486 38.3201 36.3126 38.2356 36.2765C38.2103 36.2677 38.1933 36.2585 38.168 36.2497L38.1676 36.2395C38.2949 35.8822 38.4293 35.4936 38.5727 35.1251C38.7241 34.7458 38.8841 34.3762 39.0288 34.0385C39.0596 33.9749 39.0899 33.9011 39.1207 33.8376C39.2471 33.8814 39.3739 33.9355 39.5086 33.9788Z" fill="#F9EDDC"/>
<path d="M41.443 34.5404C41.3801 34.8424 41.303 35.207 41.2014 35.5833C41.1089 35.9796 40.9844 36.4087 40.8595 36.8276C40.8154 36.9742 40.7634 37.1316 40.7189 37.2679C40.5668 37.2051 40.4147 37.1422 40.263 37.0897C40.3067 36.9328 40.3504 36.7759 40.4024 36.6185C40.5273 36.1997 40.6608 35.7906 40.7952 35.4021C40.915 35.0658 41.0273 34.7505 41.1412 34.4763C41.1578 34.4753 41.1665 34.4851 41.1831 34.4841C41.2751 34.4991 41.3676 34.5244 41.443 34.5404Z" fill="#F9EDDC"/>
<path d="M43.2665 34.8224C43.1944 35.1043 43.1161 35.4381 43.0464 35.7816C42.9693 36.1462 42.9013 36.5308 42.842 36.9251C42.7827 37.3194 42.7316 37.7133 42.6881 38.0861C42.6893 38.1169 42.6905 38.1476 42.683 38.1686C42.7427 38.2062 42.8102 38.233 42.8782 38.27C42.9458 38.2968 43.005 38.3241 43.073 38.3612C43.0871 38.2986 43.1009 38.2258 43.1155 38.1735C43.1926 37.8089 43.2606 37.4244 43.32 37.03C43.3793 36.6357 43.4303 36.2419 43.4656 35.8696C43.5091 35.4967 43.5373 35.1557 43.5501 34.8464C43.5497 34.8362 43.5497 34.8362 43.5497 34.8362L43.2665 34.8224Z" fill="#F9EDDC"/>
<path d="M28.0323 36.8505C28.298 38.2062 28.6052 40.774 27.2684 41.2979C25.6409 41.9347 24.603 40.2502 24.7773 37.6413C24.9932 34.3854 26.6207 31.9922 26.82 31.9922C26.9943 32.0025 27.5341 34.3032 28.0323 36.8505Z" fill="#222444"/>
<path d="M27.808 35.8424C28.0156 36.9106 28.2564 38.934 27.2102 39.3448C25.9232 39.8481 25.1177 38.5129 25.2506 36.4689C25.425 33.9114 26.6954 32.0215 26.8615 32.0215C26.986 32.0215 27.4178 33.8395 27.808 35.8424Z" fill="#494E7A"/>
<path d="M27.5921 35.0103C27.7499 35.832 27.9409 37.3932 27.1271 37.7116C26.139 38.1019 25.5163 37.0748 25.6159 35.4931C25.7488 33.521 26.7286 32.0625 26.8531 32.0625C26.9611 32.0625 27.2932 33.4697 27.5921 35.0103Z" fill="#606791"/>
<path d="M27.858 36.8402C28.132 38.196 28.8212 40.6508 30.1995 40.3427C31.8851 39.9729 32.1674 37.8879 31.0299 35.6796C29.6183 32.9269 27.2767 31.7252 27.1024 31.8484C26.9612 31.9409 27.3431 34.3032 27.858 36.8402Z" fill="#222444"/>
<path d="M27.6754 35.8131C27.8913 36.8813 28.431 38.8122 29.5188 38.576C30.8473 38.2884 31.0632 36.645 30.1747 34.8989C29.0621 32.7317 27.227 31.7868 27.0859 31.8792C26.9696 31.9614 27.2686 33.8205 27.6754 35.8131Z" fill="#494E7A"/>
<path d="M27.5588 34.9611C27.7248 35.7828 28.14 37.2721 28.9786 37.0872C30 36.8613 30.1743 35.5979 29.4852 34.2524C28.6299 32.5782 27.21 31.8489 27.1021 31.9208C27.0107 31.9825 27.2432 33.4204 27.5588 34.9611Z" fill="#606791"/>
<path d="M29.0612 36.2263C29.4606 35.9593 29.4681 35.0187 29.0778 34.1253C28.6876 33.232 28.0475 32.7242 27.648 32.9912C27.2486 33.2582 27.2412 34.1988 27.6314 35.0922C28.0216 35.9855 28.6618 36.4933 29.0612 36.2263Z" fill="#E5B683"/>
</g>
<defs>
<filter id="filter0_d_51_5028" x="0" y="0" width="63.7188" height="51.0391" filterUnits="userSpaceOnUse" color-interpolation-filters="sRGB">
<feFlood flood-opacity="0" result="BackgroundImageFix"/>
<feColorMatrix in="SourceAlpha" type="matrix" values="0 0 0 0 0 0 0 0 0 0 0 0 0 0 0 0 0 0 127 0" result="hardAlpha"/>
<feOffset dy="4"/>
<feGaussianBlur stdDeviation="2"/>
<feComposite in2="hardAlpha" operator="out"/>
<feColorMatrix type="matrix" values="0 0 0 0 0 0 0 0 0 0 0 0 0 0 0 0 0 0 0.25 0"/>
<feBlend mode="normal" in2="BackgroundImageFix" result="effect1_dropShadow_51_5028"/>
<feBlend mode="normal" in="SourceGraphic" in2="effect1_dropShadow_51_5028" result="shape"/>
</filter>
<linearGradient id="paint0_linear_51_5028" x1="21.7843" y1="11.5344" x2="22.9687" y2="25.3822" gradientUnits="userSpaceOnUse">
<stop offset="0.066" stop-color="#4C5354"/>
<stop offset="0.1386" stop-color="#5B6162"/>
<stop offset="0.2733" stop-color="#919495"/>
<stop offset="0.4095" stop-color="#C0C2C3"/>
<stop offset="0.5138" stop-color="#DEDEDF"/>
<stop offset="0.573" stop-color="#E9E9EA"/>
<stop offset="0.6348" stop-color="#DFE0E1"/>
<stop offset="0.7388" stop-color="#C5C7CA"/>
<stop offset="0.8715" stop-color="#9BA0A5"/>
<stop offset="0.8764" stop-color="#999EA3"/>
<stop offset="1" stop-color="#B2B2B2"/>
</linearGradient>
<linearGradient id="paint1_linear_51_5028" x1="33.808" y1="38.6963" x2="59.8384" y2="36.6915" gradientUnits="userSpaceOnUse">
<stop stop-color="#E7E3E0"/>
<stop offset="0.0375" stop-color="#D8D5D3"/>
<stop offset="0.1095" stop-color="#B1B1AF"/>
<stop offset="0.2078" stop-color="#737777"/>
<stop offset="0.264" stop-color="#4C5354"/>
<stop offset="0.2677" stop-color="#4E5556"/>
<stop offset="0.3751" stop-color="#909495"/>
<stop offset="0.4654" stop-color="#C0C2C3"/>
<stop offset="0.5341" stop-color="#DEDEDF"/>
<stop offset="0.573" stop-color="#E9E9EA"/>
<stop offset="0.6348" stop-color="#DFE0E1"/>
<stop offset="0.7388" stop-color="#C5C7CA"/>
<stop offset="0.8715" stop-color="#9BA0A5"/>
<stop offset="0.8764" stop-color="#999EA3"/>
<stop offset="1" stop-color="#B2B2B2"/>
</linearGradient>
<radialGradient id="paint2_radial_51_5028" cx="0" cy="0" r="1" gradientUnits="userSpaceOnUse" gradientTransform="translate(46.239 32.524) rotate(-6.72107) scale(10.0367 12.3563)">
<stop offset="0.009901" stop-color="#F39200"/>
<stop offset="0.224" stop-color="#F28B03"/>
<stop offset="0.5457" stop-color="#EF760B"/>
<stop offset="0.9335" stop-color="#EA5418"/>
<stop offset="1" stop-color="#E94E1B"/>
</radialGradient>
</defs>
</svg>
