<svg width="68" height="68" viewBox="0 0 68 68" fill="none" xmlns="http://www.w3.org/2000/svg">
<g filter="url(#filter0_d_51_5030)">
<path d="M20.7651 21.8382C20.7651 21.8382 25.8551 19.4244 26.9678 19.3731C27.1255 19.3628 28.479 21.982 30.6296 22.5161C30.6296 22.5161 22.3262 21.6533 20.7651 21.8382Z" fill="#575756"/>
<path d="M20.7651 21.8393C21.6204 21.4079 22.4756 20.997 23.3475 20.5965C23.7793 20.4013 24.2194 20.2062 24.6511 20.0315C25.0912 19.8467 25.5313 19.6721 25.9714 19.518C26.1956 19.4461 26.4198 19.3639 26.6523 19.3126C26.7104 19.292 26.7685 19.292 26.8266 19.2817L26.918 19.2715H26.9429H26.9512H26.9595C27.0093 19.2818 26.9761 19.2715 26.9844 19.2715C26.9927 19.2715 27.0259 19.292 27.0591 19.3126C27.1671 19.4255 27.2335 19.5283 27.3165 19.6412C27.6238 20.0624 27.9393 20.4732 28.2797 20.843C28.9606 21.5825 29.766 22.1679 30.6462 22.3939L30.613 22.661L28.1552 22.4042L25.6891 22.168L24.4602 22.055L23.2312 21.9523C22.8244 21.9112 22.4092 21.9009 22.0023 21.8701C21.7948 21.8598 21.5955 21.8393 21.3879 21.8495L20.7651 21.8393ZM20.7651 21.8393L21.3796 21.7982C21.5872 21.7776 21.7948 21.7879 22.0023 21.7879C22.4175 21.7982 22.8244 21.7879 23.2396 21.8187C24.0616 21.8495 24.8836 21.9009 25.714 21.9625C26.536 22.0139 27.358 22.0858 28.1801 22.1577L30.6462 22.3836L30.613 22.6507C29.6747 22.4247 28.8443 21.7879 28.1552 21.0279C27.8064 20.6478 27.4826 20.2267 27.1837 19.7953C27.1089 19.6926 27.0259 19.5693 26.9595 19.4974C26.9678 19.4974 26.9761 19.4974 26.9595 19.4872C26.9678 19.4872 26.9346 19.4872 26.9844 19.4872H26.9761H26.9678H26.9512L26.8681 19.4974C26.81 19.5077 26.7602 19.5077 26.7021 19.5283C26.4779 19.5796 26.2537 19.6412 26.0378 19.7131C25.5977 19.8569 25.1493 20.0213 24.7176 20.1959C24.2775 20.3705 23.8374 20.5451 23.4056 20.73C22.5089 21.0895 21.637 21.4695 20.7651 21.8393Z" fill="#1D1D1B"/>
<path d="M22.085 32.4794C22.1763 32.4794 25.2486 34.4207 26.6269 34.2255C26.6269 34.2255 25.8298 33.0649 26.6269 31.9453L22.085 32.4794Z" fill="#575756"/>
<path d="M22.085 32.4792C22.1763 32.51 22.2759 32.5614 22.3673 32.6127L22.6413 32.7462L23.1976 33.0236C23.5713 33.1982 23.9449 33.3831 24.3186 33.5371C24.5096 33.6193 24.6922 33.6912 24.8915 33.7631C24.9828 33.8042 25.0825 33.8247 25.1738 33.8658C25.2735 33.8966 25.3648 33.9377 25.4644 33.9582C25.6554 34.0199 25.8464 34.0609 26.0457 34.0918L26.3363 34.1226C26.4276 34.1226 26.5273 34.1123 26.6186 34.1123L26.5522 34.328C26.4941 34.2356 26.4442 34.1431 26.4027 34.0507C26.3612 33.9582 26.3197 33.8555 26.2865 33.7528C26.2533 33.6501 26.2283 33.5474 26.2034 33.4344C26.1868 33.383 26.1868 33.3214 26.1785 33.2701C26.1702 33.2187 26.1702 33.1571 26.1702 33.1057C26.1619 32.9927 26.1785 32.8798 26.1868 32.7668L26.22 32.6024C26.2283 32.5511 26.2533 32.4997 26.2699 32.4484C26.2865 32.397 26.3031 32.3457 26.328 32.2943L26.3944 32.1505C26.4193 32.0991 26.4442 32.0581 26.4692 32.017L26.5522 31.8835L26.6352 32.0889L25.4977 32.2121C25.1157 32.2532 24.742 32.284 24.3601 32.3148C23.9781 32.3457 23.6045 32.3867 23.2225 32.4176C22.8406 32.4278 22.4669 32.4586 22.085 32.4792ZM22.085 32.4792C22.4586 32.4073 22.8406 32.3559 23.2142 32.2943C23.5879 32.2327 23.9698 32.1813 24.3518 32.13C24.7337 32.0786 25.1074 32.017 25.4893 31.9656L26.6269 31.8218L26.8594 31.791L26.7099 32.0273L26.6352 32.1402C26.6103 32.1813 26.5854 32.2121 26.5688 32.2635L26.5107 32.3867C26.4858 32.4278 26.4774 32.4689 26.4608 32.5203C26.4442 32.5614 26.4276 32.6024 26.4193 32.6538L26.3944 32.7873C26.3861 32.8798 26.3778 32.9722 26.3778 33.0749C26.3778 33.1263 26.3778 33.1674 26.3861 33.2187C26.3944 33.2598 26.3944 33.3111 26.4027 33.3625C26.4193 33.4549 26.4442 33.5474 26.4692 33.6398C26.5024 33.7323 26.5273 33.8144 26.5688 33.9069C26.602 33.9891 26.6518 34.0815 26.6933 34.1431L26.8262 34.3485H26.6269C26.519 34.3485 26.4193 34.3588 26.3114 34.3588L26.0042 34.3177C25.8049 34.2766 25.6056 34.2356 25.4063 34.1637C25.3067 34.1328 25.207 34.102 25.1157 34.0609C25.0161 34.0301 24.9247 33.989 24.8251 33.948C24.6341 33.8658 24.4431 33.7836 24.2604 33.6912C23.8868 33.5063 23.5131 33.3214 23.1561 33.1057L22.6164 32.7873L22.3507 32.623C22.2676 32.5819 22.1763 32.5203 22.085 32.4792Z" fill="#1D1D1B"/>
<path d="M31.7583 30.0473C31.7583 30.0473 35.9349 30.6122 36.6075 30.8792C36.6075 30.8792 37.0974 28.1471 37.8364 27.5C37.8364 27.5 32.2565 29.5337 31.7583 30.0473Z" fill="#575756"/>
<path d="M31.7583 30.0477C32.572 30.1299 33.3858 30.2121 34.1995 30.3251C34.6064 30.3764 35.0132 30.438 35.4201 30.4997C35.6277 30.5305 35.827 30.5716 36.0262 30.6126C36.2255 30.6435 36.4331 30.7051 36.6407 30.7667L36.5161 30.8592C36.6324 30.2429 36.7735 29.6369 36.9562 29.0412C36.9977 28.8974 37.0476 28.7433 37.1057 28.5995C37.1555 28.4557 37.2136 28.3119 37.2801 28.1681C37.3382 28.0243 37.4129 27.8908 37.4959 27.7573L37.6288 27.5724C37.6786 27.5108 37.7367 27.4594 37.7866 27.3978L37.8779 27.634L36.3418 28.1989L34.8056 28.7741C34.2908 28.959 33.7843 29.1644 33.2695 29.3596C33.0121 29.4623 32.763 29.565 32.5056 29.6677C32.3811 29.7293 32.2565 29.7807 32.132 29.8423L31.9493 29.9348C31.8745 29.9656 31.8164 30.0067 31.7583 30.0477ZM31.7583 30.0477C31.8164 30.0067 31.8662 29.9553 31.9244 29.9142L32.107 29.8012C32.2316 29.7293 32.3561 29.6677 32.4724 29.5958C32.7215 29.4725 32.9706 29.3493 33.2197 29.2363C33.7179 29.0001 34.2244 28.7844 34.7392 28.579C35.7522 28.1476 36.7819 27.7675 37.8032 27.3772L38.2432 27.2129L37.8945 27.6135C37.853 27.6648 37.8115 27.7059 37.77 27.7573L37.6537 27.9216C37.5873 28.0449 37.5209 28.1681 37.4627 28.3016C37.4046 28.4352 37.3465 28.5687 37.2967 28.7125C37.2468 28.8563 37.197 28.9898 37.1472 29.1336C36.9645 29.7088 36.8151 30.3045 36.6988 30.9105L36.6739 31.0235L36.5743 30.9927C36.3833 30.9413 36.1923 30.8797 35.9847 30.8386C35.7854 30.7975 35.5862 30.7462 35.3869 30.7051C34.9883 30.6229 34.5815 30.551 34.1746 30.4791L31.7583 30.0477Z" fill="#1D1D1B"/>
<path d="M41.2994 25.5057C41.2994 23.359 38.9993 24.078 33.9675 23.133C25.7803 21.5924 22.8492 21.161 18.2159 21.9211C10.3194 23.2152 5.75255 26.8615 5.01355 28.6487C4.88069 28.9773 5.76085 29.532 6.08468 30.2407C6.48324 31.1138 16.0903 33.3118 23.7709 32.675C27.8811 32.336 31.0779 30.6926 34.0256 29.2239C38.7253 26.8615 41.2994 27.5907 41.2994 25.5057Z" fill="url(#paint0_linear_51_5030)"/>
<path d="M45.7423 30.0892C45.2358 29.4319 43.2264 25.7753 43.0769 25.5083C43.2347 25.2207 45.2358 21.5847 45.734 20.9273C46.2571 20.2392 46.008 20.5473 45.734 20.5473C45.46 20.5473 43.3675 21.3074 42.1054 22.4475C40.8516 23.5876 39.7389 24.7585 39.6227 25.1488C39.5646 25.3439 39.5646 25.6829 39.6227 25.878C39.7472 26.2581 40.8516 27.4392 42.1054 28.5793C43.3592 29.7194 45.4517 30.4795 45.7257 30.4795C46.0163 30.4692 46.2571 30.7671 45.7423 30.0892Z" fill="#575756"/>
<path d="M45.7419 30.0881L45.3849 29.5335C45.2686 29.3486 45.1441 29.174 45.0361 28.9788L44.3636 27.8387C44.1394 27.4587 43.9235 27.0684 43.7076 26.6884L43.0516 25.538L43.0433 25.5175L43.0516 25.4969C43.5415 24.5828 44.0397 23.6686 44.5462 22.7751C44.8036 22.3231 45.0444 21.8712 45.3267 21.4295C45.4679 21.2138 45.5924 20.9776 45.7419 20.7722C45.8166 20.6695 45.8997 20.5668 45.9495 20.4743L45.9578 20.464C45.9661 20.464 45.9412 20.4538 45.9578 20.5462C45.9744 20.577 45.9827 20.5873 45.991 20.5976C46.0076 20.6078 46.0159 20.6078 46.0159 20.6078H46.0325H46.0242L45.9495 20.6386C45.8914 20.6592 45.8332 20.6695 45.7668 20.6797C45.6672 20.69 45.5509 20.7208 45.4513 20.7516C45.3517 20.7824 45.252 20.8133 45.1441 20.8543C44.9365 20.9365 44.7289 21.0187 44.5213 21.1111C44.1061 21.296 43.7076 21.5117 43.309 21.7479C43.1097 21.8609 42.9271 22.0047 42.7278 22.128C42.5368 22.2615 42.3624 22.4156 42.1798 22.5594C41.8227 22.888 41.4657 23.2064 41.1252 23.5557C40.7765 23.8946 40.4361 24.2438 40.1205 24.6239C40.0375 24.7163 39.9628 24.8087 39.888 24.9115C39.8548 24.9628 39.8133 25.0039 39.7801 25.0553C39.7552 25.0963 39.722 25.158 39.7054 25.199C39.6721 25.3428 39.6638 25.4456 39.6638 25.5688C39.6721 25.6304 39.6638 25.7023 39.6804 25.7537C39.6804 25.7742 39.697 25.8256 39.697 25.8256L39.7386 25.918L39.7801 26.0002L39.8299 26.0721L39.9295 26.2159L40.162 26.5035C40.3198 26.6884 40.4859 26.8732 40.6519 27.0581C40.9841 27.4176 41.3328 27.7566 41.6733 28.1058C41.8476 28.2701 42.022 28.4447 42.2047 28.5988C42.3873 28.7426 42.57 28.9172 42.761 29.0405C43.143 29.3178 43.5415 29.554 43.9567 29.7595C44.3636 29.9751 44.787 30.1498 45.2105 30.3141L45.5343 30.4168C45.6423 30.4476 45.7502 30.4579 45.8665 30.4784C45.9163 30.4887 45.9744 30.5195 46.0242 30.5298C46.0658 30.5401 46.0325 30.4887 46.0242 30.4682L45.9744 30.386L45.7419 30.0881ZM45.7419 30.0881L45.9661 30.386L46.0159 30.4682C46.0242 30.4784 46.0325 30.499 46.0408 30.5092C46.0408 30.5195 46.0491 30.5298 46.0408 30.5401C46.0325 30.5401 46.0242 30.5401 46.0159 30.5401C45.9578 30.5298 45.908 30.499 45.8582 30.4887C45.7502 30.4682 45.634 30.4579 45.526 30.4373L45.2022 30.3346C44.7787 30.1806 44.3553 30.006 43.9484 29.8005C43.5332 29.5951 43.1346 29.3589 42.7444 29.1021C42.3541 28.835 41.9888 28.5166 41.6317 28.1982C41.2747 27.8696 40.9259 27.5306 40.5772 27.1814C40.4028 27.0068 40.2368 26.8219 40.0707 26.637L39.8299 26.3494C39.7552 26.2364 39.6555 26.1337 39.6057 26.0207L39.5642 25.9386C39.5476 25.8769 39.5476 25.8564 39.531 25.8153C39.5144 25.7434 39.5144 25.6715 39.5061 25.5894C39.4978 25.4456 39.5144 25.2709 39.5393 25.1477C39.5974 24.9834 39.6721 24.8704 39.7469 24.7677C39.8216 24.6547 39.9046 24.5622 39.9794 24.4595C40.3032 24.0692 40.6436 23.7097 40.9841 23.3708C41.3328 23.0216 41.6816 22.6826 42.0386 22.3642C42.2296 22.2101 42.4123 22.0458 42.6032 21.902C42.8025 21.7685 42.9935 21.635 43.2011 21.5117C43.6079 21.2755 44.0231 21.0598 44.4383 20.8749C44.6459 20.7824 44.8618 20.7003 45.0776 20.6181C45.1856 20.577 45.2935 20.5462 45.4098 20.5051C45.526 20.464 45.6257 20.4435 45.7502 20.4332C45.8 20.4332 45.8416 20.423 45.8914 20.4024L45.9744 20.3716C45.9827 20.3716 45.991 20.3716 46.0076 20.3613C46.0159 20.3613 46.0242 20.3613 46.0408 20.3613C46.0491 20.3613 46.0574 20.3613 46.0741 20.3716C46.0907 20.3819 46.1073 20.3921 46.1156 20.423C46.1239 20.4538 46.1239 20.4743 46.1239 20.4846C46.1239 20.5051 46.1239 20.5154 46.1156 20.5154C46.1156 20.5257 46.1073 20.5462 46.1073 20.5462C46.099 20.5565 46.0907 20.5668 46.0907 20.577C46.0159 20.7003 45.9329 20.7927 45.8582 20.8954C45.7087 21.0906 45.5758 21.3165 45.4347 21.522C45.1524 21.9328 44.9033 22.3848 44.6376 22.8264C44.1144 23.7097 43.5996 24.6033 43.0931 25.5072V25.4661L43.7242 26.637C43.9401 27.0273 44.156 27.4176 44.3719 27.7977L45.0278 28.948C45.1358 29.1432 45.2603 29.3281 45.3766 29.5129L45.7419 30.0881Z" fill="#1D1D1B"/>
<path d="M5.2876 29.1938C5.2876 29.1938 5.35403 29.1835 5.47027 29.1732C5.58652 29.1629 5.75259 29.1424 5.95187 29.1424C6.35043 29.1219 6.87355 29.1219 7.40497 29.1629C7.67067 29.1835 7.92808 29.2143 8.18549 29.2759C8.25191 29.2965 8.31834 29.317 8.37646 29.3376C8.44289 29.3581 8.48441 29.3992 8.53423 29.43C8.63387 29.5019 8.72521 29.5738 8.80824 29.6354C8.89127 29.6868 8.966 29.7381 9.04073 29.7587C9.11546 29.7895 9.1819 29.7689 9.24002 29.7689C9.34796 29.7381 9.41438 29.7176 9.41438 29.7176C9.41438 29.7176 9.39779 29.7279 9.37288 29.7484C9.34797 29.7587 9.30644 29.7998 9.24832 29.8203C9.1902 29.8408 9.11547 29.8614 9.03244 29.8614C8.9494 29.8614 8.84976 29.8306 8.75842 29.7792C8.65878 29.7381 8.56744 29.6765 8.4678 29.6149C8.41798 29.5943 8.35985 29.5533 8.31003 29.543C8.26021 29.5327 8.20209 29.5224 8.14397 29.5019C8.02772 29.4814 7.90317 29.4814 7.77032 29.4608C7.64577 29.4505 7.51291 29.4403 7.38006 29.43C7.12265 29.4095 6.85694 29.3889 6.61615 29.3684C6.36704 29.3478 6.14285 29.317 5.94357 29.2965C5.74429 29.2759 5.58652 29.2451 5.47027 29.2246C5.35403 29.204 5.2876 29.1938 5.2876 29.1938Z" fill="#1D1D1B"/>
<path d="M9.35613 27.5931C9.65421 27.5931 9.89585 27.2942 9.89585 26.9254C9.89585 26.5567 9.65421 26.2578 9.35613 26.2578C9.05805 26.2578 8.81641 26.5567 8.81641 26.9254C8.81641 27.2942 9.05805 27.5931 9.35613 27.5931Z" fill="#1D1D1B"/>
<path d="M9.67208 26.5942C9.67208 26.5942 9.67208 26.6045 9.67208 26.6148C9.67208 26.625 9.67207 26.6559 9.66377 26.6764C9.65546 26.7072 9.64716 26.738 9.63886 26.7791C9.62225 26.8202 9.59734 26.851 9.57243 26.8921C9.53922 26.9229 9.4977 26.964 9.44788 26.9743C9.43128 26.9743 9.42297 26.9845 9.40636 26.9845H9.37316C9.34825 26.9845 9.30672 26.9845 9.27351 26.9743C9.21538 26.9537 9.14896 26.9024 9.10744 26.8305C9.06593 26.7586 9.04102 26.6867 9.03271 26.5634C9.03271 26.5223 9.05763 26.3888 9.09914 26.3272C9.14896 26.2553 9.20709 26.2142 9.26521 26.1834C9.33164 26.1628 9.38975 26.1628 9.43957 26.1834C9.48939 26.1936 9.53922 26.2347 9.56413 26.2655C9.59734 26.3066 9.61395 26.3374 9.63056 26.3785C9.64717 26.4196 9.65547 26.4504 9.65547 26.4812C9.66377 26.5121 9.66377 26.5326 9.66377 26.5429C9.67207 26.5839 9.67208 26.5942 9.67208 26.5942ZM9.67208 26.5942C9.67208 26.5942 9.67208 26.5839 9.67208 26.5737C9.67208 26.5634 9.67207 26.5326 9.66377 26.5121C9.65546 26.4607 9.61395 26.3785 9.54752 26.3477C9.506 26.3272 9.48109 26.3272 9.43957 26.3272C9.39806 26.3272 9.36485 26.358 9.33994 26.3785C9.31503 26.4093 9.29011 26.4402 9.27351 26.4812C9.2652 26.5326 9.25691 26.5223 9.25691 26.6148C9.25691 26.625 9.2652 26.6867 9.27351 26.7175C9.29011 26.7483 9.30672 26.7894 9.33994 26.8202C9.35654 26.8305 9.35655 26.851 9.38146 26.851L9.41466 26.8613C9.41466 26.8613 9.43127 26.8613 9.43957 26.8613C9.48109 26.8715 9.51431 26.8613 9.54752 26.8407C9.61395 26.7996 9.65546 26.7278 9.66377 26.6764C9.67207 26.6456 9.67208 26.625 9.67208 26.6148C9.67208 26.5942 9.67208 26.5942 9.67208 26.5942Z" fill="#9D9D9C"/>
<path d="M11.2992 26.8203C11.2992 26.8203 11.3988 27.0463 11.457 27.4366C11.4819 27.6317 11.5068 27.8577 11.4985 28.1042C11.4985 28.2275 11.4819 28.3507 11.4652 28.4842C11.4403 28.6075 11.4237 28.741 11.3822 28.8643L11.3241 29.0492C11.2992 29.1108 11.2743 29.1621 11.2494 29.2238C11.1995 29.347 11.1331 29.4395 11.0667 29.5422C11.0086 29.6449 10.9255 29.7168 10.8591 29.7887C10.7927 29.8708 10.7179 29.9222 10.6515 29.9736C10.5851 30.0249 10.527 30.0763 10.4605 30.0968C10.4024 30.1276 10.3443 30.1482 10.3028 30.1687C10.2197 30.2098 10.1699 30.2201 10.1699 30.2201C10.1699 30.2201 10.2114 30.179 10.2862 30.1174C10.3194 30.0865 10.3692 30.0455 10.419 30.0044C10.4688 29.9633 10.5187 29.9017 10.5768 29.84C10.6349 29.7784 10.693 29.7168 10.7512 29.6346C10.8093 29.5524 10.8757 29.4805 10.9172 29.3881C10.9671 29.2957 11.0252 29.2032 11.0667 29.0902C11.0916 29.0389 11.1165 28.9875 11.1331 28.9362L11.1829 28.7718C11.2245 28.6589 11.2411 28.5459 11.266 28.4329C11.2826 28.3199 11.3075 28.1966 11.3158 28.0837C11.3241 27.9707 11.3407 27.8577 11.3407 27.755C11.349 27.6523 11.3407 27.5496 11.349 27.4571C11.3324 27.0771 11.2992 26.8203 11.2992 26.8203Z" fill="#1D1D1B"/>
<path d="M11.623 25.918C11.623 25.918 11.6396 25.9385 11.6645 25.9693C11.6894 26.0104 11.7393 26.0515 11.7808 26.1337C11.8306 26.2056 11.8887 26.298 11.9552 26.4007C12.0216 26.5034 12.088 26.6267 12.1544 26.7705C12.2209 26.9143 12.2873 27.0683 12.3454 27.243C12.4035 27.4176 12.47 27.6024 12.5032 27.8079C12.5281 27.9106 12.5364 28.0133 12.5447 28.116C12.5613 28.2187 12.5613 28.3317 12.5613 28.4447C12.5696 28.5577 12.5447 28.6706 12.5364 28.7836C12.5198 28.8966 12.4949 29.0096 12.4783 29.1226C12.445 29.2253 12.4118 29.3383 12.3703 29.4307C12.3205 29.5232 12.279 29.6259 12.2292 29.7183C12.171 29.8107 12.1295 29.8929 12.0548 29.9751C11.9884 30.0367 11.9302 30.1086 11.8721 30.1805C11.731 30.3038 11.5815 30.4167 11.4403 30.4784C11.2992 30.5605 11.158 30.6016 11.0335 30.653C10.9089 30.6941 10.7844 30.7249 10.6764 30.7352C10.5685 30.7454 10.4771 30.766 10.4024 30.766C10.3277 30.7762 10.2696 30.7762 10.228 30.7762C10.1865 30.7762 10.1616 30.7762 10.1616 30.7762C10.1616 30.7762 10.2447 30.7557 10.3941 30.7146C10.4688 30.6941 10.5602 30.6633 10.6598 30.6324C10.7595 30.6016 10.8757 30.5503 10.992 30.4989C11.1082 30.4373 11.2411 30.3859 11.3656 30.2935C11.4985 30.2216 11.6064 30.1086 11.7393 30.0059C11.7974 29.934 11.8555 29.8621 11.9219 29.7902C11.9635 29.7388 12.0133 29.6361 12.0631 29.5642C12.1129 29.4821 12.1461 29.3896 12.1877 29.3075C12.2209 29.215 12.2458 29.1226 12.279 29.0301C12.2956 28.9377 12.3205 28.835 12.3371 28.7425C12.3454 28.6398 12.362 28.5474 12.362 28.4447C12.362 28.2495 12.3537 28.0441 12.3205 27.8592C12.2956 27.6743 12.2541 27.4895 12.2042 27.3148C12.1544 27.1402 12.1046 26.9862 12.0465 26.8424C11.9967 26.6986 11.9385 26.5753 11.8887 26.4521C11.8389 26.3391 11.7891 26.2364 11.7476 26.1645C11.6728 26.0104 11.623 25.918 11.623 25.918Z" fill="#1D1D1B"/>
<path d="M11.4155 30.8878C11.4155 30.8878 11.5733 30.8776 11.7975 30.8467C12.0217 30.8159 12.3206 30.744 12.5531 30.5694C12.6112 30.5181 12.6693 30.477 12.7109 30.4154C12.7358 30.3845 12.7607 30.364 12.7856 30.3332C12.8022 30.3024 12.8271 30.2716 12.8437 30.2305C12.8852 30.1688 12.9101 30.0969 12.935 30.025C12.96 29.9531 12.9766 29.8915 12.9932 29.8196C13.0098 29.758 13.0264 29.6964 13.0347 29.6347C13.043 29.5834 13.0513 29.532 13.0596 29.4909C13.0762 29.4088 13.0845 29.3574 13.0845 29.3574C13.0845 29.3574 13.0928 29.4088 13.1011 29.4909C13.1094 29.532 13.1094 29.5834 13.1177 29.645C13.126 29.7066 13.1177 29.7683 13.1177 29.8504C13.1094 29.9223 13.1177 30.0045 13.0845 30.0969C13.0596 30.1791 13.0513 30.2715 13.0015 30.3537C12.96 30.4359 12.9184 30.5283 12.8603 30.6002C12.8022 30.6824 12.7358 30.7338 12.661 30.7954C12.5863 30.8467 12.5116 30.8878 12.4368 30.9186C12.3621 30.9494 12.2791 30.97 12.2043 30.9803C12.0549 31.0111 11.9137 31.0008 11.7975 30.9905C11.565 30.9597 11.4155 30.8878 11.4155 30.8878Z" fill="#1D1D1B"/>
<path d="M10.6602 24.1895C10.6602 24.1895 10.8428 24.2511 11.1002 24.4154C11.2248 24.4976 11.3743 24.6003 11.5237 24.7236C11.6732 24.8468 11.8226 25.0009 11.9638 25.1652C12.0302 25.2474 12.0967 25.3398 12.1631 25.422C12.2295 25.5144 12.2876 25.6069 12.3374 25.6993C12.4454 25.8842 12.5284 26.0691 12.5865 26.2334C12.6115 26.3156 12.6364 26.3978 12.653 26.4697C12.6696 26.5416 12.6779 26.6032 12.6862 26.6545C12.7028 26.7572 12.7028 26.8189 12.7028 26.8189C12.7028 26.8189 12.6779 26.7675 12.6447 26.6751C12.6281 26.634 12.6115 26.5724 12.5783 26.5107C12.545 26.4491 12.5118 26.3875 12.4786 26.3053C12.4371 26.2334 12.3956 26.1615 12.3457 26.0794C12.2959 25.9972 12.2378 25.9253 12.188 25.8431C12.1299 25.7609 12.0634 25.689 12.0053 25.5966C11.9389 25.5144 11.8808 25.4323 11.806 25.3604C11.7396 25.2782 11.6732 25.2063 11.5984 25.1344C11.532 25.0625 11.4656 24.9906 11.3909 24.9187C11.258 24.7749 11.1252 24.6517 11.0172 24.549C10.8096 24.3333 10.6602 24.1895 10.6602 24.1895Z" fill="#1D1D1B"/>
<path d="M8.60069 25.918C8.59238 25.9077 8.57578 26.0515 8.55087 26.257C8.52596 26.4624 8.50105 26.7294 8.50105 26.9862C8.50105 27.243 8.55087 27.4792 8.64221 27.6436C8.68372 27.7257 8.73354 27.7874 8.76675 27.8284C8.79997 27.8695 8.82488 27.8901 8.82488 27.8901C8.82488 27.8901 8.79997 27.8901 8.74184 27.8695C8.69202 27.849 8.6173 27.8182 8.54257 27.7463C8.46784 27.6744 8.3931 27.5614 8.35158 27.4279C8.30176 27.2943 8.28516 27.1403 8.27686 26.9862C8.27686 26.6781 8.34329 26.4008 8.42632 26.2056C8.46784 26.1132 8.50936 26.031 8.54257 25.9796C8.56748 25.9386 8.60069 25.9077 8.60069 25.918Z" fill="#1D1D1B"/>
<path d="M8.0027 26.2578C8.0027 26.2578 8.0027 26.3811 7.9944 26.5454C7.9944 26.6276 7.98609 26.72 7.98609 26.8227C7.98609 26.9254 7.97778 27.0281 7.98609 27.1309C7.98609 27.2336 8.0027 27.326 8.01931 27.4185C8.03591 27.4595 8.03591 27.5109 8.05252 27.5417C8.06912 27.5828 8.07743 27.6239 8.09404 27.6547C8.11064 27.6855 8.12725 27.7163 8.13556 27.7471C8.15216 27.778 8.16877 27.7985 8.17707 27.819C8.20198 27.8601 8.21859 27.8807 8.21859 27.8807C8.21859 27.8807 8.19368 27.8807 8.15217 27.8601C8.11065 27.8498 8.05252 27.8088 7.9944 27.7574C7.93628 27.6958 7.87815 27.6136 7.83663 27.5006C7.79512 27.3876 7.7702 27.2644 7.7702 27.1411C7.7619 27.0179 7.7702 26.8946 7.79511 26.7919C7.81172 26.6789 7.84494 26.5865 7.87815 26.5043C7.93628 26.3503 8.0027 26.2578 8.0027 26.2578Z" fill="#1D1D1B"/>
<path d="M15.3018 27.6934C13.7491 27.6934 12.4454 28.0528 12.105 28.5253C12.1465 28.5253 12.188 28.5151 12.2295 28.5151C13.3339 28.4226 14.2556 28.6383 14.2722 29.0081C14.2888 29.2443 13.9151 29.4805 13.3588 29.6449C13.9068 29.7784 14.5711 29.8606 15.3018 29.8606C17.1202 29.8606 18.5899 29.3778 18.5899 28.7821C18.5899 28.1864 17.1119 27.6934 15.3018 27.6934Z" fill="#575756"/>
<path d="M15.3013 27.6934C14.745 27.7036 14.197 27.7447 13.649 27.8577C13.3749 27.909 13.1092 27.981 12.8435 28.0939C12.7107 28.1453 12.5861 28.2069 12.4616 28.2788C12.3951 28.3096 12.3453 28.361 12.2872 28.4021L12.2042 28.474L12.1377 28.5561L12.1045 28.474C12.3868 28.4329 12.6775 28.4226 12.9598 28.4226C13.2421 28.4226 13.5327 28.4534 13.8233 28.5356C13.8981 28.5561 13.9645 28.5767 14.0392 28.6178C14.1139 28.6486 14.1804 28.6897 14.2468 28.7513L14.2966 28.8026C14.3132 28.8232 14.3298 28.854 14.3381 28.8745C14.3547 28.8951 14.3547 28.9362 14.363 28.967C14.363 28.9773 14.363 28.967 14.363 29.0081V29.0286C14.363 29.0389 14.363 29.0492 14.363 29.0697C14.3298 29.2238 14.2634 29.2854 14.2053 29.3573C14.0807 29.4805 13.9396 29.5524 13.8067 29.6141C13.6656 29.6757 13.5327 29.727 13.3915 29.7681V29.5216L13.9479 29.6141C14.1305 29.6449 14.3132 29.6757 14.5042 29.6757L15.0605 29.7065C15.2432 29.7271 15.4342 29.7271 15.6252 29.7168C15.9988 29.7065 16.3725 29.6757 16.7378 29.6243C16.9205 29.6038 17.1115 29.573 17.2941 29.5216C17.4768 29.4805 17.6595 29.4292 17.8339 29.3676C18.0082 29.2957 18.1826 29.2238 18.3321 29.1005C18.4068 29.0389 18.4815 28.967 18.5147 28.8848C18.5313 28.8643 18.5313 28.8437 18.5396 28.8232C18.5396 28.8026 18.5563 28.7718 18.5479 28.7616L18.5396 28.6794C18.5313 28.6588 18.523 28.6383 18.5147 28.6178C18.4317 28.4432 18.249 28.3302 18.083 28.2377C17.9169 28.1453 17.7342 28.0734 17.5515 28.0118C17.3689 27.9501 17.1862 27.9091 17.0035 27.868C16.8208 27.8269 16.6299 27.7961 16.4472 27.7755C16.0486 27.7242 15.675 27.7036 15.3013 27.6934ZM15.3013 27.6934C16.0569 27.6934 16.8125 27.755 17.5515 27.9604C17.7342 28.0118 17.9169 28.0734 18.0996 28.1658C18.2739 28.2583 18.4566 28.3507 18.5812 28.5664C18.5978 28.5972 18.6144 28.628 18.6227 28.6589L18.6393 28.741C18.6476 28.7924 18.631 28.8129 18.631 28.854C18.631 28.8848 18.6144 28.9156 18.6061 28.9464C18.5563 29.0697 18.4732 29.1519 18.3985 29.2238C18.2324 29.3676 18.058 29.4497 17.8754 29.5319C17.6927 29.6038 17.51 29.6757 17.319 29.7168C17.1364 29.7681 16.9454 29.8092 16.7544 29.8503C16.5634 29.8914 16.3808 29.9119 16.1898 29.9325C15.9988 29.953 15.8078 29.9633 15.6169 29.9736C15.4259 29.9838 15.2349 29.9838 15.0522 29.9736L14.4793 29.9427C14.2883 29.9427 14.0973 29.9017 13.9147 29.8709L13.35 29.7681L12.8269 29.6757L13.35 29.5319C13.4829 29.4908 13.6157 29.4497 13.7486 29.3881C13.8731 29.3367 14.006 29.2649 14.1056 29.1724C14.1555 29.1313 14.1887 29.0594 14.197 29.0492C14.197 29.0492 14.197 29.0286 14.197 29.0183V28.9978C14.197 29.0183 14.197 28.9978 14.197 29.0081C14.197 28.9978 14.197 28.9875 14.1887 28.9773C14.1804 28.967 14.1804 28.9567 14.1721 28.9464L14.1388 28.9156C14.0558 28.8232 13.9147 28.7616 13.7901 28.7205C13.5244 28.6383 13.2421 28.587 12.9681 28.5767C12.6858 28.5561 12.4034 28.5664 12.1211 28.587L12.0049 28.5972L12.0879 28.5048L12.1709 28.4123L12.2623 28.3404C12.3204 28.2994 12.3868 28.248 12.4533 28.2172C12.5778 28.1453 12.719 28.0939 12.8518 28.0426C12.9847 28.0015 13.1258 27.9604 13.2587 27.9193C13.3915 27.8885 13.5327 27.8577 13.6656 27.8269C14.1887 27.7242 14.745 27.6934 15.3013 27.6934Z" fill="#1D1D1B"/>
<path d="M13.9564 24.2324H13.8983C13.6907 24.2324 13.4499 24.3659 13.3834 24.6433C13.3253 24.8898 13.4997 25.0952 13.6907 25.0952H13.7488C13.9564 25.0952 14.1972 24.9617 14.2636 24.6844C14.33 24.4276 14.1473 24.2324 13.9564 24.2324Z" fill="#515E6B"/>
<path d="M15.6584 22.9375C15.21 22.9375 14.8779 23.79 15.4508 23.79C15.8992 23.79 16.2314 22.9375 15.6584 22.9375Z" fill="#515E6B"/>
<path d="M15.6916 24.5293C15.2432 24.5293 14.9111 25.3818 15.484 25.3818C15.9324 25.3818 16.2646 24.5293 15.6916 24.5293Z" fill="#515E6B"/>
<path d="M17.9006 22.9785C17.4522 22.9785 17.1201 23.831 17.693 23.831C18.1414 23.831 18.4735 22.9785 17.9006 22.9785Z" fill="#515E6B"/>
<path d="M20.2585 22.7207C19.8101 22.7207 19.478 23.5732 20.0509 23.5732C20.4993 23.5732 20.8315 22.7207 20.2585 22.7207Z" fill="#515E6B"/>
<path d="M18.3156 24.1895C17.8673 24.1895 17.5351 25.042 18.1081 25.042C18.5564 25.042 18.8886 24.1895 18.3156 24.1895Z" fill="#515E6B"/>
<path d="M16.7049 25.6387H16.6717C16.4641 25.6387 16.2233 25.7722 16.1569 26.0392C16.0987 26.2858 16.2731 26.4912 16.4641 26.4912H16.4973C16.7049 26.4912 16.9457 26.3577 17.0121 26.0906C17.0702 25.8338 16.8959 25.6387 16.7049 25.6387Z" fill="#515E6B"/>
<path d="M19.5115 22.0547C19.0631 22.0547 18.7309 22.9072 19.3039 22.9072C19.7522 22.9072 20.0844 22.0547 19.5115 22.0547Z" fill="#515E6B"/>
<path d="M22.4011 22.1992C21.9527 22.1992 21.6206 23.0517 22.1935 23.0517C22.6502 23.0517 22.9823 22.1992 22.4011 22.1992Z" fill="#515E6B"/>
<path d="M20.1921 24.2324C19.7437 24.2324 19.4116 25.0849 19.9845 25.0849C20.4412 25.0849 20.7734 24.2324 20.1921 24.2324Z" fill="#515E6B"/>
<path d="M22.2845 23.832H22.2264C22.0188 23.832 21.778 23.9656 21.7116 24.2326C21.6534 24.4791 21.8278 24.6845 22.0188 24.6845H22.0769C22.2845 24.6845 22.5253 24.551 22.5917 24.284C22.6581 24.0272 22.4755 23.832 22.2845 23.832Z" fill="#515E6B"/>
<path d="M24.6428 22.3125C24.1944 22.3125 23.8623 23.165 24.4352 23.165C24.8836 23.165 25.2157 22.3125 24.6428 22.3125Z" fill="#515E6B"/>
<path d="M24.5679 23.9343C24.4849 23.8111 24.3438 23.77 24.2026 23.8008C24.0282 23.8419 23.7542 24.0473 23.7874 24.3041C23.8123 24.4993 23.8871 24.5917 24.0365 24.6636C24.2358 24.756 24.5098 24.602 24.6178 24.3863C24.7008 24.2117 24.6676 24.0371 24.5679 23.9343Z" fill="#515E6B"/>
<path d="M26.4612 23.5645H26.428C26.2204 23.5645 25.9796 23.698 25.9132 23.9753C25.8551 24.2218 26.0295 24.4272 26.2204 24.4272H26.2536C26.4612 24.4272 26.702 24.2937 26.7685 24.0164C26.8349 23.7699 26.6605 23.5645 26.4612 23.5645Z" fill="#515E6B"/>
<path d="M28.1634 22.498H28.1053C27.8977 22.498 27.6569 22.6316 27.5905 22.8986C27.5323 23.1451 27.7067 23.3505 27.8977 23.3505H27.9558C28.1634 23.3505 28.4042 23.217 28.4706 22.95C28.5371 22.6932 28.3627 22.498 28.1634 22.498Z" fill="#515E6B"/>
<path d="M29.2093 23.791H29.1761C28.9685 23.791 28.7277 23.9245 28.6613 24.1916C28.6031 24.4381 28.7775 24.6435 28.9685 24.6435H29.0017C29.2093 24.6435 29.4501 24.51 29.5165 24.2429C29.5829 23.9862 29.4086 23.791 29.2093 23.791Z" fill="#515E6B"/>
<path d="M30.8206 22.9062H30.7625C30.5549 22.9062 30.3141 23.0398 30.2477 23.3068C30.1896 23.5533 30.3639 23.7588 30.5549 23.7588H30.613C30.8206 23.7588 31.0614 23.6252 31.1278 23.3582C31.1943 23.1014 31.0199 22.9062 30.8206 22.9062Z" fill="#515E6B"/>
<path d="M32.2903 24.0156C31.8419 24.0156 31.5097 24.8681 32.0827 24.8681C32.5311 24.8681 32.8632 24.0156 32.2903 24.0156Z" fill="#515E6B"/>
<path d="M33.9836 23.4902C33.5352 23.4902 33.2031 24.3427 33.776 24.3427C34.2327 24.3427 34.5649 23.4902 33.9836 23.4902Z" fill="#515E6B"/>
<path d="M35.5115 24.2715H35.4202C35.2126 24.2715 34.9718 24.405 34.9054 24.6721C34.8473 24.9186 35.0216 25.124 35.2126 25.124H35.304C35.5115 25.124 35.7523 24.9905 35.8188 24.7234C35.8769 24.4666 35.7025 24.2715 35.5115 24.2715Z" fill="#515E6B"/>
<path d="M37.696 23.9352C37.6129 23.8633 37.5216 23.8325 37.4136 23.8325C37.206 23.8222 36.9653 23.9763 36.8988 24.2331C36.849 24.4488 36.9736 24.6234 37.1313 24.6645C37.4801 24.9213 38.1111 24.2844 37.696 23.9352Z" fill="#515E6B"/>
<path d="M27.4158 25.2305H27.3826C27.175 25.2305 26.9342 25.364 26.8678 25.631C26.8097 25.8776 26.9841 26.083 27.175 26.083H27.2082C27.4158 26.083 27.6566 25.9495 27.7231 25.6824C27.7895 25.4359 27.6151 25.2305 27.4158 25.2305Z" fill="#515E6B"/>
<path d="M26.3449 22.0137C25.8966 22.0137 25.5644 22.8662 26.1374 22.8662C26.5857 22.8662 26.9179 22.0137 26.3449 22.0137Z" fill="#515E6B"/>
<path d="M23.5134 25.6699C23.065 25.6699 22.7329 26.5224 23.3058 26.5224C23.7542 26.5224 24.0863 25.6699 23.5134 25.6699Z" fill="#515E6B"/>
<path d="M20.7317 26.0098C20.2833 26.0098 19.9511 26.8623 20.5241 26.8623C20.9725 26.8623 21.3046 26.0098 20.7317 26.0098Z" fill="#515E6B"/>
<path d="M14.0145 26.1953H13.9812C13.7737 26.1953 13.5329 26.3288 13.4664 26.5959C13.4083 26.8424 13.5827 27.0478 13.7737 27.0478H13.8069C14.0145 27.0478 14.2553 26.9143 14.3217 26.6472C14.3881 26.3905 14.2137 26.1953 14.0145 26.1953Z" fill="#515E6B"/>
<path d="M25.5066 26.9648C25.0582 26.9648 24.726 27.8174 25.299 27.8174C25.7557 27.8174 26.0878 26.9648 25.5066 26.9648Z" fill="#515E6B"/>
<path d="M30.9451 26.6348H30.9119C30.7043 26.6348 30.4635 26.7683 30.3971 27.0456C30.339 27.2921 30.5133 27.4873 30.7043 27.4873H30.7375C30.9451 27.4873 31.1859 27.3537 31.2524 27.0867C31.3105 26.8299 31.1361 26.6348 30.9451 26.6348Z" fill="#515E6B"/>
<path d="M35.9851 26.2969C35.5367 26.2969 35.2046 27.1494 35.7775 27.1494C36.2342 27.1494 36.558 26.2969 35.9851 26.2969Z" fill="#515E6B"/>
</g>
<g filter="url(#filter1_d_51_5030)">
<path d="M44.8168 15.1427C44.8168 15.1427 44.5926 14.9373 44.2189 14.547C43.8453 14.1567 43.3056 13.6123 42.6994 12.9036C42.3922 12.5544 42.0767 12.1538 41.7528 11.7224C41.4373 11.2808 41.1052 10.8083 40.8893 10.2331C40.7896 9.95578 40.7232 9.61683 40.8893 9.4114C41.0554 9.21625 41.346 9.1649 41.6034 9.15463C42.1431 9.14435 42.6911 9.26761 43.2391 9.4114C44.3269 9.70927 45.398 10.1201 46.3861 10.531C47.3742 10.9418 48.2959 11.3629 49.0764 11.7224C49.857 12.0922 50.5129 12.4003 50.9613 12.6263C51.418 12.8522 51.6754 12.9755 51.6754 12.9755C51.6754 12.9755 51.418 12.842 50.9696 12.616C50.5212 12.39 49.8736 12.0614 49.093 11.6813C48.3125 11.3013 47.3991 10.8699 46.411 10.4488C45.4229 10.0277 44.3601 9.59629 43.2641 9.27788C42.716 9.12381 42.1597 8.99028 41.6034 9.00056C41.3294 9.01083 41.0221 9.03137 40.7897 9.29842C40.6734 9.43195 40.6319 9.63737 40.6402 9.82225C40.6485 10.0071 40.69 10.1715 40.7481 10.3255C40.9723 10.9418 41.3045 11.4246 41.62 11.8765C41.9355 12.3284 42.2594 12.729 42.5666 13.0885C43.1727 13.8075 43.7041 14.3724 44.0778 14.7627C44.4514 15.153 44.6756 15.3687 44.6756 15.3687L44.8168 15.1427Z" fill="#BE1622"/>
<path d="M47.3493 20.7311C47.2994 20.9878 47.2745 21.2549 47.2828 21.5425C47.3077 22.2923 47.4323 22.9805 47.6648 23.6686C47.6897 23.7302 47.7146 23.8021 47.7478 23.8638C47.781 23.9254 47.8059 23.987 47.8475 24.0487C47.8973 24.1308 47.9222 24.213 48.0052 24.1822C47.8142 24.2438 47.7644 21.9636 47.7727 21.7993C47.7893 21.6041 47.7893 21.3884 47.8309 21.1933C47.8807 20.9365 48.055 20.7413 48.163 20.5154C48.2709 20.3202 48.354 20.1148 48.4287 19.8991C48.4785 19.7553 48.5283 19.6115 48.5699 19.4677C48.4121 19.3958 48.2377 19.3136 48.055 19.2109C47.9886 19.3034 47.9305 19.3958 47.8724 19.4985C47.6233 19.8786 47.4406 20.2894 47.3493 20.7311Z" fill="#E94E1B"/>
<path d="M48.2709 21.0278C48.2211 21.2846 48.2045 21.5619 48.2211 21.8392C48.2543 22.5479 48.3373 23.647 48.7027 24.2221C48.8355 24.4276 48.877 24.3659 48.8687 24.1194C48.8521 23.801 48.7359 23.5032 48.7027 23.1848C48.6612 22.7636 48.6778 22.3528 48.7027 21.9419C48.711 21.8084 48.7193 21.6646 48.7359 21.5311C48.7442 21.4284 48.7608 21.3359 48.7774 21.2332C48.8853 21.0586 48.9933 20.884 49.0929 20.6991C49.2009 20.504 49.2839 20.2986 49.3586 20.0829C49.3918 19.9801 49.4251 19.8774 49.4583 19.7747C49.2922 19.7439 49.0929 19.6823 48.8521 19.5898C48.8355 19.6207 48.8106 19.6515 48.794 19.6823C48.5366 20.1034 48.3539 20.5451 48.2709 21.0278Z" fill="#E94E1B"/>
<path d="M49.2261 20.7803C49.1597 20.9447 49.1099 21.1193 49.0518 21.2939L49.0186 21.3966V21.4274C49.0186 21.5609 49.0186 21.6636 49.0186 21.7869C49.0186 21.9101 49.0269 22.0231 49.0352 22.1361C49.0518 22.3723 49.0767 22.5983 49.1182 22.8345C49.1597 23.0605 49.2178 23.2865 49.2926 23.5124C49.3341 23.6152 49.3756 23.7281 49.4254 23.8206C49.4503 23.8719 49.4753 23.9233 49.5085 23.9644L49.5998 24.0979L49.6579 24.0465C49.5251 23.6254 49.4836 23.2351 49.4836 22.7832C49.4836 22.4956 49.4669 22.1977 49.5168 21.9101C49.5666 21.6123 49.7077 21.4479 49.8406 21.2014C49.9236 21.0474 49.9984 20.883 50.0482 20.7084C50.098 20.5441 50.1561 20.3592 50.1893 20.1846C50.1893 20.1846 49.8074 19.8867 49.7991 19.8867C49.6828 20.0202 49.5832 20.1538 49.4836 20.2976C49.3756 20.4619 49.2926 20.616 49.2261 20.7803Z" fill="#E94E1B"/>
<path d="M50.1314 21.0489C50.065 21.2132 50.0152 21.3878 49.9487 21.5624L49.9155 21.6754V21.7062C49.9155 21.8397 49.9155 21.9527 49.9155 22.0657C49.9155 22.1787 49.9238 22.3019 49.9321 22.4149C49.9487 22.6512 49.9737 22.8771 50.0152 23.1134C50.0567 23.3393 50.1148 23.5653 50.1895 23.781C50.2311 23.894 50.2643 23.9967 50.3224 24.0994C50.3473 24.1507 50.3722 24.2021 50.4054 24.2432C50.5798 24.4692 50.5134 24.2535 50.4719 24.0583C50.4137 23.8118 50.3888 23.5653 50.3805 23.3085C50.3722 23.062 50.3805 22.8258 50.3971 22.5793C50.4137 22.3944 50.3805 22.1787 50.4386 22.0041C50.4968 21.8089 50.6379 21.6651 50.7376 21.4905C50.8206 21.3364 50.887 21.1721 50.9452 20.9975C50.9618 20.9461 50.9784 20.8845 50.995 20.8332H50.9867L50.4885 20.4531C50.4552 20.5045 50.422 20.5456 50.3888 20.5969C50.2892 20.7304 50.1979 20.8742 50.1314 21.0489Z" fill="#E94E1B"/>
<path d="M51.202 21.3973C51.1272 21.6336 51.0525 21.9109 51.0442 21.952C50.9778 22.3012 50.9944 22.671 51.0359 23.0304C51.1023 23.6364 51.2518 24.2527 51.5756 24.7252C51.5922 24.7046 51.6088 24.6944 51.6337 24.6738L51.5839 24.5198C51.5673 24.4684 51.559 24.417 51.5424 24.3657C51.5175 24.263 51.5009 24.15 51.4843 24.0473C51.4511 23.8316 51.4511 23.6159 51.4511 23.4002C51.4511 23.1845 51.4677 22.9688 51.4843 22.7634C51.4926 22.6504 51.5009 22.5477 51.5175 22.445C51.5258 22.3834 51.5341 22.3115 51.5507 22.2498C51.6254 22.1368 51.7002 22.0239 51.7666 21.9109L51.4677 21.0995L51.4594 21.0892C51.4345 21.0789 51.4096 21.0687 51.3846 21.0584C51.3348 21.0378 51.2684 21.2022 51.202 21.3973Z" fill="#E94E1B"/>
<path d="M52.24 32.5508C52.3065 32.6741 52.2068 32.5919 52.4476 32.8384C52.6635 32.7357 52.6967 32.6946 52.8213 32.5406C53.0372 32.2838 53.2115 31.9654 53.3693 31.647L53.9754 30.3631C54.1 30.1063 54.1913 29.8598 54.2578 29.6544C54.1249 29.6955 53.9921 29.6852 53.8841 29.6133H53.8758C53.7845 29.7879 53.6682 29.9522 53.5603 30.1166L52.7715 31.2361C52.6469 31.421 52.5058 31.5956 52.3563 31.7497C52.2733 31.9551 52.1487 32.2222 52.2068 32.4584C52.2151 32.4995 52.2234 32.52 52.24 32.5508Z" fill="#E94E1B"/>
<path d="M51.2769 31.7102C51.2769 31.7308 51.2769 31.7719 51.2935 31.7821L51.4844 32.0081L51.4928 32.0184C51.5841 32.0697 51.8415 31.9362 52.1653 31.5973C52.2484 31.5048 52.3397 31.4021 52.4393 31.2789C52.4892 31.2172 52.539 31.1453 52.5971 31.0734L53.0455 30.4469C53.0455 30.4469 53.3693 29.9847 53.3859 29.9539C53.4856 29.8203 53.5935 29.6663 53.6599 29.5122C53.6765 29.4814 53.3776 29.389 53.3361 29.3992C53.2033 29.4403 53.0621 29.656 52.9541 29.7485L51.9826 30.6112C51.8581 30.7242 51.7252 30.8269 51.5841 30.9296C51.3848 31.2686 51.2769 31.5562 51.2769 31.7102Z" fill="#E94E1B"/>
<path d="M50.455 30.6401C50.4467 30.6606 50.4467 30.6914 50.455 30.7222L50.5961 30.9893C50.5961 30.9893 50.6044 30.9996 50.621 31.0098C50.7373 31.0715 51.0528 30.979 51.4348 30.712C51.5344 30.6401 51.634 30.5682 51.7503 30.4757C51.7835 30.4449 51.8167 30.4141 51.8582 30.3833L52.2983 29.993L52.8297 29.5205C52.9128 29.4384 53.0788 29.3356 53.137 29.2227C53.2117 29.0686 53.1536 29.0172 53.112 28.8529C53.0705 28.6886 53.0871 28.5139 53.0622 28.3496C52.838 28.4523 52.6221 28.5961 52.4229 28.7502L51.3932 29.5205C50.8286 29.9416 50.4965 30.4038 50.455 30.6401Z" fill="#E94E1B"/>
<path d="M53.3612 27.9521C53.2201 28.5992 53.6103 29.7701 54.2995 29.3695C54.3161 29.3593 54.3327 29.349 54.3576 29.3285C54.4074 29.2976 54.449 29.2566 54.4988 29.2155C54.5486 29.1744 54.5901 29.123 54.6316 29.0614C54.7977 28.8457 54.9389 28.5478 55.0468 28.1986L55.4537 26.8017C55.5118 26.5963 55.5533 26.4114 55.5699 26.2266C55.462 26.3498 55.3291 26.4525 55.1963 26.545L54.5071 26.9764C54.1915 27.1715 53.8926 27.2331 53.6518 27.1304L53.5439 27.3769C53.4609 27.5618 53.4027 27.7672 53.3612 27.9521Z" fill="#E94E1B"/>
<path d="M53.4772 25.5683L53.444 26.2153C53.4274 26.5235 53.5104 26.7392 53.6848 26.8419C53.7097 26.8521 53.7346 26.8727 53.7678 26.8727C53.9422 26.924 54.1664 26.8727 54.4072 26.7186L55.0964 26.2872C55.2873 26.164 55.4617 25.9996 55.6029 25.8045C55.9018 25.4039 56.0679 24.8904 55.9931 24.4898L55.935 24.1816C55.744 24.459 55.5032 24.6952 55.2292 24.8595L55.1794 24.8904L54.5898 25.2601L54.4238 25.3628C54.075 25.5991 53.7429 25.6607 53.4772 25.5683Z" fill="#E94E1B"/>
<path d="M53.2117 23.7386L53.1702 24.5089C53.1619 24.7349 53.1951 24.9198 53.2698 25.0533C53.3031 25.1046 53.3363 25.156 53.3778 25.1971C53.4027 25.2176 53.4359 25.2382 53.4608 25.2587C53.4691 25.2587 53.4774 25.269 53.4857 25.269C53.7016 25.3717 54.0005 25.3203 54.3244 25.1149L55.1215 24.6116C55.4204 24.4267 55.6778 24.1494 55.8605 23.8413C55.8937 23.7899 55.9186 23.7386 55.9518 23.6872C55.985 23.6359 56.01 23.5742 56.0349 23.5126C56.1843 23.1634 56.2508 22.8039 56.1843 22.4855L55.9601 21.3146C55.9352 21.1708 55.8854 21.0475 55.819 20.9551C55.7276 21.4686 55.4951 21.9617 55.1381 22.3417L54.806 22.6909L54.5403 22.9682L54.3327 23.1942C54.233 23.3072 54.1251 23.3996 54.0171 23.4715C53.9341 23.5229 53.8511 23.5742 53.7597 23.6153C53.5771 23.7078 53.3944 23.7488 53.2117 23.7386Z" fill="#E94E1B"/>
<path d="M51.7339 21.1504L51.9083 21.6331L52.2653 22.6089C52.3899 22.9581 52.5974 23.2252 52.8382 23.3587C52.8881 23.3895 52.9462 23.4101 53.0043 23.4306C53.0375 23.4409 53.079 23.4511 53.1123 23.4511C53.1455 23.4614 53.187 23.4614 53.2285 23.4614C53.544 23.482 53.8845 23.3176 54.1917 22.9889L54.9971 22.1262C55.3459 21.7461 55.5617 21.2531 55.6365 20.7498C55.6448 20.6985 55.6448 20.6574 55.6531 20.606C55.6614 20.5547 55.6614 20.5033 55.6614 20.452C55.6697 20.0206 55.5617 19.5995 55.3376 19.2605L54.4574 17.9458C54.3827 17.8328 54.2996 17.7404 54.2083 17.6582C54.2083 17.9561 54.1502 18.2745 54.0339 18.5723L53.5772 19.8151C53.2866 20.6163 52.7137 21.099 52.0743 21.1504C51.9664 21.1709 51.8501 21.1709 51.7339 21.1504Z" fill="#E94E1B"/>
<path d="M50.3385 18.6131C50.3219 18.9931 50.3136 19.3321 50.1807 19.5478C50.1475 19.5991 50.106 19.6505 50.0562 19.6916C50.0396 19.7121 50.0147 19.7224 49.9897 19.7326L50.2139 19.9073L50.6374 20.2257L51.0609 20.5441L51.1024 20.5749C51.1854 20.6365 51.2768 20.6981 51.3681 20.7392C51.4096 20.7598 51.4594 20.7803 51.501 20.8008C51.5176 20.8008 51.9742 20.8933 52.1486 20.8727C52.6634 20.7906 53.1284 20.3797 53.3692 19.7224L53.8259 18.4796C53.9422 18.1612 53.992 17.8222 53.9754 17.5038C53.9754 17.4524 53.9671 17.4011 53.9671 17.3395C53.9588 17.2881 53.9505 17.2367 53.9422 17.1751C53.8342 16.6307 53.527 16.1583 53.062 15.8912C52.9956 15.8501 52.9291 15.8193 52.8544 15.7988L51.4096 15.2441C51.4096 15.6344 51.1771 16.0658 50.9363 16.5178C50.7703 16.8259 50.6042 17.1443 50.4963 17.4627C50.3634 17.8325 50.3468 18.2433 50.3385 18.6131Z" fill="#E94E1B"/>
<path d="M43.4634 15.3791C43.4468 15.5845 43.6378 15.831 44.028 16.1083L47.8476 18.7994C47.9721 18.8713 48.0967 18.9329 48.2129 18.9945C48.3624 19.0767 48.5036 19.1383 48.6364 19.2C48.7693 19.2616 48.8938 19.3129 49.0101 19.3643C49.1014 19.3951 49.1844 19.4259 49.2675 19.4567C49.3505 19.4876 49.4252 19.5081 49.5 19.5184C49.5166 19.5184 49.5249 19.5286 49.5415 19.5184C49.6079 19.5286 49.666 19.5389 49.7159 19.5286C49.8072 19.5286 49.8819 19.4978 49.94 19.4567C50.0978 19.3335 50.1061 19.0048 50.1227 18.6042C50.131 18.2139 50.1476 17.7825 50.2888 17.3614C50.405 17.0122 50.5794 16.6835 50.7538 16.3651C50.9946 15.9132 51.2188 15.4818 51.1855 15.1634C51.1855 15.1428 51.1772 15.1223 51.1772 15.1018C51.1689 15.071 51.1606 15.0401 51.144 15.0093C51.1191 14.9477 51.0776 14.8963 51.0195 14.845C50.9697 14.7936 50.9032 14.7525 50.8202 14.7012C50.5379 14.5369 50.0895 14.4239 49.4667 14.3622C49.4335 14.352 46.3945 13.9 44.6176 14.5471C43.6461 14.8963 43.4717 15.2147 43.4634 15.3791Z" fill="#E94E1B"/>
<path d="M47.899 14.9657C47.6482 14.8258 47.3516 14.968 47.2366 15.2834C47.1215 15.5988 47.2316 15.968 47.4824 16.1079C47.7332 16.2479 48.0298 16.1056 48.1448 15.7902C48.2598 15.4748 48.1498 15.1057 47.899 14.9657Z" fill="#BE1622"/>
<path d="M44.0362 15.399C44.0362 15.399 43.8037 15.2757 43.4051 15.0498C43.0066 14.8135 42.4419 14.4849 41.7777 14.0329C41.4455 13.807 41.0968 13.5502 40.748 13.2421C40.5737 13.088 40.3993 12.9134 40.2498 12.7182C40.1087 12.5333 39.9675 12.2663 40.1004 12.0917C40.2415 11.9171 40.4906 11.8555 40.7148 11.8144C40.9473 11.7733 41.1964 11.7527 41.4455 11.7527C41.9354 11.7425 42.4419 11.7733 42.9401 11.8144C43.9448 11.9068 44.9496 12.0609 45.8795 12.2252C46.8178 12.3895 47.6897 12.5642 48.437 12.7182C49.9316 13.0264 50.9197 13.2523 50.9197 13.2523C50.9197 13.2523 49.9316 13.0058 48.437 12.6669C47.6897 12.5025 46.8178 12.3177 45.8878 12.1328C44.9579 11.9479 43.9532 11.7835 42.9401 11.6706C42.4336 11.6192 41.9354 11.5781 41.4289 11.5781C41.1798 11.5781 40.9307 11.5884 40.6816 11.6295C40.4408 11.6808 40.1834 11.7117 39.9675 11.9582C39.9177 12.0198 39.8762 12.1122 39.8762 12.2047C39.8679 12.2971 39.8845 12.3895 39.9094 12.4614C39.9592 12.6155 40.0423 12.7285 40.117 12.8415C40.2748 13.0572 40.4574 13.2318 40.6318 13.3961C40.9888 13.7145 41.3376 13.9816 41.6697 14.2178C42.3257 14.6903 42.8986 15.0395 43.2972 15.2757C43.6957 15.512 43.7456 15.6147 43.9282 15.6455C44.1275 15.6763 44.0362 15.399 44.0362 15.399Z" fill="#BE1622"/>
<path d="M47.5323 15.4325C47.6424 15.4325 47.7316 15.3221 47.7316 15.186C47.7316 15.0498 47.6424 14.9395 47.5323 14.9395C47.4222 14.9395 47.333 15.0498 47.333 15.186C47.333 15.3221 47.4222 15.4325 47.5323 15.4325Z" fill="white"/>
</g>
<g filter="url(#filter2_d_51_5030)">
<path d="M48.921 40.2C48.8341 39.6808 48.645 39.3116 48.2838 39.0043C47.785 38.5818 46.9515 38.3132 45.5843 38.0046C45.5006 37.9891 45.4168 37.9735 45.3327 37.9477C45.2655 37.9312 45.1905 37.9254 45.1233 37.9089C45.0897 37.9006 45.0562 37.8924 45.023 37.8944C44.8638 37.8628 44.6967 37.842 44.5296 37.8212C44.4878 37.8134 44.4546 37.8154 44.4127 37.8077C44.2705 37.7854 44.1204 37.7738 43.9703 37.7623C43.9372 37.7643 43.8953 37.7565 43.8621 37.7585C43.8455 37.7595 43.8202 37.7507 43.8037 37.7517C43.637 37.7412 43.462 37.7311 43.287 37.7211C43.2622 37.7226 43.2373 37.7241 43.212 37.7153C43.037 37.7053 42.8707 37.705 42.6958 37.6949C42.629 37.6887 42.5627 37.6927 42.4959 37.6864C42.3628 37.6841 42.2214 37.6823 42.08 37.6805C42.0054 37.685 41.9303 37.6793 41.8557 37.6837C41.8059 37.6867 41.7558 37.6795 41.6977 37.683C41.6397 37.6864 41.5816 37.6899 41.5231 37.6832C41.3735 37.6819 41.2325 37.6904 41.0832 37.6993C40.9837 37.7053 40.8841 37.7113 40.7842 37.707C40.6349 37.716 40.4939 37.7245 40.3442 37.7232C40.2447 37.7292 40.1452 37.7352 40.0457 37.7411C39.8964 37.7501 39.7388 37.7596 39.5895 37.7686C39.4983 37.774 39.3988 37.78 39.3075 37.7855C39.1334 37.796 38.9596 37.8167 38.7772 37.8277C38.7108 37.8317 38.6528 37.8352 38.5864 37.8392C38.5781 37.8397 38.5698 37.8402 38.5615 37.8407C38.3048 37.8664 38.0481 37.8921 37.7914 37.9178C37.7085 37.9228 37.626 37.938 37.5347 37.9435C37.361 37.9642 37.1872 37.985 37.0134 38.0057C36.9222 38.0112 36.8314 38.0269 36.7323 38.0432C36.5668 38.0634 36.4013 38.0836 36.2359 38.1039C36.1533 38.1191 36.0704 38.1241 35.9879 38.1393C35.7482 38.1743 35.5163 38.1985 35.2932 38.2325L35.9046 41.7332C36.1277 41.6992 36.3674 41.6643 36.5993 41.64C36.6818 41.6248 36.7647 41.6198 36.8473 41.6046C37.0127 41.5843 37.1782 41.5641 37.3437 41.5439C37.4345 41.5281 37.5257 41.5226 37.6248 41.5064C37.7986 41.4857 37.9724 41.4649 38.1461 41.4442C38.2291 41.4392 38.3116 41.424 38.3945 41.419C38.6512 41.3933 38.9079 41.3676 39.1646 41.3418C39.231 41.3379 39.3056 41.3334 39.372 41.3294C39.5461 41.3189 39.7199 41.2982 39.9024 41.2872C39.9936 41.2817 40.0931 41.2757 40.1843 41.2703C40.3336 41.2613 40.4912 41.2518 40.6405 41.2428C40.74 41.2369 40.8395 41.2309 40.9473 41.2244C41.0966 41.2154 41.2376 41.2069 41.3873 41.2082C41.4868 41.2022 41.5864 41.1962 41.6946 41.2C41.8439 41.191 41.9853 41.1928 42.1345 41.1839C42.2424 41.1774 42.3589 41.1807 42.4667 41.1742C42.5413 41.1697 42.6164 41.1755 42.6827 41.1715C42.8241 41.1732 42.9572 41.1755 43.0986 41.1773C43.1654 41.1836 43.2317 41.1796 43.2985 41.1859C43.473 41.1857 43.648 41.1957 43.8147 41.2063C43.8396 41.2048 43.8645 41.2033 43.8897 41.212C44.0813 41.2211 44.2729 41.2301 44.4648 41.2494C44.498 41.2474 44.5399 41.2552 44.5734 41.2635C44.7235 41.275 44.8736 41.2866 45.0158 41.3089C45.0577 41.3166 45.0909 41.3146 45.1327 41.3224C45.2998 41.3432 45.4669 41.364 45.6261 41.3956C45.6597 41.4038 45.6928 41.4018 45.7264 41.4101C45.8856 41.4417 46.0444 41.463 46.187 41.4955C47.5542 41.8041 48.3877 42.0728 48.8865 42.4952C49.2477 42.8026 49.4368 43.1717 49.5237 43.6909L48.921 40.2Z" fill="#8F614F"/>
<path d="M60.7142 44.1497C60.7206 44.3138 60.7192 44.4887 60.7174 44.6533C60.7194 44.7046 60.7127 44.7462 60.7064 44.798C60.6466 45.6037 60.3271 46.5689 60.0041 47.2362C58.8067 49.7659 56.1583 50.9123 53.9798 51.5369C51.3082 52.3042 48.3933 52.171 45.748 51.2811C45.7144 51.2728 45.6721 51.2548 45.6386 51.2466C45.3857 51.1589 45.1325 51.061 44.8871 50.9524C44.8279 50.9251 44.769 50.9081 44.718 50.8803C44.4644 50.7721 44.2104 50.6537 43.9725 50.5241C41.5362 49.2412 38.0019 48.3636 36.1455 46.8196C35.5092 46.282 35.0696 45.6709 34.9406 44.9279L34.3486 41.498C34.3502 41.5391 34.3684 41.5791 34.3783 41.6197C34.3879 41.6499 34.3891 41.6807 34.3986 41.711C34.4085 41.7515 34.4271 41.8018 34.437 41.8424C34.4469 41.8829 34.4651 41.9229 34.4837 41.9732C34.5019 42.0133 34.5118 42.0538 34.5383 42.0934C34.5569 42.1437 34.5834 42.1832 34.602 42.2335C34.6202 42.2735 34.6467 42.3131 34.6732 42.3526C34.6997 42.3922 34.7179 42.4322 34.7444 42.4717C34.7709 42.5113 34.7973 42.5508 34.8238 42.5904C34.8503 42.6299 34.8768 42.6694 34.9116 42.7085C34.9381 42.748 34.9646 42.7876 34.999 42.8163C34.999 42.8163 34.9994 42.8266 35.0077 42.8261C35.0342 42.8656 35.0686 42.8944 35.1033 42.9335C35.1294 42.9628 35.1642 43.0018 35.1903 43.0311C35.303 43.1477 35.4152 43.2541 35.5354 43.3497C35.6555 43.4453 35.7756 43.5409 35.9041 43.636C35.9724 43.6833 36.0325 43.7311 36.1005 43.7682C36.3735 43.9471 36.6632 44.1251 36.9686 44.2816C37.0788 44.3366 37.1808 44.3922 37.291 44.4473C37.325 44.4658 37.3503 44.4746 37.3842 44.4931C39.3519 45.4854 41.4244 46.1834 43.4216 47.0814C43.4299 47.0809 43.4386 47.0907 43.4469 47.0902C44.7879 47.7911 46.2511 48.2173 47.7217 48.4065C47.7888 48.4231 47.8556 48.4293 47.9219 48.4253C48.0475 48.4486 48.1641 48.4519 48.2893 48.465C49.5745 48.5933 50.8778 48.5458 52.1573 48.3147C52.9416 48.175 53.7404 47.983 54.5028 47.7109C55.1583 47.4658 55.8275 47.148 56.4449 46.7818C57.1112 46.3921 57.7803 45.8583 58.3619 45.2166C58.4815 45.086 58.601 44.9554 58.7036 44.8155C58.9573 44.5021 59.1849 44.1593 59.3865 43.7873C59.588 43.4153 59.7551 43.0144 59.8883 42.5951C59.9686 42.3126 60.0403 42.0204 60.0788 41.7302C60.0988 41.6055 60.111 41.4917 60.1144 41.3681C60.1207 41.3163 60.1266 41.2542 60.1246 41.2029C60.1238 41.1824 60.1312 41.1614 60.1304 41.1409C60.1288 41.0999 60.1359 41.0686 60.1343 41.0275C60.1327 40.9865 60.1315 40.9557 60.1299 40.9147C60.1279 40.8634 60.1258 40.8121 60.1242 40.7711L60.1238 40.7608C60.123 40.7403 60.1222 40.7198 60.1214 40.6993L60.119 40.6377C60.105 40.4946 60.0911 40.3514 60.0689 40.2088C60.1863 40.8702 60.3468 41.5701 60.4825 42.2715C60.5888 42.8615 60.6892 43.5136 60.7142 44.1497Z" fill="url(#paint1_linear_51_5030)"/>
<path d="M45.5566 47.89C46.2633 48.1046 46.9846 48.2669 47.7118 48.3671C46.233 48.1784 44.778 47.7517 43.437 47.0508C43.5386 47.0961 43.6318 47.1419 43.7333 47.1872C44.3264 47.4703 44.934 47.7012 45.5566 47.89Z" fill="#B2B2B2"/>
<path d="M60.0921 40.5878C60.0938 40.6289 60.0954 40.6699 60.097 40.7109L60.0974 40.7212C60.0994 40.7725 60.1014 40.8238 60.103 40.8648C60.1046 40.9059 60.1059 40.9366 60.1075 40.9777C60.1091 41.0187 60.102 41.05 60.1036 41.091C60.1044 41.1115 60.1052 41.132 60.0977 41.1531C60.0915 41.2049 60.0939 41.2664 60.0876 41.3182C60.0841 41.4418 60.0637 41.5562 60.0519 41.6803C60.0052 41.971 59.9418 42.2628 59.8453 42.5565C59.7196 42.9548 59.5521 43.3454 59.3509 43.7277C59.2815 43.8655 59.1956 44.0044 59.1179 44.1427C58.9849 44.3564 58.8433 44.5603 58.6851 44.7652C58.5825 44.905 58.4629 45.0356 58.3434 45.1662C56.2227 47.4737 52.2336 48.7728 48.279 48.4141C48.1538 48.401 48.0286 48.388 47.9117 48.3745C47.8449 48.3682 47.7699 48.3624 47.7114 48.3557C46.2326 48.1669 44.7776 47.7402 43.4366 47.0393C43.4283 47.0398 43.4196 47.0301 43.4113 47.0305C43.3943 47.0213 43.3773 47.012 43.3603 47.0028C41.5863 46.0708 39.2389 45.3584 37.374 44.4422C37.34 44.4237 37.3143 44.4047 37.2808 44.3964C37.1705 44.3413 37.0686 44.2857 36.9583 44.2307C36.6525 44.064 36.3633 43.8963 36.0902 43.7173C36.0219 43.67 35.9535 43.6227 35.8938 43.5851C35.7654 43.49 35.6457 43.4047 35.5251 43.2988C35.4046 43.1929 35.284 43.0871 35.1801 42.9802C35.154 42.9509 35.1196 42.9221 35.0931 42.8826C35.0583 42.8435 35.0322 42.8143 34.9974 42.7752C34.9974 42.7752 34.9974 42.7752 34.9887 42.7655C34.9623 42.7259 34.9275 42.6869 34.9014 42.6576C34.8749 42.6181 34.8401 42.579 34.8136 42.5395C34.7871 42.4999 34.7606 42.4604 34.7341 42.4209C34.7076 42.3813 34.6811 42.3418 34.6629 42.3017C34.6364 42.2622 34.6182 42.2222 34.5917 42.1826C34.5648 42.1328 34.5467 42.0928 34.528 42.0425C34.5098 42.0024 34.4917 41.9624 34.4735 41.9224C34.4553 41.8823 34.437 41.8423 34.4267 41.7915C34.4164 41.7407 34.3982 41.7007 34.3883 41.6601C34.3788 41.6298 34.3693 41.5996 34.3681 41.5688C34.3582 41.5282 34.3487 41.498 34.3384 41.4472C34.2242 40.8679 34.2983 40.2156 34.618 39.4662C34.6868 39.5238 34.7473 39.5819 34.8243 39.6389C36.7672 41.2703 39.6485 42.8761 42.1979 43.4426C44.9908 44.0665 45.9658 43.9154 47.9481 42.5314C48.2635 42.3067 48.6109 42.0493 48.9902 41.7592C49.0075 41.1411 49.0043 40.6374 48.9384 40.2301C48.8582 39.6693 48.6683 39.2797 48.2901 38.9631C47.7913 38.5406 46.9574 38.2617 45.5906 37.9633C42.8732 37.3555 38.5164 37.7614 35.3173 38.2211C39.0236 32.8977 47.4075 35.1188 50.9199 35.2264C54.5073 35.3398 56.9425 36.1703 58.4036 37.3884C59.3406 38.1753 59.8678 39.1102 60.0491 40.1277C60.0643 40.3016 60.0865 40.4442 60.0921 40.5878Z" fill="url(#paint2_radial_51_5030)"/>
<path d="M59.8459 42.5656C59.5438 42.7072 59.1415 42.8342 58.6696 42.8831C58.4129 42.9088 58.1392 42.9253 57.8548 42.8807C57.5704 42.8361 57.2748 42.7202 56.9714 42.615C56.7435 42.5259 56.5084 42.468 56.2655 42.4209C56.3924 42.0534 56.5027 41.6869 56.6213 41.3198C56.7032 41.0784 56.7686 40.8379 56.8249 40.5775L57.0119 39.8361C57.1422 39.3449 57.2137 38.8368 57.3101 38.3271C57.3667 38.0769 57.3815 37.8189 57.4212 37.5595L57.5075 36.7933L57.3711 37.5522C57.3227 37.8019 57.2913 38.0609 57.2346 38.3111L57.0642 39.0514C57.0075 39.3016 56.9591 39.5513 56.8855 39.7923L56.6728 40.5146C56.6074 40.7551 56.5337 40.996 56.4518 41.2375L56.2134 41.9408C56.161 42.0879 56.1086 42.235 56.0562 42.3821C56.0479 42.3826 56.0392 42.3729 56.0226 42.3739C55.6963 42.3215 55.3625 42.2901 55.0288 42.2588C54.3617 42.2063 53.6875 42.1852 53.0685 42.0887C53.0519 42.0897 53.0266 42.0809 53.01 42.0819C53.0475 41.9769 53.0853 41.882 53.1145 41.7774L53.3974 40.9378L53.5388 40.5179C53.5833 40.3816 53.6192 40.2355 53.655 40.0893L53.8786 39.2224C53.9145 39.0763 53.9586 38.9296 53.9944 38.7835L54.0766 38.3364L54.2414 37.4524C54.3047 37.1607 54.3175 36.8514 54.3639 36.5504L54.4615 35.6499L54.3133 36.5329C54.2583 36.8241 54.2289 37.1344 54.1485 37.4169L53.9506 38.3028L53.8514 38.7407C53.8156 38.8868 53.7711 39.0232 53.7265 39.1595L53.4772 40.0075C53.4327 40.1438 53.3969 40.29 53.3523 40.4263L53.2022 40.8364L52.9106 41.6663C52.8657 41.7924 52.8207 41.9185 52.7758 42.0446C52.2568 41.9524 51.7784 41.8372 51.3647 41.677C51.0439 41.5523 50.7721 41.4041 50.5338 41.2642C50.5563 41.2011 50.5792 41.1483 50.6016 41.0853L50.773 40.5814L50.9444 40.0775C50.996 39.9098 51.0559 39.7417 51.1071 39.5638L51.3907 38.5287C51.4419 38.3508 51.4852 38.1837 51.5198 38.0068L51.6319 37.4756L51.7358 36.9449C51.7787 36.7675 51.7967 36.5916 51.8231 36.4152L51.9719 35.3368L51.7642 36.3982C51.7296 36.5751 51.7033 36.7515 51.6521 36.9294L51.5229 37.4513L51.3938 37.9732C51.3592 38.1501 51.3076 38.3178 51.2477 38.4859L50.9302 39.5025C50.8269 39.8377 50.6902 40.1648 50.5786 40.5005L50.3985 40.9947C50.3757 41.0475 50.3528 41.1002 50.3304 41.1633C50.279 41.1252 50.228 41.0975 50.1849 41.0589C49.9111 40.8594 49.7545 40.6837 49.7545 40.6837C49.5197 40.4202 49.2151 40.2843 48.8999 40.3032C48.9662 40.7209 48.969 41.2143 48.9517 41.8323C48.5724 42.1225 48.225 42.3799 47.9096 42.6045C48.2431 43.2632 48.9171 43.49 49.4772 43.1478L49.3621 43.3913L49.3625 43.4015L46.5026 48.2627L46.5275 48.2612L46.5357 48.2607L46.5598 48.2387L46.5914 48.1956L46.9875 47.6988L47.2014 47.4288C47.2728 47.3423 47.3442 47.2557 47.4152 47.1589L47.8085 46.5902L48.0054 46.311C48.0681 46.2147 48.1395 46.1282 48.2019 46.0216L48.5608 45.4241L48.7403 45.1254C48.803 45.0291 48.8653 44.9225 48.9193 44.8164C49.1358 44.4024 49.3523 43.9883 49.5688 43.5742C49.5767 43.5635 49.5763 43.5532 49.5842 43.5425L49.8066 43.0663L49.8598 42.9397C49.917 42.9157 49.9739 42.8815 50.0394 42.857C50.3419 42.7257 50.7774 42.5966 51.2912 42.5555C51.6806 42.5218 52.1131 42.5266 52.5803 42.5705L52.2606 43.3199C52.1991 43.4469 52.1467 43.5941 52.0931 43.7104L51.9006 44.1025L51.5237 44.8758C51.4007 45.13 51.2523 45.3754 51.1206 45.6199C50.9806 45.8648 50.8576 46.119 50.7089 46.3542L50.2632 47.0699C50.1231 47.3149 49.9574 47.5408 49.8 47.7662L49.5641 48.1094L49.4462 48.2811L49.3598 48.4097L49.344 48.4312L49.3361 48.4419L49.3282 48.4527L49.2726 48.5177C49.3559 48.523 49.4471 48.5175 49.5222 48.5233L49.5853 48.4372L49.7116 48.2651L49.9562 47.9316C50.1219 47.7057 50.2876 47.4798 50.4359 47.2344L50.8899 46.5181C51.0469 46.2824 51.1778 46.0175 51.3178 45.7725C51.4574 45.5173 51.6057 45.2719 51.7371 45.0172L52.1136 44.2336L52.2978 43.8421C52.3672 43.7042 52.4204 43.5776 52.4732 43.4408L52.8154 42.6284C52.8233 42.6176 52.8225 42.5971 52.8303 42.5863C52.8971 42.5926 52.9556 42.5994 53.0223 42.6056C53.6409 42.6919 54.3037 42.8474 54.9662 42.9927C55.2423 43.0378 55.5105 43.0936 55.7862 43.1285C55.7558 43.2023 55.7172 43.2766 55.6868 43.3504L55.3979 44.0362L55.2532 44.3739L55.215 44.4585L55.1763 44.5328L55.0911 44.6922L54.7595 45.3497L54.4366 46.0169C54.3372 46.2389 54.2122 46.4418 54.0875 46.6549L53.3634 47.9016L53.3555 47.9124L53.3318 47.9446L53.3239 47.9554C53.3082 47.9769 53.2924 47.9984 53.2766 48.0199C53.3836 47.9929 53.4906 47.9659 53.5972 47.9287L54.276 46.7978C54.4007 46.5847 54.534 46.3813 54.6334 46.1594L54.965 45.5019L55.2879 44.8346L55.3731 44.6752L55.4192 44.5799L55.4575 44.4953L55.6022 44.1576L55.8911 43.4718C55.9369 43.3662 55.9743 43.2611 56.0196 43.1453C56.3289 43.1884 56.637 43.2007 56.9351 43.1725C57.2503 43.1536 57.5564 43.1146 57.8491 43.1587C58.1331 43.193 58.3942 43.2802 58.6391 43.3786C58.9094 43.4857 59.1555 43.6149 59.3689 43.7563C59.3772 43.7558 59.3772 43.7558 59.3859 43.7656C59.5874 43.3935 59.7546 42.9927 59.8877 42.5734C59.8624 42.5646 59.8541 42.5651 59.8459 42.5656Z" fill="#F9EDDC"/>
<path d="M39.2004 37.8246C39.0594 37.8331 38.9188 37.8518 38.7778 37.8603C38.7612 37.8613 38.7446 37.8623 38.728 37.8633C38.6734 37.7431 38.6184 37.6128 38.5717 37.4819C38.4233 37.0898 38.316 36.6849 38.2616 36.3591C38.2072 36.0333 38.2062 35.7968 38.2062 35.7968C38.2062 35.7968 38.3533 35.9422 38.5134 36.2103C38.6815 36.4675 38.8623 36.8371 39.0107 37.2293C39.0847 37.4202 39.1512 37.6321 39.2004 37.8246Z" fill="#F9EDDC"/>
<path d="M41.9393 37.699C41.9144 37.7005 41.8895 37.702 41.873 37.703C41.8232 37.706 41.773 37.6987 41.715 37.7022C41.6569 37.7057 41.5989 37.7092 41.5408 37.7127C41.5076 37.7147 41.4828 37.7162 41.4579 37.7177C41.4286 37.6063 41.4076 37.4945 41.3782 37.3831C41.3168 37.0886 41.2549 36.7838 41.2192 36.5083C41.1747 36.2231 41.1393 35.9578 41.1218 35.7224C41.0788 35.2622 41.0911 34.9427 41.0911 34.9427C41.0911 34.9427 41.2347 35.2117 41.3844 35.6346C41.4675 35.8456 41.5439 36.0981 41.6211 36.3711C41.6983 36.6441 41.7764 36.9376 41.8378 37.2321C41.8767 37.3737 41.908 37.5364 41.9393 37.699Z" fill="#F9EDDC"/>
<path d="M44.3566 37.03C44.3754 37.2962 44.3858 37.563 44.3955 37.8092C44.262 37.7966 44.1202 37.7846 43.9784 37.7725C43.9701 37.773 43.9618 37.7735 43.9452 37.7745C43.9115 37.5503 43.8939 37.3149 43.8768 37.0897C43.8568 36.7927 43.8451 36.4952 43.8429 36.2279C43.8403 35.9504 43.8468 35.693 43.8628 35.4658C43.887 35.0221 43.9416 34.7206 43.9416 34.7206C43.9416 34.7206 44.0441 35.0024 44.1361 35.439C44.1861 35.652 44.2293 35.9065 44.2651 36.182C44.3 36.437 44.3366 36.733 44.3566 37.03Z" fill="#F9EDDC"/>
<path d="M46.9632 35.6608C46.9808 35.8962 46.9834 36.1737 46.9868 36.4717C46.9897 36.7595 46.9774 37.079 46.9563 37.3888C46.9352 37.6985 46.9058 38.0088 46.8674 38.299C46.8678 38.3093 46.8682 38.3196 46.8686 38.3298C46.7338 38.2865 46.5995 38.2534 46.4482 38.2111C46.4456 37.9336 46.4588 37.6346 46.4724 37.3459C46.4935 37.0361 46.5229 36.7258 46.5614 36.4356C46.5998 36.1454 46.6391 35.8756 46.6883 35.6464C46.7784 35.1886 46.8745 34.8846 46.8745 34.8846C46.8745 34.8846 46.9364 35.1893 46.9632 35.6608Z" fill="#F9EDDC"/>
<path d="M49.7293 35.1766C49.7293 35.1766 49.7264 35.5264 49.6716 36.0336C49.6402 36.2925 49.6017 36.5828 49.5387 36.8848C49.4845 37.1965 49.414 37.5196 49.3353 37.8431C49.2566 38.1666 49.1691 38.4803 49.0813 38.7838C48.9931 39.0771 48.8957 39.3503 48.8134 39.5815C48.798 39.6133 48.7913 39.6548 48.7759 39.6866C48.7209 39.5562 48.6493 39.4268 48.5703 39.3184C48.5954 39.1113 48.6363 38.8826 48.6764 38.6334C48.7306 38.3216 48.8011 37.9986 48.8798 37.6751C48.9585 37.3516 49.0459 37.0378 49.1342 36.7446C49.2224 36.4513 49.3198 36.1781 49.4021 35.9469C49.5743 35.4636 49.7293 35.1766 49.7293 35.1766Z" fill="#F9EDDC"/>
<path d="M36.837 41.1421C36.6104 41.2997 36.3336 41.45 36.0565 41.5901C35.6727 41.7674 35.2712 41.915 34.9576 41.9749C34.8013 42.0152 34.6686 42.0232 34.5777 42.0389C34.5529 42.0404 34.528 42.0419 34.5031 42.0434C34.4533 42.0464 34.4202 42.0484 34.4202 42.0484C34.4202 42.0484 34.4442 42.0264 34.4762 41.9936C34.492 41.9721 34.5082 41.9608 34.5322 41.9388C34.6045 41.8728 34.717 41.7735 34.8456 41.6629C35.1117 41.4515 35.4851 41.2234 35.8689 41.0461C36.024 40.9751 36.1875 40.9035 36.343 40.8428C36.5129 40.9354 36.6666 41.0393 36.837 41.1421Z" fill="#F9EDDC"/>
<path d="M38.2481 41.933C38.2398 41.9335 38.2402 41.9437 38.2319 41.9442C38.0571 42.1501 37.859 42.3986 37.6452 42.6685C37.4396 42.9379 37.2187 43.2391 37.0147 43.5496C36.8968 43.7212 36.7792 43.9031 36.6613 44.0748C36.7549 44.1308 36.8486 44.1869 36.9501 44.2322C37.0011 44.26 37.0603 44.2873 37.1113 44.3151C37.1977 44.1865 37.2928 44.0676 37.3792 43.939C37.5914 43.6281 37.7871 43.3181 37.9661 43.0091C38.1456 42.7104 38.3085 42.4127 38.4398 42.158C38.4556 42.1365 38.471 42.1047 38.478 42.0734C38.4859 42.0626 38.4938 42.0519 38.4934 42.0416C38.418 42.0256 38.333 41.9793 38.2481 41.933Z" fill="#F9EDDC"/>
<path d="M40.5086 42.9788C40.4791 43.0731 40.4495 43.1674 40.4117 43.2623C40.2848 43.6298 40.15 44.0081 40.0066 44.3766C39.871 44.7344 39.7267 45.0824 39.5733 45.4104C39.5481 45.4017 39.5145 45.3934 39.4975 45.3842C39.4046 45.3486 39.3201 45.3126 39.2356 45.2765C39.2103 45.2677 39.1933 45.2585 39.168 45.2497L39.1676 45.2395C39.2949 44.8822 39.4293 44.4936 39.5727 44.1251C39.7241 43.7458 39.8841 43.3762 40.0288 43.0385C40.0596 42.9749 40.0899 42.9011 40.1207 42.8376C40.2471 42.8814 40.3739 42.9355 40.5086 42.9788Z" fill="#F9EDDC"/>
<path d="M42.443 43.5404C42.3801 43.8424 42.303 44.207 42.2014 44.5833C42.1089 44.9796 41.9844 45.4087 41.8595 45.8276C41.8154 45.9742 41.7634 46.1316 41.7189 46.2679C41.5668 46.2051 41.4147 46.1422 41.263 46.0897C41.3067 45.9328 41.3504 45.7759 41.4024 45.6185C41.5273 45.1997 41.6608 44.7906 41.7952 44.4021C41.915 44.0658 42.0273 43.7505 42.1412 43.4763C42.1578 43.4753 42.1665 43.4851 42.1831 43.4841C42.2751 43.4991 42.3676 43.5244 42.443 43.5404Z" fill="#F9EDDC"/>
<path d="M44.2665 43.8224C44.1944 44.1043 44.1161 44.4381 44.0464 44.7816C43.9693 45.1462 43.9013 45.5308 43.842 45.9251C43.7827 46.3194 43.7316 46.7133 43.6881 47.0861C43.6893 47.1169 43.6905 47.1476 43.683 47.1686C43.7427 47.2062 43.8102 47.233 43.8782 47.27C43.9458 47.2968 44.005 47.3241 44.073 47.3612C44.0871 47.2986 44.1009 47.2258 44.1155 47.1735C44.1926 46.8089 44.2606 46.4244 44.32 46.03C44.3793 45.6357 44.4303 45.2419 44.4656 44.8696C44.5091 44.4967 44.5373 44.1557 44.5501 43.8464C44.5497 43.8362 44.5497 43.8362 44.5497 43.8362L44.2665 43.8224Z" fill="#F9EDDC"/>
</g>
<g filter="url(#filter3_d_51_5030)">
<path d="M29.0323 45.8505C29.298 47.2062 29.6052 49.774 28.2684 50.2979C26.6409 50.9347 25.603 49.2502 25.7773 46.6413C25.9932 43.3854 27.6207 40.9922 27.82 40.9922C27.9943 41.0025 28.5341 43.3032 29.0323 45.8505Z" fill="#222444"/>
<path d="M28.808 44.8424C29.0156 45.9106 29.2564 47.934 28.2102 48.3448C26.9232 48.8481 26.1177 47.5129 26.2506 45.4689C26.425 42.9114 27.6954 41.0215 27.8615 41.0215C27.986 41.0215 28.4178 42.8395 28.808 44.8424Z" fill="#494E7A"/>
<path d="M28.5921 44.0103C28.7499 44.832 28.9409 46.3932 28.1271 46.7116C27.139 47.1019 26.5163 46.0748 26.6159 44.4931C26.7488 42.521 27.7286 41.0625 27.8531 41.0625C27.9611 41.0625 28.2932 42.4697 28.5921 44.0103Z" fill="#606791"/>
<path d="M28.858 45.8402C29.132 47.196 29.8212 49.6508 31.1995 49.3427C32.8851 48.9729 33.1674 46.8879 32.0299 44.6796C30.6183 41.9269 28.2767 40.7252 28.1024 40.8484C27.9612 40.9409 28.3431 43.3032 28.858 45.8402Z" fill="#222444"/>
<path d="M28.6754 44.8131C28.8913 45.8813 29.431 47.8122 30.5188 47.576C31.8473 47.2884 32.0632 45.645 31.1747 43.8989C30.0621 41.7317 28.227 40.7868 28.0859 40.8792C27.9696 40.9614 28.2686 42.8205 28.6754 44.8131Z" fill="#494E7A"/>
<path d="M28.5588 43.9611C28.7248 44.7828 29.14 46.2721 29.9786 46.0872C31 45.8613 31.1743 44.5979 30.4852 43.2524C29.6299 41.5782 28.21 40.8489 28.1021 40.9208C28.0107 40.9825 28.2432 42.4204 28.5588 43.9611Z" fill="#606791"/>
<path d="M30.0612 45.2263C30.4606 44.9593 30.4681 44.0187 30.0778 43.1253C29.6876 42.232 29.0475 41.7242 28.648 41.9912C28.2486 42.2582 28.2412 43.1988 28.6314 44.0922C29.0216 44.9855 29.6618 45.4933 30.0612 45.2263Z" fill="#E5B683"/>
</g>
<path d="M34 68C52.7486 68 68 52.7486 68 34C68 15.2514 52.7486 0 34 0C15.2514 0 0 15.2514 0 34C0 52.7486 15.2514 68 34 68ZM34 66.0571C25.5486 66.0571 17.7771 62.7543 12.0457 57.3143L34 35.36L55.9543 57.3143C50.2229 62.7543 42.4514 66.0571 34 66.0571ZM66.0571 34C66.0571 42.4514 62.7543 50.2229 57.3143 55.9543L35.36 34L57.3143 12.0457C62.7543 17.7771 66.0571 25.5486 66.0571 34ZM34 1.94286C42.4514 1.94286 50.2229 5.24571 55.9543 10.6857L34 32.64L12.0457 10.6857C17.7771 5.24571 25.5486 1.94286 34 1.94286ZM10.6857 12.0457L32.64 34L10.6857 55.9543C5.24571 50.2229 1.94286 42.4514 1.94286 34C1.94286 25.5486 5.24571 17.7771 10.6857 12.0457Z" fill="url(#paint3_linear_51_5030)"/>
<defs>
<filter id="filter0_d_51_5030" x="1" y="19.2715" width="49.124" height="23.0879" filterUnits="userSpaceOnUse" color-interpolation-filters="sRGB">
<feFlood flood-opacity="0" result="BackgroundImageFix"/>
<feColorMatrix in="SourceAlpha" type="matrix" values="0 0 0 0 0 0 0 0 0 0 0 0 0 0 0 0 0 0 127 0" result="hardAlpha"/>
<feOffset dy="4"/>
<feGaussianBlur stdDeviation="2"/>
<feComposite in2="hardAlpha" operator="out"/>
<feColorMatrix type="matrix" values="0 0 0 0 0 0 0 0 0 0 0 0 0 0 0 0 0 0 0.25 0"/>
<feBlend mode="normal" in2="BackgroundImageFix" result="effect1_dropShadow_51_5030"/>
<feBlend mode="normal" in="SourceGraphic" in2="effect1_dropShadow_51_5030" result="shape"/>
</filter>
<filter id="filter1_d_51_5030" x="35.874" y="9" width="24.3359" height="31.8379" filterUnits="userSpaceOnUse" color-interpolation-filters="sRGB">
<feFlood flood-opacity="0" result="BackgroundImageFix"/>
<feColorMatrix in="SourceAlpha" type="matrix" values="0 0 0 0 0 0 0 0 0 0 0 0 0 0 0 0 0 0 127 0" result="hardAlpha"/>
<feOffset dy="4"/>
<feGaussianBlur stdDeviation="2"/>
<feComposite in2="hardAlpha" operator="out"/>
<feColorMatrix type="matrix" values="0 0 0 0 0 0 0 0 0 0 0 0 0 0 0 0 0 0 0.25 0"/>
<feBlend mode="normal" in2="BackgroundImageFix" result="effect1_dropShadow_51_5030"/>
<feBlend mode="normal" in="SourceGraphic" in2="effect1_dropShadow_51_5030" result="shape"/>
</filter>
<filter id="filter2_d_51_5030" x="30.2881" y="34.6758" width="34.4307" height="25.3633" filterUnits="userSpaceOnUse" color-interpolation-filters="sRGB">
<feFlood flood-opacity="0" result="BackgroundImageFix"/>
<feColorMatrix in="SourceAlpha" type="matrix" values="0 0 0 0 0 0 0 0 0 0 0 0 0 0 0 0 0 0 127 0" result="hardAlpha"/>
<feOffset dy="4"/>
<feGaussianBlur stdDeviation="2"/>
<feComposite in2="hardAlpha" operator="out"/>
<feColorMatrix type="matrix" values="0 0 0 0 0 0 0 0 0 0 0 0 0 0 0 0 0 0 0.25 0"/>
<feBlend mode="normal" in2="BackgroundImageFix" result="effect1_dropShadow_51_5030"/>
<feBlend mode="normal" in="SourceGraphic" in2="effect1_dropShadow_51_5030" result="shape"/>
</filter>
<filter id="filter3_d_51_5030" x="21.7583" y="40.8398" width="14.9561" height="17.5938" filterUnits="userSpaceOnUse" color-interpolation-filters="sRGB">
<feFlood flood-opacity="0" result="BackgroundImageFix"/>
<feColorMatrix in="SourceAlpha" type="matrix" values="0 0 0 0 0 0 0 0 0 0 0 0 0 0 0 0 0 0 127 0" result="hardAlpha"/>
<feOffset dy="4"/>
<feGaussianBlur stdDeviation="2"/>
<feComposite in2="hardAlpha" operator="out"/>
<feColorMatrix type="matrix" values="0 0 0 0 0 0 0 0 0 0 0 0 0 0 0 0 0 0 0.25 0"/>
<feBlend mode="normal" in2="BackgroundImageFix" result="effect1_dropShadow_51_5030"/>
<feBlend mode="normal" in="SourceGraphic" in2="effect1_dropShadow_51_5030" result="shape"/>
</filter>
<linearGradient id="paint0_linear_51_5030" x1="22.7843" y1="20.5344" x2="23.9687" y2="34.3822" gradientUnits="userSpaceOnUse">
<stop offset="0.066" stop-color="#4C5354"/>
<stop offset="0.1386" stop-color="#5B6162"/>
<stop offset="0.2733" stop-color="#919495"/>
<stop offset="0.4095" stop-color="#C0C2C3"/>
<stop offset="0.5138" stop-color="#DEDEDF"/>
<stop offset="0.573" stop-color="#E9E9EA"/>
<stop offset="0.6348" stop-color="#DFE0E1"/>
<stop offset="0.7388" stop-color="#C5C7CA"/>
<stop offset="0.8715" stop-color="#9BA0A5"/>
<stop offset="0.8764" stop-color="#999EA3"/>
<stop offset="1" stop-color="#B2B2B2"/>
</linearGradient>
<linearGradient id="paint1_linear_51_5030" x1="34.808" y1="47.6963" x2="60.8384" y2="45.6915" gradientUnits="userSpaceOnUse">
<stop stop-color="#E7E3E0"/>
<stop offset="0.0375" stop-color="#D8D5D3"/>
<stop offset="0.1095" stop-color="#B1B1AF"/>
<stop offset="0.2078" stop-color="#737777"/>
<stop offset="0.264" stop-color="#4C5354"/>
<stop offset="0.2677" stop-color="#4E5556"/>
<stop offset="0.3751" stop-color="#909495"/>
<stop offset="0.4654" stop-color="#C0C2C3"/>
<stop offset="0.5341" stop-color="#DEDEDF"/>
<stop offset="0.573" stop-color="#E9E9EA"/>
<stop offset="0.6348" stop-color="#DFE0E1"/>
<stop offset="0.7388" stop-color="#C5C7CA"/>
<stop offset="0.8715" stop-color="#9BA0A5"/>
<stop offset="0.8764" stop-color="#999EA3"/>
<stop offset="1" stop-color="#B2B2B2"/>
</linearGradient>
<radialGradient id="paint2_radial_51_5030" cx="0" cy="0" r="1" gradientUnits="userSpaceOnUse" gradientTransform="translate(47.239 41.524) rotate(-6.72107) scale(10.0367 12.3563)">
<stop offset="0.009901" stop-color="#F39200"/>
<stop offset="0.224" stop-color="#F28B03"/>
<stop offset="0.5457" stop-color="#EF760B"/>
<stop offset="0.9335" stop-color="#EA5418"/>
<stop offset="1" stop-color="#E94E1B"/>
</radialGradient>
<linearGradient id="paint3_linear_51_5030" x1="-6.55917e-08" y1="36.8333" x2="68" y2="38.8571" gradientUnits="userSpaceOnUse">
<stop stop-color="#CA9E67"/>
<stop offset="0.546875" stop-color="#E8CAB9"/>
<stop offset="1" stop-color="#5A9E00" stop-opacity="0.48"/>
</linearGradient>
</defs>
</svg>
