<svg width="68" height="61" viewBox="0 0 68 61" fill="none" xmlns="http://www.w3.org/2000/svg">
<g filter="url(#filter0_d_51_1345)">
<path fill-rule="evenodd" clip-rule="evenodd" d="M20.0103 11.403C30.5485 6.18585 36.1834 3.57617 36.9137 3.57617C37.5589 3.57617 42.2041 7.00431 50.8493 13.8628C59.3217 20.5715 63.6675 24.1114 63.883 24.4849C64.1837 24.9321 63.905 26.2001 63.0443 28.2865C62.0546 30.4467 61.4959 31.6788 61.3669 31.974C61.1088 32.6449 50.0984 39.6532 28.3343 52.9945C27.6465 53.2181 20.5058 45.2415 6.9147 29.0669C6.39857 27.8012 5.88243 26.4952 5.3663 25.1535C4.37532 22.3224 3.92499 20.5357 4.01016 19.7888C4.09661 19.4176 9.42957 16.6223 20.0103 11.403Z" fill="#4B4330"/>
<path fill-rule="evenodd" clip-rule="evenodd" d="M61.3652 31.9774L28.5907 52.3293L28.2036 45.7324L63.8814 24.4883C63.7085 26.6507 63.3214 28.1758 62.7201 29.0725C62.333 29.6696 61.9898 30.3382 61.6878 31.0851L61.3652 31.9774Z" fill="#060C00"/>
<path fill-rule="evenodd" clip-rule="evenodd" d="M4.59046 19.5664L28.4617 45.0594L28.3326 52.998L6.91306 29.0704L4.26787 22.5853C4.09626 22.1403 4.09626 21.5052 4.26787 20.6845L4.59046 19.5664Z" fill="#1D191A"/>
<path fill-rule="evenodd" clip-rule="evenodd" d="M5.88135 19.7933L37.043 4.81055L37.4946 12.5255L11.0427 26.0547L5.88135 19.7933Z" fill="#362F22"/>
<path fill-rule="evenodd" clip-rule="evenodd" d="M37.172 12.0768L37.043 5.5918L61.9465 24.0407L57.0432 27.2832L37.172 12.0768Z" fill="#262118"/>
<path fill-rule="evenodd" clip-rule="evenodd" d="M37.4944 8.16354C38.0092 8.16354 39.1292 7.86612 40.8493 7.26905C42.3551 7.04543 43.0854 8.01371 43.0428 10.1761L43.2364 10.847C43.6661 10.2522 44.0957 9.87873 44.5267 9.7289C45.0854 9.57907 45.4287 9.95252 45.559 10.847C45.8596 10.6234 46.2261 10.5496 46.6558 10.6234C47.0867 10.771 47.4313 11.0706 47.688 11.5179C48.4197 12.9334 48.7861 14.0135 48.7861 14.7582C48.7861 15.3552 48.9358 15.9903 49.2377 16.6612C49.4958 17.2583 49.5384 18.0387 49.3681 19.0092C49.2816 19.6063 49.3242 20.3867 49.4971 21.3573C49.6261 22.178 49.6261 22.623 49.4971 22.7012C49.1526 22.8488 48.4442 23.3721 47.368 24.2644C46.2506 25.2349 45.5409 25.8677 45.2403 26.1674C44.8532 26.6884 44.2945 26.9121 43.5628 26.8383C42.8312 26.7645 42.337 26.9121 42.0789 27.2855C41.7344 27.6567 41.0686 27.8826 40.0789 27.9564C38.746 28.104 38.0131 28.18 37.8854 28.18C36.6802 28.4059 35.9279 28.701 35.6273 29.0745C35.4118 29.2981 35.1756 29.7073 34.9176 30.3044C34.5731 30.9753 34.315 31.4225 34.1421 31.6484C32.8092 33.4374 31.4324 33.6968 30.013 32.4311C27.733 30.5683 26.4427 29.5978 26.142 29.524C25.1097 29.2981 24.5291 29.1505 24.4001 29.0767C23.8839 28.8531 23.4104 28.3321 22.9807 27.5114L22.3975 26.277C22.182 25.8297 21.9458 25.4943 21.6878 25.2707C20.9987 25.1969 20.4826 25.0113 20.1394 24.7116C19.0206 23.8194 18.6129 22.3636 18.9135 20.351C19.129 18.562 19.7316 17.0727 20.72 15.8785C21.1936 15.2814 21.7097 14.9102 22.2684 14.7604C22.6129 14.6866 23.1936 14.5368 24.0104 14.3154C24.5704 14.0157 25.0001 13.4947 25.3007 12.75C25.4297 12.3028 25.6659 11.5939 26.0104 10.6256C26.311 10.0286 27.022 8.94846 28.1394 7.3831C28.5265 6.71223 28.9562 6.26499 29.4298 6.04136C29.6879 5.89154 30.182 5.74395 30.9137 5.59412C31.8169 5.44429 32.8492 5.74394 34.0105 6.48861C34.355 6.71223 34.9356 7.04767 35.7524 7.49491C36.484 7.93992 37.0634 8.16354 37.4944 8.16354Z" fill="#D9B456"/>
<path fill-rule="evenodd" clip-rule="evenodd" d="M35.3009 8.16127L34.2041 7.71402C34.4183 8.16127 34.4183 8.60851 34.2041 9.05576C34.0312 9.503 33.7306 9.65283 33.3009 9.503C32.8274 9.27938 32.4841 9.12955 32.2686 9.05576C30.248 8.75834 28.5692 10.0621 27.2363 12.9691C27.537 10.8067 28.6776 8.98196 30.6557 7.4904C32.7628 5.99884 34.3112 6.22246 35.3009 8.16127Z" fill="#FFD465"/>
<path fill-rule="evenodd" clip-rule="evenodd" d="M46.0749 11.966H45.462C45.8801 12.0242 46.1059 12.2858 46.1394 12.751C46.182 13.348 45.8814 13.6812 45.2362 13.7573C44.9356 13.8311 44.5059 13.6812 43.9459 13.31C43.4723 12.9366 43.0852 12.8248 42.7846 12.9746C42.6129 13.0484 42.4194 13.31 42.2039 13.7595C41.9471 14.2045 41.7523 14.4304 41.6245 14.4304C41.3239 14.5042 41.1291 14.4304 41.0439 14.2045C40.871 13.9809 40.7213 13.8333 40.591 13.7595C40.2465 13.6097 39.9239 13.348 39.6232 12.9746C39.151 12.4535 38.871 12.1561 38.7858 12.0823C38.1406 11.5613 37.6245 11.4092 37.2374 11.6351C37.0645 11.7089 36.6142 12.1203 35.8826 12.865C35.4516 13.2385 34.8722 13.5359 34.1393 13.7595C33.3651 14.0569 32.7638 14.3566 32.3341 14.6518L30.5922 16.3289C30.2477 16.2551 30.0541 15.9957 30.0115 15.5462C29.9689 15.1728 30.076 14.7993 30.3341 14.4281C30.4631 14.2023 30.7212 14.0927 31.1083 14.0927C31.3238 14.0189 31.6025 13.9809 31.947 13.9809C32.0761 13.9071 32.6361 13.4956 33.6245 12.751C34.3122 12.3037 35.409 11.407 36.9148 10.0675C38.2903 9.173 39.4736 9.06119 40.4632 9.73205C40.7639 9.95568 41.1729 10.4767 41.6891 11.2974C42.0762 11.8945 42.4839 12.1919 42.9149 12.1919C43 12.1919 43.5381 11.9303 44.5278 11.407C45.1717 11.1096 45.6878 11.2952 46.0749 11.966Z" fill="#FFD465"/>
<path fill-rule="evenodd" clip-rule="evenodd" d="M27.4298 14.8709V14.9246C27.2956 16.0069 26.9524 16.6219 26.3976 16.7695C26.0969 16.8433 25.4943 16.7695 24.5911 16.5459C23.5162 16.1724 22.8272 16.1724 22.5266 16.5459C22.484 16.5459 22.0104 17.4023 21.1072 19.1153C20.4194 18.5182 20.3768 17.6998 20.9781 16.6554C21.4943 15.6849 22.0749 15.0521 22.7201 14.7524C23.4078 14.3812 24.2259 14.1934 25.1717 14.1934C25.7963 14.1934 26.355 14.3074 26.8492 14.5288C27.0543 14.6272 27.2479 14.7412 27.4298 14.8709Z" fill="#FFD465"/>
<path fill-rule="evenodd" clip-rule="evenodd" d="M31.882 17.8896L31.4304 17.2188C31.5168 17.2188 31.7955 17.2925 32.2691 17.4424C32.3129 18.4129 31.9684 19.0815 31.2368 19.455C30.7207 19.6786 30.1181 19.6786 29.4303 19.455C28.6987 19.0815 28.1181 18.8579 27.6884 18.7841C26.8277 18.6343 26.5916 19.1553 26.9787 20.3472C27.1077 20.7945 28.0755 21.2059 29.8819 21.5794C30.4845 21.803 30.9787 22.1765 31.3658 22.6975C31.9246 23.3684 31.7529 23.9274 30.8497 24.3747C30.5491 24.5983 30.0549 24.2986 29.3658 23.4802C28.549 22.4359 28.0535 21.8768 27.8819 21.803C27.0213 21.5794 26.42 21.3915 26.0755 21.244C25.5155 20.9443 25.3877 20.2734 25.6884 19.2314C26.0755 18.1132 27.0432 17.5162 28.5916 17.4424C29.8394 17.2925 30.9362 17.4424 31.882 17.8896Z" fill="#FFD465"/>
<path fill-rule="evenodd" clip-rule="evenodd" d="M42.204 15.8794C41.6879 17.8183 40.8492 18.3035 39.6879 17.333C38.3975 16.2149 37.5369 16.1031 37.1072 16.9976C36.8491 17.5186 36.8698 18.1157 37.1717 18.7888C37.4724 19.5334 37.5795 20.1663 37.4943 20.6896C37.2788 21.6601 36.764 22.2549 35.9459 22.4785C35.2156 22.6261 34.5265 22.4785 33.8813 22.0313C34.0104 21.8837 34.5046 21.6981 35.3639 21.4722C36.0517 21.2486 36.4169 20.6896 36.462 19.7951C36.5046 19.3501 36.2685 18.6032 35.751 17.5589C35.4065 16.8142 35.4943 16.0315 36.0091 15.2108C36.4827 14.5399 36.9769 14.3186 37.493 14.5399C37.7936 14.6875 38.3098 14.9872 39.0414 15.4344C39.9008 15.6916 40.9563 15.8392 42.204 15.8794Z" fill="#FFD465"/>
<path fill-rule="evenodd" clip-rule="evenodd" d="M34.0757 10.2903C33.4744 10.4379 32.9789 10.5877 32.5918 10.7375C32.2047 10.8851 31.6886 11.5224 31.0434 12.6405C30.3982 13.6088 29.9247 14.0918 29.624 14.0918C29.7531 12.0815 30.5273 10.3641 31.9466 8.94853C33.3054 7.53747 34.4331 7.47933 35.3338 8.78081L35.366 8.83672C35.3402 8.89039 35.3196 8.94629 35.3015 9.00443C34.926 9.72226 34.5183 10.1516 34.0757 10.2903Z" fill="#91793A"/>
<path fill-rule="evenodd" clip-rule="evenodd" d="M46.01 14.8711C45.7958 15.1685 45.5377 15.8752 45.2358 16.9933C44.8912 18.0376 44.5906 18.7845 44.3325 19.2295C44.3751 18.1874 44.4177 17.3287 44.4616 16.6601C44.548 15.3944 44.7416 14.6833 45.0422 14.5357C45.2577 14.4619 45.5803 14.5737 46.01 14.8711Z" fill="#91793A"/>
<path fill-rule="evenodd" clip-rule="evenodd" d="M42.4618 20.5705C43.2799 20.5705 43.9031 20.1233 44.3328 19.2266C44.2903 20.1971 44.2038 21.5008 44.0748 23.14C43.9896 24.5577 43.8373 25.7876 43.6231 26.8297C42.8051 26.8297 42.2902 26.9773 42.0747 27.277C41.7302 27.6482 41.0644 27.874 40.0747 27.9478C38.7418 28.0954 38.0089 28.1715 37.8812 28.1715C36.676 28.3973 35.9237 28.6925 35.6231 29.066C35.4076 29.2896 35.1714 29.6988 34.9134 30.2959C34.5689 30.9667 34.3108 31.414 34.1379 31.6398C32.805 33.4288 31.4282 33.6882 30.0088 32.4225C27.7288 30.5598 26.4385 29.5892 26.1378 29.5154C25.1055 29.2896 24.5249 29.142 24.3959 29.0682C23.8797 28.8446 23.4062 28.3235 22.9765 27.5028L22.3971 26.2729C22.1816 25.8257 21.9455 25.4902 21.6874 25.2666C20.9984 25.1928 20.4823 25.0072 20.139 24.7075C19.2358 24.0367 18.7842 22.8828 18.7842 21.2414C19.3003 20.6443 19.7739 20.4587 20.2035 20.6823C20.4616 20.8299 20.9132 21.2414 21.5584 21.9123C22.032 22.2857 22.6333 22.4333 23.3649 22.3595C24.3546 22.3595 24.9778 22.3975 25.2359 22.4713C25.9236 22.6189 26.4823 22.9924 26.9133 23.5894C27.2139 24.0367 27.5804 24.7813 28.0101 25.8257C28.7404 27.5408 29.472 28.6947 30.2037 29.2918C31.2359 30.1863 32.0966 29.7033 32.7843 27.8405C33.0424 27.2434 33.2579 26.5748 33.4295 25.8279C33.645 25.4567 34.1392 25.3069 34.9134 25.3807C35.3005 25.4567 35.8811 25.5685 36.6553 25.7161C37.3857 25.8637 37.9883 25.7541 38.4618 25.3807C38.9341 25.0832 39.2141 24.5622 39.2992 23.8175C39.4296 22.6994 39.5792 21.8787 39.7521 21.3554C40.1392 20.2373 40.547 19.7521 40.978 19.9041C41.236 19.9757 41.7302 20.1971 42.4618 20.5705Z" fill="#91793A"/>
<path fill-rule="evenodd" clip-rule="evenodd" d="M48.7848 14.3086V14.7536C48.7848 15.2746 48.8493 15.7241 48.977 16.0976C49.0635 16.3212 49.1925 16.6186 49.3654 16.9898L48.6545 17.4371C48.2674 17.5108 47.817 17.2134 47.2996 16.5448C46.7396 15.7241 46.3099 15.165 46.0093 14.8676C46.4402 14.2706 47.0415 14.1587 47.8157 14.5322L47.9448 13.8613L48.7848 14.3086Z" fill="#91793A"/>
<path fill-rule="evenodd" clip-rule="evenodd" d="M33.3648 23.5917C33.6229 24.5623 33.3648 24.9715 32.5906 24.8217C32.6345 23.9272 32.3971 23.0685 31.8809 22.25C31.4074 21.3555 30.8912 20.8322 30.3325 20.6846C30.3325 20.1636 30.8925 19.6783 32.01 19.2311C33.1248 18.8308 33.8229 18.3098 34.1068 17.668C34.3132 17.791 34.4745 18.0504 34.5906 18.4506C34.4603 18.8241 34.0745 19.2691 33.4293 19.7924C32.9132 20.2396 32.6771 20.7987 32.7196 21.4696C32.7196 21.6909 32.9351 22.3998 33.3648 23.5917Z" fill="#91793A"/>
<path fill-rule="evenodd" clip-rule="evenodd" d="M27.3011 15.4304L27.4301 14.7573C27.4301 14.2362 27.5372 13.827 27.7527 13.5273L28.8495 14.6455C28.9785 15.7636 28.8714 16.4344 28.5269 16.6581C27.9682 16.8056 27.5166 16.9913 27.1721 17.2171C27.0004 17.3692 26.5914 17.8522 25.9462 18.6729C25.4727 19.1939 24.9785 19.4198 24.4624 19.346C24.4198 18.3017 24.8495 17.519 25.7527 16.9957C26.785 16.2511 27.3875 15.654 27.5592 15.2067C27.5166 15.0569 27.4301 15.133 27.3011 15.4304Z" fill="#91793A"/>
<path fill-rule="evenodd" clip-rule="evenodd" d="M48.0747 23.036C46.7405 23.4095 45.9237 23.7427 45.6231 24.0423L44.8489 26.0549C44.5044 27.0232 44.0953 27.3586 43.6231 27.059C43.1495 26.6878 43.1921 26.1287 43.7521 25.3818C44.3973 24.4135 44.6979 23.8187 44.6553 23.5928C44.6128 23.1456 44.2902 22.8482 43.6876 22.7006C43.2153 22.4747 43.0644 21.9157 43.236 21.0234C43.4502 19.6056 44.3108 19.3462 45.8167 20.2385C47.0076 20.8646 47.6954 20.6231 47.8812 19.5117C48.0412 19.6123 48.4283 19.7778 49.0425 20.0171C49.6012 20.2407 49.9019 20.688 49.9444 21.3588C49.9883 22.1057 49.7948 22.5507 49.3651 22.7028C48.8064 22.8504 48.3767 22.9622 48.0747 23.036Z" fill="#91793A"/>
<path fill-rule="evenodd" clip-rule="evenodd" d="M18.3969 10.3996C19.5582 8.7605 22.2899 8.31325 26.5906 9.05791C25.2151 10.0284 23.8589 11.2561 22.526 12.7477C19.8589 15.8024 18.5905 18.7497 18.7195 21.5808C18.806 24.0406 19.8382 25.4562 21.8163 25.8274C23.6228 26.127 24.4409 26.9075 24.268 28.1754C23.9235 30.9327 22.397 32.536 19.6873 32.9833C16.7621 33.4305 14.5259 31.3799 12.9775 26.8337C11.5156 22.6609 11.9878 18.6714 14.3969 14.8699C15.6008 12.9333 16.935 11.4417 18.3969 10.3996Z" fill="#F9BE70"/>
<path fill-rule="evenodd" clip-rule="evenodd" d="M17.3005 11.8523C18.7638 10.5105 20.1819 9.50423 21.5587 8.83336C23.7522 7.86284 26.1393 7.86284 28.72 8.83336C25.9677 10.1751 23.9251 11.4408 22.5909 12.6349C21.7741 13.3058 20.8928 14.4977 19.9457 16.2129L18.849 18.5609C18.5483 16.772 18.1612 15.5801 17.6876 14.983C17.387 14.6095 16.9354 14.3121 16.3328 14.0885L15.5586 13.7531L17.3005 11.8523Z" fill="#D9742E"/>
<path fill-rule="evenodd" clip-rule="evenodd" d="M13.5586 28.6198C13.4296 28.3962 13.3225 28.1345 13.236 27.8371C13.0205 27.24 12.9354 26.9046 12.9779 26.8308C13.0631 26.6832 12.7625 25.6747 12.0747 23.8119L12.9779 22.2465C13.7083 21.0546 14.3754 20.1579 14.978 19.5631C15.9238 18.7446 17.107 18.7446 18.5264 19.5631L18.7199 23.5883C17.5586 23.141 16.5483 23.3646 15.6876 24.2591C15.1715 24.8562 14.6554 25.7507 14.1392 26.9426L13.5586 28.6198Z" fill="#D9742E"/>
<path fill-rule="evenodd" clip-rule="evenodd" d="M19.5584 25.1582L21.5585 25.9409L20.7197 28.6244C20.5907 29.2214 20.5688 29.9303 20.6552 30.7488C20.6991 31.196 20.7623 31.5672 20.8488 31.8669C19.9881 32.6115 19.3223 33.0588 18.8488 33.2086C18.5481 33.2846 18.1817 33.1348 17.752 32.7636L17.2358 32.0905C17.3649 30.0801 17.5158 28.6243 17.6875 27.7321C17.8165 27.2111 18.161 26.614 18.7197 25.9409C19.0204 25.6435 19.3004 25.3818 19.5584 25.1582Z" fill="#D9742E"/>
<path fill-rule="evenodd" clip-rule="evenodd" d="M16.139 16.9964C15.3222 17.0724 14.5261 17.4078 13.7519 18.0027L12.8486 18.7876L13.3003 17.3318C13.6009 16.2875 13.8809 15.5808 14.139 15.2074C14.4835 14.6103 15.2358 13.6778 16.3971 12.4121L18.5261 12.638C19.5158 12.638 20.2461 13.2708 20.7197 14.5388L18.8487 18.564C18.3751 17.3698 17.4732 16.8465 16.139 16.9964Z" fill="#E15E18"/>
<path fill-rule="evenodd" clip-rule="evenodd" d="M17.4294 24.708V24.4844C17.8591 24.708 18.01 25.191 17.881 25.9357C17.752 26.6088 17.4939 27.1298 17.1068 27.501C16.5481 26.8302 16.2681 26.1973 16.2681 25.6002C16.2681 25.0032 16.6552 24.708 17.4294 24.708Z" fill="#FFE0B7"/>
<path fill-rule="evenodd" clip-rule="evenodd" d="M22.1069 26.7207C22.2927 26.9533 22.5831 27.2909 22.9779 27.727C23.3224 28.248 23.1934 28.7311 22.5908 29.1783C22.0747 29.5518 21.774 29.2901 21.6876 28.3956C21.6127 27.613 21.7521 27.0539 22.1069 26.7207Z" fill="#FFE0B7"/>
<path fill-rule="evenodd" clip-rule="evenodd" d="M16.8487 17.8889L16.397 17.6653C16.9996 17.5893 17.5583 17.6653 18.0745 17.8889C18.0745 18.41 17.859 18.8594 17.4293 19.2307C16.9996 19.5303 16.6125 19.5303 16.268 19.2307C15.8809 18.9332 15.7738 18.5978 15.9454 18.2266C16.1609 17.8509 16.4616 17.7413 16.8487 17.8889Z" fill="#FFE0B7"/>
<path fill-rule="evenodd" clip-rule="evenodd" d="M18.0425 12.1878C18.4128 11.7383 18.8322 11.215 19.3005 10.6224C20.3328 9.43053 21.2786 8.68363 22.1393 8.38621C23.0851 8.16259 24.0322 8.05078 24.978 8.05078C26.3109 8.12458 27.129 8.53604 27.4297 9.2807C27.4735 9.2807 27.4077 9.43053 27.2361 9.72795C26.4619 8.83346 25.3225 8.72165 23.8167 9.39252C22.1819 10.3608 21.0425 10.9221 20.3973 11.0697C19.4683 11.3626 18.6838 11.7338 18.0425 12.1878ZM16.8166 13.4177C16.0618 14.4218 15.5341 15.7658 15.236 17.4429C14.7624 17.2953 14.2682 17.2953 13.7521 17.4429C13.5147 17.5257 13.3211 17.6375 13.1715 17.7784L13.365 17.2193L13.1069 17.6665C13.1069 16.4724 13.5366 15.4683 14.3973 14.6454C14.8708 14.1244 15.6231 13.5295 16.6554 12.8587C16.725 13.0957 16.7779 13.2835 16.8166 13.4177C16.9263 13.2612 17.045 13.1091 17.1715 12.9705C17.4244 12.6865 17.7147 12.4271 18.0425 12.1878C17.547 12.8095 17.1483 13.2947 16.8489 13.6391L16.8166 13.4177Z" fill="#A84612"/>
<path fill-rule="evenodd" clip-rule="evenodd" d="M13.6876 21.8034C13.645 22.5481 13.7095 23.6662 13.8811 25.1578C14.0102 26.4235 13.9882 27.5058 13.8166 28.4003C13.2566 27.953 12.8708 26.9087 12.6553 25.2696C12.3973 23.5544 12.4618 22.3267 12.8489 21.582L13.6876 21.8034Z" fill="#A84612"/>
<path fill-rule="evenodd" clip-rule="evenodd" d="M17.4941 29.1809C18.1832 29.5319 18.9148 29.4201 19.6877 28.8477C20.0748 29.1451 20.2903 29.7399 20.3329 30.6366C20.3768 31.1577 20.3974 31.9404 20.3974 32.9847C19.1496 33.2843 18.44 33.3581 18.2683 33.2083C18.0529 32.9109 17.9677 32.4256 18.0103 31.757V30.1916L17.4941 29.1809Z" fill="#A84612"/>
<path fill-rule="evenodd" clip-rule="evenodd" d="M31.3005 12.8545C29.9676 13.825 28.6347 15.0527 27.3005 16.5443C24.6347 19.5989 23.3443 22.5441 23.4295 25.3751C23.5159 27.8372 24.5482 29.2147 26.5263 29.5144C28.3753 29.8118 29.2141 30.5945 29.0424 31.8624C28.6979 34.6197 27.1715 36.223 24.4617 36.6703C21.494 37.1913 19.2359 35.1787 17.6875 30.6325C16.2681 26.3837 16.7623 22.3584 19.1714 18.5569C20.3765 16.6203 21.7095 15.1287 23.1714 14.0844C24.2901 12.5191 26.9998 12.1098 31.3005 12.8545Z" fill="#F9BE70"/>
<path fill-rule="evenodd" clip-rule="evenodd" d="M20.2686 17.4407L22.0105 15.5399C23.4725 14.196 24.8918 13.2299 26.2686 12.6328C28.4622 11.5885 30.8493 11.5885 33.43 12.6328C30.6777 13.8986 28.6351 15.1285 27.3009 16.3204C26.4841 17.0673 25.6028 18.2972 24.6557 20.0102L23.5589 22.2464C23.3008 20.4574 22.9137 19.3035 22.3976 18.7802C22.097 18.4068 21.6453 18.0713 21.0428 17.7739L20.2686 17.4407Z" fill="#D9742E"/>
<path fill-rule="evenodd" clip-rule="evenodd" d="M19.6879 23.3681C20.6337 22.4736 21.8388 22.4736 23.3008 23.3681L23.4298 27.2815C22.2685 26.8343 21.2582 27.0557 20.3975 27.9524C19.8814 28.5495 19.3653 29.444 18.8491 30.6359L18.2685 32.313C18.1395 32.0872 18.0324 31.8278 17.9459 31.5281C17.7304 31.0071 17.6453 30.7097 17.6878 30.6359C17.773 30.4883 17.4943 29.444 16.8491 27.5051L17.7524 25.9398C18.4414 24.8217 19.0866 23.9652 19.6879 23.3681Z" fill="#D9742E"/>
<path fill-rule="evenodd" clip-rule="evenodd" d="M22.3969 31.5289C22.5259 31.0079 22.8704 30.4108 23.4291 29.7399C23.7298 29.3687 24.0098 29.069 24.2679 28.8477L26.2679 29.7399L25.4292 32.3116C25.2575 33.2038 25.3001 34.3219 25.5582 35.6659C24.6975 36.4106 24.0304 36.8578 23.5582 37.0076C23.2575 37.0814 22.913 36.9338 22.5259 36.5604L22.0098 35.8895C22.0962 33.8009 22.2253 32.3496 22.3969 31.5289Z" fill="#D9742E"/>
<path fill-rule="evenodd" clip-rule="evenodd" d="M25.4292 18.3356L23.5582 22.2489C23.0846 21.057 22.1827 20.5338 20.8485 20.6836C20.0317 20.7574 19.2355 21.0951 18.4613 21.6899L17.5581 22.4726L18.0097 21.0213C18.3104 19.9769 18.5904 19.3061 18.8484 19.0087C19.2355 18.4116 19.9878 17.4433 21.1065 16.1016L23.3001 16.3252C24.2472 16.3229 24.9556 16.9938 25.4292 18.3356Z" fill="#E15E18"/>
<path fill-rule="evenodd" clip-rule="evenodd" d="M22.1393 28.3975V28.1738C22.569 28.3997 22.72 28.8827 22.5909 29.6274C22.4619 30.2982 22.2038 30.8573 21.8167 31.3045C21.258 30.5599 20.978 29.927 20.978 29.4038C20.978 28.8089 21.3651 28.4712 22.1393 28.3975Z" fill="#FFE0B7"/>
<path fill-rule="evenodd" clip-rule="evenodd" d="M26.8492 30.5254C27.3279 31.0554 27.6079 31.393 27.6879 31.5295C28.0324 32.0505 27.9034 32.5358 27.3008 32.983C26.7847 33.3565 26.506 33.0948 26.4621 32.2003C26.386 31.4176 26.515 30.8586 26.8492 30.5254Z" fill="#FFE0B7"/>
<path fill-rule="evenodd" clip-rule="evenodd" d="M21.5586 21.5774L21.107 21.3538C21.667 21.28 22.2464 21.3538 22.8489 21.5796C22.8064 22.1767 22.5689 22.6217 22.1393 22.9214C21.7096 23.221 21.3225 23.221 20.978 22.9214C20.5909 22.6217 20.5044 22.2885 20.7199 21.9151C20.8915 21.5416 21.1715 21.4276 21.5586 21.5774Z" fill="#FFE0B7"/>
<path fill-rule="evenodd" clip-rule="evenodd" d="M21.3653 16.5473L21.5265 17.16C20.7743 18.1104 20.2465 19.4342 19.9459 21.1293C19.4723 20.9817 18.9781 20.9817 18.462 21.1293C18.2568 21.1986 18.0852 21.2925 17.9459 21.4088L18.1394 20.9034L17.8813 21.3507C17.8813 20.1588 18.311 19.1525 19.1717 18.3318C19.6452 17.8152 20.3769 17.2181 21.3653 16.5473ZM26.8492 12.1866C27.7098 11.887 28.6557 11.7752 29.6879 11.8512C31.0221 11.8512 31.8608 12.2627 32.2041 13.0811L32.0105 13.4166C31.2363 12.5981 30.097 12.5221 28.5911 13.1929C26.9563 14.1612 25.8169 14.7203 25.1717 14.8701C24.244 15.1541 23.4595 15.5074 22.8169 15.9323C23.1872 15.4761 23.6066 14.935 24.075 14.3111C25.0646 13.1169 25.9885 12.4103 26.8492 12.1866Z" fill="#A84612"/>
<path fill-rule="evenodd" clip-rule="evenodd" d="M18.3976 25.6067C18.355 26.3514 18.4195 27.4315 18.5911 28.8492C18.7201 30.1149 18.6982 31.1973 18.5266 32.0895C18.0105 31.7183 17.6234 30.674 17.3653 28.9611C17.1072 27.3219 17.1717 26.1278 17.5588 25.3809L18.3976 25.6067Z" fill="#A84612"/>
<path fill-rule="evenodd" clip-rule="evenodd" d="M21.8811 32.762C21.8385 32.6122 21.8385 32.5361 21.8811 32.5361C21.9662 32.4623 22.0101 32.3885 22.0101 32.3125L22.3004 32.9252C22.983 33.1734 23.6824 33.0795 24.3972 32.6457C24.7843 32.9454 24.9998 33.5402 25.0424 34.4369C25.0862 34.958 25.1069 35.7026 25.1069 36.6731C23.8591 36.9706 23.1714 37.0444 23.0424 36.8968C22.8269 36.6731 22.7198 36.1901 22.7198 35.4432V33.8801L22.3004 32.9275C22.1585 32.8939 22.0191 32.838 21.8811 32.762Z" fill="#A84612"/>
<path fill-rule="evenodd" clip-rule="evenodd" d="M27.7525 20.0142C28.1822 18.6702 29.5164 17.2927 31.7526 15.8749C32.8713 15.1303 33.9461 14.5332 34.9784 14.0859C33.9461 15.7251 33.0003 17.6281 32.1397 19.7883C30.4197 24.187 29.968 27.6531 30.7848 30.1868C31.5164 32.423 32.8274 33.1296 34.7203 32.3112C36.4842 31.4905 37.452 31.7521 37.6236 33.0939C37.9681 35.7773 36.9565 38.1254 34.5913 40.138C31.9668 42.3004 29.3861 41.7413 26.8493 38.4608C24.4402 35.4039 23.8815 31.4167 25.1719 26.4948L27.7525 20.0142Z" fill="#F9BE70"/>
<path fill-rule="evenodd" clip-rule="evenodd" d="M36.9132 12.6348C34.677 15.4681 33.0847 17.8139 32.1389 19.6766C31.5376 20.8685 31.0421 22.4719 30.655 24.4845C30.4396 25.5288 30.2899 26.4591 30.2034 27.2798C29.4731 25.862 28.8279 25.0056 28.2679 24.7081C27.8808 24.5606 27.3866 24.5225 26.784 24.5963L25.9453 24.7104L27.1066 22.0269C28.0963 19.9405 29.1492 18.1895 30.2679 16.7718C32.0744 14.5356 34.2899 13.158 36.9132 12.6348Z" fill="#D9742E"/>
<path fill-rule="evenodd" clip-rule="evenodd" d="M27.817 39.6948C27.6454 39.5472 27.4725 39.3594 27.3009 39.1357C26.9563 38.7623 26.8067 38.5387 26.8492 38.4649C26.8918 38.239 26.355 37.4586 25.2363 36.1168C25.3654 35.5198 25.515 34.8489 25.6879 34.1042C26.075 32.6127 26.4621 31.4208 26.8492 30.5263C27.537 29.1823 28.6557 28.5137 30.2041 28.5137L31.3009 32.0916C30.1396 32.3175 29.2583 33.0979 28.6557 34.4419C28.3112 35.2604 28.0751 36.3785 27.946 37.7962C27.8596 38.5387 27.817 39.1738 27.817 39.6948Z" fill="#D9742E"/>
<path fill-rule="evenodd" clip-rule="evenodd" d="M32.4624 32.9819L34.5283 32.6465L34.3979 35.5536C34.4405 36.4458 34.7631 37.4164 35.3657 38.4607C34.7631 39.6526 34.2483 40.471 33.8173 40.9205C33.5592 41.1464 33.1941 41.1822 32.7205 41.0323L32.0753 40.8087C31.6882 38.8721 31.4728 37.4164 31.4302 36.4481C31.3876 35.927 31.5592 35.1824 31.9463 34.2118C32.1179 33.7646 32.2908 33.3554 32.4624 32.9819Z" fill="#D9742E"/>
<path fill-rule="evenodd" clip-rule="evenodd" d="M30.9134 22.5855L30.2037 27.2816C29.4734 26.4609 28.5056 26.5347 27.3005 27.5052C26.5701 28.1023 25.903 28.8492 25.3004 29.7414L24.6553 30.9713C24.6553 30.5263 24.6772 30.003 24.7198 29.4082C24.7637 28.2901 24.8488 27.4694 24.9779 26.9461L26.3972 23.0327L28.4618 22.0264C29.3224 21.4294 30.1392 21.6172 30.9134 22.5855Z" fill="#E15E18"/>
<path fill-rule="evenodd" clip-rule="evenodd" d="M30.397 33.7663L30.3325 33.6545C30.8061 33.5807 31.0641 33.9162 31.1067 34.6608C31.1493 35.3317 31.0641 36.0025 30.8486 36.6734C30.1183 36.3738 29.6873 35.9645 29.5583 35.4413C29.3867 34.8464 29.6654 34.2874 30.397 33.7663Z" fill="#FFE0B7"/>
<path fill-rule="evenodd" clip-rule="evenodd" d="M35.2362 33.043C35.4608 33.1145 35.8259 33.2465 36.333 33.4343C36.764 33.7317 36.7408 34.2528 36.2685 34.9997C35.8814 35.6705 35.5588 35.5967 35.3008 34.7738C35.0491 34.0873 35.0272 33.5103 35.2362 33.043Z" fill="#FFE0B7"/>
<path fill-rule="evenodd" clip-rule="evenodd" d="M28.1396 27.8408H27.6879C28.3757 27.3935 28.9357 27.1699 29.3654 27.1699C29.4944 27.691 29.3873 28.212 29.0428 28.733C28.6983 29.2541 28.3331 29.4799 27.946 29.4061C27.5163 29.3301 27.3447 29.0707 27.4299 28.6212C27.5163 28.2523 27.7525 27.9906 28.1396 27.8408Z" fill="#FFE0B7"/>
<path fill-rule="evenodd" clip-rule="evenodd" d="M27.0425 23.7026C26.5844 25.0623 26.4128 26.6298 26.5263 28.4009C26.0966 28.4747 25.6437 28.7341 25.1715 29.1836C24.9895 29.3782 24.8489 29.566 24.7521 29.7427L24.7844 29.2954L24.6553 29.7427C24.3547 28.6246 24.4837 27.4327 25.0424 26.1647C25.387 25.4938 25.9676 24.5256 26.7844 23.2576L27.0425 23.7026ZM35.8813 13.7514L35.7522 14.1987C34.8503 13.9013 33.7741 14.4983 32.5264 15.9899C31.2786 17.8527 30.3754 19.0446 29.8167 19.5678C29.0205 20.3572 28.3754 21.1399 27.8812 21.9159C27.5805 22.7902 27.3431 23.4589 27.1715 23.9285L27.0425 23.7026C27.0992 23.5081 27.1637 23.3225 27.236 23.1436C27.4102 22.7388 27.6257 22.3318 27.8812 21.9136C28.1031 21.2853 28.3612 20.5384 28.6554 19.6774C29.3005 17.9622 29.9883 16.7345 30.7199 15.9899C31.5367 15.1692 32.3754 14.5363 33.2361 14.0869C34.4825 13.3422 35.3651 13.2304 35.8813 13.7514Z" fill="#A84612"/>
<path fill-rule="evenodd" clip-rule="evenodd" d="M26.2034 33.3203C26.3325 33.9912 26.677 34.9975 27.2357 36.3392C27.6654 37.3835 27.9028 38.3898 27.9454 39.3581C27.3441 39.2105 26.7196 38.4659 26.0744 37.1219C25.4292 35.7802 25.1918 34.6263 25.3647 33.6557L26.2034 33.3203Z" fill="#A84612"/>
<path fill-rule="evenodd" clip-rule="evenodd" d="M31.6557 37.9592C31.5176 37.9972 31.377 38.0151 31.2363 38.0151C31.1499 37.8675 31.1292 37.7557 31.1718 37.6796C31.2157 37.6796 31.2363 37.6416 31.2363 37.5678L31.6557 37.9592C32.3421 37.816 32.955 37.2726 33.4944 36.3379C33.9241 36.4117 34.2905 36.8589 34.5912 37.6796L35.2364 39.6922C34.1176 40.7365 33.4725 41.2218 33.3009 41.1458C33.0428 41.0697 32.8492 40.6985 32.7202 40.0277C32.5047 39.207 32.355 38.7217 32.2686 38.5741L31.6557 37.9592Z" fill="#A84612"/>
<path fill-rule="evenodd" clip-rule="evenodd" d="M45.4294 9.50396C48.054 14.2 49.8385 17.2189 50.7843 18.5607C50.9134 18.7865 52.2037 20.3116 54.6554 23.1449C55.9457 24.6365 56.4412 25.7546 56.1392 26.4993C55.6231 27.7672 54.6554 27.6934 53.236 26.2756C54.0528 28.1384 54.1599 29.3706 53.5586 29.9654C53.1702 30.4104 52.6334 30.189 51.9456 29.2923L50.9779 27.9506L49.1069 30.075C45.2785 23.3663 42.6552 19.0795 41.2346 17.2167C40.3326 16.0248 38.7403 13.5627 36.4616 9.83715L33.3003 4.58426L36.5261 6.70868L33.3003 0L38.3313 6.03781L36.5261 0.223623L44.6552 14.5355L41.8165 2.79528L45.4294 9.50396Z" fill="#3B5200"/>
<path fill-rule="evenodd" clip-rule="evenodd" d="M56.1399 26.4997C55.6237 27.7677 54.656 27.6939 53.2366 26.2761C54.3115 28.2887 54.5269 29.5924 53.8818 30.1895C53.4934 30.6367 52.8921 30.563 52.0753 29.9659L50.914 28.9596C50.3992 29.7042 49.7966 30.0777 49.1088 30.0777C48.7643 30.0777 48.3553 29.5924 47.883 28.6241C47.1527 26.8352 46.5927 25.6433 46.2056 25.0462L46.9798 24.5989C47.1101 24.5251 47.3875 24.4871 47.8185 24.4871C48.163 24.4133 48.3991 24.2993 48.5282 24.1517C48.7437 24.0041 48.9153 23.5546 49.0443 22.81C49.1733 22.6624 49.9682 22.5103 51.4314 22.3627C52.4637 22.2889 52.8069 21.7299 52.4637 20.6855C54.2702 22.7742 55.2173 23.8543 55.3024 23.9281C56.1192 25.0462 56.3979 25.9027 56.1399 26.4997Z" fill="#92A661"/>
<path fill-rule="evenodd" clip-rule="evenodd" d="M36.2041 6.70703L36.9138 7.04246C37.5164 7.48971 38.097 8.16058 38.6557 9.05507C39.4738 10.2492 41.2803 13.0803 44.0751 17.5527C46.9565 22.1012 48.3771 24.3754 48.3333 24.3754C47.9887 24.3754 47.2803 23.3691 46.2055 21.3543C45.8184 20.6096 44.0326 17.962 40.8506 13.4157L36.2041 6.70703Z" fill="#90A701"/>
<path fill-rule="evenodd" clip-rule="evenodd" d="M34.0747 1.23192L40.3328 9.28233L37.4296 0.896484L47.1716 17.8918L42.4619 11.5186L47.8168 21.0225L34.0747 1.23192Z" fill="#90A701"/>
<path fill-rule="evenodd" clip-rule="evenodd" d="M45.3012 10.175L42.8496 4.47266L53.1723 21.9152C50.3774 19.0819 48.7645 17.331 48.3335 16.6601C48.0316 16.2128 47.0213 14.0504 45.3012 10.175Z" fill="#90A701"/>
<path fill-rule="evenodd" clip-rule="evenodd" d="M53.1393 22.3066C53.2658 22.5638 53.4696 22.6555 53.7522 22.5862C53.8374 22.5862 54.0748 22.8478 54.4619 23.3711C55.2374 24.3416 55.4516 25.0482 55.1071 25.4955C54.8929 25.8667 54.44 25.6073 53.7522 24.7106C53.28 23.8921 53.0219 23.3331 52.978 23.0334C53.1071 22.8098 53.1703 22.6219 53.1703 22.4744L53.1393 22.3066Z" fill="#BDD67D"/>
<path fill-rule="evenodd" clip-rule="evenodd" d="M51.946 25.1569L52.7202 26.8341C53.1925 27.8784 53.4299 28.4375 53.4299 28.5113C53.4725 29.7032 53.0648 29.5556 52.2041 28.064C51.5589 27.1718 51.1938 26.5747 51.1073 26.275C51.0647 25.4566 51.0002 24.8215 50.9138 24.3742L50.7202 23.8711C50.968 24.2132 51.3757 24.6426 51.946 25.1569Z" fill="#BDD67D"/>
<path fill-rule="evenodd" clip-rule="evenodd" d="M48.3331 25.6089L48.2686 25.2734L48.9782 26.0584C49.6673 27.2503 50.0118 27.8831 50.0118 27.9591C50.0544 28.63 49.7963 28.7038 49.2363 28.1828C49.0647 27.9591 48.8492 27.5499 48.5911 26.9528C48.3331 26.2797 48.2466 25.8325 48.3331 25.6089Z" fill="#BDD67D"/>
<path fill-rule="evenodd" clip-rule="evenodd" d="M49.3008 23.5957C49.3718 23.6561 49.4583 23.7321 49.5589 23.8216C49.946 24.3426 50.1396 24.9017 50.1396 25.4987C49.9667 25.4987 49.7525 25.2371 49.4944 24.7138C49.2363 24.1167 49.1718 23.7433 49.3008 23.5957Z" fill="#BDD67D"/>
<path fill-rule="evenodd" clip-rule="evenodd" d="M52.3335 23.8134C52.8935 25.0791 53.4303 26.0116 53.9464 26.6087C53.5593 26.3828 53.2793 26.1614 53.1077 25.9356C52.7632 25.3385 52.5051 24.9315 52.3335 24.7056L50.3335 22.1362H50.5258C50.6109 22.2838 50.8703 22.1742 51.3012 21.8008C51.4729 22.3218 51.8174 22.9927 52.3335 23.8134Z" fill="#3B5200"/>
<path fill-rule="evenodd" clip-rule="evenodd" d="M48.9784 21.9184C48.9358 21.8446 48.9784 21.7328 49.1087 21.5852C49.1939 21.4332 49.301 21.3594 49.43 21.3594C49.6016 22.1801 49.8816 22.9985 50.2674 23.8215C50.0533 23.8215 49.8158 23.5956 49.5578 23.1484C49.2132 22.5513 48.9978 22.2181 48.9126 22.1443L48.9784 21.9184Z" fill="#3B5200"/>
<path fill-rule="evenodd" clip-rule="evenodd" d="M48.5267 23.8159V22.5859C48.5693 22.8118 48.8067 23.2948 49.2364 24.0395L49.8816 25.9403C49.9241 26.0901 50.1822 26.6872 50.657 27.7315C51.0016 28.4762 51.2158 29.109 51.3022 29.6323L50.7216 28.7378C50.5487 28.8138 50.377 28.664 50.2054 28.2928C50.0338 27.9193 49.9048 27.6577 49.8183 27.5079C49.4738 26.7632 49.1951 26.2042 48.9796 25.8307C48.6725 25.1643 48.4686 24.5851 48.3667 24.0999L48.5267 23.8159Z" fill="#3B5200"/>
<path fill-rule="evenodd" clip-rule="evenodd" d="M40.0751 14.534L46.5913 24.2616C46.9358 24.8587 47.2145 26.3503 47.43 28.7341L43.0429 21.0213C42.7422 20.5003 41.5151 18.7471 39.3654 15.764C37.3434 13.0067 36.3538 11.627 36.3963 11.627L40.0751 14.534Z" fill="#3B5200"/>
<path fill-rule="evenodd" clip-rule="evenodd" d="M37.4937 18.8969C41.4499 16.2872 44.4603 17.591 46.5261 22.8103C47.3429 24.899 47.579 27.0211 47.2358 29.1836C46.8487 31.4936 45.7725 33.2088 44.0099 34.3269C40.5686 36.6391 38.0099 35.0738 36.3324 29.6308C35.6447 27.4684 35.3866 25.344 35.5582 23.2576C35.7724 21.0974 36.4176 19.6416 37.4937 18.8969Z" fill="#989A13"/>
<path fill-rule="evenodd" clip-rule="evenodd" d="M38.2037 20.4609C41.3444 18.3723 43.7302 19.3808 45.3651 23.4798C46.9999 27.5788 46.3328 30.6 43.3651 32.5366C40.6554 34.4016 38.6334 33.1694 37.3005 28.849C35.9676 24.598 36.2682 21.8027 38.2037 20.4609Z" fill="#C6D077"/>
<path fill-rule="evenodd" clip-rule="evenodd" d="M39.6235 20.0171L40.9784 19.6816L41.301 25.8313L39.6235 20.0171Z" fill="#FEFFEB"/>
<path fill-rule="evenodd" clip-rule="evenodd" d="M45.882 25.8301V28.7372L41.3013 25.8301H45.882Z" fill="#FEFFEB"/>
<path fill-rule="evenodd" clip-rule="evenodd" d="M41.1724 32.7602C40.6124 32.9839 40.1621 32.9839 39.8176 32.7602L38.6562 31.5281L41.1724 26.3848V32.7602Z" fill="#FEFFEB"/>
<path fill-rule="evenodd" clip-rule="evenodd" d="M38.3976 27.3926L38.5267 27.5044C38.6557 27.5782 38.6764 27.804 38.5912 28.1753H38.1396C38.097 27.804 38.1176 27.5782 38.2041 27.5044C38.2712 27.4462 38.3357 27.4105 38.3976 27.3926Z" fill="#FEFFEB"/>
<path fill-rule="evenodd" clip-rule="evenodd" d="M42.9785 29.7417L42.6559 29.5181C43.043 29.2184 43.301 29.2922 43.4301 29.7417C43.603 30.1889 43.581 30.6742 43.3656 31.1952C42.9359 31.1215 42.6778 30.9336 42.5914 30.6362C42.4623 30.3365 42.5914 30.0414 42.9785 29.7417Z" fill="#FEFFEB"/>
<path fill-rule="evenodd" clip-rule="evenodd" d="M39.3017 23.2539L39.1726 22.8066C40.4204 23.6251 40.5701 24.1484 39.6243 24.372C38.463 24.7432 38.3546 24.372 39.3017 23.2539Z" fill="#FEFFEB"/>
<path fill-rule="evenodd" clip-rule="evenodd" d="M42.5263 22.2491L42.1392 22.5823C42.9572 21.6141 43.3224 21.9495 43.2372 23.5886C43.1934 23.9621 43.0218 24.0001 42.7211 23.7004C42.3753 23.4053 42.3121 22.92 42.5263 22.2491Z" fill="#FEFFEB"/>
<path fill-rule="evenodd" clip-rule="evenodd" d="M63.1071 23.4788L63.8814 24.4851L29.1713 45.9529C28.6978 46.0267 20.3106 37.3076 4.00977 19.789L4.84848 19.3418C20.419 35.6662 28.4616 43.8262 28.9778 43.8262C29.3223 43.8262 35.1069 40.4339 46.3328 33.6514C51.9677 30.2993 57.5587 26.9069 63.1071 23.4788Z" fill="#9C8B63"/>
</g>
<defs>
<filter id="filter0_d_51_1345" x="0" y="0" width="68" height="61" filterUnits="userSpaceOnUse" color-interpolation-filters="sRGB">
<feFlood flood-opacity="0" result="BackgroundImageFix"/>
<feColorMatrix in="SourceAlpha" type="matrix" values="0 0 0 0 0 0 0 0 0 0 0 0 0 0 0 0 0 0 127 0" result="hardAlpha"/>
<feOffset dy="4"/>
<feGaussianBlur stdDeviation="2"/>
<feComposite in2="hardAlpha" operator="out"/>
<feColorMatrix type="matrix" values="0 0 0 0 0 0 0 0 0 0 0 0 0 0 0 0 0 0 0.25 0"/>
<feBlend mode="normal" in2="BackgroundImageFix" result="effect1_dropShadow_51_1345"/>
<feBlend mode="normal" in="SourceGraphic" in2="effect1_dropShadow_51_1345" result="shape"/>
</filter>
</defs>
</svg>
