<svg width="275" height="213" viewBox="0 0 275 213" fill="none" xmlns="http://www.w3.org/2000/svg">
<path d="M108 0.466949C88.2667 2.73362 77.7333 4.20028 67.3333 6.46695C34.6667 13.6669 9.73333 27.1336 2.8 41.4003C-8.53333 64.7336 16.9333 87.5336 67.3333 99.1336C92 104.734 102.133 105.267 184.4 105.934L264 106.6V153.8V201H252.667H241.333V191.134C241.333 178.734 240.667 177 236 177C231.333 177 230.667 178.734 230.667 191.134V201H219.467H208.133L207.733 196.2C206.933 186.6 198.4 186.6 197.6 196.2L197.2 201H186H174.8L174.4 189.267L174 177.667H170H166L165.6 189.267L165.2 201H154H142.8L142.4 196.2C141.6 186.6 133.067 186.6 132.267 196.2L131.867 201H120.667H109.467L109.067 188.734C108.667 177 108.533 176.334 105.6 175.934C100 175.134 98.6667 177.8 98.6667 189.267V199.8L92.4 199C76.1333 196.6 76.6667 197 76.2667 189.4C76 184.067 75.3333 182.334 73.4667 181.667C69.3333 180.467 66.8 182.334 65.8667 187.4C65.4667 190.2 65.0667 192.734 64.9333 193.134C64.8 193.534 60.1333 192.734 54.6667 191.134L44.6667 188.2L44.2667 176.334C43.8667 163.4 42.6667 160.6 37.4667 161.267C34.1333 161.667 34 161.934 33.6 171.934C33.3333 177.667 32.8 182.334 32.1333 182.334C29.7333 182.334 16.5333 171.934 13.7333 167.8C10.6667 163.4 10.6667 162.6 10.6667 124.867C10.6667 103.8 10.2667 85.6669 9.86667 84.4669C8.8 81.6669 1.86667 81.6669 0.8 84.4669C0.4 85.6669 0 104.067 0 125.4C0 170.2 0.133333 170.734 11.7333 181.134C27.0667 195 53.3333 204.334 92 209.667C113.067 212.6 271.733 213 273.467 210.067C274.933 207.934 275.067 99.6669 273.6 97.4003C272.8 96.2003 252.533 95.6669 188.667 95.2669C118.4 94.7336 102.267 94.3336 90.2667 92.4669C51.8667 86.4669 22.8 74.6003 13.6 61.0003C-0.266667 40.6003 41.2 17.9336 103.867 11.6669C151.333 7.00028 203.867 15.2669 217.2 29.5336C222.133 34.7336 220 39.0003 210.133 44.467C183.867 59.0003 119.467 63.1336 94.1333 51.9336C87.7333 49.0003 86.8 47.667 89.8667 45.1336C94.4 41.4003 114.8 36.6003 127.333 36.3336C128.133 36.3336 128.933 39.267 129.333 43.0003C129.867 48.7336 130.4 49.667 133.067 50.067C138.4 50.867 140 48.2003 140 38.467C140 24.6003 139.6 24.3336 121.067 26.2003C104 27.8003 94 30.3336 86 35.0003C77.8667 39.667 77.2 41.8003 77.6 62.867C78 78.7336 78.2667 81.5336 80.4 82.8669C82 83.9336 83.3333 83.9336 85.0667 82.8669C86.8 81.6669 87.4667 79.1336 87.7333 71.267L88.1333 61.1336L92.6667 63.1336C102.933 67.4003 121.2 69.4003 144 68.6003C174.533 67.5336 198.4 63.0003 213.733 55.267L220 52.067V67.8003C220 80.3336 220.4 83.9336 222.133 85.5336C224.667 88.0669 227.2 88.2003 229.067 85.9336C229.867 85.0003 230.533 73.8003 230.8 57.667C231.067 35.0003 230.8 30.3336 228.933 26.7336C223.467 16.2003 206 8.46695 175.333 2.73362C165.2 0.866949 118.267 -0.733051 108 0.466949Z" fill="url(#paint0_linear_35_119)"/>
<defs>
<linearGradient id="paint0_linear_35_119" x1="84.5" y1="205" x2="137.318" y2="0.05177" gradientUnits="userSpaceOnUse">
<stop offset="0.0331822" stop-color="#D7BA8C"/>
<stop offset="1" stop-color="#B3C884"/>
</linearGradient>
</defs>
</svg>
