<svg width="235" height="274" viewBox="0 0 235 274" fill="none" xmlns="http://www.w3.org/2000/svg">
<path d="M117.333 1.33302C89.3333 3.73302 64.6667 15.4664 49.7333 33.5997C36.2667 49.9997 28.9333 70.3997 26.8 97.333C25.3333 114.4 25.2 115.066 10.1333 148.533L0 170.933L2.8 174.8C5.2 178.266 6.26667 178.666 12.6667 178.666H19.7333L20.2667 197.6C20.8 217.733 21.6 220.533 28.8 230.266C33.2 236 48.6667 243.6 58.2667 244.666C73.2 246.266 72 244.933 72 260V273.333H125.333H178.667V241.2V209.2L191.6 194.933C224.8 158.133 235.067 136.8 234.933 104.666C234.8 48.6664 193.2 4.93302 136.667 0.933024C132.267 0.666357 123.6 0.799691 117.333 1.33302ZM132.4 4.93302C131.467 5.19969 129.867 5.19969 129.067 4.93302C128.133 4.53302 128.8 4.26636 130.667 4.26636C132.533 4.26636 133.2 4.53302 132.4 4.93302ZM150.933 11.333C162.8 13.733 181.867 23.0664 192.267 31.333C219.467 53.1997 232.8 93.0664 224.133 126.933C218.667 148 210.133 161.6 183.467 190.933L169.333 206.533V236V265.333H124.667H80V251.466V237.733L68.4 237.066C61.3333 236.533 53.7333 235.2 49.3333 233.466C41.3333 230.533 33.0667 223.066 30.8 216.933C30 214.8 29.3333 203.6 29.3333 191.866V170.666H20C14.9333 170.666 10.6667 170.266 10.6667 169.733C10.6667 169.2 15.7333 157.333 22 143.466L33.3333 118L35.3333 99.333C37.3333 79.8664 39.0667 72.133 43.8667 60.133C49.8667 45.1997 62.6667 30.2664 76.4 22.2664C83.4667 17.9997 99.8667 12.3997 109.6 10.7997C120.933 8.93302 140.4 9.19969 150.933 11.333ZM193.467 26.2664C195.2 28.3997 195.067 28.533 193.067 26.7997C191.733 25.8664 190.667 24.7997 190.667 24.533C190.667 23.4664 191.733 24.133 193.467 26.2664ZM204.667 35.9997C206 37.4664 206.8 38.6664 206.4 38.6664C206 38.6664 204.667 37.4664 203.333 35.9997C202 34.533 201.2 33.333 201.6 33.333C202 33.333 203.333 34.533 204.667 35.9997ZM222.4 63.333C222 63.733 221.2 63.0664 220.8 61.733C220 59.8664 220.133 59.733 221.467 60.933C222.4 61.8664 222.8 62.933 222.4 63.333ZM227.6 78.933C227.2 79.9997 226.8 79.5997 226.8 78.133C226.667 76.6664 227.067 75.8664 227.467 76.3997C227.867 76.7997 228 77.9997 227.6 78.933ZM230.267 89.5997C229.867 90.6664 229.467 90.2664 229.467 88.7997C229.333 87.333 229.733 86.533 230.133 87.0664C230.533 87.4664 230.667 88.6664 230.267 89.5997ZM231.6 108.266C231.333 110.666 231.067 108.8 231.067 104C231.067 99.1997 231.333 97.333 231.6 99.5997C231.867 102 231.867 106 231.6 108.266ZM230.267 121.6C229.867 122.533 229.6 121.866 229.6 120C229.6 118.133 229.867 117.466 230.267 118.266C230.533 119.2 230.533 120.8 230.267 121.6ZM228.933 128.266C228.533 129.333 228.133 128.933 228.133 127.466C228 126 228.4 125.2 228.8 125.733C229.2 126.133 229.333 127.333 228.933 128.266ZM220.8 150.533C218.8 154.266 217.067 157.333 216.667 157.333C216.267 157.333 217.6 154 219.6 150C221.6 146 223.467 142.933 223.733 143.2C224 143.466 222.667 146.8 220.8 150.533ZM216 159.2C216 159.466 214.933 160.533 213.733 161.466C211.6 163.2 211.467 163.066 213.2 160.933C214.933 158.8 216 158.133 216 159.2ZM209.333 168.533C209.333 168.8 208.267 169.866 207.067 170.8C204.933 172.533 204.8 172.4 206.533 170.266C208.267 168.133 209.333 167.466 209.333 168.533ZM204 175.066C204 175.333 202.667 176.666 201.067 178.133L198 180.666L200.533 177.6C202.933 174.8 204 174 204 175.066ZM197.333 183.066C197.333 183.333 194.8 185.866 191.733 188.666L186 194L191.333 188.266C196.133 183.066 197.333 182 197.333 183.066ZM181.333 200.533C181.333 200.8 180.267 201.866 179.067 202.8C176.933 204.533 176.8 204.4 178.533 202.266C180.267 200.133 181.333 199.466 181.333 200.533ZM174.667 238.266L174 271.333L173.6 240C173.333 212.266 173.6 205.333 174.933 205.333C175.2 205.333 175.067 220.133 174.667 238.266Z" fill="url(#paint0_linear_35_108)"/>
<path d="M110.667 39.4667C77.4667 48.4001 58.4 86.2667 70.6667 119.067C76.9334 135.733 92.4 150.533 109.2 155.733C120.133 159.067 138.4 158.667 148.4 154.667C170.667 146.133 186 125.467 187.6 101.867C190.533 60.1334 151.6 28.5334 110.667 39.4667ZM144.667 47.6001C170 56.4001 184.8 82.2667 179.333 108.133C175.733 125.6 166 137.867 149.333 145.867C141.467 149.6 139.467 150 127.333 150C115.467 150 113.067 149.6 105.733 146.133C95.4667 141.467 83.8667 129.733 79.0667 119.067C74.4 108.933 73.4667 94.4001 76.5334 83.2001C84.9334 54.1334 116.267 37.6001 144.667 47.6001Z" fill="url(#paint1_linear_35_108)"/>
<path d="M148.667 78.7995C142.8 83.9995 135.467 90.2661 132.4 92.9328L126.8 97.5995L117.333 90.6661C107.733 83.7328 103.333 82.6661 103.333 87.1995C103.333 88.9328 107.333 92.6661 114.667 98.1328C120.933 102.666 126.667 106.533 127.333 106.533C129.733 106.666 164.667 74.6661 164.667 72.2661C164.667 67.1995 159.2 69.4661 148.667 78.7995Z" fill="url(#paint2_linear_35_108)"/>
<defs>
<linearGradient id="paint0_linear_35_108" x1="-12.5" y1="125" x2="234.5" y2="130.5" gradientUnits="userSpaceOnUse">
<stop stop-color="#DDB88D"/>
<stop offset="0.9999" stop-color="#B0CA84"/>
</linearGradient>
<linearGradient id="paint1_linear_35_108" x1="60.4953" y1="92.2874" x2="187.51" y2="95.572" gradientUnits="userSpaceOnUse">
<stop stop-color="#DDB88D"/>
<stop offset="0.9999" stop-color="#B0CA84"/>
</linearGradient>
<linearGradient id="paint2_linear_35_108" x1="100.07" y1="86.4475" x2="164.467" y2="89.2121" gradientUnits="userSpaceOnUse">
<stop stop-color="#DDB88D"/>
<stop offset="0.9999" stop-color="#B0CA84"/>
</linearGradient>
</defs>
</svg>
