<svg width="600" height="976" viewBox="0 0 600 976" fill="none" xmlns="http://www.w3.org/2000/svg">
<g clip-path="url(#clip0_50_2)">
<path d="M362.188 690.037L359.432 701.203L349.231 726.768C348.434 728.806 347.75 730.823 347.179 732.819C345.626 738.221 344.514 745.47 343.843 754.565C343.151 763.204 344.059 769.94 346.567 774.773C348.065 778.343 351.27 780.148 356.184 780.189C362.822 780.03 367.321 778.954 369.68 776.962C373.72 774.33 377.502 769.848 381.026 763.513C382.932 760.224 384.263 756.738 385.018 753.053C385.536 750.781 386.153 747.085 386.868 741.966C388.143 736.929 388.974 733.2 389.36 730.779C389.817 728.149 390.255 724.428 390.673 719.616C391.039 712.621 391.054 707.875 390.719 705.377C390.903 704.975 389.847 699.99 387.551 690.422L362.263 690.038" fill="black"/>
<path d="M315.74 803.453L287.658 816.093C288.15 817.422 288.697 819.876 289.298 823.454C289.321 823.66 289.702 824.704 290.441 826.586L291.679 830.953C291.899 831.65 292.09 832.101 292.252 832.308C292.393 832.542 292.57 832.68 292.782 832.722L294.393 832.675C295.352 832.481 296.288 832.17 297.202 831.743C297.884 831.426 298.398 831.138 298.744 830.877C299.51 830.334 301.051 829.062 303.368 827.059L304.998 825.915L306.343 825.126L309.83 822.724L313.248 820.833L317.222 818.924C318.515 818.649 319.988 818.483 321.64 818.427C321.879 818.404 322.071 818.313 322.214 818.156C322.261 818.094 322.293 818.024 322.31 817.944L322.672 816.095C322.691 815.853 322.53 815.338 322.187 814.549C321.972 814.059 321.744 813.592 321.502 813.148C320.592 811.793 319.981 810.733 319.67 809.969L315.76 803.483" fill="white"/>
<path d="M315.954 126.511C311.315 126.401 306.67 127.619 302.022 130.166C300.045 131.212 297.392 132.874 294.063 135.151L284.501 143.345L279.776 151.71L276.459 169.302L278.833 191.129L280.798 196.144L343.167 211.684L347.838 213.008C350.783 211.71 352.71 208.856 353.62 204.447C354.514 200.867 355.332 193.076 356.073 181.073C358.972 173.006 360.615 167.388 361.001 164.219C361.463 161.283 361.334 158.839 360.613 156.887C359.691 153.797 356.115 150.841 349.885 148.02L336.788 132.212L335.722 131.419C330.982 128.477 324.393 126.841 315.956 126.511" fill="#6E360B"/>
<path d="M307.385 146.416L300.37 146.95C295.308 149.713 291.356 152.843 288.514 156.339L284.627 166.207L285.333 174.269L283.237 192.532L280.022 192.306L277.938 195.769C277.793 199.512 278.51 204.574 280.089 210.955L284.145 210.92C283.987 219.297 286.548 226.161 291.829 231.512L292.957 240.937L289.455 251.062C287.229 250.228 270.529 257.146 239.355 271.815C230.185 276.74 225.099 281.734 224.097 286.799C223.151 290.68 223.186 296.537 224.202 304.37L230 317.93C229.138 320.163 229.627 334.65 231.468 361.393L225.694 368.576C223.533 386.382 221.899 417.551 220.792 462.083L206.942 469.374C204.372 470.903 202.065 472.745 200.019 474.9C196.409 478.547 194.436 484.233 194.102 491.961C193.963 498.39 194.235 503.757 194.919 508.062C195.787 511.169 199.901 515.618 207.262 521.408L214.536 524.222L220.792 522.497L220.973 516.614L216.348 503.88C224.022 499.178 230.341 493.095 235.305 485.631L237.048 480.158L238.666 464.805C245.717 448.608 250.95 435.138 254.363 424.395L371.569 268.412L362.285 314.595L371.633 334.076L397.349 346.28L418.283 343.991L451.488 378.779C445.924 384.231 435.462 392.839 420.104 404.603L401.58 398.012L395.877 399.485L393.199 403.37L396.024 413.071L388.375 417.82L388.479 423.627L394.301 426.255L388.122 428.317L387.775 434.945L393.389 438.598L392.829 441.952L400.272 443.78L410.594 450.766L414.66 451.038L425.554 443.836C425.507 441.711 428.151 437.886 433.487 432.362L441.983 429.533L458.105 420.722C470.492 408.541 482.123 398.746 493 391.335L491.915 381.094L486.09 367.44C473.486 350.9 463.225 335.12 455.308 320.101L433.989 289.678L418.985 276.786C392.972 263.293 371.769 253.258 355.378 246.68L348.505 240.907C345.636 237.624 344.867 229.316 346.198 215.984L353.1 198.922C353.954 193.831 354.163 190.154 353.727 187.892C353.226 185.193 351.543 183.972 348.676 184.23C346.745 184.224 344.774 187.343 342.762 193.588L339.195 191.435L340.788 174.577C343.279 173.52 345.123 170.884 346.319 166.669L341.488 157.439L328.579 148.721C325.565 147.305 318.576 146.54 307.614 146.427" fill="#FFB57D"/>
<path d="M288.709 250.777L282.237 252.504L255.922 264.105C259.037 294.952 260.267 314.003 259.612 321.255C259.339 329.658 256.65 333.479 251.544 332.717C250.906 334.3 250.672 337.017 250.841 340.867C251.008 345.367 251.68 350.719 252.86 356.923C257.994 378.057 260.647 389.976 260.821 392.68C261.992 400.151 262.486 407.047 262.3 413.368C262.211 427.119 258.719 447.938 251.825 475.826L345.889 504.617C349.741 501.413 354.26 499.063 359.447 497.567L388.809 491.408C393.154 490.408 397.027 489.258 400.43 487.956C406.846 485.526 411.239 482.316 413.61 478.327C417.327 472.793 418.271 463.045 416.441 449.084C412.912 450.264 409.584 449.908 406.455 448.015L396.741 442.084C396.502 442.348 396.154 441.171 395.696 438.555C395.674 438.343 395.428 438.038 394.959 437.642L391.044 436.408L386.668 433.201C386.523 432.851 387.142 432.251 388.524 431.399L401.518 424.361C402.005 423.731 398.632 423.975 391.398 425.093L389.282 420.888C389.026 419.797 389.275 419.031 390.029 418.593L396.36 415.829C396.813 415.655 397.181 415.31 397.464 414.793C395.138 410.997 394.503 406.963 395.561 402.691L399.682 399.603L410.519 401.734C408.033 392.589 407.252 384.69 408.176 378.037C408.707 371.791 411.578 360.378 416.791 343.797C400.887 337.016 391.969 328.91 390.037 319.479C387.213 310.966 389.465 292.773 396.791 264.898L368.292 251.643C361.113 279.221 353.672 296.58 345.97 303.719C335.942 313.814 322.562 318.051 305.832 316.429C291.287 314.367 282.29 306.839 278.84 293.844C275.28 276.397 278.565 262.049 288.694 250.801" fill="#2541B6"/>
<path d="M415.76 473.431C395.929 483.441 376.549 487.878 357.619 486.744C344.591 486.535 322.277 483.742 290.676 478.365L254.565 468.738L251.19 474.904L245.782 481.214C244.694 485.435 243.964 489.223 243.591 492.579C242.344 499.517 242.981 517.243 245.504 545.756L326.693 559.998C343.238 574.693 357.978 583.617 370.914 586.771C379.43 589.038 390.75 587.179 404.874 581.194C408.393 576.057 410.423 572.234 410.966 569.724C411.631 567.094 410.971 564.119 408.986 560.797C416.602 538.806 420.976 521.951 422.109 510.231C423.612 499.658 421.518 487.455 415.83 473.62" fill="#100C0D"/>
<path d="M251.086 537.878L246.382 540.697L250.47 575.126L263.442 615.216L268.501 642.364L265.528 695.479L263.975 740.686L289.166 822.352L295.134 814.845L316.498 806.429L317.674 794.528L321.159 720.893C320.386 672.02 320.137 642.076 320.412 631.059L330.193 568.335L334.754 547.61C295.287 530.835 267.443 527.567 251.222 537.805" fill="#FFB57D"/>
<path d="M332.141 562.291C334.639 575.199 337.961 595.384 342.106 622.845L340.417 651.488L343.027 670.788L358.173 689.866L365.877 693.904L362.796 701.01L362.762 701.238L364.083 705.575C368.725 706.922 375.421 707.874 384.171 708.432L395.871 674.382L387.794 655.82L396.844 632.144L406.358 570.189C394.571 579.027 384.285 582.677 375.498 581.139C369.633 580.627 360.501 578.019 348.101 573.315L332.229 562.351" fill="#FFB57D"/>
<path d="M316.383 814.83C313.792 814.783 310.08 815.649 305.247 817.429C302.02 819.082 299.278 821.39 297.022 824.353C293.882 828.415 291.537 832.47 289.987 836.517C289.403 838.043 288.878 839.8 288.411 841.786L286.463 850.858L286.147 853.065C285.893 855.333 286.521 857.812 288.032 860.502C288.643 861.651 289.758 863.4 291.378 865.747L295.292 869.807C294.23 876.632 293.309 881.528 292.528 884.496C292.321 886.071 292.511 887.296 293.101 888.17C294.472 890.71 300.375 891.986 310.81 891.999C319.833 891.933 326.743 891.153 331.542 889.658C335.857 888.218 338.062 885.977 338.156 882.934C338.199 879.901 337.424 876.837 335.833 873.742C335.077 872.329 334.257 871.154 333.372 870.216C332.942 869.664 331.499 868.413 329.043 866.463C328.571 866.029 328.235 865.665 328.037 865.369C327.337 864.42 326.926 863.066 326.802 861.307L330.015 859.641C330.765 859.182 331.421 858.695 331.984 858.182C333.256 857.072 334.55 855.382 335.867 853.113C339.047 847.405 340.065 843.153 338.922 840.357C334.479 831.024 330.482 824.309 326.932 820.213C323.884 816.569 320.377 814.775 316.413 814.83" fill="black"/>
<path d="M375.319 690.432C373.037 691.38 371.287 691.921 370.068 692.056C368.972 692.248 366.973 692.191 364.068 691.883C363.601 691.891 363.238 691.962 362.981 692.096C362.501 692.324 362.122 692.813 361.844 693.565C361.224 695.279 360.878 696.617 360.805 697.581C360.56 700.641 361.809 703.959 364.553 707.535C366.813 710.248 369.698 711.922 373.208 712.559C376.876 713.204 380.088 712.39 382.844 710.117C386.375 706.91 388.422 703.36 388.984 699.467C389.2 697.736 388.853 695.466 387.943 692.654L375.372 690.441" fill="white"/>
<path d="M357.924 689.207C361.459 696.801 364.127 701.185 365.927 702.359C368.607 704.762 372.305 706.045 377.019 706.209C381.34 706.241 384.394 705.106 386.18 702.804C387.874 700.849 388.942 696.709 389.382 690.385L386.243 689.823L357.94 689.207" fill="#FFB57D"/>
<path d="M395.331 399.643L387.107 406.853L386.756 421.316L386.21 435.187L393.299 443.127L410.406 447.792L401.07 400.177L395.354 399.645" fill="#FFB57D"/>
<path d="M410.78 401.261L410.077 401.006L405.874 399.574L397.762 399.227L395.217 399.701L410.475 401.962L410.882 401.883L410.781 401.263" fill="#FFB57D"/>
<path d="M389.983 379.496L369.767 399.246L374.534 420.482L374.571 420.515L410.015 398.648L389.992 379.505" fill="#2541B6"/>
<path d="M342.832 229.951C337.304 235.714 332.99 239.586 329.89 241.566C326.332 243.942 322.911 245.196 319.628 245.328C316.355 245.477 312.587 244.526 308.322 242.473C304.669 240.789 299.19 237.319 291.885 232.062L292.691 241.491L289.547 250.564L282.979 260.059L305.315 272.644L322.649 273.922L324.476 263.672L324.524 254.482L342.793 230.008" fill="#D50A15" fill-opacity="0.12549"/>
<path d="M265.42 698.615L263.975 740.686L288.62 820.582L289.775 820.208L297.238 812.205L271.782 738.466L265.42 698.615Z" fill="#FF0700" fill-opacity="0.105882"/>
<path d="M259.657 603.52L263.442 615.216L267.805 638.628L270.455 635.797C271.453 629.553 271.959 625.002 271.973 622.145C272.129 616.669 270.99 612.553 268.556 609.794C266.968 607.744 264.002 605.653 259.66 603.52H259.657Z" fill="#FF0700" fill-opacity="0.105882"/>
<path d="M221.225 476.357C215.067 480.267 210.748 483.302 208.269 485.463C205.395 487.908 203.483 490.201 202.531 492.342C201.28 495.053 200.995 498.133 201.676 501.581C202.233 504.141 202.797 505.973 203.369 507.079C203.871 508.107 204.71 509.004 205.885 509.771C209.204 511.691 211.801 512.651 213.675 512.651C214.557 512.651 215.279 512.439 215.841 512.013C216.459 511.421 216.774 510.355 216.785 508.814C216.841 507.719 216.565 505.39 215.958 501.826C221.592 496.846 227.054 490.841 232.344 483.81L221.239 476.367L221.225 476.357Z" fill="#FF0700" fill-opacity="0.105882"/>
<path d="M415.712 341.732C416.544 342.513 417.346 343.273 418.119 344.01C418.887 344.743 419.627 345.454 420.337 346.144L418.283 343.992L420.394 346.204H420.399C424.024 349.727 426.893 352.689 429.007 355.092C429.506 355.651 429.997 356.212 430.48 356.776H430.485L449.27 376.457H449.275C449.978 376.662 450.712 376.765 451.477 376.765C453.508 376.765 455.755 376.041 458.217 374.592C461.395 372.85 466.246 368.737 472.77 362.253H472.765L454.248 368.052L445.613 363.724L415.746 341.754L415.716 341.732H415.712Z" fill="#FF0700" fill-opacity="0.105882"/>
<path d="M430.48 356.773C431.381 357.824 432.256 358.882 433.103 359.949L439.862 368.751C440.807 369.92 441.704 370.947 442.551 371.832C444.722 374.108 446.777 375.586 448.715 376.267C448.897 376.336 449.082 376.398 449.268 376.452L430.485 356.773H430.48Z" fill="#FF0700" fill-opacity="0.105882"/>
<path d="M256.732 263.75L255.922 264.107C255.923 264.114 255.923 264.12 255.924 264.127H255.921C250.948 266.396 245.426 268.958 239.355 271.815C230.185 276.74 225.099 281.735 224.097 286.799C223.151 290.68 223.186 296.537 224.202 304.371L230 317.93C229.291 319.766 229.496 329.889 230.614 348.298H230.617L234.783 357.876C234.712 360.567 234.89 362.661 235.318 364.158C235.973 366.786 237.635 368.647 240.305 369.742C241.475 370.162 242.564 370.372 243.57 370.372C245.083 370.372 246.41 369.897 247.551 368.948C248.875 367.806 249.733 365.637 250.127 362.44C250.491 359.827 250.518 355.347 250.207 349C250.99 345.663 251.2 343.316 250.838 341.96C250.603 340.797 250.027 339.815 249.109 339.013L242.681 335.073C241.603 334.309 240.763 333.506 240.164 332.666C238.783 330.69 238.234 328.109 238.515 324.922C238.891 321.515 239.97 318.882 241.755 317.023C242.393 316.383 243.233 315.841 244.274 315.396C244.517 315.218 246.253 314.692 249.482 313.818L251.277 326.9C253.165 328.532 254.856 329.348 256.349 329.348C257.695 329.348 258.88 328.685 259.905 327.358C258.475 320.313 258.397 314.297 259.672 309.308C258.94 306.934 258.538 298.017 258.467 282.557L256.134 277.979L256.138 277.891H256.135C256.676 272.041 256.876 267.327 256.735 263.75H256.732Z" fill="#FF0700" fill-opacity="0.0392157"/>
<path d="M407.896 568.299L387.005 579.629L382.358 600.036L381.634 719.95L390.868 715.074H390.872C391.027 710.522 390.976 707.289 390.718 705.376C390.866 705.055 390.224 701.818 388.792 695.664H388.788C388.851 695.284 388.911 694.892 388.968 694.487H388.963L395.872 674.383L387.794 655.822L396.844 632.145L404.654 581.289H404.65C404.724 581.257 404.799 581.226 404.874 581.194C405.588 580.151 406.241 579.162 406.833 578.228H406.838C406.844 578.194 406.852 578.161 406.859 578.127H406.863L406.856 578.191C406.855 578.194 406.853 578.196 406.851 578.199H406.855L406.628 580.361H406.624C406.623 580.362 406.623 580.363 406.622 580.364H406.628L406.59 580.73L406.959 578.036L407.088 577.093H407.083C407.003 577.453 406.931 577.784 406.867 578.086L407.896 568.299Z" fill="#FF0002" fill-opacity="0.0862745"/>
<path d="M406.684 580.254C406.671 580.277 406.658 580.3 406.645 580.323H406.649C406.662 580.302 406.675 580.279 406.689 580.254H406.684Z" fill="#FF0002" fill-opacity="0.172549"/>
<path d="M408.326 571.828L407.572 573.555L407.094 577.041C407.394 575.7 407.806 573.962 408.331 571.828H408.326Z" fill="#FF0002" fill-opacity="0.172549"/>
<path d="M421.393 564.014L421.204 564.318C421.294 564.234 421.358 564.132 421.397 564.014H421.393Z" fill="#FF0002" fill-opacity="0.172549"/>
<path d="M269.849 529.535L244.877 538.455H244.879C245.073 540.804 245.281 543.238 245.503 545.755L247.014 546.02L250.47 575.125L263.442 615.216L268.501 642.364L265.528 695.478L263.975 740.685L289.039 821.94H289.036C289.061 822.079 289.086 822.22 289.111 822.363L304.334 811.763L278.561 685.965L269.871 529.691L269.849 529.535Z" fill="#FF0002" fill-opacity="0.0823529"/>
<path d="M243.701 269.775C242.285 270.438 240.836 271.117 239.355 271.814C230.185 276.739 225.099 281.734 224.097 286.798C223.151 290.679 223.186 296.536 224.202 304.37L230 317.929C229.138 320.162 229.627 334.65 231.468 361.392L225.694 368.576C223.533 386.381 221.899 417.55 220.792 462.082L206.942 469.373C204.372 470.902 202.065 472.745 200.019 474.9C196.409 478.546 194.436 484.233 194.102 491.96C193.963 498.389 194.235 503.756 194.919 508.062C195.294 509.404 196.276 510.997 197.863 512.84L233.41 467.957L243.33 310.169L243.704 269.775H243.701Z" fill="#FF0002" fill-opacity="0.0705882"/>
<path d="M394.612 263.887L393.947 276.719L414.981 289.253L479.366 372.132L404.609 446.716L404.501 446.824L403 448.322L417.258 457.932C417.138 455.407 416.896 452.697 416.533 449.803H416.528L425.554 443.836C425.507 441.711 428.151 437.886 433.487 432.362L441.983 429.533L458.105 420.722C470.492 408.541 482.123 398.746 493 391.335L491.915 381.094L486.09 367.44C473.486 350.9 463.225 335.12 455.308 320.101L433.989 289.678L418.985 276.786C411.097 272.694 403.651 268.921 396.647 265.465H396.643C396.692 265.277 396.741 265.089 396.791 264.9L394.612 263.887Z" fill="#FF0002" fill-opacity="0.0666667"/>
<path d="M326.512 528.975L317.299 573.429L312.804 765.241L315.601 807.455L318.021 807.233L316.644 804.948L317.673 794.528L321.159 720.893C320.385 672.021 320.136 642.077 320.412 631.06L330.193 568.336L331.174 563.878H331.177C331.682 564.302 332.185 564.721 332.686 565.135H332.683C335.112 578.087 338.254 597.324 342.106 622.847L340.416 651.489L343.027 670.79L358.173 689.868L358.257 689.911H358.253C359.202 691.927 360.087 693.705 360.907 695.244H360.903L359.432 701.202L357.092 707.068L369.194 707.064L352.279 668.287L347.696 592.163L352.435 552.38L326.546 529.005L326.512 528.975Z" fill="#FF0002" fill-opacity="0.0666667"/>
</g>
<defs>
<clipPath id="clip0_50_2">
<rect width="600" height="976" fill="white"/>
</clipPath>
</defs>
</svg>
