<svg width="68" height="68" viewBox="0 0 68 68" fill="none" xmlns="http://www.w3.org/2000/svg">
<g filter="url(#filter0_d_51_4897)">
<path d="M44.5803 19.7305H24.3203V53.1705H44.5803V19.7305Z" fill="white"/>
<path d="M41.4502 8.25977V12.5298H21.2002V10.9398C23.1102 11.2498 25.1902 11.4198 27.3702 11.4198C33.2902 11.4198 38.5002 10.1598 41.4502 8.25977Z" fill="#8FD9EF"/>
<path d="M44.5702 19.7293H24.3202L21.2002 12.5293H41.4502L44.5702 19.7293Z" fill="#CAF3FF"/>
<path d="M24.3202 53.1793L17.9102 50.0493V16.6093L21.2001 12.5293L24.3202 19.7293V53.1793Z" fill="#88CDE2"/>
<path d="M44.5701 32.2304V53.1804H24.3101V43.5204C24.4601 43.3704 24.6701 43.2804 24.9801 43.2604C25.6901 43.2204 26.3701 42.8904 26.9401 42.4804C29.1701 40.8304 26.2001 36.5604 29.6401 35.5404C31.0501 35.1204 32.5101 36.2004 33.9301 36.0704C34.8301 35.9904 35.7701 35.4204 36.3101 34.7004C37.3201 33.3304 36.3901 31.5904 36.1301 30.1504C35.8601 28.5704 36.6201 26.8604 38.2801 26.4104C39.2101 26.1604 40.4201 26.3004 41.0901 27.0604C41.7801 27.8504 41.5201 28.8604 41.4301 29.7904C41.3301 30.9004 41.7501 31.5404 42.8001 31.9504C43.0201 32.0304 43.3001 32.0404 43.5301 32.0804C43.8401 32.1504 44.2001 32.1804 44.5701 32.2304Z" fill="#199ECC"/>
<path d="M39.0204 31.2302C39.9151 31.2302 40.6404 30.5049 40.6404 29.6102C40.6404 28.7155 39.9151 27.9902 39.0204 27.9902C38.1257 27.9902 37.4004 28.7155 37.4004 29.6102C37.4004 30.5049 38.1257 31.2302 39.0204 31.2302Z" fill="white"/>
<path d="M38.4904 34.3694C39.0924 34.3694 39.5804 33.8814 39.5804 33.2794C39.5804 32.6775 39.0924 32.1895 38.4904 32.1895C37.8884 32.1895 37.4004 32.6775 37.4004 33.2794C37.4004 33.8814 37.8884 34.3694 38.4904 34.3694Z" fill="white"/>
<path d="M41.8504 34.6793C42.237 34.6793 42.5504 34.3659 42.5504 33.9793C42.5504 33.5927 42.237 33.2793 41.8504 33.2793C41.4638 33.2793 41.1504 33.5927 41.1504 33.9793C41.1504 34.3659 41.4638 34.6793 41.8504 34.6793Z" fill="white"/>
<path d="M38.2299 39.4101C39.2185 39.4101 40.0199 38.6087 40.0199 37.6201C40.0199 36.6315 39.2185 35.8301 38.2299 35.8301C37.2413 35.8301 36.4399 36.6315 36.4399 37.6201C36.4399 38.6087 37.2413 39.4101 38.2299 39.4101Z" fill="white"/>
<path opacity="0.1" d="M44.5701 19.7305V53.1705H24.3101V51.3205C25.3201 51.5905 26.3701 51.7305 27.4501 51.7305C36.4301 51.7305 43.7201 41.8905 43.7201 29.7505C43.7201 26.1405 43.0701 22.7405 41.9401 19.7305H44.5701Z" fill="#1D1D1B"/>
<path d="M41.4499 8.24023V8.26022C38.4999 10.1602 33.2899 11.4202 27.3599 11.4202C25.1799 11.4202 23.0999 11.2502 21.1899 10.9402V8.24023H41.4499Z" fill="#9DDFF9"/>
<path d="M28.6104 25.5703C29.7149 25.5703 30.6104 24.6749 30.6104 23.5703C30.6104 22.4657 29.7149 21.5703 28.6104 21.5703C27.5058 21.5703 26.6104 22.4657 26.6104 23.5703C26.6104 24.6749 27.5058 25.5703 28.6104 25.5703Z" fill="#199ECC"/>
<path d="M32.2204 26.8607C32.8113 26.8607 33.2904 26.3816 33.2904 25.7907C33.2904 25.1998 32.8113 24.7207 32.2204 24.7207C31.6295 24.7207 31.1504 25.1998 31.1504 25.7907C31.1504 26.3816 31.6295 26.8607 32.2204 26.8607Z" fill="#199ECC"/>
<path d="M32.92 23.38C33.5772 23.38 34.11 22.8472 34.11 22.19C34.11 21.5328 33.5772 21 32.92 21C32.2628 21 31.73 21.5328 31.73 22.19C31.73 22.8472 32.2628 23.38 32.92 23.38Z" fill="#199ECC"/>
</g>
<path d="M58.7601 54.4998C58.7601 54.4998 55.5601 54.9898 52.6501 54.9898C49.7401 54.9898 46.6201 54.4998 46.6201 54.4998L45.3301 30.7598H60.0401L58.7601 54.4998Z" fill="url(#paint0_linear_51_4897)"/>
<path d="M52.6498 32.5987C56.7311 32.5987 60.0398 31.8241 60.0398 30.8687C60.0398 29.9132 56.7311 29.1387 52.6498 29.1387C48.5684 29.1387 45.2598 29.9132 45.2598 30.8687C45.2598 31.8241 48.5684 32.5987 52.6498 32.5987Z" fill="url(#paint1_linear_51_4897)"/>
<path d="M60.04 30.8692C60.03 30.8692 60.06 31.0092 59.91 31.1892C59.77 31.3692 59.47 31.5592 59.08 31.7292C58.68 31.8992 58.18 32.0392 57.59 32.1792C57 32.3092 56.33 32.4192 55.6 32.5092C54.13 32.6892 52.4 32.7792 50.54 32.7092C49.61 32.6692 48.65 32.5792 47.69 32.3992C47.21 32.3092 46.72 32.1892 46.24 32.0092C46 31.9192 45.76 31.8092 45.53 31.6592C45.41 31.5792 45.3 31.4892 45.2 31.3692C45.1 31.2492 45 31.0792 45 30.8692L45.01 30.7992L45.02 30.7492C45.03 30.6992 45.05 30.6392 45.07 30.5892C45.11 30.5092 45.16 30.4392 45.21 30.3692C45.31 30.2492 45.43 30.1592 45.54 30.0792C45.77 29.9292 46.01 29.8192 46.25 29.7292C46.73 29.5492 47.22 29.4292 47.7 29.3392C48.67 29.1492 49.63 29.0692 50.56 29.0292C52.42 28.9492 54.15 29.0392 55.62 29.2292C57.09 29.4092 58.3 29.6792 59.1 30.0092C59.5 30.1692 59.79 30.3592 59.93 30.5492C60.06 30.7392 60.04 30.8792 60.04 30.8692ZM60.04 30.8692C60.03 30.8792 60.06 30.7292 59.91 30.5492C59.77 30.3692 59.47 30.1792 59.07 30.0192C58.67 29.8592 58.17 29.7192 57.58 29.5992C56.99 29.4892 56.32 29.3892 55.59 29.3392C54.12 29.2292 52.4 29.2192 50.57 29.3892C49.66 29.4792 48.72 29.5992 47.79 29.8092C47.33 29.9192 46.86 30.0392 46.42 30.1992C46.2 30.2892 45.99 30.3792 45.81 30.4992C45.63 30.6192 45.5 30.7792 45.51 30.8592C45.5 30.9392 45.63 31.1092 45.81 31.2192C45.99 31.3392 46.2 31.4392 46.42 31.5192C46.86 31.6892 47.32 31.8092 47.79 31.9192C48.72 32.1192 49.66 32.2492 50.57 32.3392C52.4 32.5092 54.12 32.4992 55.59 32.3892C56.33 32.3392 56.99 32.2392 57.58 32.1292C58.17 32.0192 58.67 31.8692 59.07 31.7092C59.47 31.5492 59.76 31.3692 59.91 31.1792C60.06 31.0092 60.04 30.8692 60.04 30.8692Z" fill="white"/>
<g filter="url(#filter1_d_51_4897)">
<path d="M59.2701 37.9184L58.4001 53.9585C58.4001 53.9585 55.3901 54.4184 52.6501 54.4184C49.9101 54.4184 46.9701 53.9585 46.9701 53.9585L46.1001 37.8984C46.5901 38.6384 49.3501 39.1984 52.6901 39.1984C56.0001 39.1984 58.7401 38.6484 59.2701 37.9184Z" fill="url(#paint2_linear_51_4897)"/>
</g>
<path d="M52.6801 39.1889C56.3252 39.1889 59.2801 38.5039 59.2801 37.6589C59.2801 36.8139 56.3252 36.1289 52.6801 36.1289C49.035 36.1289 46.0801 36.8139 46.0801 37.6589C46.0801 38.5039 49.035 39.1889 52.6801 39.1889Z" fill="url(#paint3_radial_51_4897)"/>
<path d="M34 68C52.7486 68 68 52.7486 68 34C68 15.2514 52.7486 0 34 0C15.2514 0 0 15.2514 0 34C0 52.7486 15.2514 68 34 68ZM34 66.0571C25.5486 66.0571 17.7771 62.7543 12.0457 57.3143L34 35.36L55.9543 57.3143C50.2229 62.7543 42.4514 66.0571 34 66.0571ZM66.0571 34C66.0571 42.4514 62.7543 50.2229 57.3143 55.9543L35.36 34L57.3143 12.0457C62.7543 17.7771 66.0571 25.5486 66.0571 34ZM34 1.94286C42.4514 1.94286 50.2229 5.24571 55.9543 10.6857L34 32.64L12.0457 10.6857C17.7771 5.24571 25.5486 1.94286 34 1.94286ZM10.6857 12.0457L32.64 34L10.6857 55.9543C5.24571 50.2229 1.94286 42.4514 1.94286 34C1.94286 25.5486 5.24571 17.7771 10.6857 12.0457Z" fill="url(#paint4_linear_51_4897)"/>
<defs>
<filter id="filter0_d_51_4897" x="13.9102" y="8.24023" width="34.6699" height="52.9395" filterUnits="userSpaceOnUse" color-interpolation-filters="sRGB">
<feFlood flood-opacity="0" result="BackgroundImageFix"/>
<feColorMatrix in="SourceAlpha" type="matrix" values="0 0 0 0 0 0 0 0 0 0 0 0 0 0 0 0 0 0 127 0" result="hardAlpha"/>
<feOffset dy="4"/>
<feGaussianBlur stdDeviation="2"/>
<feComposite in2="hardAlpha" operator="out"/>
<feColorMatrix type="matrix" values="0 0 0 0 0 0 0 0 0 0 0 0 0 0 0 0 0 0 0.25 0"/>
<feBlend mode="normal" in2="BackgroundImageFix" result="effect1_dropShadow_51_4897"/>
<feBlend mode="normal" in="SourceGraphic" in2="effect1_dropShadow_51_4897" result="shape"/>
</filter>
<filter id="filter1_d_51_4897" x="42.1001" y="37.8984" width="21.1699" height="24.5195" filterUnits="userSpaceOnUse" color-interpolation-filters="sRGB">
<feFlood flood-opacity="0" result="BackgroundImageFix"/>
<feColorMatrix in="SourceAlpha" type="matrix" values="0 0 0 0 0 0 0 0 0 0 0 0 0 0 0 0 0 0 127 0" result="hardAlpha"/>
<feOffset dy="4"/>
<feGaussianBlur stdDeviation="2"/>
<feComposite in2="hardAlpha" operator="out"/>
<feColorMatrix type="matrix" values="0 0 0 0 0 0 0 0 0 0 0 0 0 0 0 0 0 0 0.25 0"/>
<feBlend mode="normal" in2="BackgroundImageFix" result="effect1_dropShadow_51_4897"/>
<feBlend mode="normal" in="SourceGraphic" in2="effect1_dropShadow_51_4897" result="shape"/>
</filter>
<linearGradient id="paint0_linear_51_4897" x1="45.3281" y1="42.8722" x2="60.0415" y2="42.8722" gradientUnits="userSpaceOnUse">
<stop stop-color="#9D9D9C"/>
<stop offset="0.064" stop-color="#A8A8A8"/>
<stop offset="0.5644" stop-color="white"/>
<stop offset="0.691" stop-color="#FCFCFC"/>
<stop offset="0.7991" stop-color="#F1F1F1"/>
<stop offset="0.9001" stop-color="#E0E0E0"/>
<stop offset="0.9968" stop-color="#C7C7C7"/>
<stop offset="1" stop-color="#C6C6C6"/>
</linearGradient>
<linearGradient id="paint1_linear_51_4897" x1="45.2517" y1="30.8726" x2="60.0412" y2="30.8726" gradientUnits="userSpaceOnUse">
<stop stop-color="#9D9D9C"/>
<stop offset="0.064" stop-color="#A8A8A8"/>
<stop offset="0.5644" stop-color="white"/>
<stop offset="0.691" stop-color="#FCFCFC"/>
<stop offset="0.7991" stop-color="#F1F1F1"/>
<stop offset="0.9001" stop-color="#E0E0E0"/>
<stop offset="0.9968" stop-color="#C7C7C7"/>
<stop offset="1" stop-color="#C6C6C6"/>
</linearGradient>
<linearGradient id="paint2_linear_51_4897" x1="46.1011" y1="46.156" x2="59.2705" y2="46.156" gradientUnits="userSpaceOnUse">
<stop stop-color="#ADCEF3"/>
<stop offset="0.00578177" stop-color="#AFCFF3"/>
<stop offset="0.0947" stop-color="#CCE1F8"/>
<stop offset="0.1895" stop-color="#E3EEFB"/>
<stop offset="0.2921" stop-color="#F3F8FD"/>
<stop offset="0.4078" stop-color="#FCFDFF"/>
<stop offset="0.5644" stop-color="white"/>
<stop offset="0.7289" stop-color="#FDFEFF"/>
<stop offset="0.8103" stop-color="#F5F9FE"/>
<stop offset="0.8735" stop-color="#E8F1FC"/>
<stop offset="0.9273" stop-color="#D5E6F9"/>
<stop offset="0.9746" stop-color="#BDD8F5"/>
<stop offset="1" stop-color="#ADCEF3"/>
</linearGradient>
<radialGradient id="paint3_radial_51_4897" cx="0" cy="0" r="1" gradientUnits="userSpaceOnUse" gradientTransform="translate(52.6841 37.6653) scale(6.27049 2.23292)">
<stop offset="0.4356" stop-color="white"/>
<stop offset="0.5922" stop-color="#FCFDFF"/>
<stop offset="0.7079" stop-color="#F3F8FD"/>
<stop offset="0.8105" stop-color="#E3EEFB"/>
<stop offset="0.9053" stop-color="#CCE1F8"/>
<stop offset="0.9942" stop-color="#AFCFF3"/>
<stop offset="1" stop-color="#ADCEF3"/>
</radialGradient>
<linearGradient id="paint4_linear_51_4897" x1="-6.55917e-08" y1="36.8333" x2="68" y2="38.8571" gradientUnits="userSpaceOnUse">
<stop stop-color="#CA9E67"/>
<stop offset="0.546875" stop-color="#E8CAB9"/>
<stop offset="1" stop-color="#5A9E00" stop-opacity="0.48"/>
</linearGradient>
</defs>
</svg>
