<svg width="45" height="58" viewBox="0 0 45 58" fill="none" xmlns="http://www.w3.org/2000/svg">
<g filter="url(#filter0_d_51_4927)">
<path d="M40.1804 11.4902H19.9204V44.9302H40.1804V11.4902Z" fill="white"/>
<path d="M37.0503 0.0195312V4.28954H16.8003V2.69954C18.7103 3.00954 20.7903 3.17953 22.9703 3.17953C28.8903 3.17953 34.1003 1.91953 37.0503 0.0195312Z" fill="#8FD9EF"/>
<path d="M40.1703 11.4891H19.9203L16.8003 4.28906H37.0503L40.1703 11.4891Z" fill="#CAF3FF"/>
<path d="M19.9203 44.9391L13.5103 41.8091V8.36906L16.8002 4.28906L19.9203 11.4891V44.9391Z" fill="#88CDE2"/>
<path d="M40.1702 23.9902V44.9402H19.9102V35.2802C20.0602 35.1302 20.2702 35.0402 20.5802 35.0202C21.2902 34.9802 21.9702 34.6502 22.5402 34.2402C24.7702 32.5902 21.8002 28.3202 25.2402 27.3002C26.6502 26.8802 28.1102 27.9602 29.5302 27.8302C30.4302 27.7502 31.3702 27.1802 31.9102 26.4602C32.9202 25.0902 31.9902 23.3502 31.7302 21.9102C31.4602 20.3302 32.2202 18.6202 33.8802 18.1702C34.8102 17.9202 36.0202 18.0602 36.6902 18.8202C37.3802 19.6102 37.1202 20.6202 37.0302 21.5502C36.9302 22.6602 37.3502 23.3002 38.4002 23.7102C38.6202 23.7902 38.9002 23.8002 39.1302 23.8402C39.4402 23.9102 39.8002 23.9402 40.1702 23.9902Z" fill="#199ECC"/>
<path d="M34.62 22.99C35.5147 22.99 36.24 22.2647 36.24 21.37C36.24 20.4753 35.5147 19.75 34.62 19.75C33.7253 19.75 33 20.4753 33 21.37C33 22.2647 33.7253 22.99 34.62 22.99Z" fill="white"/>
<path d="M34.09 26.1292C34.692 26.1292 35.18 25.6412 35.18 25.0392C35.18 24.4372 34.692 23.9492 34.09 23.9492C33.488 23.9492 33 24.4372 33 25.0392C33 25.6412 33.488 26.1292 34.09 26.1292Z" fill="white"/>
<path d="M37.45 26.4391C37.8366 26.4391 38.15 26.1257 38.15 25.7391C38.15 25.3525 37.8366 25.0391 37.45 25.0391C37.0634 25.0391 36.75 25.3525 36.75 25.7391C36.75 26.1257 37.0634 26.4391 37.45 26.4391Z" fill="white"/>
<path d="M33.83 31.1698C34.8186 31.1698 35.62 30.3684 35.62 29.3798C35.62 28.3912 34.8186 27.5898 33.83 27.5898C32.8414 27.5898 32.04 28.3912 32.04 29.3798C32.04 30.3684 32.8414 31.1698 33.83 31.1698Z" fill="white"/>
<path opacity="0.1" d="M40.1702 11.4902V44.9302H19.9102V43.0802C20.9202 43.3502 21.9702 43.4902 23.0502 43.4902C32.0302 43.4902 39.3202 33.6502 39.3202 21.5102C39.3202 17.9002 38.6702 14.5002 37.5402 11.4902H40.1702Z" fill="#1D1D1B"/>
<path d="M37.05 0V0.019989C34.1 1.91999 28.89 3.17999 22.96 3.17999C20.78 3.17999 18.7 3.01 16.79 2.7V0H37.05Z" fill="#9DDFF9"/>
<path d="M24.2104 17.3301C25.315 17.3301 26.2104 16.4346 26.2104 15.3301C26.2104 14.2255 25.315 13.3301 24.2104 13.3301C23.1059 13.3301 22.2104 14.2255 22.2104 15.3301C22.2104 16.4346 23.1059 17.3301 24.2104 17.3301Z" fill="#199ECC"/>
<path d="M27.82 18.6205C28.411 18.6205 28.89 18.1414 28.89 17.5505C28.89 16.9595 28.411 16.4805 27.82 16.4805C27.2291 16.4805 26.75 16.9595 26.75 17.5505C26.75 18.1414 27.2291 18.6205 27.82 18.6205Z" fill="#199ECC"/>
<path d="M28.5201 15.1398C29.1773 15.1398 29.7101 14.607 29.7101 13.9498C29.7101 13.2925 29.1773 12.7598 28.5201 12.7598C27.8629 12.7598 27.3301 13.2925 27.3301 13.9498C27.3301 14.607 27.8629 15.1398 28.5201 15.1398Z" fill="#199ECC"/>
<path d="M17.7601 49.1209C17.7601 49.1209 14.5601 49.6109 11.6501 49.6109C8.74008 49.6109 5.62007 49.1209 5.62007 49.1209L4.33008 25.3809H19.0401L17.7601 49.1209Z" fill="url(#paint0_linear_51_4927)"/>
<path d="M11.6498 27.2198C15.7311 27.2198 19.0398 26.4452 19.0398 25.4898C19.0398 24.5343 15.7311 23.7598 11.6498 23.7598C7.56838 23.7598 4.25977 24.5343 4.25977 25.4898C4.25977 26.4452 7.56838 27.2198 11.6498 27.2198Z" fill="url(#paint1_linear_51_4927)"/>
<path d="M19.04 25.4903C19.03 25.4903 19.06 25.6303 18.91 25.8103C18.77 25.9903 18.47 26.1803 18.08 26.3503C17.68 26.5203 17.18 26.6603 16.59 26.8003C16 26.9303 15.33 27.0403 14.6 27.1303C13.13 27.3103 11.4 27.4003 9.54 27.3303C8.61 27.2903 7.64999 27.2003 6.68999 27.0203C6.20999 26.9303 5.72 26.8103 5.24 26.6303C5 26.5403 4.76 26.4303 4.53 26.2803C4.41 26.2003 4.3 26.1103 4.2 25.9903C4.1 25.8703 4 25.7003 4 25.4903L4.01 25.4203L4.02 25.3703C4.03 25.3203 4.05 25.2603 4.07 25.2103C4.11 25.1303 4.16 25.0603 4.21 24.9903C4.31 24.8703 4.43 24.7803 4.54 24.7003C4.77 24.5503 5.01 24.4403 5.25 24.3503C5.73 24.1703 6.22 24.0503 6.7 23.9603C7.67 23.7703 8.63 23.6903 9.56 23.6503C11.42 23.5703 13.15 23.6603 14.62 23.8503C16.09 24.0303 17.3 24.3003 18.1 24.6303C18.5 24.7903 18.79 24.9803 18.93 25.1703C19.06 25.3603 19.04 25.5003 19.04 25.4903ZM19.04 25.4903C19.03 25.5003 19.06 25.3503 18.91 25.1703C18.77 24.9903 18.47 24.8003 18.07 24.6403C17.67 24.4803 17.17 24.3403 16.58 24.2203C15.99 24.1103 15.32 24.0103 14.59 23.9603C13.12 23.8503 11.4 23.8403 9.57 24.0103C8.66 24.1003 7.72 24.2203 6.79 24.4303C6.33 24.5403 5.86 24.6603 5.42 24.8203C5.2 24.9103 4.99 25.0003 4.81 25.1203C4.63 25.2403 4.5 25.4003 4.51 25.4803C4.5 25.5603 4.63 25.7303 4.81 25.8403C4.99 25.9603 5.2 26.0603 5.42 26.1403C5.86 26.3103 6.32 26.4303 6.79 26.5403C7.72 26.7403 8.66 26.8703 9.57 26.9603C11.4 27.1303 13.12 27.1203 14.59 27.0103C15.33 26.9603 15.99 26.8603 16.58 26.7503C17.17 26.6403 17.67 26.4903 18.07 26.3303C18.47 26.1703 18.76 25.9903 18.91 25.8003C19.06 25.6303 19.04 25.4903 19.04 25.4903Z" fill="white"/>
<path d="M18.2701 32.5395L17.4001 48.5795C17.4001 48.5795 14.3901 49.0395 11.6501 49.0395C8.9101 49.0395 5.9701 48.5795 5.9701 48.5795L5.1001 32.5195C5.5901 33.2595 8.35009 33.8195 11.6901 33.8195C15.0001 33.8195 17.7401 33.2695 18.2701 32.5395Z" fill="url(#paint2_linear_51_4927)"/>
<path d="M11.6801 33.81C15.3252 33.81 18.2801 33.125 18.2801 32.28C18.2801 31.435 15.3252 30.75 11.6801 30.75C8.035 30.75 5.08008 31.435 5.08008 32.28C5.08008 33.125 8.035 33.81 11.6801 33.81Z" fill="url(#paint3_radial_51_4927)"/>
</g>
<defs>
<filter id="filter0_d_51_4927" x="0" y="0" width="44.1802" height="57.6113" filterUnits="userSpaceOnUse" color-interpolation-filters="sRGB">
<feFlood flood-opacity="0" result="BackgroundImageFix"/>
<feColorMatrix in="SourceAlpha" type="matrix" values="0 0 0 0 0 0 0 0 0 0 0 0 0 0 0 0 0 0 127 0" result="hardAlpha"/>
<feOffset dy="4"/>
<feGaussianBlur stdDeviation="2"/>
<feComposite in2="hardAlpha" operator="out"/>
<feColorMatrix type="matrix" values="0 0 0 0 0 0 0 0 0 0 0 0 0 0 0 0 0 0 0.25 0"/>
<feBlend mode="normal" in2="BackgroundImageFix" result="effect1_dropShadow_51_4927"/>
<feBlend mode="normal" in="SourceGraphic" in2="effect1_dropShadow_51_4927" result="shape"/>
</filter>
<linearGradient id="paint0_linear_51_4927" x1="4.32808" y1="37.4933" x2="19.0415" y2="37.4933" gradientUnits="userSpaceOnUse">
<stop stop-color="#9D9D9C"/>
<stop offset="0.064" stop-color="#A8A8A8"/>
<stop offset="0.5644" stop-color="white"/>
<stop offset="0.691" stop-color="#FCFCFC"/>
<stop offset="0.7991" stop-color="#F1F1F1"/>
<stop offset="0.9001" stop-color="#E0E0E0"/>
<stop offset="0.9968" stop-color="#C7C7C7"/>
<stop offset="1" stop-color="#C6C6C6"/>
</linearGradient>
<linearGradient id="paint1_linear_51_4927" x1="4.25167" y1="25.4937" x2="19.0412" y2="25.4937" gradientUnits="userSpaceOnUse">
<stop stop-color="#9D9D9C"/>
<stop offset="0.064" stop-color="#A8A8A8"/>
<stop offset="0.5644" stop-color="white"/>
<stop offset="0.691" stop-color="#FCFCFC"/>
<stop offset="0.7991" stop-color="#F1F1F1"/>
<stop offset="0.9001" stop-color="#E0E0E0"/>
<stop offset="0.9968" stop-color="#C7C7C7"/>
<stop offset="1" stop-color="#C6C6C6"/>
</linearGradient>
<linearGradient id="paint2_linear_51_4927" x1="5.1011" y1="40.7771" x2="18.2705" y2="40.7771" gradientUnits="userSpaceOnUse">
<stop stop-color="#ADCEF3"/>
<stop offset="0.00578177" stop-color="#AFCFF3"/>
<stop offset="0.0947" stop-color="#CCE1F8"/>
<stop offset="0.1895" stop-color="#E3EEFB"/>
<stop offset="0.2921" stop-color="#F3F8FD"/>
<stop offset="0.4078" stop-color="#FCFDFF"/>
<stop offset="0.5644" stop-color="white"/>
<stop offset="0.7289" stop-color="#FDFEFF"/>
<stop offset="0.8103" stop-color="#F5F9FE"/>
<stop offset="0.8735" stop-color="#E8F1FC"/>
<stop offset="0.9273" stop-color="#D5E6F9"/>
<stop offset="0.9746" stop-color="#BDD8F5"/>
<stop offset="1" stop-color="#ADCEF3"/>
</linearGradient>
<radialGradient id="paint3_radial_51_4927" cx="0" cy="0" r="1" gradientUnits="userSpaceOnUse" gradientTransform="translate(11.6841 32.2864) scale(6.27049 2.23292)">
<stop offset="0.4356" stop-color="white"/>
<stop offset="0.5922" stop-color="#FCFDFF"/>
<stop offset="0.7079" stop-color="#F3F8FD"/>
<stop offset="0.8105" stop-color="#E3EEFB"/>
<stop offset="0.9053" stop-color="#CCE1F8"/>
<stop offset="0.9942" stop-color="#AFCFF3"/>
<stop offset="1" stop-color="#ADCEF3"/>
</radialGradient>
</defs>
</svg>
