<svg width="70" height="54" viewBox="0 0 70 54" fill="none" xmlns="http://www.w3.org/2000/svg">
<g filter="url(#filter0_d_51_5287)">
<path d="M35.6003 29.4951C36.2843 29.4951 36.8388 28.822 36.8388 27.9917C36.8388 27.1614 36.2843 26.4883 35.6003 26.4883C34.9163 26.4883 34.3618 27.1614 34.3618 27.9917C34.3618 28.822 34.9163 29.4951 35.6003 29.4951Z" fill="url(#paint0_radial_51_5287)"/>
<path d="M35.2701 27.5603C35.3939 27.6213 35.5317 27.5587 35.5779 27.4205C35.6242 27.2822 35.5613 27.1207 35.4375 27.0597C35.3137 26.9987 35.1759 27.0613 35.1297 27.1995C35.0834 27.3378 35.1463 27.4993 35.2701 27.5603Z" fill="white"/>
<path d="M29.3695 27.9763C27.0474 29.7498 24.0092 31.4529 21.5419 33.4144C19.0746 35.2701 17.1879 37.3843 17.1879 37.3491C17.1395 37.3961 17.1492 35.0235 17.5362 34.2013C18.436 31.7583 22.0838 28.1877 25.5864 26.2967C29.0696 24.2295 32.427 23.8419 32.3496 23.8066C32.3109 23.8184 30.637 26.9427 29.3695 27.9763Z" fill="url(#paint1_linear_51_5287)"/>
<path d="M28.4597 27.8818C29.1437 27.8818 29.6982 27.2087 29.6982 26.3784C29.6982 25.5481 29.1437 24.875 28.4597 24.875C27.7757 24.875 27.2212 25.5481 27.2212 26.3784C27.2212 27.2087 27.7757 27.8818 28.4597 27.8818Z" fill="url(#paint2_radial_51_5287)"/>
<path d="M28.1392 25.947C28.263 26.008 28.4008 25.9454 28.4471 25.8072C28.4933 25.6689 28.4304 25.5074 28.3067 25.4464C28.1829 25.3854 28.045 25.448 27.9988 25.5862C27.9526 25.7245 28.0154 25.886 28.1392 25.947Z" fill="white"/>
<path d="M26.1862 29.2939C26.8702 29.2939 27.4247 28.6208 27.4247 27.7905C27.4247 26.9602 26.8702 26.2871 26.1862 26.2871C25.5022 26.2871 24.9478 26.9602 24.9478 27.7905C24.9478 28.6208 25.5022 29.2939 26.1862 29.2939Z" fill="url(#paint3_radial_51_5287)"/>
<path d="M25.8423 27.3492C25.9661 27.4099 26.1039 27.347 26.1499 27.2087C26.1959 27.0704 26.1328 26.909 26.0089 26.8482C25.8851 26.7875 25.7474 26.8504 25.7013 26.9888C25.6553 27.1271 25.7184 27.2885 25.8423 27.3492Z" fill="white"/>
<path d="M23.8444 30.8564C24.5284 30.8564 25.0829 30.1833 25.0829 29.353C25.0829 28.5227 24.5284 27.8496 23.8444 27.8496C23.1604 27.8496 22.606 28.5227 22.606 29.353C22.606 30.1833 23.1604 30.8564 23.8444 30.8564Z" fill="url(#paint4_radial_51_5287)"/>
<path d="M23.524 28.9216C23.6478 28.9827 23.7856 28.92 23.8318 28.7818C23.8781 28.6435 23.8152 28.482 23.6914 28.421C23.5676 28.36 23.4298 28.4226 23.3836 28.5609C23.3373 28.6991 23.4002 28.8606 23.524 28.9216Z" fill="white"/>
<path d="M19.2487 25.1572C19.9327 25.1572 20.4872 24.4841 20.4872 23.6538C20.4872 22.8235 19.9327 22.1504 19.2487 22.1504C18.5647 22.1504 18.0103 22.8235 18.0103 23.6538C18.0103 24.4841 18.5647 25.1572 19.2487 25.1572Z" fill="url(#paint5_radial_51_5287)"/>
<path d="M18.9232 23.2223C19.047 23.2831 19.1848 23.2202 19.2308 23.0819C19.2769 22.9436 19.2138 22.7822 19.09 22.7214C18.9661 22.6606 18.8284 22.7235 18.7823 22.8618C18.7362 23.0001 18.7993 23.1615 18.9232 23.2223Z" fill="white"/>
<path d="M34.1203 29.1631C34.8043 29.1631 35.3588 28.49 35.3588 27.6597C35.3588 26.8293 34.8043 26.1562 34.1203 26.1562C33.4363 26.1562 32.8818 26.8293 32.8818 27.6597C32.8818 28.49 33.4363 29.1631 34.1203 29.1631Z" fill="url(#paint6_radial_51_5287)"/>
<path d="M33.7952 27.2164C33.9191 27.2772 34.0568 27.2144 34.1029 27.076C34.149 26.9377 34.0859 26.7763 33.9621 26.7155C33.8382 26.6547 33.7004 26.7176 33.6544 26.8559C33.6083 26.9942 33.6714 27.1556 33.7952 27.2164Z" fill="white"/>
<path d="M37.6716 29.6103C38.3556 29.6103 38.9101 28.9372 38.9101 28.1069C38.9101 27.2766 38.3556 26.6035 37.6716 26.6035C36.9876 26.6035 36.4331 27.2766 36.4331 28.1069C36.4331 28.9372 36.9876 29.6103 37.6716 29.6103Z" fill="url(#paint7_radial_51_5287)"/>
<path d="M37.3423 27.6756C37.4661 27.7366 37.604 27.6739 37.6502 27.5357C37.6964 27.3975 37.6336 27.2359 37.5098 27.1749C37.386 27.1139 37.2482 27.1765 37.2019 27.3148C37.1557 27.453 37.2186 27.6145 37.3423 27.6756Z" fill="white"/>
<path d="M35.8425 27.6494C36.5265 27.6494 37.081 26.9763 37.081 26.146C37.081 25.3157 36.5265 24.6426 35.8425 24.6426C35.1585 24.6426 34.604 25.3157 34.604 26.146C34.604 26.9763 35.1585 27.6494 35.8425 27.6494Z" fill="url(#paint8_radial_51_5287)"/>
<path d="M35.5222 25.7144C35.6461 25.7751 35.7838 25.7121 35.8298 25.5737C35.8757 25.4354 35.8126 25.274 35.6887 25.2134C35.5648 25.1527 35.4271 25.2157 35.3811 25.354C35.3351 25.4924 35.3983 25.6538 35.5222 25.7144Z" fill="white"/>
<path d="M37.4006 26.917C38.0846 26.917 38.6391 26.2439 38.6391 25.4136C38.6391 24.5833 38.0846 23.9102 37.4006 23.9102C36.7166 23.9102 36.1621 24.5833 36.1621 25.4136C36.1621 26.2439 36.7166 26.917 37.4006 26.917Z" fill="url(#paint9_radial_51_5287)"/>
<path d="M37.0644 24.9859C37.1883 25.0467 37.326 24.9837 37.3721 24.8454C37.4181 24.7071 37.355 24.5457 37.2311 24.485C37.1073 24.4242 36.9695 24.4871 36.9235 24.6255C36.8775 24.7638 36.9406 24.9252 37.0644 24.9859Z" fill="white"/>
<path d="M39.7229 29.4209C40.4069 29.4209 40.9614 28.7478 40.9614 27.9175C40.9614 27.0872 40.4069 26.4141 39.7229 26.4141C39.0389 26.4141 38.4844 27.0872 38.4844 27.9175C38.4844 28.7478 39.0389 29.4209 39.7229 29.4209Z" fill="url(#paint10_radial_51_5287)"/>
<path d="M39.3968 27.4724C39.5206 27.5335 39.6584 27.4709 39.7047 27.3327C39.751 27.1945 39.6882 27.0329 39.5644 26.9719C39.4407 26.9108 39.3028 26.9734 39.2565 27.1116C39.2103 27.2498 39.2731 27.4113 39.3968 27.4724Z" fill="white"/>
<path d="M39.3449 27.6123C40.0289 27.6123 40.5834 26.9392 40.5834 26.1089C40.5834 25.2786 40.0289 24.6055 39.3449 24.6055C38.6609 24.6055 38.1064 25.2786 38.1064 26.1089C38.1064 26.9392 38.6609 27.6123 39.3449 27.6123Z" fill="url(#paint11_radial_51_5287)"/>
<path d="M39.0139 25.6618C39.1377 25.7228 39.2755 25.6601 39.3217 25.5218C39.3679 25.3836 39.305 25.2221 39.1812 25.1611C39.0574 25.1002 38.9196 25.1629 38.8734 25.3011C38.8272 25.4394 38.8901 25.6009 39.0139 25.6618Z" fill="white"/>
<path d="M41.3864 29.6826C42.0704 29.6826 42.6249 29.0095 42.6249 28.1792C42.6249 27.3489 42.0704 26.6758 41.3864 26.6758C40.7024 26.6758 40.1479 27.3489 40.1479 28.1792C40.1479 29.0095 40.7024 29.6826 41.3864 29.6826Z" fill="url(#paint12_radial_51_5287)"/>
<path d="M41.0539 27.7479C41.1776 27.809 41.3155 27.7465 41.3618 27.6083C41.4081 27.4701 41.3454 27.3085 41.2216 27.2474C41.0979 27.1863 40.96 27.2487 40.9137 27.3869C40.8674 27.5251 40.9301 27.6867 41.0539 27.7479Z" fill="white"/>
<path d="M25.3933 35.1982C26.0773 35.1982 26.6317 34.5251 26.6317 33.6948C26.6317 32.8645 26.0773 32.1914 25.3933 32.1914C24.7093 32.1914 24.1548 32.8645 24.1548 33.6948C24.1548 34.5251 24.7093 35.1982 25.3933 35.1982Z" fill="url(#paint13_radial_51_5287)"/>
<path d="M25.0555 33.2595C25.1793 33.3206 25.3171 33.258 25.3634 33.1198C25.4097 32.9816 25.3469 32.82 25.2231 32.759C25.0994 32.6979 24.9615 32.7605 24.9152 32.8987C24.869 33.0369 24.9318 33.1985 25.0555 33.2595Z" fill="white"/>
<path d="M29.3308 37.8682C30.0148 37.8682 30.5692 37.1951 30.5692 36.3647C30.5692 35.5344 30.0148 34.8613 29.3308 34.8613C28.6468 34.8613 28.0923 35.5344 28.0923 36.3647C28.0923 37.1951 28.6468 37.8682 29.3308 37.8682Z" fill="url(#paint14_radial_51_5287)"/>
<path d="M28.9962 35.947C29.12 36.0078 29.2578 35.945 29.3039 35.8067C29.35 35.6684 29.287 35.507 29.1632 35.4461C29.0394 35.3853 28.9016 35.4481 28.8555 35.5864C28.8094 35.7247 28.8724 35.8861 28.9962 35.947Z" fill="white"/>
<path d="M31.8757 34.4951C32.5597 34.4951 33.1142 33.822 33.1142 32.9917C33.1142 32.1614 32.5597 31.4883 31.8757 31.4883C31.1917 31.4883 30.6372 32.1614 30.6372 32.9917C30.6372 33.822 31.1917 34.4951 31.8757 34.4951Z" fill="url(#paint15_radial_51_5287)"/>
<path d="M31.5397 32.5721C31.6635 32.6332 31.8013 32.5707 31.8477 32.4325C31.894 32.2943 31.8312 32.1327 31.7075 32.0716C31.5837 32.0105 31.4458 32.073 31.3995 32.2112C31.3532 32.3494 31.416 32.511 31.5397 32.5721Z" fill="white"/>
<path d="M18.2233 15.7041C18.9073 15.7041 19.4618 15.031 19.4618 14.2007C19.4618 13.3704 18.9073 12.6973 18.2233 12.6973C17.5393 12.6973 16.9849 13.3704 16.9849 14.2007C16.9849 15.031 17.5393 15.7041 18.2233 15.7041Z" fill="url(#paint16_radial_51_5287)"/>
<path d="M17.8968 13.7692C18.0207 13.8299 18.1584 13.7671 18.2045 13.6288C18.2505 13.4904 18.1875 13.329 18.0636 13.2683C17.9398 13.2075 17.802 13.2703 17.7559 13.4086C17.7099 13.547 17.7729 13.7084 17.8968 13.7692Z" fill="white"/>
<path d="M15.3396 16.8174C16.0235 16.8174 16.578 16.1443 16.578 15.314C16.578 14.4836 16.0235 13.8105 15.3396 13.8105C14.6556 13.8105 14.1011 14.4836 14.1011 15.314C14.1011 16.1443 14.6556 16.8174 15.3396 16.8174Z" fill="url(#paint17_radial_51_5287)"/>
<path d="M15.0138 14.8962C15.1376 14.957 15.2754 14.8942 15.3215 14.7559C15.3676 14.6176 15.3046 14.4562 15.1808 14.3953C15.0569 14.3345 14.9192 14.3973 14.873 14.5356C14.8269 14.6739 14.8899 14.8353 15.0138 14.8962Z" fill="white"/>
<path d="M5.2385 14.7529C5.92249 14.7529 6.47698 14.0798 6.47698 13.2495C6.47698 12.4192 5.92249 11.7461 5.2385 11.7461C4.5545 11.7461 4 12.4192 4 13.2495C4 14.0798 4.5545 14.7529 5.2385 14.7529Z" fill="url(#paint18_radial_51_5287)"/>
<path d="M4.89695 12.8062C5.02082 12.867 5.15855 12.8041 5.20458 12.6657C5.25061 12.5274 5.1875 12.366 5.06364 12.3053C4.93977 12.2445 4.80204 12.3075 4.75602 12.4458C4.70999 12.5841 4.77309 12.7455 4.89695 12.8062Z" fill="white"/>
<path d="M21.6769 32.3816C22.3342 32.3816 22.867 31.7348 22.867 30.9369C22.867 30.139 22.3342 29.4922 21.6769 29.4922C21.0196 29.4922 20.4868 30.139 20.4868 30.9369C20.4868 31.7348 21.0196 32.3816 21.6769 32.3816Z" fill="url(#paint19_radial_51_5287)"/>
<path d="M21.3656 30.5105C21.4845 30.5687 21.6166 30.5087 21.6606 30.3764C21.7046 30.244 21.6438 30.0895 21.5249 30.0313C21.406 29.973 21.2739 30.0331 21.2299 30.1654C21.1859 30.2977 21.2467 30.4522 21.3656 30.5105Z" fill="white"/>
<path d="M19.7811 34.2623C20.4277 34.2623 20.9519 33.626 20.9519 32.8411C20.9519 32.0562 20.4277 31.4199 19.7811 31.4199C19.1345 31.4199 18.6104 32.0562 18.6104 32.8411C18.6104 33.626 19.1345 34.2623 19.7811 34.2623Z" fill="url(#paint20_radial_51_5287)"/>
<path d="M19.4779 32.4339C19.5919 32.4896 19.7199 32.4276 19.7639 32.2952C19.8078 32.1628 19.7511 32.0103 19.6371 31.9545C19.5231 31.8987 19.395 31.9608 19.3511 32.0932C19.3071 32.2255 19.3639 32.3781 19.4779 32.4339Z" fill="white"/>
<path d="M28.4115 26.9447C25.7894 27.9431 22.4997 28.6478 19.7034 29.7871C16.9362 30.8207 14.6624 32.2889 14.6624 32.2537C14.614 32.2889 15.1172 29.9985 15.659 29.3173C17.0426 27.2266 21.3096 24.901 25.0927 24.1493C28.8953 23.2332 32.2237 23.8909 32.156 23.8322C32.1269 23.8322 29.8532 26.3457 28.4115 26.9447Z" fill="url(#paint21_linear_51_5287)"/>
<path d="M33.0656 23.5866C33.3075 23.4574 34.7395 22.6118 34.8169 21.4959C34.8169 21.4255 34.7782 21.3667 34.7298 21.3667C34.6718 21.355 34.6234 21.4137 34.6234 21.4725C34.5653 22.3064 33.5687 22.9994 33.143 23.2695C32.4657 23.5162 31.1402 23.8098 29.5146 23.2108L30.966 24.5967L31.0144 26.6639C31.3917 25.4189 32.4173 24.2444 33.0656 23.5866Z" fill="#95C11F"/>
<path d="M27.8502 22.8224C25.112 22.5523 21.8416 21.7066 18.9002 21.4834C16.0169 21.1781 13.4625 21.4952 13.4625 21.4717C13.4045 21.4834 14.5849 19.5924 15.3009 19.2048C17.2263 17.9011 21.9093 17.6897 25.6441 18.7233C29.4563 19.6042 32.33 21.7301 32.2913 21.6479C32.2623 21.6361 29.3789 22.9164 27.8502 22.8224Z" fill="url(#paint22_linear_51_5287)"/>
<path d="M33.2112 21.8346C33.4724 21.8228 35.0689 21.6936 35.485 20.6953C35.514 20.6366 35.4947 20.5661 35.4463 20.5308C35.3979 20.4956 35.3398 20.5191 35.3108 20.5778C35.0012 21.3178 33.8595 21.5175 33.3854 21.5644C32.6791 21.4822 31.3632 21.1533 30.0376 19.8496L30.9568 21.7876L30.3569 23.7256C31.0922 22.7625 32.4081 22.14 33.2112 21.8346Z" fill="#95C11F"/>
<path d="M65.0393 17.606C65.0809 17.712 65.1225 17.818 65.1641 17.9241C65.1683 17.9347 65.1725 17.9453 65.1766 17.9559C65.2016 18.0195 65.222 18.0988 65.2382 18.1675C65.2424 18.1781 65.2424 18.1781 65.2465 18.1887C65.2586 18.2467 65.2707 18.3048 65.2828 18.3629C65.2869 18.3735 65.2865 18.3997 65.2907 18.4103C65.3069 18.479 65.3102 18.5421 65.3177 18.6158C65.3215 18.6527 65.3211 18.679 65.3336 18.7108C65.3332 18.737 65.3415 18.7582 65.3369 18.7739C65.3394 18.8895 65.3461 19.0158 65.3311 19.1415C65.3311 19.1415 65.3353 19.1521 65.3266 19.1572C64.9516 20.4409 64.7371 21.6968 64.1732 22.8816C62.7278 25.9164 60.4041 28.3792 58.2858 30.7102C55.9651 33.2624 53.4533 35.5738 50.82 37.6302C49.3917 38.7425 47.9214 39.775 46.409 40.7278C44.6125 41.8579 42.7707 42.8451 40.8456 43.6202C39.3474 44.2265 37.7642 44.7258 36.1893 44.9731C36.1502 44.9827 36.1069 44.9817 36.0591 44.9964C35.9809 45.0156 35.9073 45.0192 35.8291 45.0384C35.8203 45.0434 35.8203 45.0434 35.8074 45.0379C35.7467 45.047 35.6731 45.0505 35.6123 45.0596C35.5516 45.0687 35.4909 45.0778 35.426 45.0763C35.3652 45.0854 35.3003 45.0839 35.2309 45.0981C35.1701 45.1072 35.1182 45.1113 35.0533 45.1098C34.9884 45.1083 34.9276 45.1174 34.8627 45.1159C34.8107 45.1199 34.75 45.129 34.6938 45.1225C34.629 45.121 34.5641 45.1195 34.5079 45.1129C34.4646 45.1119 34.4126 45.116 34.3565 45.1094C34.2916 45.1079 34.2354 45.1014 34.1751 45.0842C34.1318 45.0832 34.0886 45.0822 34.0412 45.0706C33.985 45.0641 33.9247 45.0469 33.8685 45.0404C33.834 45.0343 33.7907 45.0333 33.752 45.0167C33.6917 44.9995 33.6314 44.9823 33.5798 44.9601C33.554 44.949 33.5195 44.943 33.4937 44.9319C33.4076 44.9036 33.3302 44.8703 33.2574 44.8214C32.9828 44.6679 32.7918 44.4271 32.6749 44.1565C32.2442 43.1956 31.8176 42.2453 31.3869 41.2845C31.4248 41.3537 31.4627 41.4228 31.5005 41.492C31.5217 41.5188 31.5301 41.54 31.5513 41.5667C31.5596 41.5879 31.5725 41.5935 31.5767 41.6041C31.5979 41.6308 31.6149 41.647 31.6362 41.6738C31.6491 41.6793 31.6574 41.7005 31.6744 41.7167C31.6873 41.7222 31.6957 41.7434 31.7086 41.749C31.7256 41.7651 31.7427 41.7813 31.7556 41.7868C31.8155 41.8302 31.8754 41.8737 31.9482 41.9226C31.991 41.9499 32.0297 41.9665 32.0813 41.9887C32.12 42.0054 32.1587 42.0221 32.2061 42.0337C32.2061 42.0337 32.219 42.0392 32.2278 42.0342C32.301 42.0569 32.3742 42.0796 32.4562 42.0972C32.4907 42.1033 32.5252 42.1093 32.5597 42.1154C32.6201 42.1325 32.685 42.134 32.7453 42.1512C32.7798 42.1572 32.8231 42.1582 32.8663 42.1592C32.888 42.1597 32.9225 42.1658 32.9441 42.1663C32.9529 42.1612 32.9657 42.1668 32.9786 42.1723C36.3968 41.9518 39.3897 40.9755 42.5197 39.2563C47.7407 36.3928 52.3966 32.3079 56.747 27.8272C58.0227 26.517 59.2816 25.1643 60.4852 23.7526C62.3809 21.5373 64.9391 18.1973 63.7559 14.7183C64.1113 15.5146 64.4667 16.3109 64.8349 17.1127C64.897 17.298 64.964 17.4414 65.0393 17.606Z" fill="#F9CBC5"/>
<path d="M63.8454 14.8117C65.6311 18.5147 60.7627 23.451 58.8679 25.6138C56.303 28.5544 53.5862 31.2446 50.6705 33.6464C48.9914 35.0209 47.2578 36.2838 45.4821 37.4668C43.0243 39.0965 40.4375 40.3975 37.7479 41.3545C36.4206 41.823 35.0858 42.4909 33.6793 42.4847C32.1343 42.4805 30.3824 41.321 31.1799 39.0383C31.2701 38.804 31.3649 38.554 31.4768 38.3202C31.7907 37.6182 32.2133 36.8925 32.6312 36.1824C32.8757 35.7677 33.129 35.348 33.3993 34.9445C33.5989 34.6339 33.8027 34.3339 34.0152 34.0288C34.4449 33.403 34.9048 32.7727 35.3993 32.1484C36.4058 30.8898 37.5246 29.6443 38.4878 28.3846C39.8353 26.6295 40.5418 24.9069 41.4821 23.1791C41.8206 22.567 42.1982 21.9453 42.6407 21.3251C43.1851 20.5548 43.8031 19.7811 44.5114 19.0461C44.793 18.7532 45.092 18.4501 45.3994 18.1683C45.4872 18.0915 45.5708 18.0041 45.6585 17.9273C46.5366 17.1333 47.5489 16.3266 48.5372 15.677C49.543 15.0172 50.582 14.4423 51.6148 13.9881C51.7716 13.9234 51.9372 13.8537 52.094 13.789C54.4849 12.8355 56.8335 12.3749 58.7275 12.4764C60.1848 12.5574 62.0754 12.5958 63.2021 13.8827C63.4747 14.1674 63.686 14.4875 63.8454 14.8117Z" fill="#FFDBD4"/>
<path d="M51.5653 14.3812C51.5653 14.3812 48.9668 15.5978 47.9757 16.7045C47.3768 17.3631 46.0239 19.4596 46.4618 20.7936C46.9042 22.112 48.9999 24.2566 51.2274 23.7879C53.4549 23.3193 61.9429 19.1128 63.0246 17.7455C63.6339 16.9768 63.5476 15.8558 62.8864 14.69C62.234 13.5191 59.1372 12.8381 57.1937 12.8563C55.6833 12.8582 53.1072 13.4764 51.5653 14.3812Z" fill="#EA5982"/>
<path d="M52.9699 20.0326C55.0153 18.8496 56.3772 17.1358 56.0118 16.2047C55.6463 15.2735 53.6919 15.4777 51.6465 16.6607C49.601 17.8437 48.2391 19.5576 48.6046 20.4887C48.97 21.4198 50.9244 21.2156 52.9699 20.0326Z" fill="#FFDBD4"/>
<path d="M53.0512 19.2868C54.4019 18.5056 55.3013 17.3738 55.06 16.7589C54.8186 16.144 53.528 16.2788 52.1772 17.0601C50.8265 17.8413 49.9271 18.9731 50.1684 19.588C50.4098 20.2029 51.7004 20.068 53.0512 19.2868Z" fill="#CBBBA0"/>
<path d="M45.7126 18.8846C45.2216 23.1497 47.6125 22.1962 47.4723 24.5151C47.3566 26.3775 44.9423 29.3741 41.8718 31.7093C40.0496 33.1015 34.3655 35.4132 34.7934 34.0729C35.2212 32.7326 38.2961 29.8353 39.4734 27.8923C40.642 25.9545 41.9332 23.1 42.7808 22.0373C43.6197 20.9797 45.8031 18.0776 45.7126 18.8846Z" fill="#EA5982"/>
<path d="M33.8492 36.0903C33.8492 36.0903 31.2881 39.341 31.8674 40.4891C32.5644 41.8554 33.132 42.9192 40.2 40.1194C42.5734 39.1761 48.3854 35.3333 48.9418 34.3479C49.4982 33.3626 46.143 29.0191 45.0766 30.2344C43.6355 31.8875 41.9575 32.6368 39.703 33.7195C37.627 34.7381 34.9303 35.322 33.8492 36.0903Z" fill="#EA5982"/>
<path d="M46.3834 29.1142C46.3834 29.1142 49.8013 32.7709 50.7239 32.4455C52.9826 31.6465 58.2704 25.0755 59.9 23.5476C63.212 20.4351 62.1887 18.62 61.2092 19.5377C60.2297 20.4555 51.2115 25.0859 49.6648 24.6403C48.1139 24.1842 45.9544 28.5947 46.3834 29.1142Z" fill="#EA5982"/>
<path d="M27.5003 28.2891C28.1728 29.167 29.9457 27.9189 30.2535 27.179C30.6482 26.2258 30.4241 25.004 30.8851 24.0712C32.2634 21.2132 35.0622 20.2507 37.3668 18.9292C40.0404 17.3954 42.4203 15.6585 44.0059 12.5437C45.3467 9.8934 45.3022 6.61595 44.8746 3.71439C44.7844 3.07677 44.7933 2.6409 44.2546 2.34713C43.6891 2.02629 43.1432 2.03868 42.5379 2.17336C40.9302 2.53332 39.3616 2.7802 37.717 3.00548C36.3672 3.19785 34.8655 3.34705 33.5616 3.79337C31.9269 4.35064 30.8671 5.67879 30.2895 7.61234C29.4104 10.5465 29.3507 13.6806 29.3036 16.7809C29.2865 18.0897 28.7079 19.2554 28.1653 20.3431C27.7287 21.2199 27.3777 22.1197 26.9507 22.9978C26.4081 24.0854 25.4864 24.7227 25.4907 26.0107C25.4975 27.1572 26.0255 28.241 26.9604 28.2314C27.1261 28.2291 27.2896 28.2502 27.437 28.2337C27.4325 28.1741 27.5003 28.2891 27.5003 28.2891Z" fill="url(#paint23_linear_51_5287)"/>
<path d="M44.1932 2.26977C43.6277 1.94893 43.0817 1.96132 42.4764 2.096C40.8687 2.45596 39.3001 2.70284 37.6555 2.92812C36.3068 3.10881 34.804 3.26968 33.5002 3.716C32.5473 4.04215 31.7858 4.62916 31.2079 5.45242C35.947 5.77908 40.3764 4.08159 44.7154 2.97481C44.6426 2.69379 44.5273 2.45453 44.1932 2.26977Z" fill="#E2A8A8"/>
<path d="M42.8332 4.91782C42.7163 4.90276 42.6115 5.00561 42.5991 5.14752C42.5867 5.28944 42.6714 5.41668 42.7883 5.43173C42.9052 5.44678 43.0101 5.34394 43.0224 5.20203C43.0348 5.06011 42.9501 4.93287 42.8332 4.91782Z" fill="white"/>
<path d="M44.3557 7.20493C44.2388 7.18988 44.134 7.29273 44.1216 7.43464C44.1092 7.57655 44.1939 7.70379 44.3108 7.71884C44.4277 7.73389 44.5325 7.63106 44.5449 7.48914C44.5573 7.34723 44.4726 7.21998 44.3557 7.20493Z" fill="white"/>
<path d="M44.5276 5.67758C44.4107 5.66253 44.3058 5.76537 44.2934 5.90729C44.281 6.0492 44.3658 6.17645 44.4827 6.1915C44.5996 6.20655 44.7044 6.1037 44.7168 5.96179C44.7292 5.81988 44.6445 5.69263 44.5276 5.67758Z" fill="white"/>
<path d="M43.3239 7.87485C43.207 7.8598 43.1022 7.96264 43.0898 8.10455C43.0774 8.24647 43.1621 8.37371 43.279 8.38876C43.396 8.40381 43.5008 8.30097 43.5132 8.15906C43.5256 8.01714 43.4408 7.88991 43.3239 7.87485Z" fill="white"/>
<path d="M43.0476 10.2616C42.9307 10.2465 42.8258 10.3494 42.8134 10.4913C42.8011 10.6332 42.8858 10.7604 43.0027 10.7755C43.1196 10.7905 43.2244 10.6877 43.2368 10.5458C43.2492 10.4039 43.1645 10.2766 43.0476 10.2616Z" fill="white"/>
<path d="M43.365 9.19126C43.2481 9.17621 43.1432 9.27905 43.1308 9.42096C43.1184 9.56287 43.2032 9.69012 43.3201 9.70517C43.437 9.72022 43.5418 9.61738 43.5542 9.47546C43.5666 9.33355 43.4819 9.20631 43.365 9.19126Z" fill="white"/>
<path d="M44.6135 6.37485C44.4966 6.35979 44.3918 6.46264 44.3794 6.60455C44.367 6.74647 44.4517 6.87371 44.5686 6.88876C44.6855 6.90381 44.7903 6.80097 44.8027 6.65906C44.8151 6.51714 44.7304 6.3899 44.6135 6.37485Z" fill="white"/>
<path d="M43.8069 6.2479C43.6899 6.23285 43.5851 6.33569 43.5727 6.47761C43.5603 6.61952 43.645 6.74676 43.762 6.76181C43.8789 6.77686 43.9837 6.67403 43.9961 6.53211C44.0085 6.3902 43.9238 6.26295 43.8069 6.2479Z" fill="white"/>
<path d="M44.2048 4.91781C44.0879 4.90276 43.9831 5.00561 43.9707 5.14752C43.9583 5.28943 44.043 5.41668 44.1599 5.43173C44.2768 5.44678 44.3816 5.34394 44.394 5.20203C44.4064 5.06011 44.3217 4.93287 44.2048 4.91781Z" fill="white"/>
<path d="M43.3327 6.88461C43.2158 6.86956 43.111 6.9724 43.0986 7.11432C43.0862 7.25623 43.1709 7.38348 43.2878 7.39853C43.4047 7.41358 43.5096 7.31074 43.522 7.16882C43.5344 7.02691 43.4496 6.89966 43.3327 6.88461Z" fill="white"/>
<path d="M42.4372 8.11703C42.3203 8.10198 42.2155 8.20483 42.2031 8.34674C42.1907 8.48865 42.2754 8.6159 42.3923 8.63095C42.5092 8.646 42.6141 8.54316 42.6265 8.40124C42.6389 8.25933 42.5541 8.13208 42.4372 8.11703Z" fill="white"/>
<path d="M42.3562 8.92954C42.2393 8.91449 42.1344 9.01733 42.122 9.15924C42.1096 9.30115 42.1944 9.4284 42.3113 9.44345C42.4282 9.4585 42.533 9.35566 42.5454 9.21374C42.5578 9.07183 42.4731 8.94459 42.3562 8.92954Z" fill="white"/>
<path d="M42.1125 11.0487C41.9956 11.0336 41.8908 11.1365 41.8784 11.2784C41.866 11.4203 41.9507 11.5475 42.0676 11.5626C42.1845 11.5776 42.2893 11.4748 42.3017 11.3329C42.3141 11.191 42.2294 11.0637 42.1125 11.0487Z" fill="white"/>
<path d="M41.8445 9.2186C41.7276 9.20355 41.6227 9.30639 41.6103 9.4483C41.5979 9.59022 41.6827 9.71746 41.7996 9.73251C41.9165 9.74757 42.0213 9.64472 42.0337 9.50281C42.0461 9.36089 41.9614 9.23365 41.8445 9.2186Z" fill="white"/>
<path d="M41.2693 9.67759C41.1524 9.66254 41.0475 9.76537 41.0351 9.90729C41.0227 10.0492 41.1075 10.1764 41.2244 10.1915C41.3413 10.2065 41.4461 10.1037 41.4585 9.96179C41.4709 9.81988 41.3862 9.69264 41.2693 9.67759Z" fill="white"/>
<path d="M40.8532 10.7694C40.7363 10.7543 40.6315 10.8572 40.6191 10.9991C40.6067 11.141 40.6914 11.2682 40.8083 11.2833C40.9252 11.2983 41.0301 11.1955 41.0425 11.0536C41.0549 10.9117 40.9701 10.7844 40.8532 10.7694Z" fill="white"/>
<path d="M40.6775 10.2147C40.5606 10.1996 40.4557 10.3025 40.4433 10.4444C40.4309 10.5863 40.5157 10.7136 40.6326 10.7286C40.7495 10.7437 40.8543 10.6408 40.8667 10.4989C40.8791 10.357 40.7944 10.2297 40.6775 10.2147Z" fill="white"/>
<path d="M41.4856 10.4373C41.3687 10.4223 41.2638 10.5251 41.2514 10.6671C41.239 10.809 41.3238 10.9362 41.4407 10.9513C41.5576 10.9663 41.6624 10.8635 41.6748 10.7216C41.6872 10.5796 41.6025 10.4524 41.4856 10.4373Z" fill="white"/>
<path d="M42.4504 10.3006C42.3335 10.2856 42.2287 10.3884 42.2163 10.5303C42.2039 10.6722 42.2886 10.7995 42.4055 10.8145C42.5224 10.8296 42.6272 10.7268 42.6396 10.5848C42.652 10.4429 42.5673 10.3157 42.4504 10.3006Z" fill="white"/>
<path d="M42.6306 11.0233C42.5137 11.0082 42.4089 11.1111 42.3965 11.253C42.3841 11.3949 42.4688 11.5221 42.5857 11.5372C42.7026 11.5523 42.8074 11.4494 42.8198 11.3075C42.8322 11.1656 42.7475 11.0383 42.6306 11.0233Z" fill="white"/>
<path d="M42.0525 9.73032C41.9356 9.71527 41.8307 9.81812 41.8183 9.96003C41.8059 10.1019 41.8907 10.2292 42.0076 10.2442C42.1245 10.2593 42.2293 10.1564 42.2417 10.0145C42.2541 9.87262 42.1694 9.74537 42.0525 9.73032Z" fill="white"/>
<path d="M43.8752 5.46664C43.7583 5.45159 43.6535 5.55444 43.6411 5.69635C43.6287 5.83826 43.7134 5.96551 43.8303 5.98056C43.9472 5.99561 44.052 5.89277 44.0644 5.75085C44.0768 5.60894 43.9921 5.48169 43.8752 5.46664Z" fill="white"/>
<path d="M43.239 5.72445C43.1221 5.7094 43.0173 5.81225 43.0049 5.95416C42.9925 6.09608 43.0772 6.22332 43.1941 6.23837C43.311 6.25342 43.4158 6.15058 43.4282 6.00867C43.4406 5.86675 43.3559 5.73951 43.239 5.72445Z" fill="white"/>
<path d="M42.9084 6.285C42.7915 6.26995 42.6867 6.37279 42.6743 6.51471C42.6619 6.65662 42.7466 6.78387 42.8635 6.79892C42.9804 6.81397 43.0852 6.71113 43.0976 6.56921C43.11 6.4273 43.0253 6.30005 42.9084 6.285Z" fill="white"/>
<path d="M43.5818 4.81235C43.4649 4.79729 43.36 4.90014 43.3476 5.04205C43.3352 5.18397 43.42 5.31121 43.5369 5.32626C43.6538 5.34131 43.7586 5.23847 43.771 5.09656C43.7834 4.95464 43.6987 4.8274 43.5818 4.81235Z" fill="white"/>
<path d="M42.8977 7.29867C42.7808 7.28362 42.6759 7.38647 42.6635 7.52838C42.6511 7.67029 42.7359 7.79754 42.8528 7.81259C42.9697 7.82764 43.0745 7.7248 43.0869 7.58288C43.0993 7.44097 43.0146 7.31372 42.8977 7.29867Z" fill="white"/>
<path d="M41.9387 8.47641C41.8218 8.46136 41.717 8.5642 41.7046 8.70612C41.6922 8.84803 41.7769 8.97528 41.8938 8.99033C42.0107 9.00538 42.1155 8.90253 42.1279 8.76062C42.1403 8.61871 42.0556 8.49146 41.9387 8.47641Z" fill="white"/>
<path d="M42.3767 11.8143C42.2598 11.7992 42.155 11.9021 42.1426 12.044C42.1302 12.1859 42.2149 12.3132 42.3318 12.3282C42.4487 12.3433 42.5535 12.2404 42.5659 12.0985C42.5783 11.9566 42.4936 11.8293 42.3767 11.8143Z" fill="white"/>
<path d="M42.8186 12.5448C42.7017 12.5297 42.5968 12.6326 42.5844 12.7745C42.572 12.9164 42.6568 13.0436 42.7737 13.0587C42.8906 13.0737 42.9954 12.9709 43.0078 12.829C43.0202 12.6871 42.9355 12.5598 42.8186 12.5448Z" fill="white"/>
<path d="M41.8259 13.2205C41.709 13.2055 41.6042 13.3083 41.5918 13.4503C41.5794 13.5922 41.6641 13.7194 41.781 13.7345C41.8979 13.7495 42.0027 13.6467 42.0151 13.5048C42.0275 13.3628 41.9428 13.2356 41.8259 13.2205Z" fill="white"/>
<path d="M41.4221 8.15024C41.3052 8.13519 41.2004 8.23803 41.188 8.37994C41.1756 8.52186 41.2603 8.6491 41.3772 8.66416C41.4941 8.67921 41.5989 8.57636 41.6113 8.43445C41.6237 8.29253 41.539 8.16529 41.4221 8.15024Z" fill="white"/>
<path d="M41.3742 8.80259C41.2573 8.78754 41.1525 8.89037 41.1401 9.03229C41.1277 9.1742 41.2124 9.30145 41.3293 9.3165C41.4462 9.33155 41.5511 9.2287 41.5635 9.08679C41.5759 8.94488 41.4911 8.81764 41.3742 8.80259Z" fill="white"/>
<path d="M40.7165 9.09751C40.5996 9.08246 40.4948 9.18531 40.4824 9.32722C40.47 9.46913 40.5547 9.59637 40.6716 9.61142C40.7885 9.62647 40.8934 9.52364 40.9057 9.38172C40.9181 9.23981 40.8334 9.11256 40.7165 9.09751Z" fill="white"/>
<path d="M43.8498 7.42172C43.7329 7.40667 43.6281 7.50951 43.6157 7.65143C43.6033 7.79334 43.688 7.92059 43.8049 7.93564C43.9218 7.95069 44.0267 7.84785 44.0391 7.70593C44.0515 7.56402 43.9667 7.43677 43.8498 7.42172Z" fill="white"/>
<path d="M43.5324 8.49204C43.4155 8.47699 43.3107 8.57983 43.2983 8.72174C43.2859 8.86365 43.3706 8.9909 43.4875 9.00595C43.6044 9.021 43.7093 8.91816 43.7217 8.77624C43.7341 8.63433 43.6493 8.50709 43.5324 8.49204Z" fill="white"/>
<path d="M42.615 9.5311C42.4981 9.51604 42.3932 9.61889 42.3808 9.7608C42.3684 9.90272 42.4532 10.03 42.5701 10.045C42.687 10.0601 42.7918 9.95722 42.8042 9.81531C42.8166 9.67339 42.7319 9.54615 42.615 9.5311Z" fill="white"/>
<path d="M42.9416 8.46275C42.8247 8.44769 42.7199 8.55053 42.7075 8.69244C42.6951 8.83436 42.7798 8.9616 42.8967 8.97665C43.0136 8.99171 43.1184 8.88886 43.1308 8.74695C43.1432 8.60503 43.0585 8.4778 42.9416 8.46275Z" fill="white"/>
<path d="M44.157 8.0272C44.0401 8.01215 43.9352 8.11498 43.9228 8.2569C43.9104 8.39881 43.9952 8.52606 44.1121 8.54111C44.229 8.55616 44.3338 8.45331 44.3462 8.3114C44.3586 8.16949 44.2739 8.04225 44.157 8.0272Z" fill="white"/>
<path d="M39.5329 12.8436C39.416 12.8285 39.3112 12.9314 39.2988 13.0733C39.2864 13.2152 39.3711 13.3425 39.488 13.3575C39.6049 13.3726 39.7098 13.2697 39.7222 13.1278C39.7346 12.9859 39.6498 12.8586 39.5329 12.8436Z" fill="white"/>
<path d="M39.7546 15.7674C39.6377 15.7524 39.5329 15.8552 39.5205 15.9971C39.5081 16.1391 39.5928 16.2663 39.7097 16.2813C39.8266 16.2964 39.9314 16.1936 39.9438 16.0516C39.9562 15.9097 39.8715 15.7825 39.7546 15.7674Z" fill="white"/>
<path d="M40.5954 14.6092C40.4785 14.5942 40.3737 14.697 40.3613 14.8389C40.3489 14.9808 40.4336 15.1081 40.5505 15.1231C40.6674 15.1382 40.7723 15.0353 40.7847 14.8934C40.7971 14.7515 40.7123 14.6243 40.5954 14.6092Z" fill="white"/>
<path d="M38.5896 15.6288C38.4727 15.6137 38.3678 15.7165 38.3554 15.8585C38.343 16.0004 38.4278 16.1276 38.5447 16.1427C38.6616 16.1577 38.7664 16.0549 38.7788 15.913C38.7912 15.771 38.7065 15.6438 38.5896 15.6288Z" fill="white"/>
<path d="M37.2644 17.4295C37.1475 17.4145 37.0426 17.5173 37.0302 17.6592C37.0178 17.8012 37.1026 17.9284 37.2195 17.9435C37.3364 17.9585 37.4412 17.8557 37.4536 17.7137C37.466 17.5718 37.3813 17.4446 37.2644 17.4295Z" fill="white"/>
<path d="M38.0237 16.7596C37.9067 16.7446 37.8019 16.8474 37.7895 16.9893C37.7771 17.1312 37.8618 17.2585 37.9788 17.2735C38.0957 17.2886 38.2005 17.1857 38.2129 17.0438C38.2253 16.9019 38.1406 16.7747 38.0237 16.7596Z" fill="white"/>
<path d="M40.3542 15.2518C40.2373 15.2368 40.1325 15.3396 40.1201 15.4815C40.1077 15.6234 40.1924 15.7507 40.3093 15.7657C40.4262 15.7808 40.531 15.6779 40.5434 15.536C40.5558 15.3941 40.4711 15.2669 40.3542 15.2518Z" fill="white"/>
<path d="M39.7297 14.6053C39.6128 14.5903 39.508 14.6931 39.4956 14.835C39.4832 14.9769 39.5679 15.1042 39.6848 15.1192C39.8017 15.1343 39.9065 15.0314 39.9189 14.8895C39.9313 14.7476 39.8466 14.6204 39.7297 14.6053Z" fill="white"/>
<path d="M40.6784 13.7713C40.5615 13.7563 40.4567 13.8591 40.4443 14.001C40.4319 14.143 40.5166 14.2702 40.6335 14.2852C40.7504 14.3003 40.8553 14.1975 40.8677 14.0555C40.8801 13.9136 40.7953 13.7864 40.6784 13.7713Z" fill="white"/>
<path d="M39.0486 14.826C38.9316 14.811 38.8268 14.9138 38.8144 15.0557C38.802 15.1976 38.8867 15.3249 39.0037 15.3399C39.1206 15.355 39.2254 15.2521 39.2378 15.1102C39.2502 14.9683 39.1655 14.8411 39.0486 14.826Z" fill="white"/>
<path d="M37.7385 15.2342C37.6216 15.2192 37.5168 15.322 37.5044 15.4639C37.492 15.6058 37.5767 15.7331 37.6936 15.7481C37.8105 15.7632 37.9153 15.6603 37.9277 15.5184C37.9401 15.3765 37.8554 15.2493 37.7385 15.2342Z" fill="white"/>
<path d="M37.3039 15.8651C37.187 15.85 37.0822 15.9529 37.0698 16.0948C37.0574 16.2367 37.1421 16.3639 37.259 16.379C37.3759 16.394 37.4808 16.2912 37.4932 16.1493C37.5056 16.0074 37.4208 15.8801 37.3039 15.8651Z" fill="white"/>
<path d="M36.1233 17.4588C36.0064 17.4438 35.9015 17.5466 35.8891 17.6885C35.8767 17.8305 35.9615 17.9577 36.0784 17.9727C36.1953 17.9878 36.3001 17.885 36.3125 17.743C36.3249 17.6011 36.2402 17.4739 36.1233 17.4588Z" fill="white"/>
<path d="M36.7395 15.7577C36.6226 15.7426 36.5177 15.8455 36.5053 15.9874C36.4929 16.1293 36.5777 16.2565 36.6946 16.2716C36.8115 16.2866 36.9163 16.1838 36.9287 16.0419C36.9411 15.9 36.8564 15.7727 36.7395 15.7577Z" fill="white"/>
<path d="M36.0578 15.7616C35.9409 15.7465 35.8361 15.8494 35.8237 15.9913C35.8113 16.1332 35.896 16.2604 36.0129 16.2755C36.1298 16.2905 36.2347 16.1877 36.2471 16.0458C36.2595 15.9039 36.1747 15.7766 36.0578 15.7616Z" fill="white"/>
<path d="M35.2151 16.3846C35.0982 16.3696 34.9933 16.4724 34.9809 16.6143C34.9685 16.7562 35.0533 16.8835 35.1702 16.8985C35.2871 16.9136 35.3919 16.8107 35.4043 16.6688C35.4167 16.5269 35.332 16.3997 35.2151 16.3846Z" fill="white"/>
<path d="M35.3152 15.7967C35.1982 15.7817 35.0934 15.8845 35.081 16.0264C35.0686 16.1683 35.1533 16.2956 35.2703 16.3106C35.3872 16.3257 35.492 16.2228 35.5044 16.0809C35.5168 15.939 35.4321 15.8118 35.3152 15.7967Z" fill="white"/>
<path d="M35.8928 16.5331C35.7759 16.518 35.6711 16.6209 35.6587 16.7628C35.6463 16.9047 35.731 17.0319 35.8479 17.047C35.9648 17.062 36.0696 16.9592 36.082 16.8173C36.0944 16.6754 36.0097 16.5481 35.8928 16.5331Z" fill="white"/>
<path d="M36.7512 17.0702C36.6343 17.0551 36.5295 17.158 36.5171 17.2999C36.5047 17.4418 36.5894 17.569 36.7063 17.5841C36.8232 17.5991 36.928 17.4963 36.9404 17.3544C36.9528 17.2125 36.8681 17.0852 36.7512 17.0702Z" fill="white"/>
<path d="M36.5715 17.7889C36.4546 17.7739 36.3498 17.8767 36.3374 18.0186C36.325 18.1605 36.4097 18.2878 36.5266 18.3028C36.6435 18.3179 36.7483 18.215 36.7607 18.0731C36.7731 17.9312 36.6884 17.804 36.5715 17.7889Z" fill="white"/>
<path d="M36.6794 16.326C36.5625 16.311 36.4577 16.4138 36.4453 16.5557C36.4329 16.6976 36.5176 16.8249 36.6345 16.8399C36.7514 16.855 36.8562 16.7521 36.8686 16.6102C36.881 16.4683 36.7963 16.3411 36.6794 16.326Z" fill="white"/>
<path d="M40.1433 13.9979C40.0264 13.9829 39.9216 14.0857 39.9092 14.2276C39.8968 14.3695 39.9815 14.4968 40.0984 14.5118C40.2153 14.5269 40.3201 14.424 40.3325 14.2821C40.3449 14.1402 40.2602 14.013 40.1433 13.9979Z" fill="white"/>
<path d="M39.4997 13.785C39.3828 13.77 39.278 13.8728 39.2656 14.0147C39.2532 14.1566 39.3379 14.2839 39.4548 14.2989C39.5717 14.314 39.6766 14.2111 39.689 14.0692C39.7014 13.9273 39.6166 13.8001 39.4997 13.785Z" fill="white"/>
<path d="M38.9626 14.0331C38.8457 14.018 38.7409 14.1208 38.7285 14.2628C38.7161 14.4047 38.8008 14.5319 38.9177 14.547C39.0346 14.562 39.1394 14.4592 39.1518 14.3173C39.1642 14.1753 39.0795 14.0481 38.9626 14.0331Z" fill="white"/>
<path d="M40.1975 13.2596C40.0806 13.2446 39.9758 13.3474 39.9634 13.4893C39.951 13.6312 40.0357 13.7585 40.1526 13.7735C40.2695 13.7886 40.3743 13.6857 40.3867 13.5438C40.3991 13.4019 40.3144 13.2747 40.1975 13.2596Z" fill="white"/>
<path d="M38.5007 14.8592C38.3838 14.8442 38.279 14.947 38.2666 15.0889C38.2542 15.2308 38.3389 15.3581 38.4558 15.3731C38.5727 15.3882 38.6775 15.2853 38.6899 15.1434C38.7023 15.0015 38.6176 14.8743 38.5007 14.8592Z" fill="white"/>
<path d="M37.157 15.2069C37.0401 15.1918 36.9352 15.2947 36.9228 15.4366C36.9104 15.5785 36.9952 15.7057 37.1121 15.7208C37.229 15.7358 37.3338 15.633 37.3462 15.4911C37.3586 15.3492 37.2739 15.2219 37.157 15.2069Z" fill="white"/>
<path d="M36.0031 18.2831C35.8862 18.268 35.7814 18.3708 35.769 18.5128C35.7566 18.6547 35.8413 18.7819 35.9582 18.797C36.0751 18.812 36.18 18.7092 36.1924 18.5673C36.2048 18.4253 36.12 18.2981 36.0031 18.2831Z" fill="white"/>
<path d="M36.0315 19.1854C35.9146 19.1703 35.8097 19.2732 35.7973 19.4151C35.7849 19.557 35.8697 19.6843 35.9866 19.6993C36.1035 19.7144 36.2083 19.6115 36.2207 19.4696C36.2331 19.3277 36.1484 19.2004 36.0315 19.1854Z" fill="white"/>
<path d="M34.9021 19.076C34.7852 19.061 34.6803 19.1638 34.6679 19.3057C34.6555 19.4476 34.7403 19.5749 34.8572 19.5899C34.9741 19.605 35.0789 19.5021 35.0913 19.3602C35.1037 19.2183 35.019 19.0911 34.9021 19.076Z" fill="white"/>
<path d="M36.8811 14.5799C36.7642 14.5649 36.6593 14.6677 36.6469 14.8096C36.6345 14.9515 36.7193 15.0788 36.8362 15.0938C36.9531 15.1089 37.0579 15.006 37.0703 14.8641C37.0827 14.7222 36.998 14.595 36.8811 14.5799Z" fill="white"/>
<path d="M36.5344 15.0916C36.4175 15.0766 36.3127 15.1794 36.3003 15.3213C36.2879 15.4633 36.3726 15.5905 36.4895 15.6056C36.6064 15.6206 36.7112 15.5178 36.7236 15.3759C36.736 15.2339 36.6513 15.1067 36.5344 15.0916Z" fill="white"/>
<path d="M35.8611 14.8983C35.7442 14.8832 35.6393 14.9861 35.6269 15.128C35.6145 15.2699 35.6993 15.3972 35.8162 15.4122C35.9331 15.4273 36.0379 15.3244 36.0503 15.1825C36.0627 15.0406 35.978 14.9133 35.8611 14.8983Z" fill="white"/>
<path d="M39.2326 15.617C39.1157 15.602 39.0109 15.7048 38.9985 15.8467C38.9861 15.9887 39.0708 16.1159 39.1877 16.131C39.3046 16.146 39.4095 16.0432 39.4219 15.9012C39.4343 15.7593 39.3495 15.6321 39.2326 15.617Z" fill="white"/>
<path d="M38.4831 16.287C38.3662 16.2719 38.2614 16.3747 38.249 16.5167C38.2366 16.6586 38.3213 16.7858 38.4382 16.8009C38.5551 16.8159 38.66 16.7131 38.6724 16.5712C38.6848 16.4293 38.6 16.302 38.4831 16.287Z" fill="white"/>
<path d="M37.2463 16.5311C37.1294 16.516 37.0246 16.6189 37.0122 16.7608C36.9998 16.9027 37.0845 17.03 37.2014 17.045C37.3183 17.0601 37.4231 16.9572 37.4355 16.8153C37.4479 16.6734 37.3632 16.5461 37.2463 16.5311Z" fill="white"/>
<path d="M38.0036 15.8729C37.8867 15.8578 37.7819 15.9607 37.7695 16.1026C37.7571 16.2445 37.8418 16.3718 37.9587 16.3868C38.0756 16.4019 38.1805 16.299 38.1929 16.1571C38.2053 16.0152 38.1205 15.8879 38.0036 15.8729Z" fill="white"/>
<path d="M39.2092 16.3338C39.0923 16.3188 38.9875 16.4216 38.9751 16.5635C38.9627 16.7055 39.0474 16.8327 39.1643 16.8477C39.2812 16.8628 39.386 16.76 39.3984 16.618C39.4108 16.4761 39.3261 16.3489 39.2092 16.3338Z" fill="white"/>
</g>
<defs>
<filter id="filter0_d_51_5287" x="0" y="2.00586" width="69.3403" height="51.1191" filterUnits="userSpaceOnUse" color-interpolation-filters="sRGB">
<feFlood flood-opacity="0" result="BackgroundImageFix"/>
<feColorMatrix in="SourceAlpha" type="matrix" values="0 0 0 0 0 0 0 0 0 0 0 0 0 0 0 0 0 0 127 0" result="hardAlpha"/>
<feOffset dy="4"/>
<feGaussianBlur stdDeviation="2"/>
<feComposite in2="hardAlpha" operator="out"/>
<feColorMatrix type="matrix" values="0 0 0 0 0 0 0 0 0 0 0 0 0 0 0 0 0 0 0.25 0"/>
<feBlend mode="normal" in2="BackgroundImageFix" result="effect1_dropShadow_51_5287"/>
<feBlend mode="normal" in="SourceGraphic" in2="effect1_dropShadow_51_5287" result="shape"/>
</filter>
<radialGradient id="paint0_radial_51_5287" cx="0" cy="0" r="1" gradientUnits="userSpaceOnUse" gradientTransform="translate(35.4321 27.656) rotate(26.1807) scale(2.38018 2.70857)">
<stop offset="0.172" stop-color="#95C11F"/>
<stop offset="1" stop-color="#008D36"/>
</radialGradient>
<linearGradient id="paint1_linear_51_5287" x1="23.3303" y1="27.6354" x2="25.4156" y2="30.5265" gradientUnits="userSpaceOnUse">
<stop stop-color="#95C11F"/>
<stop offset="0.1019" stop-color="#6AA725"/>
<stop offset="0.226" stop-color="#3D8B2B"/>
<stop offset="0.3366" stop-color="#1B772F"/>
<stop offset="0.4284" stop-color="#076A32"/>
<stop offset="0.4901" stop-color="#006633"/>
<stop offset="0.5512" stop-color="#076A32"/>
<stop offset="0.6417" stop-color="#1B772F"/>
<stop offset="0.7504" stop-color="#3C8B2B"/>
<stop offset="0.8722" stop-color="#69A625"/>
<stop offset="0.9752" stop-color="#95C11F"/>
</linearGradient>
<radialGradient id="paint2_radial_51_5287" cx="0" cy="0" r="1" gradientUnits="userSpaceOnUse" gradientTransform="translate(28.2996 26.0425) rotate(26.1806) scale(2.38099 2.70949)">
<stop offset="0.172" stop-color="#95C11F"/>
<stop offset="1" stop-color="#008D36"/>
</radialGradient>
<radialGradient id="paint3_radial_51_5287" cx="0" cy="0" r="1" gradientUnits="userSpaceOnUse" gradientTransform="translate(26.0188 27.4556) rotate(26.1807) scale(2.38018 2.70857)">
<stop offset="0.172" stop-color="#95C11F"/>
<stop offset="1" stop-color="#008D36"/>
</radialGradient>
<radialGradient id="paint4_radial_51_5287" cx="0" cy="0" r="1" gradientUnits="userSpaceOnUse" gradientTransform="translate(23.6853 29.0191) rotate(26.1807) scale(2.37948 2.70778)">
<stop offset="0.172" stop-color="#95C11F"/>
<stop offset="1" stop-color="#008D36"/>
</radialGradient>
<radialGradient id="paint5_radial_51_5287" cx="0" cy="0" r="1" gradientUnits="userSpaceOnUse" gradientTransform="translate(19.0885 23.3259) rotate(26.1808) scale(2.38058 2.70904)">
<stop offset="0.172" stop-color="#95C11F"/>
<stop offset="1" stop-color="#008D36"/>
</radialGradient>
<radialGradient id="paint6_radial_51_5287" cx="0" cy="0" r="1" gradientUnits="userSpaceOnUse" gradientTransform="translate(33.9565 27.3239) rotate(26.1807) scale(2.38028 2.70869)">
<stop offset="0.172" stop-color="#95C11F"/>
<stop offset="1" stop-color="#008D36"/>
</radialGradient>
<radialGradient id="paint7_radial_51_5287" cx="0" cy="0" r="1" gradientUnits="userSpaceOnUse" gradientTransform="translate(37.5053 27.7749) rotate(26.1808) scale(2.38058 2.70904)">
<stop offset="0.172" stop-color="#95C11F"/>
<stop offset="1" stop-color="#008D36"/>
</radialGradient>
<radialGradient id="paint8_radial_51_5287" cx="0" cy="0" r="1" gradientUnits="userSpaceOnUse" gradientTransform="translate(35.6779 25.8216) rotate(26.1807) scale(2.37988 2.70823)">
<stop offset="0.172" stop-color="#95C11F"/>
<stop offset="1" stop-color="#008D36"/>
</radialGradient>
<radialGradient id="paint9_radial_51_5287" cx="0" cy="0" r="1" gradientUnits="userSpaceOnUse" gradientTransform="translate(37.2385 25.0858) rotate(26.1808) scale(2.38018 2.70858)">
<stop offset="0.172" stop-color="#95C11F"/>
<stop offset="1" stop-color="#008D36"/>
</radialGradient>
<radialGradient id="paint10_radial_51_5287" cx="0" cy="0" r="1" gradientUnits="userSpaceOnUse" gradientTransform="translate(39.5625 27.5844) rotate(26.1806) scale(2.38029 2.70869)">
<stop offset="0.172" stop-color="#95C11F"/>
<stop offset="1" stop-color="#008D36"/>
</radialGradient>
<radialGradient id="paint11_radial_51_5287" cx="0" cy="0" r="1" gradientUnits="userSpaceOnUse" gradientTransform="translate(39.1778 25.7763) rotate(26.1806) scale(2.38019 2.70858)">
<stop offset="0.172" stop-color="#95C11F"/>
<stop offset="1" stop-color="#008D36"/>
</radialGradient>
<radialGradient id="paint12_radial_51_5287" cx="0" cy="0" r="1" gradientUnits="userSpaceOnUse" gradientTransform="translate(41.2217 27.8487) rotate(26.1806) scale(2.38019 2.70858)">
<stop offset="0.172" stop-color="#95C11F"/>
<stop offset="1" stop-color="#008D36"/>
</radialGradient>
<radialGradient id="paint13_radial_51_5287" cx="0" cy="0" r="1" gradientUnits="userSpaceOnUse" gradientTransform="translate(25.2285 33.3649) rotate(26.1807) scale(2.38058 2.70903)">
<stop offset="0.172" stop-color="#95C11F"/>
<stop offset="1" stop-color="#008D36"/>
</radialGradient>
<radialGradient id="paint14_radial_51_5287" cx="0" cy="0" r="1" gradientUnits="userSpaceOnUse" gradientTransform="translate(29.1623 36.0374) rotate(26.1808) scale(2.37988 2.70824)">
<stop offset="0.172" stop-color="#95C11F"/>
<stop offset="1" stop-color="#008D36"/>
</radialGradient>
<radialGradient id="paint15_radial_51_5287" cx="0" cy="0" r="1" gradientUnits="userSpaceOnUse" gradientTransform="translate(31.7073 32.6641) rotate(26.1807) scale(2.37988 2.70823)">
<stop offset="0.172" stop-color="#95C11F"/>
<stop offset="1" stop-color="#008D36"/>
</radialGradient>
<radialGradient id="paint16_radial_51_5287" cx="0" cy="0" r="1" gradientUnits="userSpaceOnUse" gradientTransform="translate(18.0629 13.8728) rotate(26.1807) scale(2.37988 2.70823)">
<stop offset="0.172" stop-color="#95C11F"/>
<stop offset="1" stop-color="#008D36"/>
</radialGradient>
<radialGradient id="paint17_radial_51_5287" cx="0" cy="0" r="1" gradientUnits="userSpaceOnUse" gradientTransform="translate(15.1757 14.9843) rotate(26.1808) scale(2.37988 2.70824)">
<stop offset="0.172" stop-color="#95C11F"/>
<stop offset="1" stop-color="#008D36"/>
</radialGradient>
<radialGradient id="paint18_radial_51_5287" cx="0" cy="0" r="1" gradientUnits="userSpaceOnUse" gradientTransform="translate(5.07399 12.917) rotate(26.1806) scale(2.38059 2.70904)">
<stop offset="0.172" stop-color="#95C11F"/>
<stop offset="1" stop-color="#008D36"/>
</radialGradient>
<radialGradient id="paint19_radial_51_5287" cx="0" cy="0" r="1" gradientUnits="userSpaceOnUse" gradientTransform="translate(21.5208 30.6246) rotate(26.1808) scale(2.28054 2.5952)">
<stop offset="0.172" stop-color="#95C11F"/>
<stop offset="1" stop-color="#008D36"/>
</radialGradient>
<radialGradient id="paint20_radial_51_5287" cx="0" cy="0" r="1" gradientUnits="userSpaceOnUse" gradientTransform="translate(19.6289 32.5308) rotate(26.1808) scale(2.24667 2.55664)">
<stop offset="0.172" stop-color="#95C11F"/>
<stop offset="1" stop-color="#008D36"/>
</radialGradient>
<linearGradient id="paint21_linear_51_5287" x1="22.6383" y1="24.7611" x2="23.8596" y2="28.2656" gradientUnits="userSpaceOnUse">
<stop stop-color="#95C11F"/>
<stop offset="0.1019" stop-color="#6AA725"/>
<stop offset="0.226" stop-color="#3D8B2B"/>
<stop offset="0.3366" stop-color="#1B772F"/>
<stop offset="0.4284" stop-color="#076A32"/>
<stop offset="0.4901" stop-color="#006633"/>
<stop offset="0.5512" stop-color="#076A32"/>
<stop offset="0.6417" stop-color="#1B772F"/>
<stop offset="0.7504" stop-color="#3C8B2B"/>
<stop offset="0.8722" stop-color="#69A625"/>
<stop offset="0.9752" stop-color="#95C11F"/>
</linearGradient>
<linearGradient id="paint22_linear_51_5287" x1="23.1824" y1="18.1618" x2="22.6997" y2="21.8964" gradientUnits="userSpaceOnUse">
<stop stop-color="#95C11F"/>
<stop offset="0.1019" stop-color="#6AA725"/>
<stop offset="0.226" stop-color="#3D8B2B"/>
<stop offset="0.3366" stop-color="#1B772F"/>
<stop offset="0.4284" stop-color="#076A32"/>
<stop offset="0.4901" stop-color="#006633"/>
<stop offset="0.5512" stop-color="#076A32"/>
<stop offset="0.6417" stop-color="#1B772F"/>
<stop offset="0.7504" stop-color="#3C8B2B"/>
<stop offset="0.8722" stop-color="#69A625"/>
<stop offset="0.9752" stop-color="#95C11F"/>
</linearGradient>
<linearGradient id="paint23_linear_51_5287" x1="46.6415" y1="9.79639" x2="22.7071" y2="16.4256" gradientUnits="userSpaceOnUse">
<stop stop-color="#F7E8F0"/>
<stop offset="1" stop-color="#EFBDBB"/>
</linearGradient>
</defs>
</svg>
