<svg width="290" height="290" viewBox="0 0 290 290" fill="none" xmlns="http://www.w3.org/2000/svg">
<path d="M128.8 2.79999C117.2 5.86665 106 12.6667 97.0669 21.6L88.9335 30H52.9335C17.8668 30 16.9335 30 12.5335 33.0667C6.13351 37.3333 2.26685 43.7333 1.33351 51.7333C0.933513 55.6 0.666847 106.667 0.933513 165.333C1.33351 263.067 1.46685 272.4 3.60018 276.133C6.66685 281.867 13.0668 286.933 19.0668 288.667C22.2668 289.467 66.2668 290 146.667 290C276.534 289.867 275.467 289.867 282.267 283.733C283.734 282.4 286.134 279.067 287.467 276.4C289.867 271.6 290 266.667 290 159.867C290 49.2 290 48.1333 287.2 42.4C285.334 38.5333 282.534 35.4667 278.8 33.3333C273.067 30 272.934 30 238 30H202.8L194.534 21.6C177.067 3.73332 151.867 -3.46668 128.8 2.79999ZM156.934 11.4667C203.6 21.3333 219.334 80 183.734 111.333C152.934 138.4 105.6 125.6 91.3335 86.4C88.8002 79.4667 88.4002 76.1333 88.9335 65.7333C89.3335 55.3333 90.1335 51.8667 93.6002 44.2667C105.2 19.6 131.2 6.13332 156.934 11.4667ZM82.0002 46.2667C67.0668 89.4667 100 135.333 146 135.333C173.467 135.333 198.4 118.4 208.8 92.5333C214 79.6 213.6 54.8 208 41.6C207.067 39.4667 209.067 39.3333 239.334 39.3333H271.6L276.134 43.8667L280.667 48.4V158.933C280.667 260.8 280.534 269.6 278.4 272.667C277.2 274.533 275.2 276.667 274 277.6C272.534 278.933 243.067 279.2 146 279.2C28.5335 279.333 19.8668 279.067 17.2002 276.933C15.6002 275.733 13.6002 273.333 12.8002 271.733C11.7335 269.733 11.3335 237.2 11.3335 158.667V48.4L15.8668 43.8667L20.4002 39.3333H52.4002H84.4002L82.0002 46.2667Z" fill="url(#paint0_linear_35_113)"/>
<path d="M135.334 21.0662C125.734 23.1995 117.334 28.2662 110.134 35.9996C102.267 44.5329 98.9337 52.6662 98.8003 63.3329L98.667 71.9996L144.534 72.3996C179.2 72.6662 190.8 72.2662 192.267 71.0662C195.334 68.5329 193.467 56.3996 188.667 46.3996C179.067 26.9329 156.667 16.2662 135.334 21.0662ZM140.667 31.9996C140.667 33.3329 142.134 33.9996 145.334 33.9996C148.534 33.9996 150 33.3329 150 31.9996C150 29.5996 152.4 29.4662 157.334 31.3329C160.267 32.3996 160.667 33.0662 159.334 34.6662C158.134 36.1329 158.667 36.9329 162 38.6662C164.934 40.2662 166.667 40.3996 167.867 39.4662C169.067 38.3996 170.4 38.9329 172.8 41.4662C175.2 44.1329 175.6 45.0662 174.134 45.8662C171.6 47.4662 176.267 55.4662 179.067 54.3996C181.334 53.4662 183.334 56.2662 183.334 60.2662C183.334 63.3329 183.067 63.3329 166.134 63.3329H148.8L142.4 52.6662C138.934 46.7996 135.467 41.9996 134.667 41.9996C134 41.9996 132 43.0662 130.4 44.3996L127.334 46.6662L132 54.3996C134.534 58.6662 136.667 62.3996 136.667 62.7996C136.667 63.5996 109.2 63.4662 108.267 62.5329C107.867 62.1329 108.134 59.9996 108.934 57.8662C109.867 55.0662 110.934 54.1329 112.534 54.6662C114.134 55.1996 115.467 53.9996 117.067 50.7996C119.067 46.5329 119.067 46.1329 117.067 45.3329C115.2 44.6662 115.334 43.9996 118.4 40.9329C121.467 37.8662 122.267 37.5996 123.334 39.3329C124.4 41.0662 125.067 41.0662 128.267 39.3329C130.4 38.1329 132 36.1329 132 34.7996C132 32.3996 135.2 30.2662 139.067 30.1329C139.867 29.9996 140.667 30.9329 140.667 31.9996Z" fill="url(#paint1_linear_35_113)"/>
<path d="M122 87.3337V92.667H146H170V87.3337V82.0003H146H122V87.3337Z" fill="url(#paint2_linear_35_113)"/>
<path d="M117.467 175.467C106.267 178 99.3335 187.6 99.3335 200.4C99.3335 208.667 101.333 214 107.467 221.6C113.067 228.4 137.2 249.6 140.8 250.667C143.733 251.6 144.533 251.2 159.867 238C173.2 226.533 182.8 214.667 184.134 207.867C186.534 194.933 181.334 181.867 171.867 177.333C163.867 173.6 154.8 174.267 147.733 179.2C141.733 183.467 141.733 183.467 138.8 180.933C132.933 175.467 125.733 173.733 117.467 175.467ZM134.133 184.133C135.6 185.467 138 188.533 139.6 191.067L142.4 195.6L145.2 190.533C150.4 181.333 160.8 177.867 169.867 182.533C176.134 185.867 179.334 192 179.334 200.8C179.334 210.933 174.667 217.733 156.8 233.2C144.8 243.6 142.8 244.8 140.267 243.6C134.667 241.067 109.6 216.133 107.2 210.667C102.8 201.067 105.067 189.467 112.533 183.733C118.267 179.2 128.933 179.467 134.133 184.133Z" fill="url(#paint3_linear_35_113)"/>
<defs>
<linearGradient id="paint0_linear_35_113" x1="5" y1="156.5" x2="298.5" y2="155" gradientUnits="userSpaceOnUse">
<stop offset="0.0176754" stop-color="#D7BA8C"/>
<stop offset="1" stop-color="#B1C984"/>
</linearGradient>
<linearGradient id="paint1_linear_35_113" x1="100.04" y1="48.2366" x2="196.553" y2="47.3433" gradientUnits="userSpaceOnUse">
<stop offset="0.0176754" stop-color="#D7BA8C"/>
<stop offset="1" stop-color="#B1C984"/>
</linearGradient>
<linearGradient id="paint2_linear_35_113" x1="122.693" y1="87.7469" x2="171.386" y2="86.626" gradientUnits="userSpaceOnUse">
<stop offset="0.0176754" stop-color="#D7BA8C"/>
<stop offset="1" stop-color="#B1C984"/>
</linearGradient>
<linearGradient id="paint3_linear_35_113" x1="100.566" y1="215.848" x2="187.225" y2="215.351" gradientUnits="userSpaceOnUse">
<stop offset="0.0176754" stop-color="#D7BA8C"/>
<stop offset="1" stop-color="#B1C984"/>
</linearGradient>
</defs>
</svg>
