<svg width="600" height="976" viewBox="0 0 600 976" fill="none" xmlns="http://www.w3.org/2000/svg">
<g clip-path="url(#clip0_50_63)">
<path d="M524.279 450.848L468.549 467.188L461.135 478.467L459.279 491.892L459.446 500.871L460.335 508.121C456.589 511.645 454.681 514.389 454.612 516.354C454.537 517.573 454.834 518.663 455.502 519.624L462.302 527.071C463.278 528.252 463.839 529.459 463.988 530.692C464.084 531.492 463.82 532.471 463.195 533.628L457.277 541.154C456.478 542.488 456.135 543.523 456.25 544.261C456.242 545.166 456.743 546.302 457.752 547.669C462.265 552.344 464.46 554.775 464.339 554.962C465.09 556.196 465.51 557.335 465.6 558.378C465.727 559.169 465.707 560.252 465.54 561.628C464.347 567.26 463.748 570.748 463.742 572.093C463.525 574.632 463.575 577.134 463.892 579.599C464.147 581.437 464.581 582.973 465.192 584.207C465.459 585.045 466.951 586.96 469.667 589.954C470.165 590.618 470.449 591.613 470.519 592.939C469.412 600.174 469.155 610.802 469.749 624.823C468.737 627.519 468.476 629.597 468.967 631.054C469.285 632.182 469.905 633.273 470.828 634.326C478.728 641.298 483.157 646.154 484.113 648.894C484.882 650.337 485.648 652.253 486.412 654.64L489.965 668.094C490.512 670.044 491.204 672.124 492.041 674.333C493.614 678.612 496.544 684.846 500.831 693.034L506.304 663.262C507.408 659.124 508.099 656.266 508.378 654.687C508.741 652.828 508.94 651.172 508.975 649.72C509.016 648.051 508.788 646.637 508.293 645.48L503.564 637.986C502.781 636.247 502.235 634.142 501.926 631.671C500.936 620.424 501.354 612.277 503.181 607.229C505.278 600.179 507.749 595.192 510.592 592.269C511.741 591.154 512.8 590.46 513.77 590.186C519.599 589.616 523.073 588.762 524.192 587.626C526.638 586.052 528.98 583.089 531.216 578.736C534.121 573.131 537.14 565.555 540.273 556.009C544.349 543.42 546.633 534.345 547.124 528.784L551.187 519.261C551.951 517.078 552.401 515.181 552.537 513.569C552.743 511.425 552.49 509.224 551.778 506.969C551.534 505.808 550.038 502.294 547.291 496.428C546.794 495.154 546.47 493.99 546.32 492.936C546.114 491.882 546.111 490.497 546.311 488.781C547.453 484.139 548.073 480.859 548.171 478.941C547.095 472.823 545.909 468.358 544.613 465.548C541.191 458.369 534.461 453.479 524.423 450.878" fill="#85440D"/>
<path d="M468.636 156.307C466.401 156.307 462.031 159.235 455.525 165.091L447.647 178.648L446.495 195.71L449.447 218.81L430.162 295.353L417.792 355.683L412.612 405.674C390.522 414.239 376.396 418.522 370.234 418.522C369.753 418.522 369.321 418.496 368.937 418.443H368.933C370.458 422.095 380.057 458.313 397.732 527.097L415.859 537.38L420.178 557.403L426.908 615.45L434.26 651.847L442.74 686.19C446.111 696.11 448.489 704.245 449.873 710.597C451.242 716.591 452.784 725.852 454.501 738.377L471.463 757.27L467.476 752.148L467.999 739.657C457.322 657.587 451.01 605.594 449.063 583.677C448.391 576.612 447.941 570.268 447.713 564.643C447.469 562.165 447.556 555.194 447.975 543.729C447.928 541.277 447.682 537.899 447.238 533.593L445.098 517.833C444.303 512.644 442.961 506.151 441.071 498.357L440.934 495.213C440.973 491.899 447.777 490.21 461.346 490.147C461.937 490.089 462.544 490.06 463.167 490.06C468.723 490.06 475.517 492.38 483.547 497.022C484.321 497.161 485.093 497.231 485.863 497.231C487.603 497.231 489.333 496.875 491.054 496.162C492.851 495.444 493.915 494.212 494.247 492.466C494.388 491.624 494.085 489.639 493.338 486.511C493.248 485.662 493.309 485.041 493.523 484.648L501.571 481.507C502.006 481.461 502.292 480.057 502.43 477.297L503.28 476.324C504.303 475.284 509.062 474.764 517.556 474.764C519.286 474.764 521.17 474.785 523.209 474.829C526.638 469.92 528.255 464.055 528.059 457.232C528.335 453.64 527.061 451.339 524.237 450.329L504.613 447.415C503.567 447.371 501.132 443.121 497.306 434.662L495.223 432.807C495.134 432.725 495.033 432.683 494.92 432.683C493.946 432.683 492.04 435.697 489.202 441.724C480.076 440.687 473.431 440.169 469.265 440.169C465.894 440.169 464.147 440.509 464.024 441.188C463.948 441.153 463.872 441.136 463.798 441.136C462.447 441.136 461.534 446.906 461.06 458.447C460.734 459.723 460.303 460.361 459.765 460.361C459.634 460.361 459.496 460.323 459.352 460.247C448.398 452.484 441.129 444.802 437.543 437.2C437.214 435.735 437.275 434.467 437.727 433.396C440.413 428.777 441.876 425.733 442.117 424.264C442.68 422.461 443.12 419.437 443.437 415.194L443.699 402.394L441.117 375.964L443.484 354.401L454.703 312.191L462.839 238.519L468.165 224.404C471.859 219.956 475.851 212.745 480.139 202.77L480.272 193.393C478.696 187.867 477.347 178.283 476.224 164.638L469.142 156.502L468.986 156.333C468.876 156.316 468.759 156.307 468.636 156.307Z" fill="#FFC799"/>
<path d="M396.384 654.35L468.3 752.834C473.226 759.518 477.537 764.877 481.233 768.91C487.643 775.895 493.406 780.254 498.523 781.986C502.899 783.906 510.455 784.325 521.193 783.246C522.264 784.011 521.426 785.596 518.68 788C515.314 790.766 512.087 792.503 509 793.211C508.202 793.715 503.621 793.848 495.259 793.611C494.829 793.311 490.99 794.634 483.742 797.583C482.134 797.957 480.706 797.776 479.458 797.04C478.373 796.429 477.167 795.019 475.842 792.81C470.726 782.394 467.858 776.916 467.236 776.376C465.572 773.795 463.435 771.194 460.825 768.57C458.86 766.592 456.346 764.383 453.283 761.941C433.452 747.2 420.929 737.428 415.714 732.626C404.447 722.799 393.951 712.631 384.224 702.123C377.767 695.069 371.819 687.798 366.379 680.308L396.275 654.444" fill="#FFC799"/>
<path d="M112.88 644.822L58.6777 755.961C54.9541 763.512 51.6076 769.63 48.6382 774.315C43.4872 782.432 38.5126 787.811 33.7144 790.454C29.6898 793.151 22.2224 794.919 11.3121 795.758C10.3795 796.713 11.4986 798.145 14.6694 800.055C18.5229 802.215 22.0533 803.373 25.2607 803.528C26.1476 803.888 30.7434 803.204 39.048 801.474C39.4238 801.098 43.4918 801.734 51.2522 803.383C52.9245 803.469 54.3178 803.034 55.4322 802.076C56.406 801.273 57.3573 799.65 58.286 797.208C61.5328 785.899 63.4182 779.919 63.9424 779.269C65.1428 776.396 66.8112 773.418 68.9475 770.333C70.5564 768.008 72.6715 765.354 75.2929 762.37C92.4554 744.116 103.211 732.128 107.559 726.404C117.05 714.584 125.713 702.561 133.546 690.336C138.732 682.143 143.371 673.823 147.463 665.376L113.006 644.897" fill="#FFC799"/>
<path d="M370.157 418.041L263.964 449.911C238.583 460.521 218.532 472.522 203.81 485.916C191.885 496.589 180.581 510.892 169.898 528.823C165.142 536.848 161.132 544.636 157.869 552.187C147.853 581.602 141.302 598.432 138.217 602.675C134.772 609.141 130.453 616.365 125.261 624.348L98.3838 664.161L135.517 687.204L186.258 624.328C200.05 604.316 209.821 591.166 215.571 584.877C223.708 575.493 232.717 569.215 242.596 566.043L247.98 570.338L321.772 640.403L384.79 707.951L414.351 673.738C384.036 632.163 351.782 586.285 317.59 536.102C329.46 529.149 339.167 525.479 346.711 525.093C350.747 524.786 354.775 524.931 358.797 525.527L382.474 530.005C386.791 530.392 391.496 530.074 396.588 529.052C405.834 527.304 421.446 520.648 443.426 509.084L441.661 499.811L441.214 499.791L398.884 517.225C393.605 505.505 390.934 495.623 390.872 487.577C390.636 479.327 391.8 468.63 394.365 455.486L440.711 443.135L441.257 436.459C416.299 438.709 399.95 438.677 392.21 436.365C383.417 434.34 376.1 428.283 370.259 418.195" fill="white"/>
<path d="M464.087 441.027C464.055 441.079 464.034 441.132 464.024 441.188C463.948 441.153 463.872 441.136 463.798 441.136C462.447 441.136 461.534 446.906 461.06 458.447C460.807 459.439 460.49 460.045 460.109 460.266H460.114C460.116 460.304 460.119 460.342 460.121 460.38L448.031 465.116L467.591 482.132C469.542 474.954 469.892 467.615 468.639 460.116C467.749 454.497 466.266 448.239 464.19 441.342C464.157 441.237 464.125 441.132 464.092 441.027H464.087Z" fill="#85440D" fill-opacity="0.0666667"/>
<path d="M370.157 418.041L369.993 418.09H369.996C370.07 418.104 370.143 418.118 370.217 418.131L370.157 418.041Z" fill="#85440D" fill-opacity="0.0705882"/>
<path d="M462.741 151.27L457.866 163.031C457.864 163.033 457.861 163.035 457.859 163.037H457.863L446.918 189.444L446.495 195.71L449.447 218.81L430.162 295.353L417.792 355.683L412.612 405.674C392.417 413.504 378.878 417.755 371.996 418.427H372C376.256 419.069 381.424 419.421 387.504 419.481C397.086 419.279 407.199 416.089 417.845 409.909C422.71 381.65 427.092 358.162 430.99 339.444C431.574 335.543 438.837 302.95 452.777 241.665C455.672 228.339 457.866 217.381 459.36 208.791C462.706 190.613 464.011 173.943 463.276 158.782C463.159 156.388 462.992 154.031 462.775 151.712L462.741 151.27Z" fill="#85440D" fill-opacity="0.0705882"/>
<path d="M374.895 418.006C373.129 418.33 371.647 418.501 370.448 418.52C370.385 418.412 370.322 418.304 370.259 418.195L370.157 418.041L263.964 449.911C238.583 460.521 218.532 472.522 203.81 485.916C191.885 496.589 180.581 510.892 169.898 528.823C165.142 536.848 161.132 544.636 157.869 552.187C147.853 581.602 141.302 598.431 138.217 602.675C134.772 609.141 130.453 616.365 125.261 624.348L98.3838 664.161L102.272 666.574L58.6777 755.961C54.9541 763.512 51.6076 769.63 48.6382 774.316C43.4872 782.432 38.5126 787.812 33.7144 790.454C29.6898 793.151 22.2224 794.919 11.3121 795.758C10.8915 796.189 10.8882 796.717 11.3021 797.341C17.1956 797.953 21.8309 798.26 25.2076 798.26C28.8525 798.26 31.0312 797.903 31.7438 797.19C39.3461 795.599 47.4729 788.851 56.1241 776.947C63.4879 767.408 77.1212 745.891 97.0239 712.395C108.547 683.959 117.982 663.988 125.326 652.48C128.212 647.778 131.453 643.274 135.052 638.968L156.435 615.546C159.218 612.158 161.685 608.51 163.838 604.601C166.124 600.437 168.1 595.491 169.766 589.764C177 557.905 181.783 540.143 184.114 536.477C188.14 526.366 194.674 516.904 203.717 508.092C207.809 504.097 212.504 500.098 217.801 496.094L252.821 470.858C254.785 471.012 256.1 473.181 256.766 477.364C257.994 496.884 259.465 509.316 261.181 514.659C266.235 510.447 269.656 506.258 271.443 502.089C272.514 501.302 274.243 493.507 276.63 478.705C277.232 476.262 278.077 474.554 279.166 473.581C279.538 472.894 280.182 472.551 281.098 472.551C283.746 472.551 288.668 475.416 295.864 481.147C295.314 468.337 297.363 460.494 302.01 457.619L314.263 450.133L364.615 424.502C369.714 421.717 373.142 419.551 374.899 418.006H374.895Z" fill="#85440D" fill-opacity="0.0745098"/>
<path d="M231.795 563.469C219.808 572.333 211.168 580.374 205.875 587.592C189.22 607.189 164.011 639.356 130.246 684.094C85.889 743.359 58.2659 782.856 47.3765 802.584C48.5455 802.817 49.8377 803.084 51.2521 803.384C51.3908 803.392 51.5276 803.395 51.6624 803.395C53.1536 803.395 54.4102 802.956 55.4322 802.078C56.406 801.274 57.3572 799.652 58.2859 797.21C61.5327 785.901 63.4182 779.921 63.9423 779.27C65.1427 776.398 66.8111 773.419 68.9474 770.335C70.5563 768.01 72.6715 765.356 75.2928 762.372C92.4553 744.118 103.211 732.129 107.559 726.405C117.05 714.585 125.713 702.563 133.546 690.338C134.207 689.293 134.859 688.246 135.503 687.197H135.504L135.517 687.206L186.258 624.329C200.05 604.317 209.821 591.167 215.571 584.878C223.708 575.494 232.717 569.216 242.596 566.044L247.98 570.339L321.772 640.404L384.79 707.953L387.136 705.238H387.139C396.039 714.644 405.564 723.773 415.714 732.626C420.929 737.428 433.452 747.2 453.283 761.941C456.346 764.382 458.86 766.592 460.825 768.57C463.435 771.193 465.572 773.795 467.236 776.375C467.858 776.916 470.726 782.394 475.842 792.81C477.167 795.019 478.373 796.429 479.457 797.04C480.285 797.528 481.191 797.772 482.177 797.772C482.678 797.772 483.2 797.709 483.742 797.583C490.32 794.907 494.089 793.569 495.052 793.569C495.15 793.569 495.219 793.583 495.259 793.611C497.936 793.687 500.225 793.725 502.127 793.725C506.166 793.725 508.457 793.553 509 793.211C512.087 792.503 515.314 790.766 518.68 788C519.811 787.01 520.618 786.158 521.102 785.446H521.097C501.55 790.752 489.168 793.405 483.951 793.405C482.094 793.405 481.144 793.069 481.104 792.396C476.936 780.381 468.357 768.092 455.368 755.527L430.851 731.964C416.462 719.134 403.903 707.897 393.175 698.253C384.122 690.115 376.372 683.111 369.926 677.242C357.178 665.637 349.526 658.467 346.971 655.734L276 582.101C272.427 579.132 269.054 576.007 265.879 572.724C259.498 568.862 253.957 566.026 249.255 564.216C244.49 562.529 241.407 561.439 240.005 560.947L237.766 560.857L236.269 561.233C234.995 561.804 233.504 562.55 231.795 563.469Z" fill="#85440D" fill-opacity="0.129412"/>
<path d="M346.992 510.107C345.369 510.129 343.766 510.489 342.185 511.187C338.965 513.639 328.203 519.98 309.897 530.212C321.974 565.507 348.698 608.707 390.071 659.81L390.069 659.812H390.073C395.733 666.804 401.668 673.944 407.877 681.231L412.288 676.127L407.875 681.234H407.879C421.371 697.07 436.158 713.604 452.239 730.837L412.288 676.127L414.351 673.738C384.036 632.163 351.782 586.284 317.59 536.101C329.45 529.154 339.151 525.485 346.692 525.094H346.695C346.701 525.093 346.706 525.093 346.711 525.093C348.083 524.988 349.454 524.936 350.825 524.936C353.485 524.936 356.143 525.133 358.797 525.526L382.474 530.005C383.645 530.11 384.845 530.163 386.073 530.164H386.155C389.431 530.161 392.908 529.79 396.589 529.051C397.6 528.86 398.688 528.61 399.852 528.301H399.856L415.859 537.379L420.178 557.402L426.908 615.45L434.26 651.846L442.74 686.19C446.111 696.109 448.489 704.245 449.873 710.596C451.033 715.677 452.318 723.104 453.728 732.876L452.416 731.08L453.966 734.539C453.966 734.544 453.967 734.548 453.968 734.553H453.972L454.821 736.447L454.399 733.796L454.276 733.022H454.281C454.862 733.643 455.446 734.265 456.031 734.888C455.352 733.684 454.677 732.485 454.006 731.291H454.001L427.447 564.264L421.647 535.234L409.346 523.18L380.126 528.337C379.306 528.448 378.488 528.504 377.671 528.504C375.787 528.504 373.912 528.208 372.045 527.617C369.701 526.825 367.476 525.558 365.371 523.816L353.469 512.406C351.458 510.928 349.35 510.162 347.143 510.109L346.992 510.107ZM453.329 732.33L453.728 732.876L453.588 732.684L453.329 732.33Z" fill="#85440D" fill-opacity="0.101961"/>
</g>
<defs>
<clipPath id="clip0_50_63">
<rect width="600" height="976" fill="white"/>
</clipPath>
</defs>
</svg>
