<svg width="30" height="40" viewBox="0 0 30 40" fill="none" xmlns="http://www.w3.org/2000/svg">
<path d="M29.6814 27.4833C29.5521 27.1144 29.3864 26.7808 29.1893 26.4915C28.9804 26.1816 28.7262 25.9006 28.4337 25.6558C28.1555 25.4221 27.836 25.214 27.4835 25.0368L27.3483 24.9711C27.2996 24.9499 27.251 24.9306 27.2023 24.9132C27.105 24.8789 27.0027 24.8509 26.8985 24.8306C26.7088 24.793 26.5018 24.7785 26.2835 24.7886C25.8627 24.8084 25.4724 24.8968 25.1455 24.9808C24.9494 25.031 24.7562 25.086 24.5689 25.1392C24.4155 25.1826 24.2572 25.2275 24.1024 25.2686C23.7312 25.3699 23.4033 25.4404 23.1 25.4849C22.9447 25.5076 22.7835 25.522 22.607 25.5302C22.5362 25.5336 22.4605 25.5346 22.3627 25.5331C22.2737 25.5317 22.1852 25.5273 22.11 25.5235C22.1105 25.5235 22.1095 25.5235 22.11 25.5235C22.1095 25.481 22.108 25.4385 22.108 25.3955C22.1065 25.0547 22.1242 24.7123 22.1606 24.3773C22.197 24.0132 22.2481 23.6868 22.3164 23.3802C22.3838 23.0794 22.4806 22.7675 22.6143 22.4252C22.6301 22.3822 22.6468 22.3402 22.664 22.2977C22.6783 22.2625 22.6925 22.2277 22.7058 22.192L22.7485 22.0771L22.7618 22.0443C22.7736 22.0158 22.7854 21.9878 22.7953 21.9607C22.8129 21.9173 22.8292 21.8733 22.8454 21.8289C22.8582 21.7946 22.8705 21.7599 22.8837 21.727C22.9152 21.6508 22.9437 21.5749 22.9762 21.488C22.9929 21.4373 23.013 21.3886 23.0351 21.3364C23.046 21.3108 23.0568 21.2853 23.0666 21.2597C23.0779 21.2312 23.0892 21.2027 23.1 21.1737C23.1197 21.123 23.1379 21.0752 23.16 21.0265L23.1846 20.9695C23.2101 20.9101 23.2357 20.8507 23.2603 20.7899C23.2745 20.7527 23.2913 20.715 23.3094 20.6764L23.3625 20.5576C23.423 20.4147 23.4869 20.2762 23.5547 20.1294C23.6344 19.9565 23.717 19.7779 23.7937 19.5905L23.8158 19.5365L23.6644 19.4109L23.6128 19.4447C23.2942 19.6538 23.0086 19.9044 22.7667 20.1868C22.6399 20.3249 22.5303 20.477 22.4246 20.6238L22.4207 20.6291C22.3902 20.6692 22.3636 20.7112 22.3396 20.7508L22.2314 20.9255C22.1945 20.9864 22.1567 21.0492 22.1247 21.1119C21.9561 21.419 21.8224 21.7724 21.7265 22.1645C21.6435 22.53 21.5914 22.9042 21.5466 23.2537C21.5053 23.5946 21.4847 23.9519 21.4847 24.3468C21.4891 24.7061 21.5142 25.0701 21.5594 25.4298C21.5614 25.4448 21.5633 25.4598 21.5658 25.4747C21.1435 25.4255 20.7227 25.3516 20.2788 25.2739L19.9819 25.2222C19.6412 25.1647 19.2893 25.1054 18.9299 25.0677C18.6163 25.0368 18.2019 25.0088 17.7722 25.0624C17.5604 25.0894 17.3618 25.1358 17.1819 25.2C17.087 25.2338 16.9892 25.2758 16.8997 25.3212C16.8083 25.3675 16.7198 25.4153 16.6529 25.452C16.2842 25.6538 15.979 25.8619 15.7204 26.0884C15.4225 26.3443 15.1742 26.6354 14.9825 26.9536C14.7957 27.2626 14.6507 27.6107 14.5509 27.9878C14.5017 28.1752 14.4644 28.3572 14.4388 28.5286C14.4088 28.7232 14.3887 28.9013 14.3774 29.0727C14.3656 29.2321 14.3582 29.4049 14.3548 29.6178C14.3552 29.7888 14.3567 29.9727 14.3651 30.16C14.3813 30.5188 14.4192 30.8828 14.4786 31.2425C14.5366 31.6018 14.6168 31.9605 14.718 32.3091C14.7598 32.4525 14.8168 32.6413 14.8852 32.831C14.9181 32.9252 14.9496 33.0097 14.981 33.0889L14.9914 33.1154C15.0209 33.1907 15.0459 33.2554 15.0715 33.3293C15.1374 33.52 15.2027 33.7189 15.2657 33.9111C15.3124 34.0531 15.3591 34.1955 15.4067 34.337C15.6088 34.939 15.857 35.6502 16.1653 36.3585C16.2483 36.5512 16.3196 36.7091 16.3889 36.8563C16.4381 36.9592 16.4902 37.0644 16.5443 37.1702C15.6388 37.1137 14.6708 37.0678 13.5127 37.0268L12.6755 36.9968L11.4991 36.965C11.0621 36.9534 10.6099 36.9413 10.165 36.9336C9.0255 36.9114 7.89928 36.8974 6.8178 36.8916C6.16202 36.8868 5.63013 36.8863 5.14248 36.8892C5.09135 36.8901 5.04564 36.8892 5.00041 36.8882L4.85392 36.8853L4.75019 36.8785C4.68776 36.8747 4.62877 36.8708 4.5688 36.8631C4.55012 36.8607 4.53193 36.8587 4.51325 36.8568C4.46753 36.852 4.42427 36.8476 4.37954 36.839C4.12392 36.8003 3.87518 36.7414 3.63971 36.6632C2.66539 36.3426 1.80954 35.6589 1.29141 34.7874C1.02891 34.3529 0.852918 33.8652 0.768366 33.3375C0.725107 33.0758 0.717733 32.8146 0.713309 32.5481L0.700036 31.7268C0.677423 29.7438 0.705935 27.5948 0.786555 25.157L0.864225 22.6917L0.884872 21.87C0.909943 20.8343 0.923707 19.7817 0.937471 18.7635L0.961067 16.9389L0.977781 15.2958C0.992037 14.1071 0.99007 12.9145 0.986629 12.0078C0.985154 11.8456 0.984172 11.6838 0.983189 11.5216C0.980731 11.1421 0.978273 10.75 0.972374 10.3643L0.962541 9.54249L0.954185 9.03069L0.954677 8.93606C0.955168 8.9153 0.955168 8.89454 0.955168 8.87377C0.955168 8.83129 0.955168 8.79169 0.958609 8.74872C0.978764 8.25576 1.0933 7.77197 1.29829 7.31039C1.50181 6.84736 1.78447 6.42972 2.13939 6.07001C2.50562 5.69921 2.92445 5.40323 3.38458 5.18983C3.61365 5.08312 3.85895 4.99477 4.11409 4.92717C4.36381 4.86006 4.62287 4.81515 4.88243 4.79294L5.08054 4.78039L6.54546 4.71956C7.15109 4.69155 7.69871 4.66355 8.21979 4.63265C8.2193 4.66596 8.21881 4.69976 8.21832 4.73307C8.21488 4.95035 8.20898 5.17438 8.19964 5.41917C8.19423 5.56739 8.18686 5.71562 8.17899 5.86337C8.17457 5.944 8.17063 6.02511 8.1667 6.10623L8.1554 6.34522L8.41643 6.35971C8.71777 6.37661 9.01911 6.39592 9.32045 6.41523C9.68029 6.43841 10.0524 6.46207 10.4191 6.4809C10.9717 6.51325 11.5326 6.52725 12.0753 6.54125L12.4395 6.55091C13.0914 6.56829 13.7653 6.58615 14.428 6.5934C15.0449 6.60112 15.7007 6.59678 16.4337 6.57939L16.9218 6.56781L16.9061 5.95703C16.9017 5.78032 16.8972 5.5983 16.8899 5.41868C16.881 5.19031 16.8687 4.95807 16.8535 4.72873C16.853 4.71811 16.852 4.70748 16.8515 4.69686C17.1887 4.73259 17.556 4.76494 17.9969 4.79729C18.5327 4.83592 19.0867 4.86585 19.6904 4.88903L19.7415 4.89096C19.7941 4.89289 19.8462 4.89482 19.8939 4.89868C19.9195 4.90061 19.945 4.90206 19.9701 4.90303C20.0104 4.90496 20.0488 4.90689 20.0871 4.91172C20.1117 4.91462 20.1363 4.91703 20.1609 4.91944C20.2007 4.92379 20.241 4.92765 20.2798 4.93296L20.4725 4.9629C20.7114 5.00442 20.9607 5.07105 21.2128 5.16086C21.6892 5.33516 22.1395 5.58284 22.5514 5.89716C22.987 6.23128 23.3434 6.60933 23.6118 7.02118C23.9033 7.46441 24.0975 7.968 24.1741 8.47882C24.2169 8.75065 24.2199 9.02393 24.2169 9.27983C24.2164 9.53959 24.212 9.81045 24.2036 10.1088C24.2017 10.1977 24.1982 10.287 24.1953 10.3758C24.1933 10.4251 24.1918 10.4743 24.1899 10.5221L24.1702 10.9378C24.1623 11.1218 24.1505 11.3096 24.1397 11.4912C24.1338 11.5829 24.1284 11.6751 24.123 11.7664L24.0704 12.5968L24.0453 13.013L24.0247 13.4283C24.0011 13.8821 23.9893 14.3432 23.978 14.7889L23.9682 15.1645C23.9401 16.2301 23.9107 17.3314 23.9229 18.4158C23.9362 19.521 23.9721 20.6397 24.0296 21.7401C24.0404 21.9612 24.0547 22.1857 24.0685 22.403L24.1058 22.9882L24.1373 23.4034C24.1864 24.0538 24.2371 24.5825 24.2961 25.0677L24.3049 25.1392H24.5281L24.5369 25.0677C24.5959 24.5825 24.6461 24.0538 24.6957 23.4034L24.7272 22.9872L24.764 22.4073C24.7778 22.1886 24.7921 21.9627 24.8029 21.7406C24.8604 20.6388 24.8963 19.52 24.91 18.4158C24.9223 17.3329 24.8933 16.2325 24.8648 15.1684L24.855 14.7889C24.8437 14.3432 24.8314 13.8821 24.8083 13.4287L24.7876 13.0125L24.71 11.7673C24.7046 11.6766 24.6992 11.5858 24.6937 11.4955C24.6824 11.313 24.6706 11.1237 24.6628 10.9378L24.6431 10.5241C24.6416 10.4743 24.6397 10.4241 24.6377 10.3744C24.6343 10.286 24.6313 10.1982 24.6293 10.1093C24.621 9.80997 24.6166 9.53911 24.6161 9.28031C24.6156 9.2272 24.6156 9.17457 24.6156 9.12146C24.6156 9.03697 24.6156 8.9491 24.6131 8.86219C24.6131 8.80666 24.6097 8.75162 24.6067 8.69851L24.5974 8.53435L24.5861 8.42861C24.5237 7.82943 24.3708 7.26356 24.1319 6.74645C23.8713 6.18686 23.5071 5.68569 23.0779 5.29653C22.6306 4.8871 22.0839 4.56843 21.498 4.37578C21.2153 4.28019 20.913 4.21066 20.5984 4.16914C20.5458 4.16286 20.4932 4.15803 20.4401 4.1532L20.3698 4.14644C20.3186 4.1421 20.268 4.14017 20.2169 4.13775C20.1918 4.13679 20.1668 4.13582 20.1397 4.13437C19.9682 4.12906 19.8015 4.13437 19.6924 4.1392C19.0887 4.16238 18.5347 4.19231 17.9984 4.23094C17.5446 4.26425 17.1691 4.29708 16.8259 4.33378C16.8181 4.23528 16.8092 4.13727 16.7999 4.03926C16.7763 3.77563 16.7552 3.55691 16.7335 3.35027L16.7011 3.03788L15.7066 3.13203C15.4456 3.15714 15.186 3.17597 14.9899 3.18949L14.9584 3.19142C14.8498 3.19818 14.7387 3.20494 14.6369 3.20928C14.5425 3.21025 14.4526 3.18369 14.3828 3.13299C14.309 3.08182 14.2515 3.00456 14.221 2.91669C14.193 2.83123 14.193 2.73322 14.221 2.64293C14.3543 2.24556 14.3543 1.8033 14.221 1.39773C14.0839 0.981048 13.8071 0.61217 13.4409 0.35917C13.2487 0.226876 13.0368 0.129346 12.8107 0.0694754C12.6799 0.0351949 12.5649 0.0153991 12.4607 0.0091224L12.3747 0.00139741C12.353 -0.000533891 12.3314 -5.09048e-05 12.3093 0.000431919C12.2999 0.000431919 12.2906 0.000914478 12.2788 0.000914478C12.2626 0.0013973 12.2468 0.00139751 12.2306 0.00188033C12.1874 0.00236316 12.1431 0.00284585 12.1008 0.00815692C11.6122 0.0501626 11.1388 0.277573 10.8021 0.632449C10.456 0.999395 10.254 1.48512 10.2476 1.96215C10.2363 2.19728 10.2731 2.43918 10.3572 2.68204C10.3769 2.73708 10.4 2.79357 10.425 2.84909L10.4309 2.86213C10.4339 2.86841 10.4378 2.87662 10.4383 2.87951L10.4418 2.89303C10.4422 2.89593 10.4427 2.90558 10.4427 2.91234V2.91717L10.4418 2.922C10.4403 2.93021 10.4383 2.9418 10.4359 2.94518L10.4314 2.95435C10.4226 2.97704 10.4024 2.99974 10.3739 3.01808L10.3685 3.0205C10.3646 3.02243 10.3611 3.02388 10.3577 3.02581C10.3523 3.02774 10.3464 3.02967 10.3395 3.03208C10.3326 3.03305 10.3262 3.0345 10.3169 3.03691L9.61982 3.08761C9.17592 3.11851 8.78315 3.13927 8.41987 3.15038L8.20455 3.15665L8.21094 3.35992C8.21881 3.60375 8.22274 3.82826 8.22323 4.04553C8.22373 4.16334 8.22373 4.2797 8.22323 4.39461H8.22078C7.69871 4.36371 7.15109 4.33571 6.54644 4.30771L5.70977 4.27149L5.08005 4.24687L4.8608 4.24446C3.6633 4.2488 2.47514 4.71762 1.6016 5.52925C1.15328 5.94255 0.791471 6.42441 0.526999 6.96131C0.262527 7.50255 0.0983375 8.10077 0.0526202 8.68885C0.0462296 8.74341 0.0442637 8.79797 0.0422973 8.85012C0.0413142 8.87184 0.040822 8.89357 0.0393472 8.91675L0.0349231 9.0278L0.0167348 10.3633C0.0108358 10.7491 0.0083778 11.1416 0.00591988 11.5211C0.00493671 11.6833 0.00395319 11.8451 0.00247844 12.0073C-0.00096265 12.9131 -0.00292859 14.1057 0.0113273 15.2949L0.0285323 16.9384L0.0521289 18.763C0.0654016 19.7813 0.0796572 20.8338 0.104728 21.8695L0.125374 22.6917L0.203045 25.157C0.283664 27.5948 0.311685 29.7438 0.289564 31.7263L0.276291 32.5476L0.274324 32.6432C0.271866 32.747 0.269409 32.8547 0.270883 32.9633C0.2699 33.0304 0.273342 33.0971 0.277274 33.1613L0.284156 33.2902L0.294479 33.3959C0.349537 33.9744 0.511268 34.5344 0.774757 35.0607C1.03923 35.5884 1.3971 36.0611 1.83904 36.4648C2.27999 36.866 2.80795 37.1914 3.36589 37.4068C3.64954 37.5149 3.94498 37.5965 4.24091 37.6482C4.29794 37.6602 4.35545 37.668 4.41051 37.6752L4.50686 37.6887C4.53242 37.6921 4.55798 37.696 4.58453 37.6984L4.81066 37.7167C4.83573 37.7182 4.86129 37.7191 4.88636 37.7196L4.97534 37.7225C5.03433 37.7245 5.0943 37.7259 5.14641 37.7259C5.63062 37.7288 6.16251 37.7283 6.82025 37.7235C7.90272 37.7177 9.02894 37.7037 10.1674 37.6815C10.6128 37.6738 11.0651 37.6617 11.5026 37.6501L12.6785 37.6182L13.5151 37.5888C14.7357 37.5453 15.7454 37.497 16.6863 37.4362C16.8677 37.7742 17.0339 38.0504 17.2069 38.3024C17.4566 38.666 17.6921 38.9489 17.9477 39.1942C18.1109 39.3496 18.2697 39.4761 18.4334 39.5814C18.6419 39.7147 18.8405 39.8074 19.0386 39.8643C19.1457 39.8967 19.2632 39.9203 19.3876 39.9343C19.4874 39.945 19.5906 39.9493 19.713 39.9479C19.9023 39.9454 20.0965 39.9271 20.3236 39.8899C20.5118 39.8585 20.7001 39.8165 20.8997 39.7625C20.9941 39.7364 21.0885 39.7084 21.1804 39.6789L21.319 39.6326C21.3672 39.6157 21.4095 39.6007 21.465 39.579L21.5029 39.564L21.5643 39.5244C21.6828 39.4428 21.7905 39.3839 21.8858 39.3492C21.9861 39.311 22.078 39.2941 22.1759 39.2965C22.2673 39.298 22.3749 39.3202 22.5052 39.3641C22.6301 39.4071 22.7662 39.465 22.9181 39.5312C23.2436 39.6741 23.5651 39.8093 23.9185 39.8933C24.209 39.9638 24.5197 40 24.8284 40C24.8978 40 24.9671 39.9981 25.0359 39.9947C25.1421 39.9889 25.2301 39.9812 25.3102 39.9715C25.3417 39.9681 25.3721 39.9638 25.4031 39.9594L25.4488 39.9532C25.4995 39.9445 25.5584 39.9339 25.6125 39.9208C25.8116 39.8711 26.0092 39.7851 26.2009 39.6654C26.5819 39.4225 26.8528 39.1155 27.0239 38.905C27.2229 38.6582 27.4122 38.3772 27.6029 38.047C27.7612 37.7718 27.9102 37.4792 28.0596 37.1523C28.6068 35.9356 28.9892 34.6513 29.3205 33.4447L29.5742 32.5099C29.5909 32.4462 29.6091 32.382 29.6268 32.3178C29.6519 32.2275 29.6779 32.1343 29.7015 32.0411C29.7374 31.9021 29.7708 31.7543 29.8102 31.5617C29.9389 30.9137 30.0029 30.2595 29.9999 29.6178C29.996 28.7922 29.8922 28.0926 29.6814 27.4833ZM13.99 2.5705C13.8927 2.84668 13.9861 3.16583 14.2151 3.34495C14.3258 3.43862 14.4718 3.49608 14.6251 3.50718C14.6949 3.51249 14.7623 3.51636 14.8291 3.52022C14.8817 3.52312 14.9343 3.52601 14.9874 3.52988C15.185 3.5434 15.4456 3.56271 15.7046 3.58733L16.1053 3.62548C16.0915 3.76453 16.0787 3.9031 16.066 4.04167C16.0438 4.27584 16.0252 4.50808 16.0104 4.73163C15.9947 4.96097 15.9824 5.19321 15.974 5.42158C15.9711 5.49256 15.9686 5.56305 15.9667 5.63402C15.4107 5.62485 14.9068 5.6234 14.428 5.6292C13.7614 5.63644 13.084 5.6543 12.4238 5.67217L12.0748 5.68134C11.5321 5.69534 10.9712 5.70983 10.4191 5.74169C10.0504 5.76101 9.67586 5.78467 9.31357 5.80784C9.09629 5.82184 8.8795 5.83536 8.66222 5.8484C8.65484 5.70645 8.64796 5.56401 8.64255 5.42206C8.63321 5.1792 8.62682 4.95469 8.62387 4.73597C8.61994 4.51436 8.61847 4.28357 8.61945 4.04988C8.61994 3.90503 8.6224 3.75342 8.62633 3.57671C8.938 3.58878 9.26342 3.60665 9.61786 3.63175L10.2196 3.67569L10.3105 3.68197C10.3179 3.68293 10.3307 3.68341 10.3444 3.68293L10.4 3.68245C10.4339 3.68245 10.4658 3.67762 10.4963 3.67279L10.5519 3.66217C10.5848 3.65396 10.6187 3.64575 10.6517 3.63272C10.8154 3.57188 10.9579 3.46228 11.0508 3.32612C11.0965 3.26336 11.1329 3.18949 11.1663 3.08954C11.1939 2.98911 11.2042 2.90559 11.1998 2.83026C11.1983 2.7506 11.1821 2.66562 11.1506 2.57099C11.1393 2.53622 11.129 2.50001 11.1192 2.45946C11.101 2.38558 11.0887 2.30978 11.0838 2.23446C11.0793 2.17169 11.0754 2.08961 11.0857 2.01091L11.0862 2.00512C11.1044 1.71349 11.2224 1.43056 11.4259 1.18818L11.5041 1.10175L11.5925 1.0216C11.6068 1.00809 11.6245 0.99505 11.6427 0.981048C11.6565 0.970908 11.6697 0.960769 11.6845 0.948699C11.7051 0.930834 11.7307 0.915384 11.7572 0.898968L11.7754 0.887862C11.9204 0.79854 12.0664 0.736256 12.2085 0.702458C12.3776 0.662866 12.5433 0.648382 12.6991 0.659487C12.8682 0.671557 13.0334 0.712597 13.1907 0.782607C13.5171 0.924074 13.7875 1.18866 13.933 1.50926C14.0067 1.66859 14.05 1.84482 14.0608 2.0336C14.0736 2.20935 14.0485 2.39089 13.99 2.5705ZM29.5211 31.5028C29.4891 31.6346 29.4483 31.7751 29.3898 31.9581C29.354 32.073 29.3117 32.1903 29.2714 32.3038L29.2335 32.411C29.1254 32.7195 29.0148 33.0246 28.9051 33.3172C28.653 33.9801 28.4141 34.5615 28.1747 35.095C28.0159 35.4484 27.891 35.7154 27.7701 35.9612C27.6275 36.2494 27.4805 36.5328 27.3321 36.8027C26.9693 37.4579 26.6448 37.9446 26.312 38.3323C26.0894 38.5853 25.8883 38.763 25.6976 38.876C25.5919 38.9383 25.4877 38.9812 25.3893 39.003C25.3687 39.0073 25.351 39.0097 25.3299 39.0131L25.3141 39.0155C25.3004 39.017 25.2866 39.0184 25.2728 39.0204C25.2507 39.0232 25.2286 39.0257 25.2045 39.0276C25.1372 39.0344 25.0669 39.0392 24.9907 39.0426C24.7055 39.0532 24.4258 39.0242 24.1589 38.9557C23.8984 38.891 23.6452 38.7886 23.3203 38.6447L23.2903 38.6317C23.1453 38.5684 22.9958 38.5032 22.8233 38.4463C22.5942 38.371 22.3877 38.3338 22.1936 38.3314C22.1837 38.3314 22.1739 38.3309 22.1636 38.3309C21.9512 38.3309 21.7246 38.3748 21.5235 38.4559C21.3662 38.5187 21.2133 38.6027 21.0447 38.7205C21.0255 38.7282 21.0049 38.736 20.9862 38.7427L20.8692 38.7847C20.792 38.8113 20.7124 38.8369 20.6328 38.8605C20.4686 38.9088 20.3083 38.9484 20.1559 38.9774C19.9814 39.0097 19.8295 39.0276 19.6909 39.0324C19.6152 39.0348 19.5405 39.0339 19.4761 39.0286C19.4063 39.0223 19.3483 39.0121 19.2932 38.9972C19.0612 38.9359 18.808 38.7852 18.5607 38.5607C18.3469 38.3676 18.136 38.1262 17.9158 37.8234C17.4984 37.2508 17.1558 36.6019 16.8766 36.0433C16.5939 35.4677 16.3127 34.8381 16.0173 34.1192C15.9603 33.9811 15.9042 33.8425 15.8482 33.7035C15.7725 33.5157 15.6943 33.3221 15.6127 33.1289C15.5813 33.0536 15.5434 32.972 15.51 32.9001L15.4992 32.8764C15.4652 32.8054 15.4308 32.7287 15.394 32.6413C15.3291 32.4906 15.2676 32.3332 15.2062 32.1609C15.0941 31.8359 15.0002 31.5004 14.9279 31.1643C14.8611 30.8394 14.8134 30.4937 14.7849 30.1369C14.7574 29.7989 14.7544 29.4503 14.776 29.1007C14.7987 28.7357 14.8527 28.3958 14.9378 28.0897C14.9786 27.9352 15.0356 27.7754 15.1059 27.6146C15.1772 27.4529 15.2568 27.3051 15.3433 27.1738C15.5183 26.9039 15.7469 26.6596 16.0232 26.4471C16.2685 26.2603 16.5566 26.0908 16.9031 25.93C16.9828 25.8928 17.0644 25.8581 17.1411 25.8262C17.2133 25.7963 17.2856 25.7717 17.3618 25.7514C17.5043 25.7128 17.6621 25.6891 17.8303 25.6809C18.1129 25.6674 18.431 25.6939 18.8311 25.7649C19.1885 25.8281 19.5533 25.9122 19.8669 25.9865C20.4278 26.1174 21.0614 26.2646 21.7236 26.3356C21.7354 26.3877 21.7477 26.4394 21.7605 26.4915C21.8003 26.6494 21.844 26.8059 21.8917 26.9575C21.875 26.9575 21.8588 26.957 21.8421 26.957C21.4119 26.9502 20.9651 26.9048 20.4765 26.8189C20.007 26.7334 19.5469 26.6171 19.07 26.4626L18.8439 26.3892L18.9756 26.5842C19.042 26.6827 19.1266 26.7793 19.2421 26.8894C19.3291 26.9724 19.4269 27.0531 19.5503 27.1448C19.7592 27.2954 19.9942 27.4273 20.2479 27.5373C20.4897 27.6421 20.7488 27.7242 21.0172 27.7812C21.2881 27.8386 21.5589 27.87 21.8229 27.8739C22.1169 27.8787 22.3808 27.8604 22.6286 27.8174L22.7309 27.801L22.8277 27.7802C22.8926 27.7662 22.9575 27.7517 23.0258 27.7348L23.103 27.7126C23.2033 27.6841 23.307 27.6542 23.4058 27.6156C23.946 27.4171 24.3993 27.1443 24.7532 26.8044L24.9213 26.6427L24.6869 26.6663C24.5728 26.6779 24.4637 26.6963 24.3585 26.7141L24.3044 26.7233C24.2597 26.7291 24.2154 26.7363 24.1717 26.7436L24.1161 26.7528C24.0984 26.7557 24.0807 26.759 24.0626 26.7619C24.0198 26.7697 23.979 26.7769 23.9352 26.7817C23.89 26.7885 23.8448 26.7957 23.8 26.803C23.7234 26.8155 23.6511 26.8271 23.5769 26.8358C23.5405 26.8401 23.5046 26.8459 23.4692 26.8513C23.4456 26.8551 23.4215 26.8585 23.3999 26.8619L23.3596 26.8662C23.3129 26.871 23.2662 26.8764 23.221 26.8826L22.8749 26.9198L22.6158 26.9401L22.5268 26.9444C22.4354 26.9507 22.3376 26.9546 22.2289 26.957C22.228 26.9502 22.227 26.9435 22.226 26.9367C22.1975 26.7566 22.1759 26.5891 22.1601 26.4244C22.1582 26.4066 22.1567 26.3882 22.1552 26.3704C22.2147 26.3733 22.2806 26.3757 22.3474 26.3766C22.4624 26.3781 22.5568 26.3771 22.6438 26.3733C22.8223 26.3665 23.0081 26.3472 23.2293 26.3124C23.6442 26.2477 24.038 26.1338 24.3354 26.0416C24.5551 25.972 24.7719 25.8972 24.9813 25.8248C25.1091 25.7808 25.2355 25.7369 25.3613 25.6949C25.6749 25.5911 26.0087 25.4863 26.3381 25.4448C26.5072 25.4235 26.6596 25.4202 26.8041 25.4337C26.8803 25.4409 26.955 25.4535 27.0268 25.4713C27.0622 25.48 27.0991 25.4907 27.134 25.5018L27.2485 25.5442C27.5764 25.6707 27.8802 25.8291 28.1511 26.015C28.4318 26.2057 28.681 26.437 28.8924 26.7025C29.0035 26.8426 29.0998 26.9845 29.1794 27.1236C29.2615 27.2679 29.3377 27.4234 29.4046 27.5847C29.4621 27.7271 29.5162 27.8874 29.5688 28.0742C29.6101 28.2244 29.6455 28.3905 29.6774 28.5817C29.7281 28.8883 29.7536 29.2292 29.7566 29.6217C29.7531 30.2716 29.674 30.9046 29.5211 31.5028Z" fill="#D9B99B"/>
<path d="M27.5587 27.9822C27.4722 27.7442 27.3837 27.5298 27.2893 27.328C27.1807 27.0934 27.0696 26.8891 26.9506 26.7028L26.7088 26.3242L26.8002 26.7617C26.8936 27.2092 26.9728 27.6621 27.0342 28.1078C27.0986 28.5674 27.1428 29.0155 27.1655 29.4404C27.2176 30.3814 27.16 31.2548 26.9944 32.0355C26.9875 32.0655 26.9806 32.0954 26.9742 32.1254C26.957 32.2021 26.9408 32.2745 26.9206 32.3499L26.8326 32.6748C26.8081 32.7772 26.7771 32.881 26.7471 32.9814L26.6493 33.3145C26.5225 33.724 26.3829 34.1407 26.2226 34.5878C25.9099 35.4385 25.5698 36.2636 25.1814 37.1115L24.9961 37.5161L25.3151 37.2018C25.4685 37.0506 25.6229 36.8768 25.7885 36.6697C25.9355 36.4857 26.0771 36.2941 26.2088 36.1004C26.4635 35.7282 26.6989 35.3308 26.9305 34.8847L27.0853 34.5704C27.1202 34.5004 27.1517 34.4289 27.1822 34.3594C27.1984 34.3222 27.2146 34.285 27.2313 34.2483C27.3046 34.0909 27.368 33.9277 27.4289 33.7699C27.452 33.7109 27.4747 33.652 27.4987 33.5917C27.5273 33.5169 27.5528 33.4406 27.5774 33.3672C27.5897 33.3305 27.602 33.2938 27.6148 33.2571L27.6172 33.2494C27.6541 33.1417 27.6919 33.0306 27.7239 32.9186L27.8207 32.5816C27.8335 32.5391 27.8443 32.4952 27.8547 32.4522L27.8669 32.403C27.8719 32.3832 27.8768 32.3634 27.8817 32.3431C27.8915 32.3035 27.9014 32.2644 27.9097 32.2248C28.1019 31.3132 28.1088 30.3466 27.9289 29.3525C27.8399 28.8774 27.7155 28.4163 27.5587 27.9822Z" fill="#E78F87"/>
<path d="M14.3031 24.24H14.3606C14.425 24.24 14.4889 24.2399 14.5553 24.2414C14.5995 24.2414 14.6443 24.2433 14.689 24.2453C14.7288 24.2467 14.7681 24.2486 14.805 24.2491L15.0582 24.2602C15.3644 24.2752 15.7198 24.2945 16.0694 24.3273C16.3609 24.3529 16.6578 24.392 16.9444 24.4297L17.0747 24.4466C17.1572 24.4601 17.2403 24.4712 17.3234 24.4823C17.4075 24.4934 17.4945 24.5055 17.581 24.5195L17.9615 24.5731C17.9949 24.5779 18.0283 24.5818 18.0622 24.5852L18.1006 24.5895C18.1915 24.6001 18.2854 24.6112 18.3793 24.6166C18.4796 24.6238 18.571 24.6296 18.6615 24.6291C18.6988 24.6301 18.7357 24.6301 18.7716 24.6301C18.9392 24.6301 19.0916 24.6223 19.2342 24.6064L19.3782 24.591C19.4111 24.5861 19.4441 24.5808 19.477 24.575L19.5203 24.5678C19.6009 24.5557 19.681 24.5369 19.7587 24.5185L19.8108 24.506C19.9804 24.4592 20.1795 24.3978 20.3697 24.3018C20.557 24.211 20.7276 24.1019 20.878 23.9758C21.0344 23.844 21.1691 23.6934 21.2777 23.5292C21.3804 23.3738 21.463 23.1966 21.523 23.0005C21.5481 22.9132 21.5677 22.8195 21.5815 22.7229C21.5874 22.6795 21.5918 22.6326 21.5938 22.5805C21.5948 22.5568 21.5953 22.5332 21.5953 22.5114C21.5953 22.5013 21.5953 22.4912 21.5948 22.481L21.5928 22.4477C21.5928 22.4424 21.5928 22.4371 21.5923 22.4318C21.5913 22.4192 21.5884 22.4062 21.5835 22.3946L21.5785 22.384C21.5702 22.369 21.5579 22.354 21.5441 22.3425L21.4522 22.2531C21.4109 22.215 21.378 22.187 21.3465 22.1609C21.2684 22.0967 21.1956 22.0417 21.1253 21.9934C20.9832 21.8929 20.8269 21.7993 20.648 21.7061C20.3176 21.5352 19.9627 21.4043 19.5925 21.3174C19.2298 21.23 18.8483 21.1885 18.458 21.1938C18.0721 21.1957 17.6901 21.2566 17.3229 21.3749C17.0019 21.4772 16.6686 21.6346 16.3024 21.8572C16.2139 21.9137 16.1229 21.9687 16.0345 22.0219C15.9725 22.0595 15.9101 22.0967 15.8491 22.1348C15.8231 22.1508 15.7975 22.1667 15.772 22.1822C15.7228 22.2126 15.6731 22.243 15.623 22.2724L15.3939 22.41C15.3177 22.4569 15.2415 22.5023 15.1678 22.5443L15.1609 22.5481C15.0872 22.594 15.0134 22.6404 14.9392 22.6848C14.8645 22.7287 14.7912 22.777 14.7205 22.8233L14.7101 22.8301C14.6733 22.8542 14.6364 22.8779 14.5951 22.904L14.3704 23.0619L14.2638 23.1454C14.2269 23.1729 14.1876 23.2033 14.1502 23.2391C14.1369 23.2516 14.1232 23.2632 14.1094 23.2753C14.0868 23.2946 14.0647 23.3144 14.0411 23.3376L13.9403 23.4438L13.9344 23.4505C13.9251 23.4626 13.9157 23.4747 13.9059 23.4867C13.8828 23.5157 13.8592 23.5452 13.8361 23.5828L13.7919 23.6581C13.7805 23.6799 13.7707 23.7045 13.7609 23.7286L13.753 23.7484C13.7397 23.7818 13.7324 23.8184 13.725 23.8537L13.7225 23.8682C13.7201 23.8899 13.7186 23.9121 13.7176 23.9338C13.7171 23.9464 13.7186 23.9638 13.7201 23.9797L13.724 24.0101C13.7265 24.0241 13.7319 24.043 13.7373 24.0589L13.8066 24.2602L14.0647 24.2467C14.0971 24.2448 14.1409 24.2428 14.1802 24.2414L14.3031 24.24ZM21.3136 22.5211C21.3013 22.551 21.287 22.58 21.2733 22.609L21.2629 22.6302C21.2261 22.7051 21.1823 22.776 21.1445 22.8344C21.0629 22.9585 20.9636 23.0754 20.8485 23.1816C20.7404 23.2806 20.6195 23.366 20.4897 23.4365C20.3707 23.5007 20.2375 23.5548 20.0827 23.6012C19.8256 23.6775 19.5316 23.7146 19.1816 23.7151C19.1275 23.7166 19.0724 23.7142 19.014 23.7113C18.9923 23.7103 18.9702 23.7093 18.9461 23.7084C18.8935 23.7079 18.8399 23.703 18.7834 23.6982C18.7593 23.6963 18.7352 23.6939 18.7102 23.6919C18.6649 23.6895 18.6192 23.6833 18.571 23.6775C18.5381 23.6731 18.5052 23.6688 18.4717 23.6659C18.396 23.6586 18.3169 23.6461 18.2407 23.6335L17.7191 23.5568C17.5495 23.5341 17.3848 23.5176 17.1862 23.4993C16.818 23.4694 16.4577 23.4529 16.1161 23.4505C16.0453 23.45 15.973 23.4491 15.9003 23.4491C15.6235 23.4491 15.333 23.4563 15.039 23.4848C14.949 23.4935 14.8596 23.5041 14.7686 23.5152C14.6856 23.5268 14.5917 23.5403 14.5002 23.5563C14.5219 23.5297 14.5469 23.5036 14.572 23.479L14.658 23.3926L14.8443 23.2333C14.8778 23.2082 14.9117 23.1826 14.9461 23.1579L14.9751 23.1367C15.0346 23.0932 15.0911 23.0522 15.1535 23.015L15.1889 22.9928C15.2484 22.9552 15.3099 22.9165 15.3703 22.8818C15.4426 22.8412 15.5188 22.8007 15.597 22.7611C15.6102 22.7543 15.624 22.7471 15.6373 22.7403C15.6613 22.7277 15.6854 22.7152 15.709 22.7041L15.8285 22.6505C15.8806 22.6268 15.9332 22.6046 15.9858 22.5824C16.0128 22.5708 16.0399 22.5597 16.0644 22.5491C16.2222 22.4863 16.3855 22.4298 16.5526 22.3729C16.8343 22.2782 17.1415 22.2048 17.519 22.1406C17.8681 22.0822 18.1842 22.0455 18.4845 22.0296C18.8365 22.0141 19.155 22.0238 19.4588 22.059C19.7764 22.0933 20.1062 22.1532 20.44 22.2367C20.588 22.2729 20.7438 22.3169 20.9311 22.3753C20.9975 22.3956 21.0634 22.4183 21.1292 22.4405L21.3195 22.5081C21.3175 22.5114 21.3155 22.5163 21.3136 22.5211Z" fill="#9EAC4A"/>
<path d="M3.06863 11.8824C3.07159 11.8883 3.07456 11.8946 3.07753 11.9009C3.08728 11.9219 3.09702 11.939 3.10593 11.9557L3.13263 12.0043C3.16611 12.0648 3.19833 12.1256 3.23054 12.1863L3.23605 12.1968C3.25682 12.2367 3.27801 12.2765 3.2992 12.316C3.34583 12.404 3.39415 12.4949 3.43992 12.5854L3.83792 13.368C3.95829 13.6049 4.08841 13.8526 4.24736 14.1478L4.40673 14.4357C4.41054 14.4427 4.41775 14.4546 4.42665 14.4689L4.44784 14.5021C4.45971 14.5199 4.47285 14.5371 4.48599 14.5545L4.49658 14.5685C4.63646 14.7418 4.84542 14.8753 5.08532 14.9441C5.15228 14.963 5.21247 14.9759 5.26715 14.9836C5.33496 14.9944 5.40532 14.9983 5.45152 14.9993C5.47229 15 5.49348 15 5.51383 15H5.53926C5.56851 14.9993 5.60029 14.9976 5.63505 14.9951C5.70583 14.9881 5.76729 14.9787 5.82197 14.9661C6.07247 14.9116 6.29796 14.7883 6.45605 14.6195C6.49462 14.5797 6.5298 14.5357 6.56329 14.485L6.74597 14.1971C6.79725 14.1167 6.84684 14.0357 6.89686 13.9546C6.92441 13.9095 6.95238 13.8645 6.98036 13.8194C7.2707 13.3453 7.56061 12.8446 7.86706 12.2884C8.12942 11.8062 8.36042 11.302 8.58379 10.8143L8.63296 10.707C8.65161 10.6672 8.67026 10.627 8.68848 10.5868C8.73044 10.496 8.77368 10.4024 8.8186 10.3105C8.84827 10.2476 8.87922 10.1854 8.91016 10.1228L8.91482 10.1138C8.9483 10.0442 8.98391 9.96177 8.99366 9.87827C9.00468 9.79651 9.00128 9.7144 8.98391 9.63509C8.9678 9.56102 8.93559 9.4866 8.88557 9.40764C8.79572 9.26788 8.64949 9.15153 8.47444 9.07991C8.24725 8.98557 7.96624 8.97404 7.72295 9.04916C7.60173 9.0855 7.48729 9.14524 7.39234 9.22071C7.2957 9.29548 7.22492 9.39541 7.16855 9.47507C7.05326 9.63544 6.93077 9.79686 6.81209 9.95304L6.44461 10.4373C6.16571 10.8094 5.94743 11.1218 5.75797 11.4205C5.65116 11.5878 5.54647 11.7597 5.43923 11.9439C5.38116 11.8628 5.32225 11.7818 5.26376 11.7007L4.9997 11.3363L4.91874 11.2231C4.90179 11.1993 4.88483 11.1752 4.8611 11.1459C4.79625 11.0645 4.72335 10.997 4.64451 10.9464C4.55762 10.8894 4.46522 10.845 4.369 10.8143C4.26982 10.7828 4.1664 10.7647 4.06086 10.7594C3.94939 10.7545 3.8447 10.7629 3.74933 10.7842C3.64634 10.8073 3.55097 10.8412 3.46493 10.8852C3.28564 10.9792 3.14662 11.1169 3.07329 11.2716C2.99445 11.4264 2.97835 11.6064 3.02921 11.7811L3.0504 11.8401C3.05506 11.8548 3.06184 11.8688 3.06863 11.8824ZM7.45889 9.56172C7.47542 9.52853 7.49237 9.49429 7.50848 9.46668C7.52628 9.43594 7.55086 9.40484 7.58519 9.36885C7.64157 9.31016 7.71956 9.26089 7.81111 9.22595C7.89503 9.19346 7.99294 9.17634 8.09339 9.17634C8.09424 9.17634 8.09467 9.17634 8.09551 9.17634C8.19215 9.17774 8.29091 9.19765 8.37907 9.23294C8.44646 9.26264 8.50707 9.29933 8.55963 9.34335C8.60498 9.37969 8.64525 9.42825 8.68212 9.49184C8.74273 9.59701 8.75842 9.72314 8.72408 9.83774L8.70925 9.88071L8.68763 9.92613C8.68552 9.93103 8.68085 9.93801 8.67619 9.9457C8.6728 9.95094 8.66941 9.95583 8.66687 9.96002C8.65881 9.97295 8.65034 9.98588 8.63889 10.0009L8.62745 10.017C8.5876 10.0722 8.54776 10.1274 8.50665 10.1826C8.44477 10.2671 8.37992 10.3524 8.31719 10.4345C8.28964 10.4705 8.26209 10.5068 8.23496 10.5425L8.16036 10.6403C7.82298 11.0809 7.47372 11.5361 7.16473 11.9994C6.81039 12.5364 6.50013 13.0287 6.21615 13.5053C6.18945 13.5507 6.16232 13.5965 6.13562 13.6419C6.0873 13.7233 6.03898 13.8047 5.99193 13.8868L5.85418 14.1258L5.8296 14.1674C5.82197 14.1803 5.8118 14.1967 5.79781 14.2128C5.75204 14.2687 5.68168 14.3124 5.59775 14.3358C5.5791 14.3414 5.55833 14.3452 5.53672 14.3487C5.53163 14.3491 5.52697 14.3498 5.52231 14.3505C5.51595 14.3512 5.51001 14.3519 5.50705 14.3522C5.49984 14.3522 5.49264 14.3526 5.48543 14.3529C5.47823 14.3533 5.4706 14.3536 5.46127 14.3536C5.43033 14.3543 5.41168 14.3543 5.38795 14.3515C5.36633 14.3498 5.34344 14.3452 5.32394 14.3414C5.23705 14.3215 5.15906 14.2775 5.10524 14.2205L5.08362 14.195L5.0709 14.1775C5.06921 14.1751 5.06709 14.1726 5.0637 14.1674L4.87975 13.8875C4.68986 13.6052 4.52837 13.3704 4.37155 13.1486L3.85318 12.4149C3.79299 12.3306 3.73407 12.2436 3.67685 12.1598C3.65142 12.1221 3.62557 12.0847 3.59971 12.0469L3.59463 12.0393C3.55436 11.9806 3.51452 11.9219 3.47552 11.8625L3.44458 11.8156C3.43483 11.8013 3.42593 11.7873 3.41915 11.7758C3.41576 11.7699 3.41237 11.7643 3.40898 11.7587C3.40517 11.7524 3.40093 11.7461 3.39796 11.7391L3.38058 11.6989C3.34116 11.592 3.3454 11.4778 3.3933 11.3768C3.42 11.3209 3.45391 11.273 3.49417 11.2336C3.53486 11.1934 3.58615 11.1574 3.64676 11.1259C3.69932 11.099 3.76162 11.0791 3.83283 11.0662C3.89514 11.0543 3.96084 11.0522 4.02738 11.0599C4.09943 11.0683 4.16217 11.0837 4.21345 11.106C4.27406 11.1319 4.3262 11.1633 4.369 11.2C4.41097 11.2346 4.44615 11.2769 4.47412 11.3272C4.48514 11.3457 4.49828 11.3723 4.51142 11.3985L4.76234 11.9061C4.90645 12.1982 5.02682 12.4414 5.16118 12.6905L5.43838 13.2059L5.7834 12.6954C6.00846 12.3624 6.21954 12.0235 6.41113 11.6885C6.58575 11.3841 6.75699 11.0526 6.94984 10.6441L7.19779 10.1106C7.27748 9.93871 7.36013 9.76122 7.44575 9.58862L7.45889 9.56172Z" fill="#9EAC4A"/>
<path d="M3.02918 20.7819L3.05037 20.841C3.05588 20.8549 3.06224 20.8686 3.06902 20.8822C3.07199 20.8881 3.07496 20.8944 3.07792 20.9007C3.08767 20.9217 3.09742 20.9392 3.10632 20.9556L3.13302 21.0041C3.1665 21.0646 3.19871 21.1254 3.23092 21.1862L3.23643 21.1967C3.2572 21.2365 3.27839 21.2763 3.29958 21.3158C3.3462 21.4039 3.39452 21.4947 3.44029 21.5852L3.83826 22.3679C3.95863 22.6048 4.08874 22.8525 4.24768 23.1478L4.40703 23.4357C4.41085 23.4427 4.41805 23.4546 4.42695 23.4689L4.44815 23.5021C4.46001 23.5199 4.47315 23.537 4.48629 23.5545L4.49688 23.5685C4.63675 23.7418 4.84569 23.8753 5.08558 23.9441C5.15254 23.963 5.21272 23.9759 5.2674 23.9836C5.33521 23.9944 5.40556 23.9983 5.45176 23.9993C5.47295 24 5.49372 24 5.51491 24H5.53949C5.56874 23.9993 5.60052 23.9976 5.63528 23.9951C5.70605 23.9881 5.76751 23.9787 5.82218 23.9661C6.07266 23.9116 6.29814 23.7883 6.45622 23.6195C6.49479 23.5797 6.52954 23.5356 6.56345 23.485L6.74612 23.1971C6.7974 23.1167 6.84699 23.0356 6.897 22.9546C6.92455 22.9095 6.95252 22.8644 6.98049 22.8193C7.27081 22.3452 7.56071 21.8445 7.86713 21.2882C8.12948 20.806 8.36046 20.3018 8.58382 19.814L8.63298 19.7068C8.65163 19.6669 8.67028 19.6268 8.6885 19.5866C8.73046 19.4957 8.77369 19.4021 8.81862 19.3102C8.84871 19.2466 8.88007 19.1837 8.91143 19.1208L8.91482 19.1138C8.94831 19.0443 8.98391 18.9618 8.99366 18.8783C9.00468 18.7966 9.00128 18.7144 8.98391 18.6351C8.9678 18.5611 8.93559 18.4866 8.88558 18.4077C8.79573 18.2682 8.64951 18.1515 8.47447 18.0799C8.2473 17.9856 7.96631 17.974 7.72303 18.0492C7.60182 18.0855 7.48739 18.1453 7.39245 18.2207C7.29582 18.2955 7.22504 18.3954 7.16867 18.4751C7.05339 18.6355 6.93091 18.7969 6.81223 18.9531L6.44478 19.4374C6.1659 19.8095 5.94763 20.1219 5.75819 20.4206C5.65138 20.588 5.5467 20.7599 5.43947 20.944C5.3814 20.863 5.32249 20.7819 5.26401 20.7009L4.99996 20.3364L4.91901 20.2232C4.90206 20.1994 4.88511 20.1753 4.86137 20.146C4.79653 20.0646 4.72363 19.9971 4.6448 19.9465C4.55792 19.8895 4.46552 19.8451 4.36931 19.8144C4.27014 19.7829 4.16673 19.7648 4.06119 19.7595C3.94973 19.7546 3.84504 19.763 3.74968 19.7843C3.64669 19.8074 3.55133 19.8413 3.4653 19.8853C3.28602 19.9793 3.14701 20.117 3.07368 20.2718C2.99443 20.4269 2.97832 20.6069 3.02918 20.7819ZM7.45899 18.5614C7.47552 18.5282 7.49247 18.494 7.50858 18.4664C7.52638 18.4356 7.55096 18.4045 7.58529 18.3685C7.64166 18.3098 7.71964 18.2606 7.81119 18.2256C7.89511 18.1931 7.99301 18.176 8.09345 18.176C8.0943 18.176 8.09473 18.176 8.09557 18.176C8.19221 18.1774 8.29096 18.1973 8.37911 18.2326C8.4465 18.2623 8.50711 18.299 8.55966 18.343C8.60501 18.3794 8.64527 18.4279 8.68215 18.4915C8.74275 18.5967 8.75843 18.7228 8.7241 18.8374L8.70927 18.8804L8.68766 18.9258C8.68554 18.9307 8.68087 18.9377 8.67621 18.9454C8.67282 18.9506 8.66943 18.9555 8.66689 18.9597C8.65884 18.9727 8.65036 18.9856 8.63892 19.0006L8.62747 19.0167C8.58763 19.0719 8.54779 19.1271 8.50668 19.1823C8.4448 19.2669 8.37996 19.3521 8.31723 19.4342C8.28969 19.4702 8.26214 19.5066 8.23501 19.5422L8.16042 19.64C7.82305 20.0806 7.47382 20.5359 7.16486 20.9992C6.81054 21.5363 6.5003 22.0286 6.21634 22.5052C6.18964 22.5506 6.16294 22.5961 6.13581 22.6415C6.0875 22.7232 6.03918 22.8047 5.99171 22.8868L5.85397 23.1258L5.82939 23.1674C5.82176 23.1803 5.81159 23.1967 5.7976 23.2128C5.75183 23.2687 5.68147 23.3124 5.59756 23.3358C5.57891 23.3414 5.55814 23.3452 5.53652 23.3487C5.53144 23.349 5.52678 23.3497 5.52211 23.3504C5.51576 23.3511 5.50982 23.3518 5.50686 23.3522C5.49965 23.3522 5.49245 23.3525 5.48524 23.3529C5.47804 23.3532 5.47041 23.3536 5.46108 23.3536C5.43015 23.3543 5.4115 23.3543 5.38776 23.3515C5.36615 23.3497 5.34326 23.3452 5.32377 23.3414C5.23688 23.3214 5.1589 23.2774 5.10507 23.2205L5.08346 23.195L5.07074 23.1775C5.06905 23.175 5.06693 23.1726 5.06354 23.1674L4.8796 22.8875C4.68972 22.6048 4.52825 22.37 4.37143 22.1485L3.8531 21.4147C3.79291 21.3305 3.734 21.2435 3.67679 21.1596C3.65136 21.1219 3.6255 21.0845 3.59965 21.0468L3.59456 21.0391C3.5543 20.9804 3.51446 20.9217 3.47547 20.8623L3.44453 20.8155C3.43478 20.8011 3.42588 20.7872 3.4191 20.7756C3.41571 20.77 3.41232 20.7641 3.40893 20.7585C3.40511 20.7522 3.40088 20.7459 3.39791 20.7389L3.38053 20.6988C3.34112 20.5918 3.34536 20.4776 3.39325 20.3766C3.41995 20.3207 3.45385 20.2728 3.49412 20.2333C3.5348 20.1932 3.58609 20.1572 3.64669 20.1257C3.69925 20.0988 3.76155 20.0789 3.83275 20.066C3.89505 20.0541 3.96075 20.052 4.02729 20.0597C4.09934 20.0681 4.16206 20.0834 4.21335 20.1058C4.27395 20.1317 4.32608 20.1631 4.36889 20.1998C4.41085 20.2344 4.44603 20.2767 4.474 20.3266C4.48502 20.3451 4.49816 20.3717 4.51129 20.3979L4.7622 20.9056C4.9063 21.1977 5.02667 21.4409 5.16102 21.69L5.4382 22.2054L5.78319 21.6949C6.00824 21.3619 6.21931 21.023 6.41087 20.6879C6.58549 20.3836 6.75671 20.052 6.94955 19.6435L7.19749 19.11C7.27717 18.9381 7.35982 18.7606 7.44543 18.588L7.45899 18.5614Z" fill="#9EAC4A"/>
<path d="M21.1529 9.42542C20.6668 9.33947 20.1899 9.28491 19.747 9.23904C19.3193 9.19559 18.8602 9.15938 18.3435 9.12751C17.4297 9.07344 16.4873 9.0464 15.5391 9.04688C14.5849 9.04736 13.641 9.07489 12.7346 9.12848C12.2174 9.16035 11.7588 9.19704 11.3311 9.24001C10.8887 9.28588 10.4123 9.33996 9.92566 9.42542L9.47192 9.50508L9.92566 9.58475C10.4128 9.67021 10.8892 9.72428 11.3316 9.77015C11.7588 9.81312 12.2174 9.84982 12.7346 9.88168C13.641 9.93528 14.5849 9.9628 15.5391 9.96328C15.5494 9.96328 15.5602 9.96328 15.5705 9.96328C16.5075 9.96328 17.44 9.93624 18.344 9.88265C18.8602 9.85078 19.3193 9.81457 19.7475 9.77112C20.1904 9.72525 20.6668 9.67069 21.1529 9.58475L21.6037 9.50508L21.1529 9.42542Z" fill="#D9B99B"/>
<path d="M11.3316 12.192C11.7588 12.235 12.2174 12.2717 12.7351 12.3036C13.6415 12.3572 14.5854 12.3847 15.5395 12.3852C15.5499 12.3852 15.5597 12.3852 15.5695 12.3852C16.507 12.3852 17.4405 12.3581 18.344 12.3045C18.8602 12.2727 19.3193 12.2365 19.7475 12.193C20.1904 12.1471 20.6673 12.0926 21.1529 12.0066L21.6037 11.927L21.1529 11.8473C20.6673 11.7614 20.1904 11.7068 19.747 11.6609C19.3188 11.6175 18.8597 11.5813 18.3435 11.5494C17.4297 11.4953 16.4873 11.4678 15.5391 11.4688C14.5844 11.4693 13.6406 11.4968 12.7346 11.5504C12.2179 11.5822 11.7593 11.6189 11.3311 11.6619C10.8892 11.7078 10.4128 11.7618 9.92566 11.8473L9.47192 11.927L9.92566 12.0066C10.4148 12.0921 10.9108 12.1486 11.3316 12.192Z" fill="#D9B99B"/>
<path d="M21.1529 14.2672C20.6668 14.1813 20.1899 14.1267 19.747 14.0808C19.3188 14.0374 18.8602 14.0012 18.3435 13.9693C17.44 13.9157 16.5075 13.8887 15.5705 13.8887C15.5602 13.8887 15.5494 13.8887 15.5391 13.8887C14.5849 13.8892 13.641 13.9167 12.7346 13.9703C12.2174 14.0021 11.7588 14.0388 11.3311 14.0818C10.8887 14.1277 10.4123 14.1817 9.92566 14.2672L9.47192 14.3469L9.92566 14.4265C10.4123 14.512 10.8892 14.5661 11.3311 14.6119C11.7583 14.6549 12.2169 14.6916 12.7341 14.7235C13.6406 14.7771 14.5844 14.8046 15.5386 14.8051C15.5489 14.8051 15.5592 14.8051 15.57 14.8051C16.5065 14.8051 17.4395 14.778 18.3435 14.7244C18.8597 14.6926 19.3188 14.6564 19.747 14.6129C20.1899 14.5666 20.6673 14.5125 21.1524 14.4265L21.6032 14.3469L21.1529 14.2672Z" fill="#D9B99B"/>
<path d="M21.1529 17.9548C20.6668 17.8688 20.1899 17.8143 19.747 17.7684C19.3193 17.7249 18.8602 17.6887 18.3435 17.6569C17.4297 17.6028 16.4873 17.5748 15.5391 17.5762C14.5849 17.5767 13.641 17.6042 12.7346 17.6578C12.2174 17.6897 11.7588 17.7264 11.3311 17.7694C10.8887 17.8152 10.4123 17.8693 9.92566 17.9548L9.47192 18.0344L9.92566 18.1141C10.4128 18.1996 10.8892 18.2536 11.3311 18.2995C11.7583 18.3425 12.2169 18.3792 12.7341 18.411C13.6406 18.4646 14.5844 18.4921 15.5386 18.4926C15.5489 18.4926 15.5597 18.4926 15.57 18.4926C16.507 18.4926 17.44 18.4656 18.3435 18.412C18.8597 18.3801 19.3188 18.3439 19.747 18.3005C20.1899 18.2546 20.6663 18.2 21.1524 18.1141L21.6032 18.0344L21.1529 17.9548Z" fill="#D9B99B"/>
<path d="M21.1529 20.1559C20.6673 20.0699 20.1904 20.0154 19.747 19.9695C19.3188 19.9261 18.8597 19.8898 18.3435 19.858C17.4297 19.8039 16.4873 19.7773 15.5391 19.7773C14.5849 19.7778 13.641 19.8053 12.7341 19.8589C12.2169 19.8908 11.7578 19.9275 11.3311 19.9705C10.8892 20.0163 10.4128 20.0704 9.92566 20.1559L9.47192 20.2355L9.92566 20.3152C10.4128 20.4007 10.8892 20.4547 11.3311 20.5006C11.7588 20.5436 12.2179 20.5803 12.7341 20.6121C13.6401 20.6657 14.5839 20.6933 15.5386 20.6937C15.5489 20.6937 15.5592 20.6937 15.57 20.6937C16.5065 20.6937 17.4395 20.6667 18.3435 20.6131C18.8597 20.5812 19.3188 20.545 19.747 20.5016C20.1899 20.4552 20.6673 20.4012 21.1524 20.3152L21.6032 20.2355L21.1529 20.1559Z" fill="#D9B99B"/>
<path d="M10.9182 22.8114H10.9192C11.2397 22.8659 11.5691 22.893 11.926 22.8939C11.927 22.8939 11.928 22.8939 11.9289 22.8939C12.2819 22.8939 12.6108 22.8674 12.9337 22.8123C13.2351 22.7578 13.591 22.6796 13.9479 22.5082L14.0993 22.4352L13.9479 22.3623C13.591 22.1909 13.2351 22.1122 12.9328 22.0582C12.6103 22.0036 12.2819 21.9766 11.9284 21.9766C11.9275 21.9766 11.9265 21.9766 11.9255 21.9766C11.5686 21.9775 11.2392 22.0046 10.9177 22.0591C10.6159 22.1137 10.26 22.1924 9.90361 22.3623L9.75122 22.4352L9.90361 22.5082C10.2605 22.6781 10.6169 22.7568 10.9182 22.8114Z" fill="#D9B99B"/>
<path d="M13.9479 27.4248C13.591 27.2534 13.2351 27.1752 12.9337 27.1207H12.9328C12.6103 27.0656 12.2814 27.0391 11.928 27.0391C11.927 27.0391 11.9265 27.0391 11.9255 27.0391C11.5686 27.04 11.2392 27.0671 10.9177 27.1216C10.6164 27.1762 10.26 27.2549 9.90361 27.4248L9.75122 27.4977L9.90361 27.5707C10.2595 27.7406 10.6159 27.8193 10.9182 27.8739C11.2388 27.9284 11.5681 27.9555 11.9255 27.9564C11.9265 27.9564 11.927 27.9564 11.9275 27.9564C12.2809 27.9564 12.6098 27.9299 12.9332 27.8748C13.2346 27.8203 13.5905 27.7421 13.9474 27.5707L14.0988 27.4977L13.9479 27.4248Z" fill="#D9B99B"/>
<path d="M13.9479 29.7373C13.591 29.5664 13.2351 29.4877 12.9337 29.4332H12.9328C12.6103 29.3781 12.2814 29.3516 11.928 29.3516C11.927 29.3516 11.9265 29.3516 11.9255 29.3516C11.5686 29.3525 11.2392 29.3796 10.9177 29.4341C10.6159 29.4887 10.26 29.5674 9.90361 29.7373L9.75122 29.8102L9.90361 29.8832C10.2595 30.0531 10.6159 30.1318 10.9182 30.1864C11.2388 30.2409 11.5681 30.268 11.925 30.2689C11.926 30.2689 11.927 30.2689 11.928 30.2689C12.2809 30.2689 12.6098 30.2424 12.9328 30.1873C13.2341 30.1328 13.59 30.0546 13.9469 29.8832L14.0983 29.8102L13.9479 29.7373Z" fill="#D9B99B"/>
<path d="M12.9332 31.5777C12.6108 31.5226 12.2819 31.4961 11.9284 31.4961C11.9275 31.4961 11.927 31.4961 11.9265 31.4961C11.5696 31.4971 11.2402 31.5241 10.9187 31.5787C10.6169 31.6332 10.261 31.7119 9.90459 31.8819L9.7522 31.9548L9.90459 32.0277C10.261 32.1976 10.6169 32.2763 10.9192 32.3309C11.2402 32.3855 11.5696 32.4125 11.9265 32.4135C11.9275 32.4135 11.9279 32.4135 11.9284 32.4135C12.2819 32.4135 12.6108 32.3869 12.9342 32.3319C13.2356 32.2773 13.5915 32.1991 13.9484 32.0277L14.0998 31.9548L13.9484 31.8819C13.5915 31.7105 13.2351 31.6323 12.9332 31.5777Z" fill="#D9B99B"/>
<path d="M3.02918 29.7819L3.05037 29.841C3.05588 29.8549 3.06224 29.8686 3.06902 29.8822C3.07199 29.8881 3.07496 29.8944 3.07792 29.9007C3.08767 29.9217 3.09742 29.9392 3.10632 29.9556L3.13302 30.0041C3.1665 30.0646 3.19871 30.1254 3.23092 30.1862L3.23643 30.1967C3.2572 30.2365 3.27839 30.2763 3.29958 30.3158C3.3462 30.4039 3.39452 30.4947 3.44029 30.5852L3.83826 31.3679C3.95863 31.6048 4.08874 31.8525 4.24768 32.1478L4.40703 32.4357C4.41085 32.4427 4.41805 32.4546 4.42695 32.4689L4.44815 32.5021C4.46001 32.5199 4.47315 32.537 4.48629 32.5545L4.49688 32.5685C4.63675 32.7418 4.84569 32.8753 5.08558 32.9441C5.15254 32.963 5.21272 32.9759 5.2674 32.9836C5.33521 32.9944 5.40556 32.9983 5.45176 32.9993C5.47295 33 5.49372 33 5.51491 33H5.53949C5.56874 32.9993 5.60052 32.9976 5.63528 32.9951C5.70605 32.9881 5.76751 32.9787 5.82218 32.9661C6.07266 32.9116 6.29814 32.7883 6.45622 32.6195C6.49479 32.5797 6.52954 32.5356 6.56345 32.485L6.74612 32.1971C6.7974 32.1167 6.84699 32.0356 6.897 31.9546C6.92455 31.9095 6.95252 31.8644 6.98049 31.8193C7.27081 31.3452 7.56071 30.8445 7.86713 30.2882C8.12948 29.806 8.36046 29.3018 8.58382 28.814L8.63298 28.7068C8.65163 28.6669 8.67028 28.6268 8.6885 28.5866C8.73046 28.4957 8.77369 28.4021 8.81862 28.3102C8.84871 28.2466 8.88007 28.1837 8.91143 28.1208L8.91482 28.1138C8.94831 28.0443 8.98391 27.9618 8.99366 27.8783C9.00468 27.7966 9.00128 27.7144 8.98391 27.6351C8.9678 27.5611 8.93559 27.4866 8.88558 27.4077C8.79573 27.2682 8.64951 27.1515 8.47447 27.0799C8.2473 26.9856 7.96631 26.974 7.72303 27.0492C7.60182 27.0855 7.48739 27.1453 7.39245 27.2207C7.29582 27.2955 7.22504 27.3954 7.16867 27.4751C7.05339 27.6355 6.93091 27.7969 6.81223 27.9531L6.44478 28.4374C6.1659 28.8095 5.94763 29.1219 5.75819 29.4206C5.65138 29.588 5.5467 29.7599 5.43947 29.944C5.3814 29.863 5.32249 29.7819 5.26401 29.7009L4.99996 29.3364L4.91901 29.2232C4.90206 29.1994 4.88511 29.1753 4.86137 29.146C4.79653 29.0646 4.72363 28.9971 4.6448 28.9465C4.55792 28.8895 4.46552 28.8451 4.36931 28.8144C4.27014 28.7829 4.16673 28.7648 4.06119 28.7595C3.94973 28.7546 3.84504 28.763 3.74968 28.7843C3.64669 28.8074 3.55133 28.8413 3.4653 28.8853C3.28602 28.9793 3.14701 29.117 3.07368 29.2718C2.99443 29.4269 2.97832 29.6069 3.02918 29.7819ZM7.45899 27.5614C7.47552 27.5282 7.49247 27.494 7.50858 27.4664C7.52638 27.4356 7.55096 27.4045 7.58529 27.3685C7.64166 27.3098 7.71964 27.2606 7.81119 27.2256C7.89511 27.1931 7.99301 27.176 8.09345 27.176C8.0943 27.176 8.09473 27.176 8.09557 27.176C8.19221 27.1774 8.29096 27.1973 8.37911 27.2326C8.4465 27.2623 8.50711 27.299 8.55966 27.343C8.60501 27.3794 8.64527 27.4279 8.68215 27.4915C8.74275 27.5967 8.75843 27.7228 8.7241 27.8374L8.70927 27.8804L8.68766 27.9258C8.68554 27.9307 8.68087 27.9377 8.67621 27.9454C8.67282 27.9506 8.66943 27.9555 8.66689 27.9597C8.65884 27.9727 8.65036 27.9856 8.63892 28.0006L8.62747 28.0167C8.58763 28.0719 8.54779 28.1271 8.50668 28.1823C8.4448 28.2669 8.37996 28.3521 8.31723 28.4342C8.28969 28.4702 8.26214 28.5066 8.23501 28.5422L8.16042 28.64C7.82305 29.0806 7.47382 29.5359 7.16486 29.9992C6.81054 30.5363 6.5003 31.0286 6.21634 31.5052C6.18964 31.5506 6.16294 31.5961 6.13581 31.6415C6.0875 31.7232 6.03918 31.8047 5.99171 31.8868L5.85397 32.1258L5.82939 32.1674C5.82176 32.1803 5.81159 32.1967 5.7976 32.2128C5.75183 32.2687 5.68147 32.3124 5.59756 32.3358C5.57891 32.3414 5.55814 32.3452 5.53652 32.3487C5.53144 32.349 5.52678 32.3497 5.52211 32.3504C5.51576 32.3511 5.50982 32.3518 5.50686 32.3522C5.49965 32.3522 5.49245 32.3525 5.48524 32.3529C5.47804 32.3532 5.47041 32.3536 5.46108 32.3536C5.43015 32.3543 5.4115 32.3543 5.38776 32.3515C5.36615 32.3497 5.34326 32.3452 5.32377 32.3414C5.23688 32.3214 5.1589 32.2774 5.10507 32.2205L5.08346 32.195L5.07074 32.1775C5.06905 32.175 5.06693 32.1726 5.06354 32.1674L4.8796 31.8875C4.68972 31.6048 4.52825 31.37 4.37143 31.1485L3.8531 30.4147C3.79291 30.3305 3.734 30.2435 3.67679 30.1596C3.65136 30.1219 3.6255 30.0845 3.59965 30.0468L3.59456 30.0391C3.5543 29.9804 3.51446 29.9217 3.47547 29.8623L3.44453 29.8155C3.43478 29.8011 3.42588 29.7872 3.4191 29.7756C3.41571 29.77 3.41232 29.7641 3.40893 29.7585C3.40511 29.7522 3.40088 29.7459 3.39791 29.7389L3.38053 29.6988C3.34112 29.5918 3.34536 29.4776 3.39325 29.3766C3.41995 29.3207 3.45385 29.2728 3.49412 29.2333C3.5348 29.1932 3.58609 29.1572 3.64669 29.1257C3.69925 29.0988 3.76155 29.0789 3.83275 29.066C3.89505 29.0541 3.96075 29.052 4.02729 29.0597C4.09934 29.0681 4.16206 29.0834 4.21335 29.1058C4.27395 29.1317 4.32608 29.1631 4.36889 29.1998C4.41085 29.2344 4.44603 29.2767 4.474 29.3266C4.48502 29.3451 4.49816 29.3717 4.51129 29.3979L4.7622 29.9056C4.9063 30.1977 5.02667 30.4409 5.16102 30.69L5.4382 31.2054L5.78319 30.6949C6.00824 30.3619 6.21931 30.023 6.41087 29.6879C6.58549 29.3836 6.75671 29.052 6.94955 28.6435L7.19749 28.11C7.27717 27.9381 7.35982 27.7606 7.44543 27.588L7.45899 27.5614Z" fill="#9EAC4A"/>
</svg>
