<svg width="555" height="543" viewBox="0 0 555 543" fill="none" xmlns="http://www.w3.org/2000/svg">
<path d="M272.5 515C414.713 515 530 401.952 530 262.5C530 123.048 414.713 10 272.5 10C130.287 10 15 123.048 15 262.5C15 401.952 130.287 515 272.5 515Z" fill="#D9B99B"/>
<path d="M275.337 331.871C267.745 331.904 260.177 330.889 252.793 328.847C245.894 326.986 239.336 323.723 233.422 319.21C227.752 314.826 223.121 308.868 219.953 301.879C216.66 294.713 215.014 285.995 215.014 275.726C214.831 265.612 216.464 255.563 219.81 246.217C222.793 238.101 227.33 230.874 233.078 225.082C238.824 219.379 245.491 215.053 252.692 212.354C260.396 209.442 268.453 207.972 276.557 208.001C284.146 207.968 291.706 209.085 299.044 211.324C306.138 213.454 312.842 217.051 318.831 221.941C324.708 226.816 329.498 233.241 332.802 240.684C336.258 248.349 337.99 257.588 338 268.399C338.002 276.525 336.534 284.562 333.692 291.993C330.771 299.638 326.552 306.526 321.286 312.248C315.579 318.411 308.9 323.246 301.614 326.487C293.229 330.192 284.311 332.019 275.337 331.871ZM274.432 306.033C280.411 306.227 286.359 304.971 291.893 302.345C296.353 300.166 300.332 296.856 303.538 292.658C306.452 288.826 308.682 284.365 310.1 279.531C311.449 274.985 312.148 270.215 312.168 265.408C312.322 259.637 311.195 253.916 308.894 248.792C306.807 244.359 303.827 240.575 300.207 237.759C296.534 234.91 292.456 232.835 288.159 231.628C283.704 230.336 279.126 229.688 274.533 229.701C268.597 229.67 262.734 231.204 257.388 234.187C252.015 237.183 247.484 241.878 244.321 247.729C240.99 253.755 239.324 261.365 239.324 270.559C239.163 277.257 240.54 283.885 243.316 289.767C246.043 295.171 250.194 299.422 255.162 301.896C261.256 304.852 267.827 306.263 274.432 306.033Z" fill="white"/>
<path d="M278.453 315.953C301.998 315.953 321.085 295.019 321.085 269.196C321.085 243.373 301.998 222.439 278.453 222.439C254.908 222.439 235.821 243.373 235.821 269.196C235.821 295.019 254.908 315.953 278.453 315.953Z" fill="white"/>
<path d="M274.432 306.032C280.411 306.226 286.359 304.969 291.893 302.344C296.353 300.165 300.333 296.854 303.538 292.657C306.452 288.825 308.683 284.364 310.1 279.53C311.45 274.984 312.148 270.214 312.168 265.407C312.323 259.635 311.195 253.915 308.894 248.791C306.808 244.358 303.828 240.574 300.207 237.758C296.535 234.909 292.456 232.834 288.16 231.627C283.704 230.335 279.126 229.687 274.533 229.7C268.598 229.669 262.734 231.203 257.388 234.186C252.015 237.182 247.485 241.877 244.321 247.728C240.99 253.754 239.324 261.364 239.324 270.558C239.163 277.256 240.541 283.884 243.316 289.765C246.043 295.17 250.195 299.421 255.162 301.895C261.257 304.851 267.827 306.261 274.432 306.032Z" stroke="#D9B99B" stroke-width="2" stroke-miterlimit="10"/>
<path d="M255.464 318.029C255.363 321.004 255.263 323.978 255.148 326.952C255.148 327.999 255.033 329.046 254.961 330.076C257.88 331.126 260.86 331.932 263.878 332.485C263.807 330.142 263.735 327.799 263.649 325.457C263.519 321.735 263.261 318.029 263.232 314.324C263.146 306.432 263.232 298.522 263.146 290.63C263.089 271.046 263.026 251.461 262.959 231.877C262.933 231.314 262.851 230.757 262.715 230.215C262.651 230.085 262.564 229.971 262.459 229.881C262.355 229.791 262.236 229.727 262.109 229.693C261.983 229.659 261.851 229.655 261.723 229.682C261.595 229.709 261.474 229.766 261.366 229.85C260.476 230.409 259.705 231.193 259.111 232.143C258.508 233.223 257.79 234.22 257.23 235.333C256.805 236.274 256.431 237.245 256.11 238.241C255.852 238.889 255.593 239.537 255.349 240.185C255.105 240.833 254.746 241.846 254.459 242.644C254.1 243.74 253.741 244.837 253.411 245.967C253.08 247.097 252.851 247.994 252.563 248.991C252.362 249.689 252.133 250.387 251.932 251.085C251.831 251.467 251.731 251.849 251.644 252.231C251.329 253.51 250.998 254.807 250.711 256.103C250.51 257.066 250.381 258.063 250.194 259.027C250.079 259.625 249.907 260.223 249.778 260.821C249.649 261.42 249.62 261.735 249.548 262.2L249.246 264.194C249.103 265.009 248.959 265.856 248.83 266.654V266.919C248.744 268.082 248.629 269.246 248.543 270.425C248.457 271.605 248.342 272.967 248.313 274.247C248.227 278.351 248.141 282.455 248.098 286.559C248.055 290.663 248.098 295.1 248.098 299.37C248.088 300.428 248.194 301.483 248.414 302.51C248.65 303.461 249.155 304.292 249.85 304.87L252.851 307.644C253.694 308.465 254.354 309.508 254.775 310.685C255.203 311.951 255.465 313.284 255.55 314.64C255.722 315.683 255.722 316.754 255.55 317.797C255.513 317.869 255.484 317.948 255.464 318.029Z" fill="#4F4F4F"/>
<path d="M284.742 242.461C283.938 242.461 283.12 242.461 282.316 242.461C281.971 242.461 281.842 242.627 281.856 242.976V281.325C281.856 282.239 281.856 282.306 281.023 282.306H279.3C278.668 282.306 278.625 282.306 278.625 281.508V243.458C278.625 242.478 278.625 242.478 277.778 242.478H276.156C275.538 242.478 275.409 242.594 275.337 243.342C275.265 244.09 275.15 244.854 275.079 245.618C274.978 246.715 274.906 247.811 274.806 248.941C274.59 251.035 274.361 253.112 274.131 255.205C274.131 255.289 274.131 255.388 274.131 255.471C274.03 256.801 273.959 258.113 273.858 259.426L273.384 265.175C273.298 266.238 273.212 267.318 273.14 268.398C273.068 269.478 272.968 270.841 272.91 272.07C272.81 273.981 272.738 275.875 272.652 277.786C272.58 279.232 272.48 280.677 272.494 282.123C272.494 283.784 272.623 285.446 272.738 287.108C272.954 288.965 273.727 290.676 274.921 291.943C276.393 293.823 278.188 295.329 280.191 296.363C281.066 296.778 281.971 297.094 282.861 297.459C283.149 297.576 283.35 297.742 283.335 298.157C283.22 300.184 283.134 302.228 283.034 304.272C283.034 305.186 282.919 306.083 282.876 306.997C282.761 309.589 282.675 312.181 282.56 314.773C282.56 316.252 282.445 317.73 282.373 319.226C282.258 321.635 282.115 324.061 282 326.487V327.035C281.928 329.029 281.871 331.006 281.799 333C284.98 332.613 288.133 331.958 291.233 331.04C291.118 328.132 291.017 325.224 290.903 322.316C290.759 318.844 290.601 315.388 290.443 311.915C290.371 310.12 290.314 308.309 290.228 306.515C290.141 304.72 290.055 302.959 289.955 301.181C289.955 300.184 289.854 299.171 289.782 298.174C289.762 298.02 289.793 297.862 289.871 297.735C289.949 297.608 290.066 297.521 290.199 297.492C290.902 297.21 291.635 297.011 292.31 296.662C293.298 296.183 294.257 295.628 295.182 295C296.594 293.938 297.85 292.619 298.901 291.095C299.457 290.349 299.895 289.494 300.193 288.57C300.34 288.032 300.422 287.472 300.437 286.908C300.537 284.549 300.652 282.173 300.667 279.813C300.667 277.869 300.509 275.925 300.423 273.981C300.351 272.619 300.293 271.273 300.207 269.91C300.064 267.717 299.906 265.524 299.733 263.347C299.59 261.602 299.417 259.858 299.26 258.113L298.786 253.029C298.628 251.367 298.47 249.706 298.297 248.044C298.125 246.383 297.996 245.136 297.824 243.691C297.79 243.363 297.728 243.04 297.637 242.727C297.604 242.671 297.561 242.623 297.512 242.586C297.463 242.549 297.408 242.523 297.35 242.511H295.296C295.296 242.81 295.296 243.076 295.296 243.342V281.558C295.296 282.339 295.296 282.372 294.607 282.389H292.654C292.281 282.389 292.123 282.206 292.137 281.791V243.707C292.137 243.508 292.137 243.309 292.137 243.109C292.137 242.91 291.965 242.445 291.549 242.461C290.788 242.461 290.027 242.461 289.266 242.461C288.505 242.461 288.476 242.461 288.476 243.358V269.811C288.476 273.732 288.476 277.653 288.476 281.575C288.476 282.14 288.347 282.322 287.858 282.289C287.37 282.256 286.652 282.289 286.049 282.289C285.446 282.289 285.374 282.289 285.374 281.508V243.525C285.374 243.358 285.374 243.192 285.374 243.026C285.274 242.594 285.13 242.445 284.742 242.461Z" fill="#4F4F4F"/>
<path d="M155.306 213.999C144.209 213.999 134.575 212.234 126.405 208.702C118.621 205.488 112.021 199.746 107.57 192.314C103.19 184.943 101 175.534 101 164.088C101 154.596 102.5 146.297 105.499 139.189C108.328 132.347 112.582 126.256 117.948 121.364C123.315 116.528 129.551 112.869 136.287 110.601C143.46 108.164 150.959 106.949 158.499 107.002C163.618 106.978 168.722 107.574 173.71 108.779C178.23 109.842 182.55 111.685 186.494 114.234C190.108 116.575 193.123 119.807 195.275 123.65C197.458 127.803 198.549 132.49 198.436 137.231C198.436 142.89 197.357 147.417 195.07 150.914C192.76 154.471 189.577 157.306 185.857 159.12C181.655 161.201 177.202 162.671 172.62 163.488C167.701 164.424 162.563 165.137 157.205 165.627C154.493 166.118 151.289 166.514 147.593 166.816C143.896 167.117 140.3 167.363 136.805 167.551C133.331 167.721 130.645 167.812 128.725 167.812C127.322 167.675 125.911 167.962 124.658 168.638C124.261 169.015 123.956 169.486 123.769 170.011C123.581 170.537 123.516 171.102 123.579 171.66C123.656 173.761 124.125 175.826 124.96 177.737C125.966 180.186 127.299 182.473 128.919 184.528C131.738 188.354 135.592 191.198 139.976 192.688C145.024 194.16 150.252 194.842 155.489 194.714C160.429 194.776 165.352 194.094 170.107 192.688C174.508 191.345 178.489 189.994 182.049 188.636C185.121 187.383 188.377 186.698 191.672 186.61C193.799 186.491 195.914 187.014 197.767 188.116C199.245 189.123 200 191.081 200 193.989C199.941 195.43 199.608 196.844 199.02 198.148C198.433 199.453 197.604 200.62 196.58 201.584C193.837 204.325 190.623 206.495 187.109 207.978C182.551 209.977 177.797 211.442 172.933 212.347C167.119 213.472 161.218 214.025 155.306 213.999ZM147.474 156.177C152.52 156.218 157.556 155.679 162.491 154.57C166.621 153.746 170.489 151.851 173.742 149.058C176.619 146.463 178.058 142.875 178.058 138.295C178.058 132.885 176.173 128.815 172.405 126.083C168.636 123.352 163.35 121.982 156.547 121.975C152.515 121.982 148.518 122.748 144.745 124.238C141.026 125.664 137.572 127.759 134.539 130.429C131.668 132.934 129.252 135.963 127.409 139.37C125.636 142.635 124.71 146.331 124.722 150.088C124.671 150.941 124.854 151.79 125.25 152.537C125.646 153.283 126.238 153.895 126.956 154.298C129.237 155.353 131.701 155.901 134.194 155.905C137.495 156.086 141.922 156.177 147.474 156.177Z" fill="white"/>
<path d="M264.578 161.984C259.246 162.01 253.927 161.44 248.713 160.285C244.016 159.261 239.522 157.414 235.425 154.825C231.652 152.42 228.522 149.074 226.323 145.093C223.997 140.593 222.856 135.538 223.015 130.437C223.015 123.872 224.567 118.49 227.673 114.292C230.987 109.909 235.351 106.499 240.331 104.397C246.084 101.894 252.141 100.217 258.334 99.4145C265.224 98.4788 272.166 98.016 279.115 98.0293C281.309 98.0293 283.56 98.0991 285.866 98.2388L292.269 98.6695C294.271 98.8092 295.959 98.8907 297.343 98.8907C298.614 99.0373 299.895 98.7113 300.955 97.971C301.307 97.5369 301.571 97.0339 301.732 96.4919C301.892 95.9499 301.946 95.3801 301.889 94.8164C301.927 92.3191 301.597 89.8303 300.91 87.4361C299.696 83.3598 297.109 79.8694 293.619 77.5995C290.585 75.5635 287.194 74.1634 283.639 73.4787C279.503 72.6398 275.296 72.2303 271.082 72.2564C266.323 72.1859 261.575 72.7612 256.961 73.9676C252.858 75.1084 249.22 76.2725 246.047 77.4598C243.277 78.5888 240.337 79.2036 237.36 79.2758C234.482 79.4405 231.614 78.8139 229.045 77.4598C228.075 76.857 227.285 75.987 226.765 74.9469C226.244 73.9068 226.013 72.7375 226.097 71.5695C226.133 70.1095 226.459 68.6726 227.055 67.3487C227.652 66.0248 228.505 64.8423 229.563 63.8749C232.333 61.215 235.557 59.1111 239.071 57.6703C243.592 55.738 248.31 54.34 253.135 53.5029C258.781 52.4741 264.505 51.9715 270.238 52.0012C282.435 52.0012 292.655 53.5883 300.899 56.7624C308.624 59.5108 315.185 64.956 319.453 72.1632C323.586 79.2642 325.652 88.8019 325.652 100.777C325.681 103.889 325.508 107 325.135 110.089C324.848 112.417 324.416 114.723 323.841 116.992C323.323 118.948 322.896 120.647 322.558 122.068C322.229 123.36 322.056 124.689 322.041 126.026C322.052 127.783 322.612 129.49 323.638 130.891C324.784 132.52 326.064 134.043 327.464 135.443C328.907 136.89 330.204 138.485 331.334 140.204C332.434 141.853 333.015 143.812 333 145.815C333 148.888 332.032 151.088 330.097 152.45C328.21 153.789 325.971 154.496 323.683 154.476C322.699 154.506 321.719 154.328 320.803 153.952C319.888 153.575 319.057 153.009 318.361 152.287C316.955 150.821 315.672 149.377 314.536 147.957C314.047 147.288 313.414 146.747 312.687 146.375C311.961 146.003 311.161 145.811 310.35 145.815C309.251 145.852 308.173 146.147 307.2 146.676C305.739 147.45 304.339 148.341 303.014 149.342C300.944 150.894 298.318 152.66 295.138 154.639C291.264 156.884 287.132 158.617 282.84 159.796C276.877 161.383 270.733 162.12 264.578 161.984ZM267.369 145.629C271.576 145.634 275.757 144.93 279.746 143.545C283.61 142.216 287.243 140.251 290.502 137.725C293.55 135.409 296.117 132.484 298.052 129.122C299.909 125.852 300.873 122.123 300.842 118.331C300.924 117.318 300.748 116.3 300.332 115.378C299.915 114.457 299.273 113.665 298.468 113.081C296.878 112.025 294.343 111.35 290.862 111.055C287.382 110.76 282.75 110.617 276.966 110.625C271.611 110.584 266.27 111.178 261.045 112.394C256.698 113.307 252.648 115.35 249.276 118.331C247.789 119.743 246.621 121.476 245.853 123.407C245.085 125.338 244.736 127.42 244.832 129.506C244.706 132.732 245.655 135.905 247.521 138.493C249.553 141.013 252.245 142.872 255.273 143.848C259.182 145.13 263.269 145.732 267.369 145.629Z" fill="white"/>
<path d="M409.481 208C405.661 207.992 401.863 207.444 398.202 206.374C394.434 205.286 391.069 203.149 388.514 200.222C385.822 197.212 384.265 192.926 383.844 187.365C383.641 185.395 383.435 183.16 383.224 180.66C383.021 178.148 382.829 175.459 382.66 172.572C382.491 169.684 382.344 166.707 382.243 163.62C382.141 160.533 382.04 157.391 381.927 154.171C381.814 150.952 381.78 147.754 381.78 144.567C381.78 141.381 381.137 139.511 380.066 138.57C378.657 137.498 376.92 136.925 375.137 136.944C373.829 136.8 372.16 136.689 370.118 136.59C368.077 136.49 365.99 136.369 363.847 136.225C361.704 136.081 359.809 135.992 358.208 135.926C355.908 135.766 353.741 134.81 352.095 133.226C350.611 131.481 349.867 129.243 350.019 126.975C349.918 125.479 350.335 123.993 351.204 122.759C352.098 121.708 353.268 120.916 354.587 120.469C356.207 119.898 357.893 119.526 359.606 119.362C363.276 119.031 366.283 118.724 368.629 118.444C371.02 118.179 373.242 117.946 375.318 117.736C377.035 117.662 378.685 117.058 380.032 116.01C380.968 115.125 381.566 113.498 381.848 111.131C381.983 109.703 382.107 108.044 382.209 106.151C382.31 104.259 382.446 102.367 382.626 100.509C382.807 98.6498 382.987 97.0344 383.19 95.6734C383.644 93.0166 384.747 90.5072 386.405 88.3598C387.792 86.7997 389.991 86.0141 393.036 86.0141C395.057 85.9171 397.07 86.3205 398.89 87.187C400.337 87.9942 401.453 89.2691 402.048 90.794C402.863 92.8557 403.42 95.0069 403.706 97.2003C403.853 99.2362 403.977 101.062 404.078 102.733C404.18 104.403 404.259 105.831 404.338 107.158C404.417 108.486 404.484 109.681 404.586 110.765C404.687 111.85 404.811 112.978 404.958 114.018C404.972 114.816 405.154 115.601 405.491 116.327C405.829 117.052 406.316 117.701 406.921 118.234C408.362 119.198 410.05 119.746 411.793 119.816L417.962 120.48C420.218 120.709 422.395 120.912 424.493 121.089C426.248 121.212 427.995 121.43 429.726 121.741C432.272 121.987 434.74 122.74 436.978 123.954C437.977 124.553 438.786 125.412 439.316 126.436C439.846 127.46 440.075 128.608 439.978 129.752C440.03 130.807 439.844 131.859 439.433 132.835C439.021 133.81 438.395 134.685 437.599 135.395C435.756 136.855 433.47 137.672 431.102 137.718C426.895 137.785 422.981 137.807 419.395 137.774C415.808 137.741 413 137.774 411.003 137.929C409.66 137.905 408.352 138.352 407.315 139.19C406.458 139.976 405.951 141.956 405.815 145.143C405.815 147.783 405.834 150.461 405.872 153.176C405.872 155.886 405.951 158.597 406.03 161.308C406.108 164.019 406.199 166.663 406.334 169.23C406.469 171.797 406.65 174.253 406.853 176.555C407.056 178.856 407.304 180.981 407.575 182.861C408.127 186.856 409.154 189.5 410.631 190.894C412.278 192.301 414.417 193.027 416.598 192.919C419.061 193.058 421.507 192.435 423.59 191.138C425.151 190.068 426.608 188.861 427.944 187.531C428.462 186.967 429.093 186.514 429.798 186.2C430.502 185.886 431.265 185.718 432.038 185.705C432.732 185.643 433.432 185.734 434.086 185.972C434.739 186.209 435.331 186.587 435.817 187.077C436.692 188.233 437.116 189.657 437.012 191.093C436.978 193.424 436.117 195.67 434.576 197.445C432.772 199.597 430.596 201.421 428.147 202.833C425.382 204.473 422.404 205.738 419.293 206.595C416.106 207.513 412.803 207.986 409.481 208Z" fill="white"/>
<path d="M148.292 425.987C147.095 425.996 145.922 425.706 144.925 425.155C143.815 424.498 142.933 423.608 142.367 422.576C141.515 421.069 140.897 419.478 140.529 417.841C140.209 416.216 139.916 414.469 139.65 412.6C139.37 410.727 139.14 408.814 138.93 406.867C138.721 404.92 138.551 402.948 138.421 400.943C138.291 398.937 138.181 396.965 138.111 395.018C138.041 393.071 138.011 391.191 138.011 389.377C137.86 382.265 139.234 375.187 142.068 368.476C144.463 362.759 148.879 357.778 154.736 354.19C160.451 350.729 167.851 349.001 176.937 349.006C182.111 348.926 187.262 349.605 192.153 351.012C196.266 352.22 200.015 354.156 203.144 356.686C206.103 359.133 208.373 362.097 209.788 365.364C211.301 368.922 212.049 372.673 211.996 376.447C212.062 380.185 211.363 383.905 209.928 387.447C208.608 390.616 206.347 393.456 203.353 395.701C199.98 398.116 195.999 399.87 191.704 400.834C186.023 402.099 180.158 402.69 174.279 402.59C171.626 402.632 168.976 402.431 166.376 401.991C164.678 401.698 163.008 401.3 161.381 400.801C160.516 400.483 159.595 400.283 158.653 400.21C158.289 400.188 157.924 400.238 157.587 400.355C157.251 400.472 156.952 400.653 156.715 400.884C156.129 401.791 155.836 402.809 155.865 403.838C155.696 404.942 155.602 406.053 155.586 407.166C155.586 408.614 155.486 410.187 155.416 411.867C155.346 413.548 155.306 415.112 155.286 416.552C155.266 417.991 155.226 419.048 155.176 419.88C154.996 422.182 154.33 423.779 153.178 424.673C151.811 425.615 150.063 426.086 148.292 425.987ZM171.781 392.414C178.189 392.414 183.251 391.735 186.968 390.376C190.383 389.241 193.212 387.145 194.961 384.451C196.651 381.566 197.48 378.383 197.379 375.174C197.398 372.475 196.823 369.796 195.68 367.27C194.509 364.756 192.378 362.634 189.616 361.229C186.711 359.682 182.625 358.905 177.356 358.899C174.057 358.83 170.78 359.364 167.755 360.464C165.157 361.448 162.914 362.983 161.251 364.915C159.524 366.968 158.289 369.279 157.614 371.721C156.808 374.581 156.419 377.512 156.455 380.449C156.315 382.968 156.777 385.485 157.814 387.855C158.252 388.696 158.902 389.45 159.718 390.065C160.535 390.681 161.5 391.144 162.549 391.424C165.544 392.158 168.662 392.481 171.781 392.381V392.414Z" fill="white"/>
<path d="M246.649 460.571C242.189 460.571 238.586 459.628 235.839 457.741C233.092 455.854 231.009 452.731 229.589 448.371C227.941 442.622 226.981 436.697 226.729 430.721C226.499 428.851 226.329 426.551 226.209 423.801C226.089 421.051 226.029 418.081 226.009 414.901C225.989 411.721 226.009 408.571 226.009 405.431C226.009 402.291 226.119 399.431 226.179 396.781C226.239 394.131 226.329 391.981 226.419 390.301C226.532 386.684 226.866 383.077 227.419 379.501C227.679 377.18 228.575 374.975 230.009 373.131C230.679 372.411 231.5 371.848 232.412 371.482C233.325 371.115 234.307 370.955 235.289 371.011C238.149 371.011 240.126 371.888 241.219 373.641C242.312 375.394 242.859 378.334 242.859 382.461C242.859 383.741 242.809 385.461 242.719 387.511C242.629 389.561 242.519 391.911 242.379 394.461C242.239 397.011 242.099 399.641 241.939 402.361C241.779 405.081 241.639 407.761 241.529 410.361C241.419 412.961 241.309 415.361 241.219 417.661C241.129 419.961 241.079 421.801 241.079 423.351C241.079 428.751 241.252 433.144 241.599 436.531C241.792 439.196 242.305 441.829 243.129 444.371C243.571 445.859 244.436 447.186 245.619 448.191C246.6 448.894 247.782 449.262 248.989 449.241C250.494 449.286 251.986 448.941 253.319 448.241C254.479 447.581 255.529 446.921 256.489 446.241C257.338 445.611 258.362 445.261 259.419 445.241C259.905 445.218 260.391 445.312 260.834 445.513C261.277 445.715 261.666 446.019 261.969 446.401C262.615 447.263 262.941 448.324 262.889 449.401C262.875 450.904 262.4 452.366 261.529 453.591C260.554 454.997 259.314 456.2 257.879 457.131C254.532 459.333 250.615 460.507 246.609 460.511L246.649 460.571Z" fill="white"/>
<path d="M304.405 461.1C300.889 461.114 297.382 460.748 293.945 460.01C290.85 459.359 287.891 458.182 285.195 456.53C282.705 455.001 280.641 452.868 279.195 450.33C277.66 447.462 276.909 444.241 277.015 440.99C276.86 437.315 277.937 433.693 280.075 430.7C282.267 427.912 285.144 425.738 288.425 424.39C292.228 422.796 296.232 421.733 300.325 421.23C304.863 420.629 309.437 420.332 314.015 420.34C315.475 420.34 316.945 420.34 318.445 420.48L322.675 420.75C323.995 420.84 325.105 420.89 326.015 420.89C326.851 420.982 327.694 420.776 328.395 420.31C328.626 420.035 328.8 419.716 328.906 419.373C329.013 419.029 329.05 418.668 329.015 418.31C329.039 416.716 328.819 415.128 328.365 413.6C327.959 412.296 327.326 411.073 326.495 409.99C325.672 408.947 324.682 408.048 323.565 407.33C321.564 406.033 319.329 405.143 316.985 404.71C314.257 404.175 311.484 403.914 308.705 403.93C305.57 403.884 302.443 404.251 299.405 405.02C296.691 405.74 294.291 406.49 292.205 407.27C290.381 407.987 288.444 408.376 286.485 408.42C284.585 408.525 282.692 408.128 280.995 407.27C280.358 406.883 279.841 406.328 279.499 405.667C279.157 405.006 279.003 404.263 279.055 403.52C279.078 402.589 279.292 401.673 279.684 400.828C280.076 399.983 280.638 399.228 281.335 398.61C283.165 396.915 285.294 395.576 287.615 394.66C290.59 393.424 293.697 392.532 296.875 392C300.597 391.329 304.372 390.994 308.155 391C316.195 391 322.931 392 328.365 394C333.473 395.763 337.804 399.259 340.605 403.88C343.338 408.4 344.701 414.477 344.695 422.11C344.714 424.092 344.6 426.073 344.355 428.04C344.165 429.523 343.881 430.993 343.505 432.44C343.165 433.69 342.875 434.77 342.655 435.67C342.437 436.496 342.323 437.346 342.315 438.2C342.325 439.319 342.693 440.405 343.365 441.3C344.124 442.331 344.967 443.297 345.885 444.19C346.834 445.104 347.692 446.109 348.445 447.19C349.168 448.239 349.549 449.486 349.535 450.76C349.606 451.57 349.467 452.384 349.133 453.125C348.798 453.866 348.279 454.508 347.625 454.99C346.383 455.841 344.91 456.291 343.405 456.28C342.756 456.3 342.11 456.187 341.506 455.948C340.902 455.709 340.354 455.349 339.895 454.89C338.968 453.957 338.128 453.037 337.375 452.13C337.052 451.703 336.635 451.358 336.156 451.12C335.677 450.882 335.149 450.759 334.615 450.76C333.889 450.786 333.178 450.974 332.535 451.31C331.571 451.802 330.648 452.371 329.775 453.01C328.405 454.01 326.675 455.14 324.555 456.39C322.014 457.817 319.302 458.916 316.485 459.66C312.542 460.688 308.478 461.173 304.405 461.1ZM306.245 450.67C309.025 450.673 311.788 450.224 314.425 449.34C316.97 448.501 319.364 447.259 321.515 445.66C323.531 444.182 325.231 442.315 326.515 440.17C327.737 438.085 328.373 435.707 328.355 433.29C328.409 432.645 328.293 431.996 328.017 431.41C327.742 430.823 327.316 430.32 326.785 429.95C325.241 429.134 323.53 428.689 321.785 428.65C319.485 428.47 316.435 428.38 312.615 428.38C309.077 428.346 305.547 428.719 302.095 429.49C299.229 430.061 296.555 431.352 294.325 433.24C292.669 434.912 291.647 437.108 291.435 439.451C291.224 441.795 291.835 444.139 293.165 446.08C294.5 447.689 296.276 448.874 298.275 449.49C300.848 450.321 303.541 450.72 306.245 450.67Z" fill="white"/>
<path d="M369.072 425.92C367.233 426.023 365.425 425.414 364.022 424.22C362.595 422.687 361.649 420.767 361.302 418.7C361.162 417.52 361.072 416.18 361.022 414.7C360.972 413.22 361.022 411.5 361.022 409.59C361.022 407.68 361.182 405.591 361.362 403.321C361.909 394.281 363.752 386.614 366.892 380.321C369.736 374.343 374.288 369.343 379.972 365.95C385.566 362.617 392.232 360.967 399.972 361C407.712 361.034 414.379 362.604 419.972 365.71C425.645 369.022 430.094 374.081 432.652 380.131C435.612 386.624 437.089 394.914 437.082 405C437.082 406.82 437.082 408.5 436.982 410C436.882 411.5 436.812 413 436.672 414.23C436.556 415.404 436.352 416.567 436.062 417.71C435.396 420.61 434.396 422.7 433.062 423.98C431.642 425.28 429.765 425.963 427.842 425.881C426.107 425.987 424.376 425.61 422.842 424.79C421.654 424.034 420.78 422.872 420.382 421.52C419.843 419.772 419.507 417.966 419.382 416.14C419.252 412.73 419.122 409.72 419.012 407.14C418.902 404.56 418.742 402.14 418.532 400.14C418.322 398.14 418.092 396.14 417.822 394.34C417.552 392.54 417.202 390.74 416.822 388.93C415.782 384.264 414.036 380.74 411.582 378.36C409.129 375.98 405.462 374.777 400.582 374.75C395.916 374.75 392.156 376.057 389.302 378.67C386.251 381.619 383.992 385.289 382.732 389.34C382.031 391.301 381.46 393.305 381.022 395.34C380.572 397.43 380.192 399.591 379.902 401.821C379.612 404.051 379.352 406.381 379.152 408.821C378.952 411.261 378.752 413.82 378.572 416.52C378.489 418.575 377.928 420.582 376.932 422.381C376.182 423.648 375.032 424.629 373.662 425.17C372.191 425.698 370.635 425.952 369.072 425.92Z" fill="white"/>
</svg>
