<svg width="524" height="338" viewBox="0 0 524 338" fill="none" xmlns="http://www.w3.org/2000/svg">
<g filter="url(#filter0_if_47_725)">
<path d="M262 314C393.444 314 500 249.081 500 169C500 88.9187 393.444 24 262 24C130.556 24 24 88.9187 24 169C24 249.081 130.556 314 262 314Z" fill="#D9B99B"/>
</g>
<g filter="url(#filter1_i_47_725)">
<path d="M177.59 99.98C182.1 90.41 178.91 80.07 169.78 74.79C167.69 73.47 165.38 72.48 162.96 72.04C156.14 70.5 149.21 69.84 142.28 71.27C139.31 71.82 136.34 72.59 133.7 74.13C131.39 75.56 129.63 77.43 129.3 80.4C128.86 84.14 128.2 87.77 127.87 91.51C127.21 98.77 126.88 106.14 126.44 113.4C125.78 121.76 125.89 130.12 127.1 138.48C127.65 142 128.31 145.52 130.07 148.71C132.27 152.89 136.23 154.76 140.85 153.88C142.39 153.55 144.04 152.56 145.47 152.67C147.12 152.89 148.55 154.1 150.09 154.65C156.91 157.18 163.73 157.29 170.66 155.2C181.77 151.9 190.24 145.19 195.3 134.63C197.61 129.68 198.38 124.4 196.95 119.01C194.64 110.32 188.59 105.7 180.12 103.72C178.8 103.39 177.48 103.28 175.94 102.95L177.59 99.98ZM146.24 125.83C146.02 122.31 146.02 122.31 148.77 121.43C152.84 120 157.02 119.67 161.2 121.1C162.3 121.54 163.29 121.98 164.17 122.64C167.8 125.28 168.68 129.24 166.48 133.09C165.49 134.74 164.17 136.17 162.52 137.27C158.78 139.8 154.6 140.9 150.09 140.79C147.89 140.68 147.78 140.57 147.45 138.48C147.12 136.28 146.9 134.19 146.68 131.99C146.46 129.79 146.35 127.48 146.24 125.83ZM146.13 105.26C145.91 100.97 146.35 97.01 146.68 92.94L147.01 88.98C147.01 87.99 147.45 87.44 148.44 87.11C149.98 86.56 151.63 86.23 153.39 86.34C157.02 86.56 159.22 89.2 158.67 92.94C158.56 93.71 158.34 94.48 158.12 95.14C155.92 100.2 152.07 103.5 146.9 105.26C146.68 105.37 146.46 105.26 146.13 105.26ZM138.98 76C140.3 76.11 141.62 76.66 142.61 77.87C143.05 78.42 143.16 78.86 142.94 79.63C141.07 84.36 140.08 89.2 139.97 94.26C139.97 95.36 140.08 96.46 140.41 97.56C140.63 97.89 140.41 98.22 140.3 98.55C139.86 99.98 138.87 100.86 137.33 101.41C136.01 101.85 134.8 101.52 134.14 100.31C133.48 99.21 133.26 97.89 133.15 96.68C132.71 93.05 132.93 89.53 133.59 86.01C134.03 83.26 134.8 80.51 136.01 77.87C136.01 77.76 136.12 77.54 136.23 77.43C136.67 76.22 137.55 76 138.98 76ZM140.96 104.16V104.6C140.85 105.48 140.85 106.36 141.29 107.24C141.51 107.57 141.29 107.9 141.29 108.12C140.74 109.55 138.76 110.76 137.11 110.43C136.34 110.32 135.79 109.99 135.46 109.33C134.47 107.35 134.58 105.37 135.68 103.5C136.12 102.84 136.89 102.51 137.77 102.29C138.1 102.18 138.54 102.18 138.87 102.18C140.41 102.18 141.07 102.84 140.96 104.16ZM205.393 127.81C205.393 133.75 206.493 139.03 209.463 143.76C211.773 147.5 214.853 150.58 219.363 151.68C229.153 154.1 238.503 147.5 241.693 140.57C241.913 139.8 242.133 139.03 242.133 138.26C242.243 136.94 241.583 135.73 240.593 135.4C239.383 135.18 238.723 136.06 238.063 136.83C237.073 138.15 236.083 139.47 234.653 140.35C232.673 141.56 230.473 142.11 228.053 141.01C226.293 140.24 225.193 138.81 224.423 137.16C223.103 134.3 222.773 131.22 223.103 128.14C223.103 127.48 223.433 127.37 223.983 127.48C227.613 127.7 231.023 126.71 234.103 124.84C239.163 121.87 242.683 117.69 243.233 111.64C244.003 104.05 238.063 95.58 227.613 97.12C221.343 98.11 216.393 101.19 212.543 106.25C207.703 112.74 205.613 120.11 205.393 127.81ZM224.533 122.2C226.073 118.79 228.163 115.82 231.903 114.5C232.343 114.28 232.783 114.28 233.113 114.17C233.883 114.17 234.763 113.95 235.203 114.83C235.643 115.6 235.313 116.37 234.873 117.14C233.993 118.35 232.783 119.23 231.573 120C229.593 121.21 227.393 121.98 225.193 122.31C224.973 122.31 224.863 122.42 224.533 122.2ZM225.633 103.28C226.843 103.94 227.833 104.93 228.273 106.36C228.493 107.02 228.383 107.57 227.943 108.12C224.423 111.86 221.673 115.93 219.803 120.66C219.363 121.65 219.033 122.75 218.923 123.85C218.923 124.18 218.703 124.4 218.483 124.73C217.493 125.83 216.283 126.38 214.633 126.27C213.203 126.16 212.323 125.39 212.103 124.07C211.883 122.75 212.103 121.54 212.433 120.33C213.423 116.81 214.963 113.62 216.833 110.65C218.373 108.23 220.023 105.92 222.113 103.94C222.223 103.83 222.333 103.72 222.443 103.61C223.433 102.62 224.313 102.84 225.633 103.28ZM216.943 130.23L216.723 130.56C216.393 131.44 216.063 132.21 216.173 133.2C216.173 133.53 215.953 133.75 215.733 133.97C214.853 135.07 212.433 135.4 211.113 134.63C210.453 134.19 210.013 133.64 209.903 132.87C209.793 130.67 210.673 128.91 212.433 127.59C212.983 127.15 213.863 127.15 214.633 127.26C215.073 127.26 215.513 127.37 215.843 127.59C217.163 128.14 217.493 129.02 216.943 130.23Z" fill="white"/>
</g>
<g filter="url(#filter2_i_47_725)">
<path d="M115.33 202.23C115.33 201.68 115.22 201.35 115.33 201.02C115.66 190.9 116.1 180.78 117.64 170.77C117.86 169.34 117.64 168.35 116.32 167.58C111.04 164.83 105.54 164.28 99.93 166.04C98.39 166.48 97.51 167.47 97.07 169.01C96.85 169.67 96.63 170.44 96.41 171.21C94.98 176.49 94.32 181.88 93.88 187.16C92.78 198.49 92.89 209.82 93.88 221.04C94.43 228.3 95.64 235.34 97.73 242.27C98.5 244.91 99.49 247.55 101.14 249.75C103.01 252.28 105.21 253.16 108.29 252.39C112.58 251.29 115.44 248.54 117.42 244.58C117.86 243.81 117.86 243.04 117.53 242.16C116.98 240.95 116.65 239.74 116.43 238.53C115.44 233.47 114.78 228.41 114.67 223.24C114.67 221.26 114.67 221.26 116.65 220.6C121.82 219.06 127.1 218.4 132.49 218.51C134.03 218.51 134.14 218.51 134.25 220.16C134.8 223.9 135.35 227.64 136.23 231.27C137.22 234.9 138.54 238.42 140.63 241.61C142.28 244.25 144.59 246.01 147.67 246.89C151.74 247.99 156.47 246.56 158.67 243.48C159.33 242.38 159.55 241.39 158.89 240.29C156.69 236.77 156.03 232.7 155.48 228.74C153.94 216.09 154.38 203.55 155.37 191.01C155.92 184.3 156.58 177.59 157.24 170.88C157.46 168.02 157.13 167.36 154.49 166.26C149.87 164.06 145.14 164.17 140.41 166.04C138.43 166.7 137 167.91 137 170.11C137 170.66 136.78 171.1 136.67 171.65C135.02 180.89 134.14 190.35 133.7 199.81C133.7 200.25 133.81 200.8 133.26 201.35C127.43 200.14 121.49 200.69 115.33 202.23ZM105.98 170C107.3 170.11 108.62 170.66 109.61 171.87C110.05 172.42 110.16 172.86 109.94 173.63C108.07 178.36 107.08 183.2 106.97 188.26C106.97 189.36 107.08 190.46 107.41 191.56C107.63 191.89 107.41 192.22 107.3 192.55C106.86 193.98 105.87 194.86 104.33 195.41C103.01 195.85 101.8 195.52 101.14 194.31C100.48 193.21 100.26 191.89 100.15 190.68C99.71 187.05 99.93 183.53 100.59 180.01C101.03 177.26 101.8 174.51 103.01 171.87C103.01 171.76 103.12 171.54 103.23 171.43C103.67 170.22 104.55 170 105.98 170ZM107.96 198.16V198.6C107.85 199.48 107.85 200.36 108.29 201.24C108.51 201.57 108.29 201.9 108.29 202.12C107.74 203.55 105.76 204.76 104.11 204.43C103.34 204.32 102.79 203.99 102.46 203.33C101.47 201.35 101.58 199.37 102.68 197.5C103.12 196.84 103.89 196.51 104.77 196.29C105.1 196.18 105.54 196.18 105.87 196.18C107.41 196.18 108.07 196.84 107.96 198.16ZM164.337 221.81C164.337 227.75 165.437 233.03 168.407 237.76C170.717 241.5 173.797 244.58 178.307 245.68C188.097 248.1 197.447 241.5 200.637 234.57C200.857 233.8 201.077 233.03 201.077 232.26C201.187 230.94 200.527 229.73 199.537 229.4C198.327 229.18 197.667 230.06 197.007 230.83C196.017 232.15 195.027 233.47 193.597 234.35C191.617 235.56 189.417 236.11 186.997 235.01C185.237 234.24 184.137 232.81 183.367 231.16C182.047 228.3 181.717 225.22 182.047 222.14C182.047 221.48 182.377 221.37 182.927 221.48C186.557 221.7 189.967 220.71 193.047 218.84C198.107 215.87 201.627 211.69 202.177 205.64C202.947 198.05 197.007 189.58 186.557 191.12C180.287 192.11 175.337 195.19 171.487 200.25C166.647 206.74 164.557 214.11 164.337 221.81ZM183.477 216.2C185.017 212.79 187.107 209.82 190.847 208.5C191.287 208.28 191.727 208.28 192.057 208.17C192.827 208.17 193.707 207.95 194.147 208.83C194.587 209.6 194.257 210.37 193.817 211.14C192.937 212.35 191.727 213.23 190.517 214C188.537 215.21 186.337 215.98 184.137 216.31C183.917 216.31 183.807 216.42 183.477 216.2ZM184.577 197.28C185.787 197.94 186.777 198.93 187.217 200.36C187.437 201.02 187.327 201.57 186.887 202.12C183.367 205.86 180.617 209.93 178.747 214.66C178.307 215.65 177.977 216.75 177.867 217.85C177.867 218.18 177.647 218.4 177.427 218.73C176.437 219.83 175.227 220.38 173.577 220.27C172.147 220.16 171.267 219.39 171.047 218.07C170.827 216.75 171.047 215.54 171.377 214.33C172.367 210.81 173.907 207.62 175.777 204.65C177.317 202.23 178.967 199.92 181.057 197.94C181.167 197.83 181.277 197.72 181.387 197.61C182.377 196.62 183.257 196.84 184.577 197.28ZM175.887 224.23L175.667 224.56C175.337 225.44 175.007 226.21 175.117 227.2C175.117 227.53 174.897 227.75 174.677 227.97C173.797 229.07 171.377 229.4 170.057 228.63C169.397 228.19 168.957 227.64 168.847 226.87C168.737 224.67 169.617 222.91 171.377 221.59C171.927 221.15 172.807 221.15 173.577 221.26C174.017 221.26 174.457 221.37 174.787 221.59C176.107 222.14 176.437 223.02 175.887 224.23ZM259.098 220.71C259.208 213.45 259.318 206.19 258.988 199.04C258.878 196.62 257.778 195.3 255.248 194.86C252.388 194.31 249.638 194.75 247.108 196.51C246.558 196.84 246.228 196.84 245.788 196.4C244.578 195.3 243.258 194.2 241.828 193.54C235.558 190.46 229.508 191.23 223.788 194.86C218.618 198.05 214.878 202.67 212.238 208.06C208.388 216.2 207.288 224.67 209.818 233.36C213.338 245.13 223.678 248.54 233.358 245.68C236.878 244.69 239.518 242.38 241.828 239.63C242.378 238.97 242.708 238.86 243.038 239.74C243.478 240.62 243.918 241.39 244.358 242.27C246.888 246.23 252.388 248.1 256.678 246.45C258.438 245.68 259.098 244.8 259.098 242.93C259.098 235.45 258.988 228.08 259.098 220.71ZM230.718 221.81C231.048 217.19 233.248 212.46 237.538 208.83C238.308 208.17 239.078 207.73 239.958 207.62C240.728 207.62 241.168 207.73 240.948 208.61C239.408 214.22 239.408 219.94 239.628 225.66C239.628 227.42 238.088 229.51 236.328 230.06C234.898 230.5 233.358 229.73 232.258 227.97C231.378 226.65 230.828 224.89 230.718 221.81ZM234.898 196.29C235.998 197.17 236.768 198.38 236.988 199.81C237.098 200.47 236.988 201.02 236.328 201.46C232.368 204.54 228.958 208.17 226.318 212.46C225.658 213.45 225.218 214.44 224.998 215.54C224.888 215.87 224.558 216.09 224.338 216.31C223.238 217.3 221.918 217.52 220.378 217.19C218.948 216.97 218.178 215.98 218.178 214.66C218.178 213.34 218.618 212.13 219.168 210.92C220.598 207.73 222.688 204.76 225.108 202.12C226.978 200.03 228.958 198.05 231.378 196.4C231.488 196.29 231.598 196.29 231.818 196.18C232.808 195.3 233.688 195.63 234.898 196.29ZM221.918 221.48L221.698 221.81C221.258 222.58 220.708 223.35 220.708 224.34C220.708 224.67 220.378 224.78 220.158 225C219.058 225.99 216.638 225.88 215.428 224.89C214.878 224.34 214.548 223.68 214.548 223.02C214.768 220.71 215.978 219.17 217.848 218.18C218.508 217.74 219.388 217.96 220.158 218.18C220.598 218.29 220.928 218.51 221.258 218.62C222.468 219.5 222.688 220.38 221.918 221.48ZM287.402 168.13C282.562 168.57 279.262 170.33 277.062 174.4C274.752 178.8 272.882 183.31 271.232 188.04C266.832 200.14 265.842 212.68 268.152 225.33C269.142 230.83 271.122 236 274.862 240.29C278.492 244.47 283.002 247.33 288.722 247.66C292.242 247.77 295.762 246.89 298.402 244.47C303.352 239.96 303.682 232.59 299.502 227.42C299.172 226.98 298.732 226.76 298.292 226.54C297.192 225.99 296.422 226.54 296.422 227.75C296.532 229.29 295.982 230.06 294.772 230.39C293.782 230.61 292.682 230.06 292.132 228.74C291.802 227.86 291.362 226.87 291.142 225.88C288.612 216.09 289.162 206.3 291.472 196.51C292.902 190.46 294.882 184.74 298.292 179.57C299.612 177.59 299.612 175.61 298.292 173.74C295.652 169.67 291.582 168.35 287.402 168.13ZM288.612 173.85C289.822 174.4 291.032 175.17 291.582 176.49C291.912 177.15 291.912 177.7 291.472 178.36C288.502 182.43 286.302 186.94 284.982 191.78C284.762 192.88 284.542 193.98 284.652 195.08C284.652 195.52 284.432 195.74 284.212 196.07C283.442 197.28 282.232 197.94 280.692 198.05C279.262 198.16 278.272 197.5 277.832 196.18C277.502 194.97 277.612 193.65 277.722 192.44C278.272 188.92 279.372 185.51 280.802 182.21C282.012 179.68 283.442 177.15 285.202 174.95C285.312 174.84 285.422 174.73 285.532 174.62C286.302 173.52 287.292 173.52 288.612 173.85ZM283.442 201.68L283.332 202.12C283.112 202.89 282.892 203.77 283.112 204.76C283.112 205.09 282.892 205.31 282.782 205.53C282.012 206.85 279.702 207.4 278.162 206.85C277.502 206.52 277.062 205.97 276.842 205.31C276.402 203.11 277.062 201.24 278.602 199.7C279.152 199.15 280.032 199.04 280.802 199.04C281.242 199.04 281.682 199.04 282.012 199.15C283.442 199.59 283.882 200.47 283.442 201.68ZM339.978 227.42C339.758 227.09 339.428 226.87 338.988 226.65C338.548 226.43 338.108 226.1 337.558 226.43C337.118 226.76 337.008 227.31 337.118 227.86C337.228 228.74 337.008 229.51 336.348 229.95C335.138 230.83 333.818 230.39 333.048 229.07C332.388 227.75 332.058 226.32 331.728 225C329.968 217.63 329.968 210.26 330.848 202.89C331.178 201.13 331.178 201.13 332.938 200.91C334.808 200.8 336.678 200.58 338.548 199.81C339.318 199.37 339.648 198.82 339.758 197.83C339.758 196.4 338.878 195.74 337.888 195.08C336.568 194.31 335.028 193.98 333.598 193.65C332.938 193.54 332.718 193.32 332.938 192.66C334.258 188.04 335.908 183.53 338.438 179.46C339.758 177.48 339.538 175.61 338.438 173.74C336.568 170.66 333.818 169.23 330.518 168.46C326.338 167.69 320.618 169.12 317.978 174.73C315.338 180.12 313.138 185.73 311.708 191.67C311.268 193.32 310.608 194.31 308.848 194.42C307.418 194.42 306.208 195.08 305.108 196.07C303.788 197.28 303.898 198.93 305.438 200.03C306.318 200.58 307.308 201.13 308.408 201.02C309.398 201.02 309.618 201.46 309.398 202.34C308.738 207.18 308.518 212.02 308.848 216.97C308.958 219.83 309.288 222.69 309.838 225.55C311.048 231.05 312.808 236.22 316.548 240.51C320.068 244.58 324.358 247.44 329.748 247.66C333.268 247.77 336.568 246.89 339.098 244.36C343.718 239.85 344.048 232.59 339.978 227.42ZM329.088 174.51C330.408 174.95 331.618 175.83 332.278 177.04C332.608 177.7 332.498 178.25 332.168 178.91C329.308 183.09 327.218 187.6 326.118 192.55C325.788 193.65 325.678 194.75 325.788 195.85C325.898 196.18 325.568 196.51 325.458 196.73C324.688 198.05 323.478 198.71 321.938 198.93C320.508 199.04 319.408 198.49 319.078 197.17C318.638 195.85 318.638 194.64 318.858 193.32C319.188 189.8 320.288 186.39 321.608 183.09C322.818 180.45 324.028 177.92 325.788 175.61C325.898 175.5 326.008 175.39 326.118 175.28C326.888 174.18 327.768 174.18 329.088 174.51ZM324.798 202.45L324.688 202.89C324.468 203.66 324.248 204.54 324.468 205.53C324.578 205.86 324.358 206.08 324.248 206.3C323.478 207.62 321.168 208.28 319.738 207.73C318.968 207.4 318.528 206.96 318.308 206.19C317.758 203.99 318.418 202.12 319.848 200.58C320.398 200.03 321.278 199.92 322.158 199.81C322.488 199.81 322.928 199.92 323.258 200.03C324.688 200.36 325.128 201.13 324.798 202.45ZM431.206 217.52C431.536 217.63 431.426 217.96 431.426 218.18C432.086 221.92 431.316 225.44 430.216 228.96C429.116 232.59 427.576 235.89 424.716 238.53C421.966 241.06 417.236 241.06 414.486 238.53C413.606 237.65 412.726 237.65 411.956 238.64C410.966 239.63 410.746 240.73 410.966 242.16C411.846 246.56 414.816 248.98 418.996 250.08C425.376 251.62 431.096 249.86 436.046 245.57C439.236 242.82 441.546 239.3 443.416 235.45C447.596 226.21 448.476 216.53 446.606 206.52C445.726 201.9 444.186 197.39 441.656 193.32C441.326 192.88 441.106 192.44 440.556 192.22C437.036 191.12 432.416 193.98 431.976 197.72C431.756 198.82 431.646 199.92 431.316 200.91C429.886 206.3 427.356 211.25 424.056 215.76C423.616 216.31 423.066 217.63 422.406 217.41C421.746 217.19 421.746 215.98 421.526 215.1C420.426 208.28 421.526 201.9 425.156 196.07C425.816 195.08 425.706 194.42 424.936 193.76C422.186 191.12 418.996 189.91 415.256 190.13C412.836 190.24 410.966 191.34 409.866 193.43C409.316 194.53 408.656 195.41 408.216 196.51C404.696 204.87 403.706 213.45 405.136 222.36C405.686 225.77 406.786 228.96 409.096 231.6C411.516 234.24 414.376 234.79 417.566 233.25C419.986 232.04 421.966 230.39 423.726 228.41C426.366 225.33 428.676 221.92 430.656 218.29C430.766 218.07 430.876 217.63 431.206 217.52ZM416.246 194.31C417.566 194.42 418.886 194.97 419.876 196.18C420.316 196.73 420.426 197.17 420.206 197.94C418.336 202.67 417.346 207.51 417.236 212.57C417.236 213.67 417.346 214.77 417.676 215.87C417.896 216.2 417.676 216.53 417.566 216.86C417.126 218.29 416.136 219.17 414.596 219.72C413.276 220.16 412.066 219.83 411.406 218.62C410.746 217.52 410.526 216.2 410.416 214.99C409.976 211.36 410.196 207.84 410.856 204.32C411.296 201.57 412.066 198.82 413.276 196.18C413.276 196.07 413.386 195.85 413.496 195.74C413.936 194.53 414.816 194.31 416.246 194.31ZM418.226 222.47V222.91C418.116 223.79 418.116 224.67 418.556 225.55C418.776 225.88 418.556 226.21 418.556 226.43C418.006 227.86 416.026 229.07 414.376 228.74C413.606 228.63 413.056 228.3 412.726 227.64C411.736 225.66 411.846 223.68 412.946 221.81C413.386 221.15 414.156 220.82 415.036 220.6C415.366 220.49 415.806 220.49 416.136 220.49C417.676 220.49 418.336 221.15 418.226 222.47Z" fill="white"/>
</g>
<g filter="url(#filter3_i_47_725)">
<path d="M380.942 186.798C381.586 192.257 378.916 197.038 374.981 197.475C371.044 197.912 367.331 193.839 366.687 188.38C366.043 182.919 368.711 178.14 372.648 177.703C376.584 177.267 380.298 181.338 380.942 186.798Z" fill="white"/>
<path d="M395.448 232.792C398.686 234.681 401.345 235.526 402.424 235.82C402.389 235.881 402.354 235.943 402.319 236.004C402.31 236.02 402.3 236.035 402.291 236.051C402.253 236.119 402.213 236.186 402.174 236.252C398.307 237.705 394.842 237.87 391.75 237.086C388.914 236.366 386.393 234.847 384.169 232.787C379.947 229.263 376.549 224.068 374.048 218.591C367.412 220.517 363.735 230.21 361.855 237.644C360.83 241.697 360.34 245.079 360.197 246.166C360.146 246.13 360.097 246.094 360.048 246.056C359.182 241.957 358.743 238.173 358.677 234.717C358.429 221.757 363.433 213.404 370.947 210.23C370.775 209.644 370.615 209.064 370.467 208.49L370.46 208.493C365.75 195.113 355.632 188.752 348.899 185.896C345.055 184.265 342.315 183.776 342.315 183.776C345.057 182.719 347.742 182.263 350.331 182.308C357.819 182.433 364.51 186.729 369.512 192.662C384.28 205.317 399.159 193.179 399.159 193.179C393.075 206.505 384.609 208.28 376.795 205.379C377.159 206.405 377.474 207.43 377.737 208.448L377.742 208.446C377.772 208.562 377.803 208.679 377.834 208.794C377.854 208.793 377.874 208.792 377.894 208.792L377.933 208.97L377.988 208.948C381.654 222.395 389.521 229.339 395.448 232.792Z" fill="white"/>
</g>
<path fill-rule="evenodd" clip-rule="evenodd" d="M315.272 71.9859C314.15 70.7605 312.526 69.1959 311.349 68C311.349 68.0002 310.308 69.708 309.957 70.4675C309.661 71.1093 309.277 71.9772 309.156 72.6503C308.95 73.7978 308.999 75.366 309.24 76.5096C309.568 78.063 310.456 80.0848 311.349 81.5079C311.935 82.4418 312.975 83.5895 313.795 84.4181C317.476 88.1353 322.494 93.2726 327.627 95.8438C328.73 96.3961 330.476 96.7492 331.697 97.1372C331.341 95.8485 331.008 94.1034 330.51 92.8415C329.944 91.407 328.925 89.5549 328.083 88.1986C326.809 86.1461 324.743 83.5468 323.231 81.5873C322.219 80.2765 320.807 78.5562 319.742 77.2689C318.424 75.6734 316.688 73.5337 315.272 71.9859Z" fill="#769C37"/>
<path d="M311.349 68C312.526 69.1959 314.15 70.7605 315.272 71.9859C316.688 73.5337 318.424 75.6734 319.742 77.2689C320.807 78.5562 322.219 80.2765 323.231 81.5873C324.743 83.5468 326.809 86.1461 328.083 88.1986C328.925 89.5549 329.944 91.407 330.51 92.8415C331.008 94.1034 331.341 95.8485 331.697 97.1372C330.476 96.7492 328.73 96.3961 327.627 95.8438C322.494 93.2726 317.476 88.1353 313.795 84.4181C312.975 83.5895 311.935 82.4418 311.349 81.5079C310.456 80.0848 309.568 78.063 309.24 76.5096C308.999 75.366 308.95 73.7978 309.156 72.6503C309.277 71.9772 309.661 71.1093 309.957 70.4675C310.308 69.708 311.349 68 311.349 68Z" stroke="#769C37" stroke-linecap="round" stroke-linejoin="round"/>
<path fill-rule="evenodd" clip-rule="evenodd" d="M272.912 83.9575C272.814 83.6582 272.729 83.2518 272.65 82.9492C272.651 82.9492 274.598 83.37 275.414 83.5934C279.726 84.7745 285.306 86.6864 289.419 88.2151C292.95 89.5279 297.637 91.3423 300.921 92.9771C305.533 95.2727 311.067 98.972 315.347 101.605C317.197 102.743 319.655 104.27 321.454 105.452C322.597 106.203 324.06 107.255 325.198 108.009C326.016 108.552 327.131 109.255 327.959 109.789C325.618 109.034 322.478 108.059 320.154 107.274C315.888 105.834 310.345 103.673 306.058 102.266C304.221 101.664 301.696 100.996 299.87 100.376C298.103 99.7761 295.826 98.8523 294.088 98.2078C292.095 97.4689 289.369 96.5827 287.428 95.7683C285.265 94.8604 282.382 93.6117 280.459 92.4383C279.224 91.6852 277.72 90.5445 276.721 89.6157C275.74 88.7031 274.535 87.4039 273.883 86.3386C273.468 85.6596 273.149 84.683 272.912 83.9575Z" fill="#315106"/>
<path d="M272.65 82.9492C272.729 83.2518 272.814 83.6582 272.912 83.9575C273.149 84.683 273.468 85.6596 273.883 86.3386C274.535 87.4039 275.74 88.7031 276.721 89.6157C277.72 90.5445 279.224 91.6852 280.459 92.4383C282.382 93.6117 285.265 94.8604 287.428 95.7683C289.369 96.5827 292.095 97.4689 294.088 98.2078C295.826 98.8523 298.103 99.7761 299.87 100.376C301.696 100.996 304.221 101.664 306.058 102.266C310.345 103.673 315.888 105.834 320.154 107.274C322.478 108.059 325.618 109.034 327.959 109.789C327.131 109.255 326.016 108.552 325.198 108.009C324.06 107.255 322.597 106.203 321.454 105.452C319.655 104.27 317.197 102.743 315.347 101.605C311.067 98.972 305.533 95.2727 300.921 92.9771C297.637 91.3423 292.95 89.5279 289.419 88.2151C285.306 86.6864 279.726 84.7745 275.414 83.5934C274.598 83.37 272.651 82.9492 272.65 82.9492Z" stroke="#315106" stroke-linecap="round" stroke-linejoin="round"/>
<path fill-rule="evenodd" clip-rule="evenodd" d="M269.074 111.124C267.228 111.537 264.822 112.22 263 112.69C263 112.69 265.032 113.995 265.974 114.483C266.894 114.959 268.163 115.564 269.189 115.9C269.98 116.159 271.087 116.44 271.942 116.533C274.097 116.767 277.027 116.477 279.195 116.322C287.101 115.755 297.598 114.478 305.301 113.03C308.395 112.448 312.586 111.681 315.42 110.582C316.133 110.305 316.959 109.78 317.619 109.437C316.335 109.002 314.687 108.296 313.34 107.987C310.812 107.407 307.265 107.133 304.629 106.982C302.01 106.831 298.494 106.842 295.875 106.982C294.205 107.07 291.997 107.338 290.346 107.547C286.51 108.032 281.438 108.866 277.645 109.517C275.061 109.961 271.614 110.557 269.074 111.124Z" fill="#769C37"/>
<path d="M263 112.69C264.822 112.22 267.228 111.537 269.074 111.124C271.614 110.557 275.061 109.961 277.645 109.517C281.438 108.866 286.51 108.032 290.346 107.547C291.997 107.338 294.205 107.07 295.875 106.982C298.494 106.842 302.01 106.831 304.629 106.982C307.265 107.133 310.812 107.407 313.34 107.987C314.687 108.296 316.335 109.002 317.619 109.437C316.959 109.78 316.133 110.305 315.42 110.582C312.586 111.681 308.395 112.448 305.301 113.03C297.598 114.478 287.101 115.755 279.195 116.322C277.027 116.477 274.097 116.767 271.942 116.533C271.087 116.44 269.98 116.159 269.189 115.9C268.163 115.564 266.894 114.959 265.974 114.483C265.032 113.995 263 112.69 263 112.69Z" stroke="#769C37" stroke-linecap="round" stroke-linejoin="round"/>
<path fill-rule="evenodd" clip-rule="evenodd" d="M317.171 75.533C315.728 73.8984 313.63 71.8088 312.112 70.2129C312.112 70.2131 310.985 71.8543 310.681 72.6077C310.22 73.7479 309.925 75.3403 309.855 76.5306C309.816 77.1936 309.886 78.0836 310.02 78.7396C310.301 80.1085 310.993 81.8955 311.627 83.1964C312.079 84.1262 312.881 85.3062 313.463 86.1945C315.88 89.8819 319.523 94.6365 322.066 98.2758C323.947 100.969 326.317 104.614 328.25 107.286C329.494 109.005 331.268 111.25 332.549 112.954C332.916 113.443 333.402 114.098 333.768 114.587C333.632 114.003 333.399 113.229 333.315 112.639C333.096 111.086 333.111 108.996 333.138 107.434C333.16 106.157 333.487 104.46 333.421 103.184C333.372 102.214 333.117 100.929 332.896 99.9723C332.525 98.3666 331.968 96.2219 331.268 94.6792C330.347 92.6516 328.572 90.1048 327.251 88.2056C325.932 86.3092 323.939 83.8773 322.479 82.0402C320.917 80.0741 318.856 77.4412 317.171 75.533Z" fill="#5E7D2D"/>
<path d="M312.112 70.2129C313.63 71.8088 315.728 73.8984 317.171 75.533C318.856 77.4412 320.917 80.0741 322.479 82.0402C323.939 83.8773 325.932 86.3092 327.251 88.2056C328.572 90.1048 330.347 92.6516 331.268 94.6792C331.968 96.2219 332.525 98.3666 332.896 99.9723C333.117 100.929 333.372 102.214 333.421 103.184C333.487 104.46 333.16 106.157 333.138 107.434C333.111 108.996 333.096 111.086 333.315 112.639C333.399 113.229 333.632 114.003 333.768 114.587C333.402 114.098 332.916 113.443 332.549 112.954C331.268 111.25 329.494 109.005 328.25 107.286C326.317 104.614 323.947 100.969 322.066 98.2758C319.523 94.6365 315.88 89.8819 313.463 86.1945C312.881 85.3062 312.079 84.1262 311.627 83.1964C310.993 81.8955 310.301 80.1085 310.02 78.7396C309.886 78.0836 309.816 77.1936 309.855 76.5306C309.925 75.3403 310.22 73.7479 310.681 72.6077C310.985 71.8543 312.112 70.2129 312.112 70.2129Z" stroke="#5E7D2D" stroke-linecap="round" stroke-linejoin="round"/>
<path fill-rule="evenodd" clip-rule="evenodd" d="M286.732 86.5952C283.094 85.5475 278.16 84.3192 274.486 83.3438C274.486 83.3438 274.618 84.0099 274.722 84.287C275.022 85.0851 275.526 86.1418 276.098 86.8514C277.411 88.4805 279.826 90.3326 281.757 91.5677C283.638 92.7707 286.524 94.0121 288.674 94.9279C290.709 95.7954 293.544 96.7858 295.669 97.522C298.34 98.447 301.994 99.5244 304.683 100.418C307.146 101.237 310.413 102.356 312.847 103.222C314.589 103.842 316.911 104.674 318.62 105.345C320.075 105.916 322.018 106.681 323.405 107.341C324.513 107.868 325.896 108.676 326.964 109.248C326.504 108.838 325.883 108.296 325.43 107.882C324.4 106.941 323.045 105.675 322.06 104.707C321.008 103.674 319.761 102.207 318.65 101.209C317.642 100.304 316.191 99.1643 315.044 98.358C313.619 97.3558 311.568 96.1438 310.028 95.2421C309.088 94.6923 307.839 93.9511 306.834 93.4714C304.735 92.4701 301.749 91.3659 299.5 90.5681C295.751 89.2385 290.604 87.7099 286.732 86.5952Z" fill="#456117"/>
<path d="M274.486 83.3438C278.16 84.3192 283.094 85.5475 286.732 86.5952C290.604 87.7099 295.751 89.2385 299.5 90.5681C301.749 91.3659 304.735 92.4701 306.834 93.4714C307.839 93.9511 309.088 94.6923 310.028 95.2421C311.568 96.1438 313.619 97.3558 315.044 98.358C316.191 99.1643 317.642 100.304 318.65 101.209C319.761 102.207 321.008 103.674 322.06 104.707C323.045 105.675 324.4 106.941 325.43 107.882C325.883 108.296 326.504 108.838 326.964 109.248C325.896 108.676 324.513 107.868 323.405 107.341C322.018 106.681 320.075 105.916 318.62 105.345C316.911 104.674 314.589 103.842 312.847 103.222C310.413 102.356 307.146 101.237 304.683 100.418C301.994 99.5244 298.34 98.447 295.669 97.522C293.544 96.7858 290.709 95.7954 288.674 94.9279C286.524 94.0121 283.638 92.7707 281.757 91.5677C279.826 90.3326 277.411 88.4805 276.098 86.8514C275.526 86.1418 275.022 85.0851 274.722 84.287C274.618 84.0099 274.486 83.3438 274.486 83.3438Z" stroke="#456117" stroke-linecap="round" stroke-linejoin="round"/>
<path fill-rule="evenodd" clip-rule="evenodd" d="M269.419 112.539C268.447 112.769 267.17 113.118 266.206 113.366C266.206 113.367 268.032 114.666 268.899 115.143C269.732 115.601 270.867 116.224 271.84 116.482C273.341 116.881 275.522 116.864 277.11 116.944C278.762 117.028 280.973 117.056 282.628 117.017C284.658 116.97 287.363 116.802 289.378 116.604C292.342 116.313 296.232 115.63 299.178 115.246C301.528 114.94 304.67 114.572 307.025 114.286C309.186 114.025 312.073 113.695 314.232 113.423C316.187 113.176 318.794 112.847 320.739 112.559C322.175 112.347 324.061 111.956 325.507 111.784C326.266 111.693 327.299 111.686 328.054 111.575C328.257 111.546 328.521 111.483 328.721 111.443C327.58 111.323 326.038 111.243 324.917 111.044C323.238 110.745 321.111 110.062 319.485 109.63C318.22 109.295 316.575 108.747 315.277 108.493C313.421 108.13 310.874 107.869 308.964 107.74C306.361 107.564 302.862 107.502 300.253 107.625C296.852 107.785 292.368 108.41 289.018 108.878C285.468 109.374 280.772 110.187 277.273 110.859C274.899 111.315 271.754 111.984 269.419 112.539Z" fill="#5E7D2D"/>
<path d="M266.206 113.366C267.17 113.118 268.447 112.769 269.419 112.539C271.754 111.984 274.899 111.315 277.273 110.859C280.772 110.187 285.468 109.374 289.018 108.878C292.368 108.41 296.852 107.785 300.253 107.625C302.862 107.502 306.361 107.564 308.964 107.74C310.874 107.869 313.421 108.13 315.277 108.493C316.575 108.747 318.22 109.295 319.485 109.63C321.111 110.062 323.238 110.745 324.917 111.044C326.038 111.243 327.58 111.323 328.721 111.443C328.521 111.483 328.257 111.546 328.054 111.575C327.299 111.686 326.266 111.693 325.507 111.784C324.061 111.956 322.175 112.347 320.739 112.559C318.794 112.847 316.187 113.176 314.232 113.423C312.073 113.695 309.186 114.025 307.025 114.286C304.67 114.572 301.528 114.94 299.178 115.246C296.232 115.63 292.342 116.313 289.378 116.604C287.363 116.802 284.658 116.97 282.628 117.017C280.973 117.056 278.762 117.028 277.11 116.944C275.522 116.864 273.341 116.881 271.84 116.482C270.867 116.224 269.732 115.601 268.899 115.143C268.032 114.666 266.206 113.366 266.206 113.366Z" stroke="#5E7D2D" stroke-linecap="round" stroke-linejoin="round"/>
<path fill-rule="evenodd" clip-rule="evenodd" d="M319.533 86.1817C318.855 85.3699 317.739 84.3974 316.97 83.6328C316.97 83.6328 318.521 84.4451 319.072 84.8856C320.306 85.8709 321.484 87.4733 322.384 88.6443C323.295 89.8295 324.362 91.4734 325.092 92.7271C326.386 94.9523 327.825 98.0103 328.846 100.314C329.718 102.28 330.68 104.949 331.46 106.937C331.823 107.862 332.362 109.084 332.664 110.02C332.897 110.741 333.124 111.715 333.295 112.445C333.407 112.923 333.63 114.042 333.63 114.042C332.71 113.03 332.362 111.345 331.836 110.185C330.663 107.597 329.195 104.123 328.032 101.533C327.186 99.6474 326.13 97.1125 325.162 95.2605C324.188 93.3981 322.713 90.9681 321.562 89.1636C320.984 88.2576 320.244 87.0328 319.533 86.1817Z" fill="#9DB022"/>
<path d="M316.97 83.6328C317.739 84.3974 318.855 85.3699 319.533 86.1817C320.244 87.0328 320.984 88.2576 321.562 89.1636C322.713 90.9681 324.188 93.3981 325.162 95.2605C326.13 97.1125 327.186 99.6474 328.032 101.533C329.195 104.123 330.663 107.597 331.836 110.185C332.362 111.345 332.71 113.03 333.63 114.042C333.63 114.042 333.407 112.923 333.295 112.445C333.124 111.715 332.897 110.741 332.664 110.02C332.362 109.084 331.823 107.862 331.46 106.937C330.68 104.949 329.718 102.28 328.846 100.314C327.825 98.0103 326.386 94.9523 325.092 92.7271C324.362 91.4734 323.295 89.8295 322.384 88.6443C321.484 87.4733 320.306 85.8709 319.072 84.8856C318.521 84.4451 316.97 83.6328 316.97 83.6328Z" stroke="#9DB022" stroke-linecap="round" stroke-linejoin="round"/>
<path fill-rule="evenodd" clip-rule="evenodd" d="M292.213 93.3264C291.709 93.2192 291.024 93.1147 290.515 93.0239C290.515 93.0239 290.854 92.838 291.024 92.8011C291.477 92.7027 292.129 92.7646 292.595 92.817C294.113 92.9877 296.033 93.5795 297.456 94.011C299.476 94.6239 302.077 95.6094 303.972 96.4151C305.044 96.8705 306.402 97.566 307.432 98.0709C309.592 99.1283 312.464 100.546 314.571 101.661C316.329 102.591 318.635 103.872 320.336 104.86C321.386 105.469 322.775 106.293 323.78 106.944C324.606 107.478 325.723 108.183 326.455 108.788C326.609 108.916 326.928 109.24 326.928 109.24C326.963 109.17 326.728 109.156 326.644 109.117C323.858 107.819 320.368 105.832 317.66 104.443C315.7 103.437 313.079 102.103 311.097 101.122C308.827 99.9971 305.808 98.4861 303.48 97.431C302.402 96.9426 300.943 96.32 299.833 95.8737C298.345 95.2752 296.365 94.4605 294.803 93.9791C294.044 93.7455 293.001 93.4944 292.213 93.3264Z" fill="#6D8700"/>
<path d="M290.515 93.0239C291.024 93.1147 291.709 93.2192 292.213 93.3264C293.001 93.4944 294.044 93.7455 294.803 93.9791C296.365 94.4605 298.345 95.2752 299.833 95.8737C300.943 96.32 302.402 96.9426 303.48 97.431C305.808 98.4861 308.827 99.9971 311.097 101.122C313.079 102.103 315.7 103.437 317.66 104.443C320.368 105.832 323.858 107.819 326.644 109.117C326.728 109.156 326.963 109.17 326.928 109.24C326.928 109.24 326.609 108.916 326.455 108.788C325.723 108.183 324.606 107.478 323.78 106.944C322.775 106.293 321.386 105.469 320.336 104.86C318.635 103.872 316.329 102.591 314.571 101.661C312.464 100.546 309.592 99.1283 307.432 98.0709C306.402 97.566 305.044 96.8705 303.972 96.4151C302.077 95.6094 299.476 94.6239 297.456 94.011C296.033 93.5795 294.113 92.9877 292.595 92.817C292.129 92.7646 291.477 92.7027 291.024 92.8011C290.854 92.838 290.515 93.0239 290.515 93.0239Z" stroke="#6D8700" stroke-linecap="round" stroke-linejoin="round"/>
<path fill-rule="evenodd" clip-rule="evenodd" d="M288.332 111.988C287.303 112.25 286.031 112.788 285.045 113.13C285.045 113.13 286.994 112.707 287.848 112.585C290.75 112.172 294.692 111.955 297.64 111.807C301.038 111.635 305.583 111.611 308.989 111.573C312.493 111.535 317.166 111.559 320.67 111.557C322.369 111.555 324.637 111.606 326.335 111.557C327.03 111.536 327.952 111.447 328.647 111.432L328.193 111.328C326.77 111.221 324.887 110.989 323.464 110.883C321.283 110.719 318.368 110.557 316.178 110.489C314.495 110.436 312.248 110.434 310.564 110.435C307.994 110.436 304.566 110.436 301.999 110.535C299.71 110.623 296.654 110.774 294.387 111.028C292.551 111.234 290.09 111.541 288.332 111.988Z" fill="#9EB123"/>
<path d="M285.045 113.13C286.031 112.788 287.303 112.25 288.332 111.988C290.09 111.541 292.551 111.234 294.387 111.028C296.654 110.774 299.71 110.623 301.999 110.535C304.566 110.436 307.994 110.436 310.564 110.435C312.248 110.434 314.495 110.436 316.178 110.489C318.368 110.557 321.283 110.719 323.464 110.883C324.887 110.989 326.77 111.221 328.193 111.328L328.647 111.432C328.657 111.432 328.678 111.432 328.678 111.432C327.952 111.447 327.03 111.536 326.335 111.557C324.637 111.606 322.369 111.555 320.67 111.557C317.166 111.559 312.493 111.535 308.989 111.573C305.583 111.611 301.038 111.635 297.64 111.807C294.692 111.955 290.75 112.172 287.848 112.585C286.994 112.707 285.045 113.13 285.045 113.13Z" stroke="#9EB123" stroke-linecap="round" stroke-linejoin="round"/>
<path fill-rule="evenodd" clip-rule="evenodd" d="M345.96 113.129C353.193 111.621 360.569 116.201 366.841 127.89C373.076 139.51 371.764 146.288 365.438 149.26C359.209 152.186 347.779 151.767 339.542 141.089C328.452 126.712 336.424 115.117 345.96 113.129Z" fill="#899C0F" stroke="#899C0F" stroke-linecap="round" stroke-linejoin="round"/>
<path fill-rule="evenodd" clip-rule="evenodd" d="M348.748 112.825C349.98 112.651 352.137 112.86 353.52 113.154C356.156 113.714 359.46 115.065 361.596 116.352C364.538 118.123 367.626 121.214 369.61 123.621C370.543 124.754 371.494 126.395 372.104 127.646C372.616 128.697 373.123 130.146 373.423 131.242C373.654 132.089 373.881 133.235 373.958 134.098C374.021 134.807 374.009 135.081 373.947 136.466C373.857 138.502 373.863 138.907 373.644 139.937C373.417 141.001 372.964 142.409 372.451 143.416C372.014 144.273 371.276 145.378 370.587 146.137C369.986 146.799 369.066 147.635 368.244 148.147C366.7 149.108 364.124 150.323 362.416 150.609C360.445 150.94 356.948 150.612 354.722 150.132C353.438 149.856 351.846 149.205 350.725 148.659C349.439 148.033 347.9 147.003 346.809 146.195C345.977 145.578 345.014 144.651 344.253 143.984C343.873 143.651 343.344 143.22 342.995 142.868C342.754 142.626 342.663 142.532 342.257 142.026C341.421 140.986 341.312 140.758 340.939 140.203C340.37 139.356 339.617 138.22 339.166 137.334C338.283 135.6 337.23 133.232 336.838 131.399C336.444 129.559 336.242 127.038 336.572 125.191C336.98 122.904 338.077 119.836 339.658 117.856C340.458 116.854 341.941 115.705 343.176 114.992C344.669 114.131 347.134 113.052 348.748 112.825Z" fill="#9DB022" stroke="#9DB022" stroke-linecap="round" stroke-linejoin="round"/>
<path fill-rule="evenodd" clip-rule="evenodd" d="M360.84 144.671C365.788 143.309 367.667 142.082 368.312 142.732C369.053 143.479 367.963 146.309 362.241 147.807C356.785 149.234 353.758 147.637 353.689 146.751C353.627 145.966 356.039 145.992 360.84 144.671Z" fill="#667F00" stroke="#667F00" stroke-linecap="round" stroke-linejoin="round"/>
<path fill-rule="evenodd" clip-rule="evenodd" d="M359.493 142.035C364.946 140.385 367.772 141.418 368.286 142.558C368.765 143.618 367.429 145.269 362.362 146.819C357.059 148.441 354.417 147.927 353.772 146.86C353.126 145.79 354.171 143.646 359.493 142.035Z" fill="#789600" stroke="#789600" stroke-linecap="round" stroke-linejoin="round"/>
<path fill-rule="evenodd" clip-rule="evenodd" d="M349.095 119.22C349.813 119.545 351.78 120.021 351.837 122.737C351.882 124.889 350.527 124.775 349.879 125.613C349.281 126.387 348.16 127.284 347.707 128.112C347.325 128.812 347.105 129.827 347.019 130.581C346.875 131.844 347.398 133.537 347.289 134.802C347.202 135.812 347.805 137.823 346.517 138.125C346.023 138.241 345.229 137.601 345.034 137.465C344.596 137.16 343.494 135.79 342.939 135.025C342.376 134.247 341.715 133.171 341.324 132.336C340.922 131.476 340.526 130.291 340.315 129.394C340.071 128.358 339.788 126.954 339.868 125.905C339.95 124.84 340.212 123.378 340.859 122.428C341.516 121.465 342.87 120.339 344.083 119.755C344.855 119.383 344.946 119.151 346.976 119.011C348.395 118.914 348.812 119.092 349.095 119.22Z" fill="#BBCC48" stroke="#BBCC48" stroke-linecap="round" stroke-linejoin="round"/>
<path fill-rule="evenodd" clip-rule="evenodd" d="M320.247 115.165C312.991 113.639 305.532 118.199 299.213 129.926C292.955 141.54 294.308 148.315 300.626 151.296C306.886 154.25 318.419 153.868 326.712 143.125C337.811 128.748 329.779 117.169 320.247 115.165Z" fill="#899C0F" stroke="#899C0F" stroke-linecap="round" stroke-linejoin="round"/>
<path fill-rule="evenodd" clip-rule="evenodd" d="M317.439 114.863C316.198 114.689 314.026 114.897 312.632 115.192C309.979 115.752 306.651 117.101 304.497 118.39C301.539 120.159 298.424 123.25 296.424 125.659C295.485 126.791 294.526 128.433 293.912 129.684C293.396 130.735 292.886 132.184 292.583 133.28C292.35 134.128 292.122 135.273 292.044 136.136C291.98 136.845 291.993 137.119 292.055 138.504C292.146 140.54 292.14 140.945 292.361 141.975C292.589 143.04 293.046 144.448 293.562 145.454C294.002 146.312 294.746 147.417 295.44 148.175C296.046 148.837 296.974 149.673 297.8 150.185C299.357 151.148 301.952 152.362 303.67 152.648C305.657 152.978 309.178 152.651 311.421 152.171C312.714 151.894 314.318 151.244 315.447 150.698C316.742 150.072 318.293 149.042 319.392 148.233C320.23 147.616 321.201 146.69 321.967 146.023C322.35 145.689 322.883 145.258 323.235 144.906C323.477 144.664 323.569 144.57 323.978 144.065C324.819 143.025 324.93 142.797 325.306 142.241C325.879 141.394 326.637 140.259 327.092 139.372C327.981 137.639 329.042 135.27 329.437 133.437C329.833 131.597 330.037 129.076 329.705 127.229C329.293 124.941 328.186 121.872 326.596 119.894C325.789 118.891 324.294 117.742 323.052 117.031C321.547 116.168 319.063 115.09 317.439 114.863Z" fill="#9DB022" stroke="#9DB022" stroke-linecap="round" stroke-linejoin="round"/>
<path fill-rule="evenodd" clip-rule="evenodd" d="M305.258 146.708C300.273 145.346 298.377 144.114 297.732 144.769C296.992 145.521 298.104 148.346 303.847 149.844C309.344 151.278 312.393 149.681 312.462 148.788C312.523 147.999 310.094 148.029 305.258 146.708Z" fill="#667F00" stroke="#667F00" stroke-linecap="round" stroke-linejoin="round"/>
<path fill-rule="evenodd" clip-rule="evenodd" d="M306.614 144.075C301.119 142.418 298.272 143.449 297.757 144.597C297.28 145.662 298.634 147.309 303.724 148.858C309.07 150.486 311.732 149.976 312.378 148.899C313.022 147.825 311.957 145.686 306.614 144.075Z" fill="#789600" stroke="#789600" stroke-linecap="round" stroke-linejoin="round"/>
<path fill-rule="evenodd" clip-rule="evenodd" d="M317.089 121.259C316.369 121.584 314.384 122.055 314.327 124.776C314.281 126.932 315.647 126.814 316.299 127.652C316.902 128.426 318.031 129.322 318.487 130.152C318.871 130.851 319.093 131.866 319.18 132.62C319.325 133.883 318.798 135.576 318.908 136.841C318.996 137.851 318.399 139.86 319.686 140.164C320.182 140.282 320.983 139.641 321.18 139.504C321.62 139.2 322.731 137.829 323.29 137.064C323.857 136.287 324.523 135.21 324.917 134.375C325.322 133.515 325.72 132.33 325.933 131.433C326.179 130.397 326.464 128.994 326.383 127.944C326.301 126.879 326.035 125.416 325.385 124.467C324.723 123.502 323.357 122.378 322.138 121.794C321.359 121.421 321.267 121.19 319.223 121.051C317.795 120.953 317.374 121.13 317.089 121.259Z" fill="#BBCC48" stroke="#BBCC48" stroke-linecap="round" stroke-linejoin="round"/>
<defs>
<filter id="filter0_if_47_725" x="0" y="0" width="524" height="338" filterUnits="userSpaceOnUse" color-interpolation-filters="sRGB">
<feFlood flood-opacity="0" result="BackgroundImageFix"/>
<feBlend mode="normal" in="SourceGraphic" in2="BackgroundImageFix" result="shape"/>
<feColorMatrix in="SourceAlpha" type="matrix" values="0 0 0 0 0 0 0 0 0 0 0 0 0 0 0 0 0 0 127 0" result="hardAlpha"/>
<feOffset/>
<feGaussianBlur stdDeviation="4"/>
<feComposite in2="hardAlpha" operator="arithmetic" k2="-1" k3="1"/>
<feColorMatrix type="matrix" values="0 0 0 0 0 0 0 0 0 0.501961 0 0 0 0 0 0 0 0 1 0"/>
<feBlend mode="normal" in2="shape" result="effect1_innerShadow_47_725"/>
<feGaussianBlur stdDeviation="12" result="effect2_foregroundBlur_47_725"/>
</filter>
<filter id="filter1_i_47_725" x="125.78" y="69.8398" width="118.224" height="88.4502" filterUnits="userSpaceOnUse" color-interpolation-filters="sRGB">
<feFlood flood-opacity="0" result="BackgroundImageFix"/>
<feBlend mode="normal" in="SourceGraphic" in2="BackgroundImageFix" result="shape"/>
<feColorMatrix in="SourceAlpha" type="matrix" values="0 0 0 0 0 0 0 0 0 0 0 0 0 0 0 0 0 0 127 0" result="hardAlpha"/>
<feOffset dy="1"/>
<feGaussianBlur stdDeviation="2"/>
<feComposite in2="hardAlpha" operator="arithmetic" k2="-1" k3="1"/>
<feColorMatrix type="matrix" values="0 0 0 0 0.309804 0 0 0 0 0.309804 0 0 0 0 0.309804 0 0 0 1 0"/>
<feBlend mode="normal" in2="shape" result="effect1_innerShadow_47_725"/>
</filter>
<filter id="filter2_i_47_725" x="92.7798" y="164.06" width="355.696" height="90.1006" filterUnits="userSpaceOnUse" color-interpolation-filters="sRGB">
<feFlood flood-opacity="0" result="BackgroundImageFix"/>
<feBlend mode="normal" in="SourceGraphic" in2="BackgroundImageFix" result="shape"/>
<feColorMatrix in="SourceAlpha" type="matrix" values="0 0 0 0 0 0 0 0 0 0 0 0 0 0 0 0 0 0 127 0" result="hardAlpha"/>
<feOffset dy="1"/>
<feGaussianBlur stdDeviation="2"/>
<feComposite in2="hardAlpha" operator="arithmetic" k2="-1" k3="1"/>
<feColorMatrix type="matrix" values="0 0 0 0 0.309804 0 0 0 0 0.309804 0 0 0 0 0.309804 0 0 0 1 0"/>
<feBlend mode="normal" in2="shape" result="effect1_innerShadow_47_725"/>
</filter>
<filter id="filter3_i_47_725" x="342.315" y="177.671" width="60.1089" height="69.4951" filterUnits="userSpaceOnUse" color-interpolation-filters="sRGB">
<feFlood flood-opacity="0" result="BackgroundImageFix"/>
<feBlend mode="normal" in="SourceGraphic" in2="BackgroundImageFix" result="shape"/>
<feColorMatrix in="SourceAlpha" type="matrix" values="0 0 0 0 0 0 0 0 0 0 0 0 0 0 0 0 0 0 127 0" result="hardAlpha"/>
<feOffset dy="1"/>
<feGaussianBlur stdDeviation="2"/>
<feComposite in2="hardAlpha" operator="arithmetic" k2="-1" k3="1"/>
<feColorMatrix type="matrix" values="0 0 0 0 0.309804 0 0 0 0 0.309804 0 0 0 0 0.309804 0 0 0 1 0"/>
<feBlend mode="normal" in2="shape" result="effect1_innerShadow_47_725"/>
</filter>
</defs>
</svg>
