<svg width="524" height="347" viewBox="0 0 524 347" fill="none" xmlns="http://www.w3.org/2000/svg">
<g filter="url(#filter0_if_47_725)">
<path d="M262 323C393.444 323 500 256.067 500 173.5C500 90.9334 393.444 24 262 24C130.556 24 24 90.9334 24 173.5C24 256.067 130.556 323 262 323Z" fill="#D9B99B"/>
</g>
<g filter="url(#filter1_i_47_725)">
<path d="M158.9 105.8C163 97.1 160.1 87.7 151.8 82.9C149.9 81.7 147.8 80.8 145.6 80.4C139.4 79 133.1 78.4 126.8 79.7C124.1 80.2 121.4 80.9 119 82.3C116.9 83.6 115.3 85.3 115 88C114.6 91.4 114 94.7 113.7 98.1C113.1 104.7 112.8 111.4 112.4 118C111.8 125.6 111.9 133.2 113 140.8C113.5 144 114.1 147.2 115.7 150.1C117.7 153.9 121.3 155.6 125.5 154.8C126.9 154.5 128.4 153.6 129.7 153.7C131.2 153.9 132.5 155 133.9 155.5C140.1 157.8 146.3 157.9 152.6 156C162.7 153 170.4 146.9 175 137.3C177.1 132.8 177.8 128 176.5 123.1C174.4 115.2 168.9 111 161.2 109.2C160 108.9 158.8 108.8 157.4 108.5L158.9 105.8ZM130.4 129.3C130.2 126.1 130.2 126.1 132.7 125.3C136.4 124 140.2 123.7 144 125C145 125.4 145.9 125.8 146.7 126.4C150 128.8 150.8 132.4 148.8 135.9C147.9 137.4 146.7 138.7 145.2 139.7C141.8 142 138 143 133.9 142.9C131.9 142.8 131.8 142.7 131.5 140.8C131.2 138.8 131 136.9 130.8 134.9C130.6 132.9 130.5 130.8 130.4 129.3ZM130.3 110.6C130.1 106.7 130.5 103.1 130.8 99.4L131.1 95.8C131.1 94.9 131.5 94.4 132.4 94.1C133.8 93.6 135.3 93.3 136.9 93.4C140.2 93.6 142.2 96 141.7 99.4C141.6 100.1 141.4 100.8 141.2 101.4C139.2 106 135.7 109 131 110.6C130.8 110.7 130.6 110.6 130.3 110.6ZM123.8 84C125 84.1 126.2 84.6 127.1 85.7C127.5 86.2 127.6 86.6 127.4 87.3C125.7 91.6 124.8 96 124.7 100.6C124.7 101.6 124.8 102.6 125.1 103.6C125.3 103.9 125.1 104.2 125 104.5C124.6 105.8 123.7 106.6 122.3 107.1C121.1 107.5 120 107.2 119.4 106.1C118.8 105.1 118.6 103.9 118.5 102.8C118.1 99.5 118.3 96.3 118.9 93.1C119.3 90.6 120 88.1 121.1 85.7C121.1 85.6 121.2 85.4 121.3 85.3C121.7 84.2 122.5 84 123.8 84ZM125.6 109.6V110C125.5 110.8 125.5 111.6 125.9 112.4C126.1 112.7 125.9 113 125.9 113.2C125.4 114.5 123.6 115.6 122.1 115.3C121.4 115.2 120.9 114.9 120.6 114.3C119.7 112.5 119.8 110.7 120.8 109C121.2 108.4 121.9 108.1 122.7 107.9C123 107.8 123.4 107.8 123.7 107.8C125.1 107.8 125.7 108.4 125.6 109.6ZM184.176 131.1C184.176 136.5 185.176 141.3 187.876 145.6C189.976 149 192.776 151.8 196.876 152.8C205.776 155 214.276 149 217.176 142.7C217.376 142 217.576 141.3 217.576 140.6C217.676 139.4 217.076 138.3 216.176 138C215.076 137.8 214.476 138.6 213.876 139.3C212.976 140.5 212.076 141.7 210.776 142.5C208.976 143.6 206.976 144.1 204.776 143.1C203.176 142.4 202.176 141.1 201.476 139.6C200.276 137 199.976 134.2 200.276 131.4C200.276 130.8 200.576 130.7 201.076 130.8C204.376 131 207.476 130.1 210.276 128.4C214.876 125.7 218.076 121.9 218.576 116.4C219.276 109.5 213.876 101.8 204.376 103.2C198.676 104.1 194.176 106.9 190.676 111.5C186.276 117.4 184.376 124.1 184.176 131.1ZM201.576 126C202.976 122.9 204.876 120.2 208.276 119C208.676 118.8 209.076 118.8 209.376 118.7C210.076 118.7 210.876 118.5 211.276 119.3C211.676 120 211.376 120.7 210.976 121.4C210.176 122.5 209.076 123.3 207.976 124C206.176 125.1 204.176 125.8 202.176 126.1C201.976 126.1 201.876 126.2 201.576 126ZM202.576 108.8C203.676 109.4 204.576 110.3 204.976 111.6C205.176 112.2 205.076 112.7 204.676 113.2C201.476 116.6 198.976 120.3 197.276 124.6C196.876 125.5 196.576 126.5 196.476 127.5C196.476 127.8 196.276 128 196.076 128.3C195.176 129.3 194.076 129.8 192.576 129.7C191.276 129.6 190.476 128.9 190.276 127.7C190.076 126.5 190.276 125.4 190.576 124.3C191.476 121.1 192.876 118.2 194.576 115.5C195.976 113.3 197.476 111.2 199.376 109.4C199.476 109.3 199.576 109.2 199.676 109.1C200.576 108.2 201.376 108.4 202.576 108.8ZM194.676 133.3L194.476 133.6C194.176 134.4 193.876 135.1 193.976 136C193.976 136.3 193.776 136.5 193.576 136.7C192.776 137.7 190.576 138 189.376 137.3C188.776 136.9 188.376 136.4 188.276 135.7C188.176 133.7 188.976 132.1 190.576 130.9C191.076 130.5 191.876 130.5 192.576 130.6C192.976 130.6 193.376 130.7 193.676 130.9C194.876 131.4 195.176 132.2 194.676 133.3Z" fill="white"/>
</g>
<g filter="url(#filter2_i_47_725)">
<path d="M132.3 208.218C132.3 207.718 132.2 207.418 132.3 207.118C132.6 197.918 133 188.718 134.4 179.618C134.6 178.318 134.4 177.418 133.2 176.718C128.4 174.218 123.4 173.718 118.3 175.318C116.9 175.718 116.1 176.618 115.7 178.018C115.5 178.618 115.3 179.318 115.1 180.018C113.8 184.818 113.2 189.718 112.8 194.518C111.8 204.818 111.9 215.118 112.8 225.318C113.3 231.918 114.4 238.318 116.3 244.618C117 247.018 117.9 249.418 119.4 251.418C121.1 253.718 123.1 254.518 125.9 253.818C129.8 252.818 132.4 250.318 134.2 246.718C134.6 246.018 134.6 245.318 134.3 244.518C133.8 243.418 133.5 242.318 133.3 241.218C132.4 236.618 131.8 232.018 131.7 227.318C131.7 225.518 131.7 225.518 133.5 224.918C138.2 223.518 143 222.918 147.9 223.018C149.3 223.018 149.4 223.018 149.5 224.518C150 227.918 150.5 231.318 151.3 234.618C152.2 237.918 153.4 241.118 155.3 244.018C156.8 246.418 158.9 248.018 161.7 248.818C165.4 249.818 169.7 248.518 171.7 245.718C172.3 244.718 172.5 243.818 171.9 242.818C169.9 239.618 169.3 235.918 168.8 232.318C167.4 220.818 167.8 209.418 168.7 198.018C169.2 191.918 169.8 185.818 170.4 179.718C170.6 177.118 170.3 176.518 167.9 175.518C163.7 173.518 159.4 173.618 155.1 175.318C153.3 175.918 152 177.018 152 179.018C152 179.518 151.8 179.918 151.7 180.418C150.2 188.818 149.4 197.418 149 206.018C149 206.418 149.1 206.918 148.6 207.418C143.3 206.318 137.9 206.818 132.3 208.218ZM123.8 178.918C125 179.018 126.2 179.518 127.1 180.618C127.5 181.118 127.6 181.518 127.4 182.218C125.7 186.518 124.8 190.918 124.7 195.518C124.7 196.518 124.8 197.518 125.1 198.518C125.3 198.818 125.1 199.118 125 199.418C124.6 200.718 123.7 201.518 122.3 202.018C121.1 202.418 120 202.118 119.4 201.018C118.8 200.018 118.6 198.818 118.5 197.718C118.1 194.418 118.3 191.218 118.9 188.018C119.3 185.518 120 183.018 121.1 180.618C121.1 180.518 121.2 180.318 121.3 180.218C121.7 179.118 122.5 178.918 123.8 178.918ZM125.6 204.518V204.918C125.5 205.718 125.5 206.518 125.9 207.318C126.1 207.618 125.9 207.918 125.9 208.118C125.4 209.418 123.6 210.518 122.1 210.218C121.4 210.118 120.9 209.818 120.6 209.218C119.7 207.418 119.8 205.618 120.8 203.918C121.2 203.318 121.9 203.018 122.7 202.818C123 202.718 123.4 202.718 123.7 202.718C125.1 202.718 125.7 203.318 125.6 204.518ZM176.852 226.018C176.852 231.418 177.852 236.218 180.552 240.518C182.652 243.918 185.452 246.718 189.552 247.718C198.452 249.918 206.952 243.918 209.852 237.618C210.052 236.918 210.252 236.218 210.252 235.518C210.352 234.318 209.752 233.218 208.852 232.918C207.752 232.718 207.152 233.518 206.552 234.218C205.652 235.418 204.752 236.618 203.452 237.418C201.652 238.518 199.652 239.018 197.452 238.018C195.852 237.318 194.852 236.018 194.152 234.518C192.952 231.918 192.652 229.118 192.952 226.318C192.952 225.718 193.252 225.618 193.752 225.718C197.052 225.918 200.152 225.018 202.952 223.318C207.552 220.618 210.752 216.818 211.252 211.318C211.952 204.418 206.552 196.718 197.052 198.118C191.352 199.018 186.852 201.818 183.352 206.418C178.952 212.318 177.052 219.018 176.852 226.018ZM194.252 220.918C195.652 217.818 197.552 215.118 200.952 213.918C201.352 213.718 201.752 213.718 202.052 213.618C202.752 213.618 203.552 213.418 203.952 214.218C204.352 214.918 204.052 215.618 203.652 216.318C202.852 217.418 201.752 218.218 200.652 218.918C198.852 220.018 196.852 220.718 194.852 221.018C194.652 221.018 194.552 221.118 194.252 220.918ZM195.252 203.718C196.352 204.318 197.252 205.218 197.652 206.518C197.852 207.118 197.752 207.618 197.352 208.118C194.152 211.518 191.652 215.218 189.952 219.518C189.552 220.418 189.252 221.418 189.152 222.418C189.152 222.718 188.952 222.918 188.752 223.218C187.852 224.218 186.752 224.718 185.252 224.618C183.952 224.518 183.152 223.818 182.952 222.618C182.752 221.418 182.952 220.318 183.252 219.218C184.152 216.018 185.552 213.118 187.252 210.418C188.652 208.218 190.152 206.118 192.052 204.318C192.152 204.218 192.252 204.118 192.352 204.018C193.252 203.118 194.052 203.318 195.252 203.718ZM187.352 228.218L187.152 228.518C186.852 229.318 186.552 230.018 186.652 230.918C186.652 231.218 186.452 231.418 186.252 231.618C185.452 232.618 183.252 232.918 182.052 232.218C181.452 231.818 181.052 231.318 180.952 230.618C180.852 228.618 181.652 227.018 183.252 225.818C183.752 225.418 184.552 225.418 185.252 225.518C185.652 225.518 186.052 225.618 186.352 225.818C187.552 226.318 187.852 227.118 187.352 228.218ZM262.998 225.018C263.098 218.418 263.198 211.818 262.898 205.318C262.798 203.118 261.798 201.918 259.498 201.518C256.898 201.018 254.398 201.418 252.098 203.018C251.598 203.318 251.298 203.318 250.898 202.918C249.798 201.918 248.598 200.918 247.298 200.318C241.598 197.518 236.098 198.218 230.898 201.518C226.198 204.418 222.798 208.618 220.398 213.518C216.898 220.918 215.898 228.618 218.198 236.518C221.398 247.218 230.798 250.318 239.598 247.718C242.798 246.818 245.198 244.718 247.298 242.218C247.798 241.618 248.098 241.518 248.398 242.318C248.798 243.118 249.198 243.818 249.598 244.618C251.898 248.218 256.898 249.918 260.798 248.418C262.398 247.718 262.998 246.918 262.998 245.218C262.998 238.418 262.898 231.718 262.998 225.018ZM237.198 226.018C237.498 221.818 239.498 217.518 243.398 214.218C244.098 213.618 244.798 213.218 245.598 213.118C246.298 213.118 246.698 213.218 246.498 214.018C245.098 219.118 245.098 224.318 245.298 229.518C245.298 231.118 243.898 233.018 242.298 233.518C240.998 233.918 239.598 233.218 238.598 231.618C237.798 230.418 237.298 228.818 237.198 226.018ZM240.998 202.818C241.998 203.618 242.698 204.718 242.898 206.018C242.998 206.618 242.898 207.118 242.298 207.518C238.698 210.318 235.598 213.618 233.198 217.518C232.598 218.418 232.198 219.318 231.998 220.318C231.898 220.618 231.598 220.818 231.398 221.018C230.398 221.918 229.198 222.118 227.798 221.818C226.498 221.618 225.798 220.718 225.798 219.518C225.798 218.318 226.198 217.218 226.698 216.118C227.998 213.218 229.898 210.518 232.098 208.118C233.798 206.218 235.598 204.418 237.798 202.918C237.898 202.818 237.998 202.818 238.198 202.718C239.098 201.918 239.898 202.218 240.998 202.818ZM229.198 225.718L228.998 226.018C228.598 226.718 228.098 227.418 228.098 228.318C228.098 228.618 227.798 228.718 227.598 228.918C226.598 229.818 224.398 229.718 223.298 228.818C222.798 228.318 222.498 227.718 222.498 227.118C222.698 225.018 223.798 223.618 225.498 222.718C226.098 222.318 226.898 222.518 227.598 222.718C227.998 222.818 228.298 223.018 228.598 223.118C229.698 223.918 229.898 224.718 229.198 225.718ZM288.729 177.218C284.329 177.618 281.329 179.218 279.329 182.918C277.229 186.918 275.529 191.018 274.029 195.318C270.029 206.318 269.129 217.718 271.229 229.218C272.129 234.218 273.929 238.918 277.329 242.818C280.629 246.618 284.729 249.218 289.929 249.518C293.129 249.618 296.329 248.818 298.729 246.618C303.229 242.518 303.529 235.818 299.729 231.118C299.429 230.718 299.029 230.518 298.629 230.318C297.629 229.818 296.929 230.318 296.929 231.418C297.029 232.818 296.529 233.518 295.429 233.818C294.529 234.018 293.529 233.518 293.029 232.318C292.729 231.518 292.329 230.618 292.129 229.718C289.829 220.818 290.329 211.918 292.429 203.018C293.729 197.518 295.529 192.318 298.629 187.618C299.829 185.818 299.829 184.018 298.629 182.318C296.229 178.618 292.529 177.418 288.729 177.218ZM289.829 182.418C290.929 182.918 292.029 183.618 292.529 184.818C292.829 185.418 292.829 185.918 292.429 186.518C289.729 190.218 287.729 194.318 286.529 198.718C286.329 199.718 286.129 200.718 286.229 201.718C286.229 202.118 286.029 202.318 285.829 202.618C285.129 203.718 284.029 204.318 282.629 204.418C281.329 204.518 280.429 203.918 280.029 202.718C279.729 201.618 279.829 200.418 279.929 199.318C280.429 196.118 281.429 193.018 282.729 190.018C283.829 187.718 285.129 185.418 286.729 183.418C286.829 183.318 286.929 183.218 287.029 183.118C287.729 182.118 288.629 182.118 289.829 182.418ZM285.129 207.718L285.029 208.118C284.829 208.818 284.629 209.618 284.829 210.518C284.829 210.818 284.629 211.018 284.529 211.218C283.829 212.418 281.729 212.918 280.329 212.418C279.729 212.118 279.329 211.618 279.129 211.018C278.729 209.018 279.329 207.318 280.729 205.918C281.229 205.418 282.029 205.318 282.729 205.318C283.129 205.318 283.529 205.318 283.829 205.418C285.129 205.818 285.529 206.618 285.129 207.718ZM336.526 231.118C336.326 230.818 336.026 230.618 335.626 230.418C335.226 230.218 334.826 229.918 334.326 230.218C333.926 230.518 333.826 231.018 333.926 231.518C334.026 232.318 333.826 233.018 333.226 233.418C332.126 234.218 330.926 233.818 330.226 232.618C329.626 231.418 329.326 230.118 329.026 228.918C327.426 222.218 327.426 215.518 328.226 208.818C328.526 207.218 328.526 207.218 330.126 207.018C331.826 206.918 333.526 206.718 335.226 206.018C335.926 205.618 336.226 205.118 336.326 204.218C336.326 202.918 335.526 202.318 334.626 201.718C333.426 201.018 332.026 200.718 330.726 200.418C330.126 200.318 329.926 200.118 330.126 199.518C331.326 195.318 332.826 191.218 335.126 187.518C336.326 185.718 336.126 184.018 335.126 182.318C333.426 179.518 330.926 178.218 327.926 177.518C324.126 176.818 318.926 178.118 316.526 183.218C314.126 188.118 312.126 193.218 310.826 198.618C310.426 200.118 309.826 201.018 308.226 201.118C306.926 201.118 305.826 201.718 304.826 202.618C303.626 203.718 303.726 205.218 305.126 206.218C305.926 206.718 306.826 207.218 307.826 207.118C308.726 207.118 308.926 207.518 308.726 208.318C308.126 212.718 307.926 217.118 308.226 221.618C308.326 224.218 308.626 226.818 309.126 229.418C310.226 234.418 311.826 239.118 315.226 243.018C318.426 246.718 322.326 249.318 327.226 249.518C330.426 249.618 333.426 248.818 335.726 246.518C339.926 242.418 340.226 235.818 336.526 231.118ZM326.626 183.018C327.826 183.418 328.926 184.218 329.526 185.318C329.826 185.918 329.726 186.418 329.426 187.018C326.826 190.818 324.926 194.918 323.926 199.418C323.626 200.418 323.526 201.418 323.626 202.418C323.726 202.718 323.426 203.018 323.326 203.218C322.626 204.418 321.526 205.018 320.126 205.218C318.826 205.318 317.826 204.818 317.526 203.618C317.126 202.418 317.126 201.318 317.326 200.118C317.626 196.918 318.626 193.818 319.826 190.818C320.926 188.418 322.026 186.118 323.626 184.018C323.726 183.918 323.826 183.818 323.926 183.718C324.626 182.718 325.426 182.718 326.626 183.018ZM322.726 208.418L322.626 208.818C322.426 209.518 322.226 210.318 322.426 211.218C322.526 211.518 322.326 211.718 322.226 211.918C321.526 213.118 319.426 213.718 318.126 213.218C317.426 212.918 317.026 212.518 316.826 211.818C316.326 209.818 316.926 208.118 318.226 206.718C318.726 206.218 319.526 206.118 320.326 206.018C320.626 206.018 321.026 206.118 321.326 206.218C322.626 206.518 323.026 207.218 322.726 208.418ZM419.46 222.118C419.76 222.218 419.66 222.518 419.66 222.718C420.26 226.118 419.56 229.318 418.56 232.518C417.56 235.818 416.16 238.818 413.56 241.218C411.06 243.518 406.76 243.518 404.26 241.218C403.46 240.418 402.66 240.418 401.96 241.318C401.06 242.218 400.86 243.218 401.06 244.518C401.86 248.518 404.56 250.718 408.36 251.718C414.16 253.118 419.36 251.518 423.86 247.618C426.76 245.118 428.86 241.918 430.56 238.418C434.36 230.018 435.16 221.218 433.46 212.118C432.66 207.918 431.26 203.818 428.96 200.118C428.66 199.718 428.46 199.318 427.96 199.118C424.76 198.118 420.56 200.718 420.16 204.118C419.96 205.118 419.86 206.118 419.56 207.018C418.26 211.918 415.96 216.418 412.96 220.518C412.56 221.018 412.06 222.218 411.46 222.018C410.86 221.818 410.86 220.718 410.66 219.918C409.66 213.718 410.66 207.918 413.96 202.618C414.56 201.718 414.46 201.118 413.76 200.518C411.26 198.118 408.36 197.018 404.96 197.218C402.76 197.318 401.06 198.318 400.06 200.218C399.56 201.218 398.96 202.018 398.56 203.018C395.36 210.618 394.46 218.418 395.76 226.518C396.26 229.618 397.26 232.518 399.36 234.918C401.56 237.318 404.16 237.818 407.06 236.418C409.26 235.318 411.06 233.818 412.66 232.018C415.06 229.218 417.16 226.118 418.96 222.818C419.06 222.618 419.16 222.218 419.46 222.118ZM405.86 201.018C407.06 201.118 408.26 201.618 409.16 202.718C409.56 203.218 409.66 203.618 409.46 204.318C407.76 208.618 406.86 213.018 406.76 217.618C406.76 218.618 406.86 219.618 407.16 220.618C407.36 220.918 407.16 221.218 407.06 221.518C406.66 222.818 405.76 223.618 404.36 224.118C403.16 224.518 402.06 224.218 401.46 223.118C400.86 222.118 400.66 220.918 400.56 219.818C400.16 216.518 400.36 213.318 400.96 210.118C401.36 207.618 402.06 205.118 403.16 202.718C403.16 202.618 403.26 202.418 403.36 202.318C403.76 201.218 404.56 201.018 405.86 201.018ZM407.66 226.618V227.018C407.56 227.818 407.56 228.618 407.96 229.418C408.16 229.718 407.96 230.018 407.96 230.218C407.46 231.518 405.66 232.618 404.16 232.318C403.46 232.218 402.96 231.918 402.66 231.318C401.76 229.518 401.86 227.718 402.86 226.018C403.26 225.418 403.96 225.118 404.76 224.918C405.06 224.818 405.46 224.818 405.76 224.818C407.16 224.818 407.76 225.418 407.66 226.618Z" fill="white"/>
</g>
<g filter="url(#filter3_i_47_725)">
<path d="M377.713 194.167C378.357 199.796 375.688 204.725 371.752 205.175C367.815 205.626 364.103 201.427 363.459 195.798C362.814 190.168 365.483 185.24 369.42 184.79C373.356 184.34 377.069 188.537 377.713 194.167Z" fill="white"/>
<path d="M392.219 241.588C395.457 243.535 398.116 244.406 399.195 244.71C399.161 244.773 399.125 244.837 399.09 244.9C399.082 244.916 399.072 244.932 399.062 244.948C399.024 245.018 398.985 245.087 398.945 245.156C395.079 246.653 391.613 246.824 388.522 246.015C385.685 245.273 383.165 243.707 380.94 241.583C376.718 237.949 373.32 232.593 370.82 226.946C364.183 228.932 360.506 238.926 358.627 246.59C357.602 250.769 357.112 254.256 356.968 255.377C356.918 255.34 356.868 255.302 356.819 255.264C355.954 251.037 355.515 247.136 355.448 243.573C355.2 230.21 360.204 221.598 367.718 218.325C367.546 217.722 367.387 217.123 367.239 216.532L367.232 216.535C362.522 202.74 352.403 196.181 345.671 193.237C341.827 191.555 339.087 191.051 339.087 191.051C341.829 189.961 344.514 189.491 347.102 189.537C354.59 189.666 361.281 194.095 366.283 200.213C381.052 213.26 395.93 200.746 395.93 200.746C389.847 214.485 381.381 216.315 373.567 213.324C373.931 214.382 374.245 215.439 374.508 216.488L374.514 216.486C374.544 216.606 374.575 216.726 374.606 216.845C374.625 216.844 374.646 216.844 374.665 216.843L374.705 217.026L374.76 217.004C378.426 230.868 386.292 238.028 392.219 241.588Z" fill="white"/>
</g>
<path fill-rule="evenodd" clip-rule="evenodd" d="M302.272 69.1096C301.15 67.8462 299.526 66.233 298.349 65C298.349 65.0002 297.308 66.761 296.957 67.5441C296.661 68.2058 296.277 69.1006 296.156 69.7946C295.95 70.9777 295.999 72.5946 296.24 73.7737C296.568 75.3753 297.456 77.4598 298.349 78.9271C298.935 79.89 299.975 81.0733 300.795 81.9277C304.476 85.7602 309.494 91.0569 314.627 93.7079C315.73 94.2774 317.476 94.6414 318.697 95.0414C318.341 93.7127 318.008 91.9135 317.51 90.6124C316.944 89.1334 315.925 87.2238 315.083 85.8255C313.809 83.7093 311.743 81.0292 310.231 79.009C309.219 77.6575 307.807 75.8839 306.742 74.5566C305.424 72.9115 303.688 70.7054 302.272 69.1096Z" fill="#769C37"/>
<path d="M298.349 65C299.526 66.233 301.15 67.8462 302.272 69.1096C303.688 70.7054 305.424 72.9115 306.742 74.5566C307.807 75.8839 309.219 77.6575 310.231 79.009C311.743 81.0292 313.809 83.7093 315.083 85.8255C315.925 87.2238 316.944 89.1334 317.51 90.6124C318.008 91.9135 318.341 93.7127 318.697 95.0414C317.476 94.6414 315.73 94.2774 314.627 93.7079C309.494 91.0569 304.476 85.7602 300.795 81.9277C299.975 81.0733 298.935 79.89 298.349 78.9271C297.456 77.4598 296.568 75.3753 296.24 73.7737C295.999 72.5946 295.95 70.9777 296.156 69.7946C296.277 69.1006 296.661 68.2058 296.957 67.5441C297.308 66.761 298.349 65 298.349 65Z" stroke="#769C37" stroke-linecap="round" stroke-linejoin="round"/>
<path fill-rule="evenodd" clip-rule="evenodd" d="M259.912 81.4527C259.814 81.1441 259.729 80.725 259.65 80.4131C259.651 80.4131 261.598 80.847 262.414 81.0772C266.726 82.295 272.306 84.2662 276.419 85.8424C279.95 87.1959 284.637 89.0666 287.921 90.7521C292.533 93.119 298.067 96.9331 302.347 99.6475C304.197 100.821 306.655 102.395 308.454 103.614C309.597 104.389 311.06 105.473 312.198 106.251C313.016 106.81 314.131 107.535 314.959 108.085C312.618 107.308 309.478 106.302 307.154 105.493C302.888 104.008 297.345 101.78 293.058 100.329C291.221 99.7082 288.696 99.0204 286.87 98.3809C285.103 97.7622 282.826 96.8097 281.088 96.1452C279.095 95.3833 276.369 94.4697 274.428 93.63C272.265 92.6939 269.382 91.4065 267.459 90.1967C266.224 89.4202 264.72 88.2441 263.721 87.2864C262.74 86.3456 261.535 85.0061 260.883 83.9076C260.468 83.2076 260.149 82.2007 259.912 81.4527Z" fill="#315106"/>
<path d="M259.65 80.4131C259.729 80.725 259.814 81.1441 259.912 81.4527C260.149 82.2007 260.468 83.2076 260.883 83.9076C261.535 85.0061 262.74 86.3456 263.721 87.2864C264.72 88.2441 266.224 89.4202 267.459 90.1967C269.382 91.4065 272.265 92.6939 274.428 93.63C276.369 94.4697 279.095 95.3833 281.088 96.1452C282.826 96.8097 285.103 97.7622 286.87 98.3809C288.696 99.0204 291.221 99.7082 293.058 100.329C297.345 101.78 302.888 104.008 307.154 105.493C309.478 106.302 312.618 107.308 314.959 108.085C314.131 107.535 313.016 106.81 312.198 106.251C311.06 105.473 309.597 104.389 308.454 103.614C306.655 102.395 304.197 100.821 302.347 99.6475C298.067 96.9331 292.533 93.119 287.921 90.7521C284.637 89.0666 279.95 87.1959 276.419 85.8424C272.306 84.2662 266.726 82.295 262.414 81.0772C261.598 80.847 259.651 80.4131 259.65 80.4131Z" stroke="#315106" stroke-linecap="round" stroke-linejoin="round"/>
<path fill-rule="evenodd" clip-rule="evenodd" d="M256.074 109.462C254.228 109.888 251.822 110.592 250 111.076C250 111.076 252.032 112.422 252.974 112.925C253.894 113.416 255.163 114.04 256.189 114.386C256.98 114.653 258.087 114.943 258.942 115.039C261.097 115.28 264.027 114.981 266.195 114.821C274.101 114.236 284.598 112.92 292.301 111.427C295.395 110.828 299.586 110.036 302.42 108.903C303.133 108.618 303.959 108.076 304.619 107.722C303.335 107.274 301.687 106.546 300.34 106.227C297.812 105.629 294.265 105.347 291.629 105.191C289.01 105.036 285.494 105.047 282.875 105.191C281.205 105.283 278.997 105.559 277.346 105.774C273.51 106.274 268.438 107.134 264.645 107.806C262.061 108.263 258.614 108.878 256.074 109.462Z" fill="#769C37"/>
<path d="M250 111.076C251.822 110.592 254.228 109.888 256.074 109.462C258.614 108.878 262.061 108.263 264.645 107.806C268.438 107.134 273.51 106.274 277.346 105.774C278.997 105.559 281.205 105.283 282.875 105.191C285.494 105.047 289.01 105.036 291.629 105.191C294.265 105.347 297.812 105.629 300.34 106.227C301.687 106.546 303.335 107.274 304.619 107.722C303.959 108.076 303.133 108.618 302.42 108.903C299.586 110.036 295.395 110.828 292.301 111.427C284.598 112.92 274.101 114.236 266.195 114.821C264.027 114.981 261.097 115.28 258.942 115.039C258.087 114.943 256.98 114.653 256.189 114.386C255.163 114.04 253.894 113.416 252.974 112.925C252.032 112.422 250 111.076 250 111.076Z" stroke="#769C37" stroke-linecap="round" stroke-linejoin="round"/>
<path fill-rule="evenodd" clip-rule="evenodd" d="M304.171 72.7664C302.728 71.0811 300.63 68.9267 299.112 67.2812C299.112 67.2815 297.985 68.9736 297.681 69.7504C297.22 70.926 296.925 72.5678 296.855 73.795C296.816 74.4786 296.886 75.3962 297.02 76.0725C297.301 77.4839 297.993 79.3264 298.627 80.6677C299.079 81.6264 299.881 82.843 300.463 83.7588C302.88 87.5607 306.523 92.4628 309.066 96.215C310.947 98.9914 313.317 102.75 315.25 105.505C316.494 107.277 318.268 109.592 319.549 111.349C319.916 111.853 320.402 112.528 320.768 113.033C320.632 112.43 320.399 111.632 320.315 111.024C320.096 109.423 320.111 107.268 320.138 105.657C320.16 104.341 320.487 102.591 320.421 101.276C320.372 100.276 320.117 98.9503 319.896 97.9642C319.525 96.3087 318.968 94.0974 318.268 92.5069C317.347 90.4163 315.572 87.7905 314.251 85.8323C312.932 83.8771 310.939 81.3697 309.479 79.4756C307.917 77.4485 305.856 74.7338 304.171 72.7664Z" fill="#5E7D2D"/>
<path d="M299.112 67.2812C300.63 68.9267 302.728 71.0811 304.171 72.7664C305.856 74.7338 307.917 77.4485 309.479 79.4756C310.939 81.3697 312.932 83.8771 314.251 85.8323C315.572 87.7905 317.347 90.4163 318.268 92.5069C318.968 94.0974 319.525 96.3087 319.896 97.9642C320.117 98.9503 320.372 100.276 320.421 101.276C320.487 102.591 320.16 104.341 320.138 105.657C320.111 107.268 320.096 109.423 320.315 111.024C320.399 111.632 320.632 112.43 320.768 113.033C320.402 112.528 319.916 111.853 319.549 111.349C318.268 109.592 316.494 107.277 315.25 105.505C313.317 102.75 310.947 98.9914 309.066 96.215C306.523 92.4628 302.88 87.5607 300.463 83.7588C299.881 82.843 299.079 81.6264 298.627 80.6677C297.993 79.3264 297.301 77.4839 297.02 76.0725C296.886 75.3962 296.816 74.4786 296.855 73.795C296.925 72.5678 297.22 70.926 297.681 69.7504C297.985 68.9736 299.112 67.2812 299.112 67.2812Z" stroke="#5E7D2D" stroke-linecap="round" stroke-linejoin="round"/>
<path fill-rule="evenodd" clip-rule="evenodd" d="M273.732 84.1727C270.094 83.0925 265.16 81.826 261.486 80.8203C261.486 80.8203 261.618 81.5071 261.722 81.7928C262.022 82.6157 262.526 83.7052 263.098 84.4368C264.411 86.1165 266.826 88.026 268.757 89.2995C270.638 90.5399 273.524 91.8197 275.674 92.764C277.709 93.6584 280.544 94.6795 282.669 95.4386C285.34 96.3922 288.994 97.5031 291.683 98.4247C294.146 99.2687 297.413 100.422 299.847 101.315C301.589 101.955 303.911 102.812 305.62 103.504C307.075 104.093 309.018 104.882 310.405 105.562C311.513 106.106 312.896 106.938 313.964 107.528C313.504 107.106 312.883 106.547 312.43 106.12C311.4 105.15 310.045 103.845 309.06 102.847C308.008 101.782 306.761 100.269 305.65 99.2405C304.642 98.3074 303.191 97.1319 302.044 96.3005C300.619 95.2672 298.568 94.0176 297.028 93.0879C296.088 92.5211 294.839 91.7568 293.834 91.2623C291.735 90.2299 288.749 89.0914 286.5 88.2689C282.751 86.898 277.604 85.322 273.732 84.1727Z" fill="#456117"/>
<path d="M261.486 80.8203C265.16 81.826 270.094 83.0925 273.732 84.1727C277.604 85.322 282.751 86.898 286.5 88.2689C288.749 89.0914 291.735 90.2299 293.834 91.2623C294.839 91.7568 296.088 92.5211 297.028 93.0879C298.568 94.0176 300.619 95.2672 302.044 96.3005C303.191 97.1319 304.642 98.3074 305.65 99.2405C306.761 100.269 308.008 101.782 309.06 102.847C310.045 103.845 311.4 105.15 312.43 106.12C312.883 106.547 313.504 107.106 313.964 107.528C312.896 106.938 311.513 106.106 310.405 105.562C309.018 104.882 307.075 104.093 305.62 103.504C303.911 102.812 301.589 101.955 299.847 101.315C297.413 100.422 294.146 99.2687 291.683 98.4247C288.994 97.5031 285.34 96.3922 282.669 95.4386C280.544 94.6795 277.709 93.6584 275.674 92.764C273.524 91.8197 270.638 90.5399 268.757 89.2995C266.826 88.026 264.411 86.1165 263.098 84.4368C262.526 83.7052 262.022 82.6157 261.722 81.7928C261.618 81.5071 261.486 80.8203 261.486 80.8203Z" stroke="#456117" stroke-linecap="round" stroke-linejoin="round"/>
<path fill-rule="evenodd" clip-rule="evenodd" d="M256.419 110.921C255.447 111.158 254.17 111.518 253.206 111.774C253.206 111.774 255.032 113.114 255.899 113.606C256.732 114.078 257.867 114.721 258.84 114.987C260.341 115.398 262.522 115.381 264.11 115.463C265.762 115.549 267.973 115.578 269.628 115.538C271.658 115.49 274.363 115.316 276.378 115.112C279.342 114.812 283.232 114.107 286.178 113.712C288.528 113.396 291.67 113.017 294.025 112.723C296.186 112.453 299.073 112.113 301.232 111.832C303.187 111.578 305.794 111.239 307.739 110.942C309.175 110.723 311.061 110.32 312.507 110.142C313.266 110.049 314.299 110.041 315.054 109.928C315.257 109.897 315.521 109.832 315.721 109.791C314.58 109.668 313.038 109.585 311.917 109.379C310.238 109.072 308.111 108.367 306.485 107.922C305.22 107.576 303.575 107.011 302.277 106.749C300.421 106.375 297.874 106.106 295.964 105.973C293.361 105.792 289.862 105.727 287.253 105.854C283.852 106.019 279.368 106.663 276.018 107.146C272.468 107.658 267.772 108.496 264.273 109.189C261.899 109.659 258.754 110.349 256.419 110.921Z" fill="#5E7D2D"/>
<path d="M253.206 111.774C254.17 111.518 255.447 111.158 256.419 110.921C258.754 110.349 261.899 109.659 264.273 109.189C267.772 108.496 272.468 107.658 276.018 107.146C279.368 106.663 283.852 106.019 287.253 105.854C289.862 105.727 293.361 105.792 295.964 105.973C297.874 106.106 300.421 106.375 302.277 106.749C303.575 107.011 305.22 107.576 306.485 107.922C308.111 108.367 310.238 109.072 311.917 109.379C313.038 109.585 314.58 109.668 315.721 109.791C315.521 109.832 315.257 109.897 315.054 109.928C314.299 110.041 313.266 110.049 312.507 110.142C311.061 110.32 309.175 110.723 307.739 110.942C305.794 111.239 303.187 111.578 301.232 111.832C299.073 112.113 296.186 112.453 294.025 112.723C291.67 113.017 288.528 113.396 286.178 113.712C283.232 114.107 279.342 114.812 276.378 115.112C274.363 115.316 271.658 115.49 269.628 115.538C267.973 115.578 265.762 115.549 264.11 115.463C262.522 115.381 260.341 115.398 258.84 114.987C257.867 114.721 256.732 114.078 255.899 113.606C255.032 113.114 253.206 111.774 253.206 111.774Z" stroke="#5E7D2D" stroke-linecap="round" stroke-linejoin="round"/>
<path fill-rule="evenodd" clip-rule="evenodd" d="M306.533 83.7461C305.855 82.9092 304.739 81.9065 303.97 81.1182C303.97 81.1182 305.521 81.9557 306.072 82.4098C307.306 83.4258 308.484 85.0778 309.384 86.2852C310.295 87.5072 311.362 89.2021 312.092 90.4947C313.386 92.7889 314.825 95.9419 315.846 98.3171C316.718 100.344 317.68 103.096 318.46 105.146C318.823 106.099 319.362 107.359 319.664 108.324C319.897 109.067 320.124 110.072 320.295 110.825C320.407 111.317 320.63 112.471 320.63 112.471C319.71 111.427 319.362 109.69 318.836 108.494C317.663 105.826 316.195 102.244 315.032 99.5737C314.186 97.6298 313.13 95.0162 312.162 93.1067C311.188 91.1865 309.713 88.6811 308.562 86.8206C307.984 85.8865 307.244 84.6237 306.533 83.7461Z" fill="#9DB022"/>
<path d="M303.97 81.1182C304.739 81.9065 305.855 82.9092 306.533 83.7461C307.244 84.6237 307.984 85.8865 308.562 86.8206C309.713 88.6811 311.188 91.1865 312.162 93.1067C313.13 95.0162 314.186 97.6298 315.032 99.5737C316.195 102.244 317.663 105.826 318.836 108.494C319.362 109.69 319.71 111.427 320.63 112.471C320.63 112.471 320.407 111.317 320.295 110.825C320.124 110.072 319.897 109.067 319.664 108.324C319.362 107.359 318.823 106.099 318.46 105.146C317.68 103.096 316.718 100.344 315.846 98.3171C314.825 95.9419 313.386 92.7889 312.092 90.4947C311.362 89.2021 310.295 87.5072 309.384 86.2852C308.484 85.0778 307.306 83.4258 306.072 82.4098C305.521 81.9557 303.97 81.1182 303.97 81.1182Z" stroke="#9DB022" stroke-linecap="round" stroke-linejoin="round"/>
<path fill-rule="evenodd" clip-rule="evenodd" d="M279.213 91.1119C278.709 91.0014 278.024 90.8937 277.515 90.8C277.515 90.8 277.854 90.6083 278.024 90.5703C278.477 90.4688 279.129 90.5327 279.595 90.5867C281.113 90.7627 283.033 91.3728 284.456 91.8177C286.476 92.4496 289.077 93.4658 290.972 94.2965C292.044 94.766 293.402 95.483 294.432 96.0036C296.592 97.0938 299.464 98.5557 301.571 99.7048C303.329 100.664 305.635 101.985 307.336 103.003C308.386 103.632 309.775 104.481 310.78 105.152C311.606 105.703 312.723 106.429 313.455 107.054C313.609 107.185 313.928 107.519 313.928 107.519C313.963 107.448 313.728 107.433 313.644 107.393C310.858 106.054 307.368 104.005 304.66 102.574C302.7 101.537 300.079 100.161 298.097 99.1492C295.827 97.9897 292.808 96.4317 290.48 95.3439C289.402 94.8403 287.943 94.1984 286.833 93.7383C285.345 93.1212 283.365 92.2812 281.803 91.7849C281.044 91.544 280.001 91.2851 279.213 91.1119Z" fill="#6D8700"/>
<path d="M277.515 90.8C278.024 90.8937 278.709 91.0014 279.213 91.1119C280.001 91.2851 281.044 91.544 281.803 91.7849C283.365 92.2812 285.345 93.1212 286.833 93.7383C287.943 94.1984 289.402 94.8403 290.48 95.3439C292.808 96.4317 295.827 97.9897 298.097 99.1492C300.079 100.161 302.7 101.537 304.66 102.574C307.368 104.005 310.858 106.054 313.644 107.393C313.728 107.433 313.963 107.448 313.928 107.519C313.928 107.519 313.609 107.185 313.455 107.054C312.723 106.429 311.606 105.703 310.78 105.152C309.775 104.481 308.386 103.632 307.336 103.003C305.635 101.985 303.329 100.664 301.571 99.7048C299.464 98.5557 296.592 97.0938 294.432 96.0036C293.402 95.483 292.044 94.766 290.972 94.2965C289.077 93.4658 286.476 92.4496 284.456 91.8177C283.033 91.3728 281.113 90.7627 279.595 90.5867C279.129 90.5327 278.477 90.4688 278.024 90.5703C277.854 90.6083 277.515 90.8 277.515 90.8Z" stroke="#6D8700" stroke-linecap="round" stroke-linejoin="round"/>
<path fill-rule="evenodd" clip-rule="evenodd" d="M275.332 110.354C274.303 110.624 273.031 111.178 272.045 111.531C272.045 111.531 273.994 111.095 274.848 110.969C277.75 110.543 281.692 110.32 284.64 110.167C288.038 109.99 292.583 109.965 295.989 109.926C299.493 109.886 304.166 109.911 307.67 109.909C309.369 109.908 311.637 109.96 313.335 109.909C314.03 109.888 314.952 109.796 315.647 109.781L315.193 109.673C313.77 109.563 311.887 109.324 310.464 109.214C308.283 109.046 305.368 108.878 303.178 108.808C301.495 108.753 299.248 108.751 297.564 108.752C294.994 108.754 291.566 108.754 288.999 108.855C286.71 108.946 283.654 109.102 281.387 109.364C279.551 109.576 277.09 109.893 275.332 110.354Z" fill="#9EB123"/>
<path d="M272.045 111.531C273.031 111.178 274.303 110.624 275.332 110.354C277.09 109.893 279.551 109.576 281.387 109.364C283.654 109.102 286.71 108.946 288.999 108.855C291.566 108.754 294.994 108.754 297.564 108.752C299.248 108.751 301.495 108.753 303.178 108.808C305.368 108.878 308.283 109.046 310.464 109.214C311.887 109.324 313.77 109.563 315.193 109.673L315.647 109.781C315.657 109.78 315.678 109.781 315.678 109.781C314.952 109.796 314.03 109.888 313.335 109.909C311.637 109.96 309.369 109.908 307.67 109.909C304.166 109.911 299.493 109.886 295.989 109.926C292.583 109.965 288.038 109.99 284.64 110.167C281.692 110.32 277.75 110.543 274.848 110.969C273.994 111.095 272.045 111.531 272.045 111.531Z" stroke="#9EB123" stroke-linecap="round" stroke-linejoin="round"/>
<path fill-rule="evenodd" clip-rule="evenodd" d="M332.96 111.53C340.193 109.975 347.569 114.698 353.841 126.749C360.076 138.73 358.764 145.719 352.438 148.782C346.209 151.799 334.779 151.367 326.542 140.358C315.452 125.535 323.424 113.58 332.96 111.53Z" fill="#899C0F" stroke="#899C0F" stroke-linecap="round" stroke-linejoin="round"/>
<path fill-rule="evenodd" clip-rule="evenodd" d="M335.748 111.217C336.98 111.038 339.137 111.252 340.52 111.555C343.156 112.133 346.46 113.526 348.596 114.853C351.538 116.679 354.626 119.866 356.61 122.348C357.543 123.515 358.494 125.208 359.104 126.498C359.616 127.581 360.123 129.075 360.423 130.205C360.654 131.079 360.881 132.26 360.958 133.15C361.021 133.881 361.009 134.163 360.947 135.591C360.857 137.69 360.863 138.108 360.644 139.17C360.417 140.267 359.964 141.719 359.451 142.757C359.014 143.641 358.276 144.78 357.587 145.562C356.986 146.245 356.066 147.107 355.244 147.635C353.7 148.626 351.124 149.879 349.416 150.174C347.445 150.514 343.948 150.176 341.722 149.682C340.438 149.397 338.846 148.726 337.725 148.163C336.439 147.517 334.9 146.456 333.809 145.622C332.977 144.986 332.014 144.031 331.253 143.343C330.873 142.999 330.344 142.555 329.995 142.192C329.754 141.942 329.663 141.845 329.257 141.324C328.421 140.252 328.312 140.017 327.939 139.444C327.37 138.571 326.617 137.4 326.166 136.486C325.283 134.699 324.23 132.256 323.838 130.367C323.444 128.47 323.242 125.87 323.572 123.966C323.98 121.608 325.077 118.445 326.658 116.404C327.458 115.371 328.941 114.186 330.176 113.451C331.669 112.564 334.134 111.451 335.748 111.217Z" fill="#9DB022" stroke="#9DB022" stroke-linecap="round" stroke-linejoin="round"/>
<path fill-rule="evenodd" clip-rule="evenodd" d="M347.84 144.051C352.788 142.647 354.667 141.382 355.312 142.052C356.053 142.822 354.963 145.74 349.241 147.284C343.785 148.756 340.758 147.11 340.689 146.196C340.627 145.387 343.039 145.413 347.84 144.051Z" fill="#667F00" stroke="#667F00" stroke-linecap="round" stroke-linejoin="round"/>
<path fill-rule="evenodd" clip-rule="evenodd" d="M346.493 141.334C351.946 139.632 354.772 140.697 355.286 141.872C355.765 142.965 354.429 144.668 349.362 146.266C344.059 147.938 341.417 147.408 340.772 146.308C340.126 145.205 341.171 142.994 346.493 141.334Z" fill="#789600" stroke="#789600" stroke-linecap="round" stroke-linejoin="round"/>
<path fill-rule="evenodd" clip-rule="evenodd" d="M336.095 117.809C336.813 118.145 338.78 118.635 338.837 121.436C338.882 123.655 337.527 123.536 336.879 124.4C336.281 125.199 335.16 126.124 334.707 126.978C334.325 127.7 334.105 128.745 334.019 129.523C333.875 130.825 334.398 132.571 334.289 133.875C334.202 134.916 334.805 136.99 333.517 137.301C333.023 137.421 332.229 136.761 332.034 136.621C331.596 136.306 330.494 134.893 329.939 134.105C329.376 133.303 328.715 132.193 328.324 131.332C327.922 130.446 327.526 129.224 327.315 128.299C327.071 127.231 326.788 125.784 326.868 124.702C326.95 123.604 327.212 122.096 327.859 121.117C328.516 120.124 329.87 118.963 331.083 118.361C331.855 117.977 331.946 117.738 333.976 117.594C335.395 117.494 335.812 117.677 336.095 117.809Z" fill="#BBCC48" stroke="#BBCC48" stroke-linecap="round" stroke-linejoin="round"/>
<path fill-rule="evenodd" clip-rule="evenodd" d="M307.247 113.629C299.991 112.055 292.532 116.757 286.213 128.848C279.955 140.822 281.308 147.808 287.626 150.881C293.886 153.927 305.419 153.533 313.712 142.457C324.811 127.633 316.779 115.695 307.247 113.629Z" fill="#899C0F" stroke="#899C0F" stroke-linecap="round" stroke-linejoin="round"/>
<path fill-rule="evenodd" clip-rule="evenodd" d="M304.439 113.318C303.198 113.139 301.026 113.354 299.632 113.657C296.979 114.235 293.651 115.626 291.497 116.954C288.539 118.779 285.424 121.965 283.424 124.449C282.485 125.616 281.526 127.309 280.912 128.599C280.396 129.683 279.886 131.176 279.583 132.307C279.35 133.18 279.122 134.361 279.044 135.251C278.98 135.982 278.993 136.264 279.055 137.693C279.146 139.792 279.14 140.209 279.361 141.272C279.589 142.369 280.046 143.821 280.562 144.859C281.002 145.743 281.746 146.883 282.44 147.664C283.046 148.347 283.974 149.209 284.8 149.736C286.357 150.729 288.952 151.98 290.67 152.275C292.657 152.616 296.178 152.279 298.421 151.784C299.714 151.498 301.318 150.828 302.447 150.265C303.742 149.62 305.293 148.558 306.392 147.724C307.23 147.088 308.201 146.132 308.967 145.445C309.35 145.101 309.883 144.657 310.235 144.294C310.477 144.044 310.569 143.947 310.978 143.426C311.819 142.354 311.93 142.119 312.306 141.546C312.879 140.672 313.637 139.502 314.092 138.588C314.981 136.801 316.042 134.359 316.437 132.469C316.833 130.572 317.037 127.972 316.705 126.068C316.293 123.709 315.186 120.544 313.596 118.506C312.789 117.471 311.294 116.287 310.052 115.553C308.547 114.664 306.063 113.553 304.439 113.318Z" fill="#9DB022" stroke="#9DB022" stroke-linecap="round" stroke-linejoin="round"/>
<path fill-rule="evenodd" clip-rule="evenodd" d="M292.258 146.151C287.273 144.747 285.377 143.476 284.732 144.152C283.992 144.927 285.104 147.84 290.847 149.384C296.344 150.862 299.393 149.216 299.462 148.296C299.523 147.482 297.094 147.513 292.258 146.151Z" fill="#667F00" stroke="#667F00" stroke-linecap="round" stroke-linejoin="round"/>
<path fill-rule="evenodd" clip-rule="evenodd" d="M293.614 143.436C288.119 141.727 285.272 142.79 284.757 143.974C284.28 145.072 285.634 146.77 290.724 148.368C296.07 150.045 298.732 149.52 299.378 148.41C300.022 147.302 298.957 145.097 293.614 143.436Z" fill="#789600" stroke="#789600" stroke-linecap="round" stroke-linejoin="round"/>
<path fill-rule="evenodd" clip-rule="evenodd" d="M304.089 119.912C303.369 120.247 301.384 120.733 301.327 123.538C301.281 125.761 302.647 125.639 303.299 126.503C303.902 127.302 305.031 128.225 305.487 129.08C305.871 129.802 306.093 130.848 306.18 131.625C306.325 132.928 305.798 134.673 305.908 135.978C305.996 137.019 305.399 139.09 306.686 139.404C307.182 139.525 307.983 138.864 308.18 138.723C308.62 138.409 309.731 136.997 310.29 136.207C310.857 135.406 311.523 134.296 311.917 133.435C312.322 132.549 312.72 131.327 312.933 130.401C313.179 129.334 313.464 127.886 313.383 126.804C313.301 125.706 313.035 124.198 312.385 123.22C311.723 122.225 310.357 121.065 309.138 120.463C308.359 120.079 308.267 119.841 306.223 119.697C304.795 119.596 304.374 119.779 304.089 119.912Z" fill="#BBCC48" stroke="#BBCC48" stroke-linecap="round" stroke-linejoin="round"/>
<defs>
<filter id="filter0_if_47_725" x="0" y="0" width="524" height="347" filterUnits="userSpaceOnUse" color-interpolation-filters="sRGB">
<feFlood flood-opacity="0" result="BackgroundImageFix"/>
<feBlend mode="normal" in="SourceGraphic" in2="BackgroundImageFix" result="shape"/>
<feColorMatrix in="SourceAlpha" type="matrix" values="0 0 0 0 0 0 0 0 0 0 0 0 0 0 0 0 0 0 127 0" result="hardAlpha"/>
<feOffset/>
<feGaussianBlur stdDeviation="4"/>
<feComposite in2="hardAlpha" operator="arithmetic" k2="-1" k3="1"/>
<feColorMatrix type="matrix" values="0 0 0 0 0 0 0 0 0 0.501961 0 0 0 0 0 0 0 0 1 0"/>
<feBlend mode="normal" in2="shape" result="effect1_innerShadow_47_725"/>
<feGaussianBlur stdDeviation="12" result="effect2_foregroundBlur_47_725"/>
</filter>
<filter id="filter1_i_47_725" x="111.8" y="78.4004" width="107.476" height="80.5" filterUnits="userSpaceOnUse" color-interpolation-filters="sRGB">
<feFlood flood-opacity="0" result="BackgroundImageFix"/>
<feBlend mode="normal" in="SourceGraphic" in2="BackgroundImageFix" result="shape"/>
<feColorMatrix in="SourceAlpha" type="matrix" values="0 0 0 0 0 0 0 0 0 0 0 0 0 0 0 0 0 0 127 0" result="hardAlpha"/>
<feOffset dy="1"/>
<feGaussianBlur stdDeviation="2"/>
<feComposite in2="hardAlpha" operator="arithmetic" k2="-1" k3="1"/>
<feColorMatrix type="matrix" values="0 0 0 0 0.309804 0 0 0 0 0.309804 0 0 0 0 0.309804 0 0 0 1 0"/>
<feBlend mode="normal" in2="shape" result="effect1_innerShadow_47_725"/>
</filter>
<filter id="filter2_i_47_725" x="111.8" y="173.518" width="323.36" height="82" filterUnits="userSpaceOnUse" color-interpolation-filters="sRGB">
<feFlood flood-opacity="0" result="BackgroundImageFix"/>
<feBlend mode="normal" in="SourceGraphic" in2="BackgroundImageFix" result="shape"/>
<feColorMatrix in="SourceAlpha" type="matrix" values="0 0 0 0 0 0 0 0 0 0 0 0 0 0 0 0 0 0 127 0" result="hardAlpha"/>
<feOffset dy="1"/>
<feGaussianBlur stdDeviation="2"/>
<feComposite in2="hardAlpha" operator="arithmetic" k2="-1" k3="1"/>
<feColorMatrix type="matrix" values="0 0 0 0 0.309804 0 0 0 0 0.309804 0 0 0 0 0.309804 0 0 0 1 0"/>
<feBlend mode="normal" in2="shape" result="effect1_innerShadow_47_725"/>
</filter>
<filter id="filter3_i_47_725" x="339.086" y="184.757" width="60.1089" height="71.6201" filterUnits="userSpaceOnUse" color-interpolation-filters="sRGB">
<feFlood flood-opacity="0" result="BackgroundImageFix"/>
<feBlend mode="normal" in="SourceGraphic" in2="BackgroundImageFix" result="shape"/>
<feColorMatrix in="SourceAlpha" type="matrix" values="0 0 0 0 0 0 0 0 0 0 0 0 0 0 0 0 0 0 127 0" result="hardAlpha"/>
<feOffset dy="1"/>
<feGaussianBlur stdDeviation="2"/>
<feComposite in2="hardAlpha" operator="arithmetic" k2="-1" k3="1"/>
<feColorMatrix type="matrix" values="0 0 0 0 0.309804 0 0 0 0 0.309804 0 0 0 0 0.309804 0 0 0 1 0"/>
<feBlend mode="normal" in2="shape" result="effect1_innerShadow_47_725"/>
</filter>
</defs>
</svg>
