<svg width="524" height="422" viewBox="0 0 524 422" fill="none" xmlns="http://www.w3.org/2000/svg">
<g filter="url(#filter0_if_47_722)">
<path d="M262 398C393.444 398 500 314.277 500 211C500 107.723 393.444 24 262 24C130.556 24 24 107.723 24 211C24 314.277 130.556 398 262 398Z" fill="#D9B99B"/>
</g>
<g filter="url(#filter1_i_47_722)">
<path d="M311.337 209.31C303.745 209.346 296.177 208.232 288.793 205.993C281.894 203.951 275.336 200.373 269.422 195.423C263.752 190.615 259.121 184.08 255.953 176.416C252.66 168.555 251.014 158.994 251.014 147.732C250.831 136.638 252.464 125.618 255.81 115.366C258.793 106.465 263.33 98.5388 269.078 92.1859C274.824 85.9316 281.491 81.1868 288.692 78.2266C296.396 75.0325 304.453 73.4206 312.557 73.452C320.146 73.4156 327.706 74.6409 335.044 77.0967C342.138 79.4332 348.842 83.3783 354.831 88.7416C360.708 94.088 365.498 101.135 368.802 109.298C372.258 117.705 373.99 127.838 374 139.695C374.002 148.608 372.534 157.422 369.692 165.573C366.771 173.958 362.552 181.512 357.286 187.787C351.579 194.547 344.9 199.849 337.614 203.405C329.229 207.468 320.311 209.472 311.337 209.31ZM310.432 180.972C316.411 181.184 322.359 179.806 327.893 176.926C332.353 174.537 336.332 170.906 339.538 166.302C342.452 162.099 344.682 157.206 346.1 151.905C347.449 146.919 348.148 141.687 348.168 136.415C348.322 130.085 347.195 123.81 344.894 118.191C342.807 113.329 339.827 109.178 336.207 106.091C332.534 102.966 328.456 100.689 324.159 99.366C319.704 97.9485 315.126 97.2385 310.533 97.2521C304.597 97.2182 298.734 98.9009 293.388 102.172C288.015 105.458 283.484 110.608 280.321 117.025C276.99 123.634 275.324 131.98 275.324 142.064C275.163 149.411 276.54 156.68 279.316 163.131C282.043 169.058 286.194 173.72 291.162 176.434C297.256 179.676 303.827 181.223 310.432 180.972Z" fill="white"/>
<path d="M314.453 191.851C337.998 191.851 357.085 168.892 357.085 140.57C357.085 112.248 337.998 89.2881 314.453 89.2881C290.908 89.2881 271.821 112.248 271.821 140.57C271.821 168.892 290.908 191.851 314.453 191.851Z" fill="white"/>
<path d="M313.121 183.494C319.1 183.706 325.047 182.328 330.582 179.448C335.041 177.058 339.021 173.428 342.227 168.823C345.141 164.621 347.371 159.728 348.789 154.427C350.138 149.441 350.836 144.208 350.857 138.937C351.011 132.607 349.884 126.332 347.583 120.713C345.496 115.851 342.516 111.7 338.895 108.612C335.223 105.488 331.145 103.211 326.848 101.888C322.392 100.47 317.815 99.7603 313.221 99.7739C307.286 99.7401 301.423 101.423 296.076 104.694C290.703 107.98 286.173 113.13 283.01 119.547C279.678 126.156 278.013 134.502 278.013 144.586C277.852 151.933 279.229 159.202 282.004 165.653C284.731 171.58 288.883 176.242 293.851 178.956C299.945 182.198 306.516 183.745 313.121 183.494Z" stroke="#D9B99B" stroke-width="2" stroke-miterlimit="10"/>
<path d="M291.464 194.129C291.363 197.391 291.263 200.653 291.148 203.915C291.148 205.063 291.033 206.211 290.961 207.341C293.88 208.493 296.86 209.376 299.878 209.983C299.807 207.414 299.735 204.844 299.649 202.275C299.519 198.193 299.261 194.129 299.232 190.065C299.146 181.409 299.232 172.734 299.146 164.078C299.089 142.598 299.026 121.118 298.959 99.6388C298.933 99.0216 298.851 98.4102 298.715 97.8164C298.651 97.6733 298.564 97.5486 298.459 97.45C298.355 97.3514 298.236 97.2812 298.109 97.2436C297.983 97.206 297.851 97.2018 297.723 97.2314C297.595 97.261 297.474 97.3236 297.366 97.4155C296.476 98.0294 295.705 98.8888 295.111 99.9304C294.508 101.115 293.79 102.208 293.23 103.429C292.805 104.462 292.431 105.527 292.11 106.618C291.852 107.329 291.593 108.04 291.349 108.751C291.105 109.461 290.746 110.573 290.459 111.448C290.1 112.651 289.741 113.853 289.411 115.093C289.08 116.332 288.851 117.316 288.563 118.409C288.362 119.175 288.133 119.94 287.932 120.705C287.831 121.125 287.731 121.544 287.644 121.963C287.329 123.366 286.998 124.787 286.711 126.209C286.51 127.266 286.381 128.359 286.194 129.416C286.079 130.072 285.907 130.728 285.778 131.384C285.649 132.041 285.62 132.387 285.548 132.897L285.246 135.084C285.103 135.977 284.959 136.906 284.83 137.781V138.073C284.744 139.348 284.629 140.624 284.543 141.918C284.457 143.212 284.342 144.706 284.313 146.109C284.227 150.61 284.141 155.112 284.098 159.613C284.055 164.114 284.098 168.98 284.098 173.663C284.088 174.824 284.194 175.981 284.414 177.108C284.65 178.151 285.155 179.062 285.85 179.695L288.851 182.739C289.694 183.638 290.354 184.782 290.775 186.074C291.203 187.462 291.465 188.924 291.55 190.411C291.722 191.555 291.722 192.73 291.55 193.874C291.513 193.953 291.484 194.039 291.464 194.129Z" fill="#4F4F4F"/>
<path d="M320.742 111.247C319.938 111.247 319.12 111.247 318.316 111.247C317.971 111.247 317.842 111.43 317.856 111.812V153.873C317.856 154.875 317.856 154.948 317.023 154.948H315.3C314.668 154.948 314.625 154.948 314.625 154.073V112.341C314.625 111.266 314.625 111.266 313.778 111.266H312.156C311.538 111.266 311.409 111.393 311.337 112.213C311.265 113.033 311.15 113.872 311.079 114.71C310.978 115.913 310.906 117.115 310.806 118.355C310.59 120.651 310.361 122.929 310.131 125.225C310.131 125.316 310.131 125.425 310.131 125.517C310.03 126.974 309.959 128.414 309.858 129.854L309.384 136.159C309.298 137.326 309.212 138.51 309.14 139.695C309.068 140.879 308.968 142.373 308.91 143.722C308.81 145.818 308.738 147.895 308.652 149.991C308.58 151.576 308.48 153.162 308.494 154.747C308.494 156.57 308.623 158.392 308.738 160.214C308.954 162.252 309.727 164.128 310.921 165.518C312.393 167.58 314.188 169.231 316.191 170.365C317.066 170.821 317.971 171.167 318.861 171.568C319.149 171.695 319.35 171.878 319.335 172.333C319.22 174.557 319.134 176.798 319.034 179.04C319.034 180.042 318.919 181.026 318.876 182.028C318.761 184.871 318.675 187.714 318.56 190.557C318.56 192.179 318.445 193.801 318.373 195.441C318.258 198.083 318.115 200.744 318 203.405V204.006C317.928 206.193 317.871 208.361 317.799 210.548C320.98 210.124 324.133 209.405 327.233 208.398C327.118 205.209 327.017 202.02 326.903 198.83C326.759 195.022 326.601 191.231 326.443 187.422C326.371 185.454 326.314 183.468 326.228 181.5C326.141 179.532 326.055 177.6 325.955 175.65C325.955 174.557 325.854 173.445 325.782 172.351C325.762 172.183 325.793 172.01 325.871 171.871C325.949 171.731 326.066 171.635 326.199 171.604C326.902 171.294 327.635 171.076 328.31 170.693C329.298 170.168 330.257 169.559 331.182 168.871C332.594 167.706 333.85 166.26 334.901 164.588C335.457 163.769 335.895 162.832 336.193 161.818C336.34 161.228 336.422 160.615 336.437 159.996C336.537 157.408 336.652 154.802 336.667 152.214C336.667 150.082 336.509 147.95 336.423 145.818C336.351 144.323 336.293 142.847 336.207 141.353C336.064 138.947 335.906 136.542 335.733 134.155C335.59 132.241 335.417 130.328 335.26 128.414L334.786 122.838C334.628 121.015 334.47 119.193 334.297 117.371C334.125 115.548 333.996 114.181 333.824 112.596C333.79 112.236 333.728 111.882 333.637 111.539C333.604 111.477 333.561 111.425 333.512 111.384C333.463 111.343 333.408 111.316 333.35 111.302H331.296C331.296 111.63 331.296 111.922 331.296 112.213V154.128C331.296 154.984 331.296 155.021 330.607 155.039H328.654C328.281 155.039 328.123 154.839 328.137 154.383V112.614C328.137 112.396 328.137 112.177 328.137 111.958C328.137 111.739 327.965 111.229 327.549 111.247C326.788 111.247 326.027 111.247 325.266 111.247C324.505 111.247 324.476 111.247 324.476 112.232V141.244C324.476 145.544 324.476 149.845 324.476 154.146C324.476 154.766 324.347 154.966 323.858 154.93C323.37 154.893 322.652 154.93 322.049 154.93C321.446 154.93 321.374 154.93 321.374 154.073V112.414C321.374 112.232 321.374 112.049 321.374 111.867C321.274 111.393 321.13 111.229 320.742 111.247Z" fill="#4F4F4F"/>
</g>
<g filter="url(#filter2_i_47_722)">
<path d="M163.811 143.8C167.911 135.1 165.011 125.7 156.711 120.9C154.811 119.7 152.711 118.8 150.511 118.4C144.311 117 138.011 116.4 131.711 117.7C129.011 118.2 126.311 118.9 123.911 120.3C121.811 121.6 120.211 123.3 119.911 126C119.511 129.4 118.911 132.7 118.611 136.1C118.011 142.7 117.711 149.4 117.311 156C116.711 163.6 116.811 171.2 117.911 178.8C118.411 182 119.011 185.2 120.611 188.1C122.611 191.9 126.211 193.6 130.411 192.8C131.811 192.5 133.311 191.6 134.611 191.7C136.111 191.9 137.411 193 138.811 193.5C145.011 195.8 151.211 195.9 157.511 194C167.611 191 175.311 184.9 179.911 175.3C182.011 170.8 182.711 166 181.411 161.1C179.311 153.2 173.811 149 166.111 147.2C164.911 146.9 163.711 146.8 162.311 146.5L163.811 143.8ZM135.311 167.3C135.111 164.1 135.111 164.1 137.611 163.3C141.311 162 145.111 161.7 148.911 163C149.911 163.4 150.811 163.8 151.611 164.4C154.911 166.8 155.711 170.4 153.711 173.9C152.811 175.4 151.611 176.7 150.111 177.7C146.711 180 142.911 181 138.811 180.9C136.811 180.8 136.711 180.7 136.411 178.8C136.111 176.8 135.911 174.9 135.711 172.9C135.511 170.9 135.411 168.8 135.311 167.3ZM135.211 148.6C135.011 144.7 135.411 141.1 135.711 137.4L136.011 133.8C136.011 132.9 136.411 132.4 137.311 132.1C138.711 131.6 140.211 131.3 141.811 131.4C145.111 131.6 147.111 134 146.611 137.4C146.511 138.1 146.311 138.8 146.111 139.4C144.111 144 140.611 147 135.911 148.6C135.711 148.7 135.511 148.6 135.211 148.6ZM128.711 122C129.911 122.1 131.111 122.6 132.011 123.7C132.411 124.2 132.511 124.6 132.311 125.3C130.611 129.6 129.711 134 129.611 138.6C129.611 139.6 129.711 140.6 130.011 141.6C130.211 141.9 130.011 142.2 129.911 142.5C129.511 143.8 128.611 144.6 127.211 145.1C126.011 145.5 124.911 145.2 124.311 144.1C123.711 143.1 123.511 141.9 123.411 140.8C123.011 137.5 123.211 134.3 123.811 131.1C124.211 128.6 124.911 126.1 126.011 123.7C126.011 123.6 126.111 123.4 126.211 123.3C126.611 122.2 127.411 122 128.711 122ZM130.511 147.6V148C130.411 148.8 130.411 149.6 130.811 150.4C131.011 150.7 130.811 151 130.811 151.2C130.311 152.5 128.511 153.6 127.011 153.3C126.311 153.2 125.811 152.9 125.511 152.3C124.611 150.5 124.711 148.7 125.711 147C126.111 146.4 126.811 146.1 127.611 145.9C127.911 145.8 128.311 145.8 128.611 145.8C130.011 145.8 130.611 146.4 130.511 147.6ZM184.586 169.1C184.586 174.5 185.586 179.3 188.286 183.6C190.386 187 193.186 189.8 197.286 190.8C206.186 193 214.686 187 217.586 180.7C217.786 180 217.986 179.3 217.986 178.6C218.086 177.4 217.486 176.3 216.586 176C215.486 175.8 214.886 176.6 214.286 177.3C213.386 178.5 212.486 179.7 211.186 180.5C209.386 181.6 207.386 182.1 205.186 181.1C203.586 180.4 202.586 179.1 201.886 177.6C200.686 175 200.386 172.2 200.686 169.4C200.686 168.8 200.986 168.7 201.486 168.8C204.786 169 207.886 168.1 210.686 166.4C215.286 163.7 218.486 159.9 218.986 154.4C219.686 147.5 214.286 139.8 204.786 141.2C199.086 142.1 194.586 144.9 191.086 149.5C186.686 155.4 184.786 162.1 184.586 169.1ZM201.986 164C203.386 160.9 205.286 158.2 208.686 157C209.086 156.8 209.486 156.8 209.786 156.7C210.486 156.7 211.286 156.5 211.686 157.3C212.086 158 211.786 158.7 211.386 159.4C210.586 160.5 209.486 161.3 208.386 162C206.586 163.1 204.586 163.8 202.586 164.1C202.386 164.1 202.286 164.2 201.986 164ZM202.986 146.8C204.086 147.4 204.986 148.3 205.386 149.6C205.586 150.2 205.486 150.7 205.086 151.2C201.886 154.6 199.386 158.3 197.686 162.6C197.286 163.5 196.986 164.5 196.886 165.5C196.886 165.8 196.686 166 196.486 166.3C195.586 167.3 194.486 167.8 192.986 167.7C191.686 167.6 190.886 166.9 190.686 165.7C190.486 164.5 190.686 163.4 190.986 162.3C191.886 159.1 193.286 156.2 194.986 153.5C196.386 151.3 197.886 149.2 199.786 147.4C199.886 147.3 199.986 147.2 200.086 147.1C200.986 146.2 201.786 146.4 202.986 146.8ZM195.086 171.3L194.886 171.6C194.586 172.4 194.286 173.1 194.386 174C194.386 174.3 194.186 174.5 193.986 174.7C193.186 175.7 190.986 176 189.786 175.3C189.186 174.9 188.786 174.4 188.686 173.7C188.586 171.7 189.386 170.1 190.986 168.9C191.486 168.5 192.286 168.5 192.986 168.6C193.386 168.6 193.786 168.7 194.086 168.9C195.286 169.4 195.586 170.2 195.086 171.3Z" fill="white"/>
</g>
<g filter="url(#filter3_i_47_722)">
<path d="M137.211 271.3C137.211 270.8 137.111 270.5 137.211 270.2C137.511 261 137.911 251.8 139.311 242.7C139.511 241.4 139.311 240.5 138.111 239.8C133.311 237.3 128.311 236.8 123.211 238.4C121.811 238.8 121.011 239.7 120.611 241.1C120.411 241.7 120.211 242.4 120.011 243.1C118.711 247.9 118.111 252.8 117.711 257.6C116.711 267.9 116.811 278.2 117.711 288.4C118.211 295 119.311 301.4 121.211 307.7C121.911 310.1 122.811 312.5 124.311 314.5C126.011 316.8 128.011 317.6 130.811 316.9C134.711 315.9 137.311 313.4 139.111 309.8C139.511 309.1 139.511 308.4 139.211 307.6C138.711 306.5 138.411 305.4 138.211 304.3C137.311 299.7 136.711 295.1 136.611 290.4C136.611 288.6 136.611 288.6 138.411 288C143.111 286.6 147.911 286 152.811 286.1C154.211 286.1 154.311 286.1 154.411 287.6C154.911 291 155.411 294.4 156.211 297.7C157.111 301 158.311 304.2 160.211 307.1C161.711 309.5 163.811 311.1 166.611 311.9C170.311 312.9 174.611 311.6 176.611 308.8C177.211 307.8 177.411 306.9 176.811 305.9C174.811 302.7 174.211 299 173.711 295.4C172.311 283.9 172.711 272.5 173.611 261.1C174.111 255 174.711 248.9 175.311 242.8C175.511 240.2 175.211 239.6 172.811 238.6C168.611 236.6 164.311 236.7 160.011 238.4C158.211 239 156.911 240.1 156.911 242.1C156.911 242.6 156.711 243 156.611 243.5C155.111 251.9 154.311 260.5 153.911 269.1C153.911 269.5 154.011 270 153.511 270.5C148.211 269.4 142.811 269.9 137.211 271.3ZM128.711 242C129.911 242.1 131.111 242.6 132.011 243.7C132.411 244.2 132.511 244.6 132.311 245.3C130.611 249.6 129.711 254 129.611 258.6C129.611 259.6 129.711 260.6 130.011 261.6C130.211 261.9 130.011 262.2 129.911 262.5C129.511 263.8 128.611 264.6 127.211 265.1C126.011 265.5 124.911 265.2 124.311 264.1C123.711 263.1 123.511 261.9 123.411 260.8C123.011 257.5 123.211 254.3 123.811 251.1C124.211 248.6 124.911 246.1 126.011 243.7C126.011 243.6 126.111 243.4 126.211 243.3C126.611 242.2 127.411 242 128.711 242ZM130.511 267.6V268C130.411 268.8 130.411 269.6 130.811 270.4C131.011 270.7 130.811 271 130.811 271.2C130.311 272.5 128.511 273.6 127.011 273.3C126.311 273.2 125.811 272.9 125.511 272.3C124.611 270.5 124.711 268.7 125.711 267C126.111 266.4 126.811 266.1 127.611 265.9C127.911 265.8 128.311 265.8 128.611 265.8C130.011 265.8 130.611 266.4 130.511 267.6ZM177.262 289.1C177.262 294.5 178.262 299.3 180.962 303.6C183.062 307 185.862 309.8 189.962 310.8C198.862 313 207.362 307 210.262 300.7C210.462 300 210.662 299.3 210.662 298.6C210.762 297.4 210.162 296.3 209.262 296C208.162 295.8 207.562 296.6 206.962 297.3C206.062 298.5 205.162 299.7 203.862 300.5C202.062 301.6 200.062 302.1 197.862 301.1C196.262 300.4 195.262 299.1 194.562 297.6C193.362 295 193.062 292.2 193.362 289.4C193.362 288.8 193.662 288.7 194.162 288.8C197.462 289 200.562 288.1 203.362 286.4C207.962 283.7 211.162 279.9 211.662 274.4C212.362 267.5 206.962 259.8 197.462 261.2C191.762 262.1 187.262 264.9 183.762 269.5C179.362 275.4 177.462 282.1 177.262 289.1ZM194.662 284C196.062 280.9 197.962 278.2 201.362 277C201.762 276.8 202.162 276.8 202.462 276.7C203.162 276.7 203.962 276.5 204.362 277.3C204.762 278 204.462 278.7 204.062 279.4C203.262 280.5 202.162 281.3 201.062 282C199.262 283.1 197.262 283.8 195.262 284.1C195.062 284.1 194.962 284.2 194.662 284ZM195.662 266.8C196.762 267.4 197.662 268.3 198.062 269.6C198.262 270.2 198.162 270.7 197.762 271.2C194.562 274.6 192.062 278.3 190.362 282.6C189.962 283.5 189.662 284.5 189.562 285.5C189.562 285.8 189.362 286 189.162 286.3C188.262 287.3 187.162 287.8 185.662 287.7C184.362 287.6 183.562 286.9 183.362 285.7C183.162 284.5 183.362 283.4 183.662 282.3C184.562 279.1 185.962 276.2 187.662 273.5C189.062 271.3 190.562 269.2 192.462 267.4C192.562 267.3 192.662 267.2 192.762 267.1C193.662 266.2 194.462 266.4 195.662 266.8ZM187.762 291.3L187.562 291.6C187.262 292.4 186.962 293.1 187.062 294C187.062 294.3 186.862 294.5 186.662 294.7C185.862 295.7 183.662 296 182.462 295.3C181.862 294.9 181.462 294.4 181.362 293.7C181.262 291.7 182.062 290.1 183.662 288.9C184.162 288.5 184.962 288.5 185.662 288.6C186.062 288.6 186.462 288.7 186.762 288.9C187.962 289.4 188.262 290.2 187.762 291.3ZM258.909 288.1C259.009 281.5 259.109 274.9 258.809 268.4C258.709 266.2 257.709 265 255.409 264.6C252.809 264.1 250.309 264.5 248.009 266.1C247.509 266.4 247.209 266.4 246.809 266C245.709 265 244.509 264 243.209 263.4C237.509 260.6 232.009 261.3 226.809 264.6C222.109 267.5 218.709 271.7 216.309 276.6C212.809 284 211.809 291.7 214.109 299.6C217.309 310.3 226.709 313.4 235.509 310.8C238.709 309.9 241.109 307.8 243.209 305.3C243.709 304.7 244.009 304.6 244.309 305.4C244.709 306.2 245.109 306.9 245.509 307.7C247.809 311.3 252.809 313 256.709 311.5C258.309 310.8 258.909 310 258.909 308.3C258.909 301.5 258.809 294.8 258.909 288.1ZM233.109 289.1C233.409 284.9 235.409 280.6 239.309 277.3C240.009 276.7 240.709 276.3 241.509 276.2C242.209 276.2 242.609 276.3 242.409 277.1C241.009 282.2 241.009 287.4 241.209 292.6C241.209 294.2 239.809 296.1 238.209 296.6C236.909 297 235.509 296.3 234.509 294.7C233.709 293.5 233.209 291.9 233.109 289.1ZM236.909 265.9C237.909 266.7 238.609 267.8 238.809 269.1C238.909 269.7 238.809 270.2 238.209 270.6C234.609 273.4 231.509 276.7 229.109 280.6C228.509 281.5 228.109 282.4 227.909 283.4C227.809 283.7 227.509 283.9 227.309 284.1C226.309 285 225.109 285.2 223.709 284.9C222.409 284.7 221.709 283.8 221.709 282.6C221.709 281.4 222.109 280.3 222.609 279.2C223.909 276.3 225.809 273.6 228.009 271.2C229.709 269.3 231.509 267.5 233.709 266C233.809 265.9 233.909 265.9 234.109 265.8C235.009 265 235.809 265.3 236.909 265.9ZM225.109 288.8L224.909 289.1C224.509 289.8 224.009 290.5 224.009 291.4C224.009 291.7 223.709 291.8 223.509 292C222.509 292.9 220.309 292.8 219.209 291.9C218.709 291.4 218.409 290.8 218.409 290.2C218.609 288.1 219.709 286.7 221.409 285.8C222.009 285.4 222.809 285.6 223.509 285.8C223.909 285.9 224.209 286.1 224.509 286.2C225.609 287 225.809 287.8 225.109 288.8ZM280.14 240.3C275.74 240.7 272.74 242.3 270.74 246C268.64 250 266.94 254.1 265.44 258.4C261.44 269.4 260.54 280.8 262.64 292.3C263.54 297.3 265.34 302 268.74 305.9C272.04 309.7 276.14 312.3 281.34 312.6C284.54 312.7 287.74 311.9 290.14 309.7C294.64 305.6 294.94 298.9 291.14 294.2C290.84 293.8 290.44 293.6 290.04 293.4C289.04 292.9 288.34 293.4 288.34 294.5C288.44 295.9 287.94 296.6 286.84 296.9C285.94 297.1 284.94 296.6 284.44 295.4C284.14 294.6 283.74 293.7 283.54 292.8C281.24 283.9 281.74 275 283.84 266.1C285.14 260.6 286.94 255.4 290.04 250.7C291.24 248.9 291.24 247.1 290.04 245.4C287.64 241.7 283.94 240.5 280.14 240.3ZM281.24 245.5C282.34 246 283.44 246.7 283.94 247.9C284.24 248.5 284.24 249 283.84 249.6C281.14 253.3 279.14 257.4 277.94 261.8C277.74 262.8 277.54 263.8 277.64 264.8C277.64 265.2 277.44 265.4 277.24 265.7C276.54 266.8 275.44 267.4 274.04 267.5C272.74 267.6 271.84 267 271.44 265.8C271.14 264.7 271.24 263.5 271.34 262.4C271.84 259.2 272.84 256.1 274.14 253.1C275.24 250.8 276.54 248.5 278.14 246.5C278.24 246.4 278.34 246.3 278.44 246.2C279.14 245.2 280.04 245.2 281.24 245.5ZM276.54 270.8L276.44 271.2C276.24 271.9 276.04 272.7 276.24 273.6C276.24 273.9 276.04 274.1 275.94 274.3C275.24 275.5 273.14 276 271.74 275.5C271.14 275.2 270.74 274.7 270.54 274.1C270.14 272.1 270.74 270.4 272.14 269C272.64 268.5 273.44 268.4 274.14 268.4C274.54 268.4 274.94 268.4 275.24 268.5C276.54 268.9 276.94 269.7 276.54 270.8ZM323.436 294.2C323.236 293.9 322.936 293.7 322.536 293.5C322.136 293.3 321.736 293 321.236 293.3C320.836 293.6 320.736 294.1 320.836 294.6C320.936 295.4 320.736 296.1 320.136 296.5C319.036 297.3 317.836 296.9 317.136 295.7C316.536 294.5 316.236 293.2 315.936 292C314.336 285.3 314.336 278.6 315.136 271.9C315.436 270.3 315.436 270.3 317.036 270.1C318.736 270 320.436 269.8 322.136 269.1C322.836 268.7 323.136 268.2 323.236 267.3C323.236 266 322.436 265.4 321.536 264.8C320.336 264.1 318.936 263.8 317.636 263.5C317.036 263.4 316.836 263.2 317.036 262.6C318.236 258.4 319.736 254.3 322.036 250.6C323.236 248.8 323.036 247.1 322.036 245.4C320.336 242.6 317.836 241.3 314.836 240.6C311.036 239.9 305.836 241.2 303.436 246.3C301.036 251.2 299.036 256.3 297.736 261.7C297.336 263.2 296.736 264.1 295.136 264.2C293.836 264.2 292.736 264.8 291.736 265.7C290.536 266.8 290.636 268.3 292.036 269.3C292.836 269.8 293.736 270.3 294.736 270.2C295.636 270.2 295.836 270.6 295.636 271.4C295.036 275.8 294.836 280.2 295.136 284.7C295.236 287.3 295.536 289.9 296.036 292.5C297.136 297.5 298.736 302.2 302.136 306.1C305.336 309.8 309.236 312.4 314.136 312.6C317.336 312.7 320.336 311.9 322.636 309.6C326.836 305.5 327.136 298.9 323.436 294.2ZM313.536 246.1C314.736 246.5 315.836 247.3 316.436 248.4C316.736 249 316.636 249.5 316.336 250.1C313.736 253.9 311.836 258 310.836 262.5C310.536 263.5 310.436 264.5 310.536 265.5C310.636 265.8 310.336 266.1 310.236 266.3C309.536 267.5 308.436 268.1 307.036 268.3C305.736 268.4 304.736 267.9 304.436 266.7C304.036 265.5 304.036 264.4 304.236 263.2C304.536 260 305.536 256.9 306.736 253.9C307.836 251.5 308.936 249.2 310.536 247.1C310.636 247 310.736 246.9 310.836 246.8C311.536 245.8 312.336 245.8 313.536 246.1ZM309.636 271.5L309.536 271.9C309.336 272.6 309.136 273.4 309.336 274.3C309.436 274.6 309.236 274.8 309.136 275C308.436 276.2 306.336 276.8 305.036 276.3C304.336 276 303.936 275.6 303.736 274.9C303.236 272.9 303.836 271.2 305.136 269.8C305.636 269.3 306.436 269.2 307.236 269.1C307.536 269.1 307.936 269.2 308.236 269.3C309.536 269.6 309.936 270.3 309.636 271.5ZM344.532 271.8C344.532 269.2 344.432 266.5 344.632 263.9C344.832 261.8 343.732 260.9 342.032 260.2C338.032 258.7 334.932 259.5 332.632 263.3C331.332 265.5 330.932 268 330.432 270.4C328.332 281.1 327.932 291.9 329.532 302.6C330.032 306 330.832 309.4 332.632 312.4C333.932 314.7 335.932 315.6 338.532 315.4C340.432 315.2 341.932 314.2 343.132 312.8C343.932 311.8 344.132 310.5 344.132 309.2L344.432 294C344.432 293.5 344.332 293 345.032 293C347.732 292.6 350.432 292.4 353.132 292.6C353.932 292.6 354.232 292.9 354.232 293.8C354.232 298.1 354.632 302.3 355.732 306.5C356.232 308.4 356.832 310.2 358.032 311.8C358.632 312.7 359.432 313.3 360.432 313.6C364.532 314.8 369.432 311.2 369.532 306.9L370.532 279.2C370.732 274.2 371.132 269.1 371.232 264.1C371.232 262.5 370.532 261.4 369.332 260.6C367.732 259.6 366.032 259.2 364.132 259.2C360.332 259.1 358.632 260.4 357.532 264L357.332 264.6C355.832 269.8 354.932 275.1 354.532 280.4C354.432 281.3 354.332 281.7 353.232 281.5C350.632 281 348.032 281.1 345.532 281.7C344.732 281.9 344.532 281.8 344.532 281C344.632 277.9 344.632 274.9 344.532 271.8ZM364.432 263.8C365.632 263.9 366.832 264.4 367.732 265.5C368.132 266 368.232 266.4 368.032 267.1C366.332 271.4 365.432 275.8 365.332 280.4C365.332 281.4 365.432 282.4 365.732 283.4C365.932 283.7 365.732 284 365.632 284.3C365.232 285.6 364.332 286.4 362.932 286.9C361.732 287.3 360.632 287 360.032 285.9C359.432 284.9 359.232 283.7 359.132 282.6C358.732 279.3 358.932 276.1 359.532 272.9C359.932 270.4 360.632 267.9 361.732 265.5C361.732 265.4 361.832 265.2 361.932 265.1C362.332 264 363.132 263.8 364.432 263.8ZM366.232 289.4V289.8C366.132 290.6 366.132 291.4 366.532 292.2C366.732 292.5 366.532 292.8 366.532 293C366.032 294.3 364.232 295.4 362.732 295.1C362.032 295 361.532 294.7 361.232 294.1C360.332 292.3 360.432 290.5 361.432 288.8C361.832 288.2 362.532 287.9 363.332 287.7C363.632 287.6 364.032 287.6 364.332 287.6C365.732 287.6 366.332 288.2 366.232 289.4ZM398.047 285.2C398.347 285.3 398.247 285.6 398.247 285.8C398.847 289.2 398.147 292.4 397.147 295.6C396.147 298.9 394.747 301.9 392.147 304.3C389.647 306.6 385.347 306.6 382.847 304.3C382.047 303.5 381.247 303.5 380.547 304.4C379.647 305.3 379.447 306.3 379.647 307.6C380.447 311.6 383.147 313.8 386.947 314.8C392.747 316.2 397.947 314.6 402.447 310.7C405.347 308.2 407.447 305 409.147 301.5C412.947 293.1 413.747 284.3 412.047 275.2C411.247 271 409.847 266.9 407.547 263.2C407.247 262.8 407.047 262.4 406.547 262.2C403.347 261.2 399.147 263.8 398.747 267.2C398.547 268.2 398.447 269.2 398.147 270.1C396.847 275 394.547 279.5 391.547 283.6C391.147 284.1 390.647 285.3 390.047 285.1C389.447 284.9 389.447 283.8 389.247 283C388.247 276.8 389.247 271 392.547 265.7C393.147 264.8 393.047 264.2 392.347 263.6C389.847 261.2 386.947 260.1 383.547 260.3C381.347 260.4 379.647 261.4 378.647 263.3C378.147 264.3 377.547 265.1 377.147 266.1C373.947 273.7 373.047 281.5 374.347 289.6C374.847 292.7 375.847 295.6 377.947 298C380.147 300.4 382.747 300.9 385.647 299.5C387.847 298.4 389.647 296.9 391.247 295.1C393.647 292.3 395.747 289.2 397.547 285.9C397.647 285.7 397.747 285.3 398.047 285.2ZM384.447 264.1C385.647 264.2 386.847 264.7 387.747 265.8C388.147 266.3 388.247 266.7 388.047 267.4C386.347 271.7 385.447 276.1 385.347 280.7C385.347 281.7 385.447 282.7 385.747 283.7C385.947 284 385.747 284.3 385.647 284.6C385.247 285.9 384.347 286.7 382.947 287.2C381.747 287.6 380.647 287.3 380.047 286.2C379.447 285.2 379.247 284 379.147 282.9C378.747 279.6 378.947 276.4 379.547 273.2C379.947 270.7 380.647 268.2 381.747 265.8C381.747 265.7 381.847 265.5 381.947 265.4C382.347 264.3 383.147 264.1 384.447 264.1ZM386.247 289.7V290.1C386.147 290.9 386.147 291.7 386.547 292.5C386.747 292.8 386.547 293.1 386.547 293.3C386.047 294.6 384.247 295.7 382.747 295.4C382.047 295.3 381.547 295 381.247 294.4C380.347 292.6 380.447 290.8 381.447 289.1C381.847 288.5 382.547 288.2 383.347 288C383.647 287.9 384.047 287.9 384.347 287.9C385.747 287.9 386.347 288.5 386.247 289.7Z" fill="white"/>
</g>
<defs>
<filter id="filter0_if_47_722" x="0" y="0" width="524" height="422" filterUnits="userSpaceOnUse" color-interpolation-filters="sRGB">
<feFlood flood-opacity="0" result="BackgroundImageFix"/>
<feBlend mode="normal" in="SourceGraphic" in2="BackgroundImageFix" result="shape"/>
<feColorMatrix in="SourceAlpha" type="matrix" values="0 0 0 0 0 0 0 0 0 0 0 0 0 0 0 0 0 0 127 0" result="hardAlpha"/>
<feOffset/>
<feGaussianBlur stdDeviation="4"/>
<feComposite in2="hardAlpha" operator="arithmetic" k2="-1" k3="1"/>
<feColorMatrix type="matrix" values="0 0 0 0 0 0 0 0 0 0.501961 0 0 0 0 0 0 0 0 1 0"/>
<feBlend mode="normal" in2="shape" result="effect1_innerShadow_47_722"/>
<feGaussianBlur stdDeviation="12" result="effect2_foregroundBlur_47_722"/>
</filter>
<filter id="filter1_i_47_722" x="251" y="73.4512" width="123" height="141.097" filterUnits="userSpaceOnUse" color-interpolation-filters="sRGB">
<feFlood flood-opacity="0" result="BackgroundImageFix"/>
<feBlend mode="normal" in="SourceGraphic" in2="BackgroundImageFix" result="shape"/>
<feColorMatrix in="SourceAlpha" type="matrix" values="0 0 0 0 0 0 0 0 0 0 0 0 0 0 0 0 0 0 127 0" result="hardAlpha"/>
<feOffset dy="4"/>
<feGaussianBlur stdDeviation="2"/>
<feComposite in2="hardAlpha" operator="arithmetic" k2="-1" k3="1"/>
<feColorMatrix type="matrix" values="0 0 0 0 0.309804 0 0 0 0 0.309804 0 0 0 0 0.309804 0 0 0 1 0"/>
<feBlend mode="normal" in2="shape" result="effect1_innerShadow_47_722"/>
</filter>
<filter id="filter2_i_47_722" x="116.71" y="116.4" width="102.976" height="83.5" filterUnits="userSpaceOnUse" color-interpolation-filters="sRGB">
<feFlood flood-opacity="0" result="BackgroundImageFix"/>
<feBlend mode="normal" in="SourceGraphic" in2="BackgroundImageFix" result="shape"/>
<feColorMatrix in="SourceAlpha" type="matrix" values="0 0 0 0 0 0 0 0 0 0 0 0 0 0 0 0 0 0 127 0" result="hardAlpha"/>
<feOffset dy="4"/>
<feGaussianBlur stdDeviation="2"/>
<feComposite in2="hardAlpha" operator="arithmetic" k2="-1" k3="1"/>
<feColorMatrix type="matrix" values="0 0 0 0 0.309804 0 0 0 0 0.309804 0 0 0 0 0.309804 0 0 0 1 0"/>
<feBlend mode="normal" in2="shape" result="effect1_innerShadow_47_722"/>
</filter>
<filter id="filter3_i_47_722" x="116.71" y="236.6" width="297.036" height="85" filterUnits="userSpaceOnUse" color-interpolation-filters="sRGB">
<feFlood flood-opacity="0" result="BackgroundImageFix"/>
<feBlend mode="normal" in="SourceGraphic" in2="BackgroundImageFix" result="shape"/>
<feColorMatrix in="SourceAlpha" type="matrix" values="0 0 0 0 0 0 0 0 0 0 0 0 0 0 0 0 0 0 127 0" result="hardAlpha"/>
<feOffset dy="4"/>
<feGaussianBlur stdDeviation="2"/>
<feComposite in2="hardAlpha" operator="arithmetic" k2="-1" k3="1"/>
<feColorMatrix type="matrix" values="0 0 0 0 0.309804 0 0 0 0 0.309804 0 0 0 0 0.309804 0 0 0 1 0"/>
<feBlend mode="normal" in2="shape" result="effect1_innerShadow_47_722"/>
</filter>
</defs>
</svg>
